%TF.GenerationSoftware,KiCad,Pcbnew,(6.0.2-0)*%
%TF.CreationDate,2022-08-16T00:40:28+09:00*%
%TF.ProjectId,keyplate,6b657970-6c61-4746-952e-6b696361645f,rev?*%
%TF.SameCoordinates,Original*%
%TF.FileFunction,Profile,NP*%
%FSLAX46Y46*%
G04 Gerber Fmt 4.6, Leading zero omitted, Abs format (unit mm)*
G04 Created by KiCad (PCBNEW (6.0.2-0)) date 2022-08-16 00:40:28*
%MOMM*%
%LPD*%
G01*
G04 APERTURE LIST*
%TA.AperFunction,Profile*%
%ADD10C,0.353780*%
%TD*%
G04 APERTURE END LIST*
D10*
X105492095Y-92982963D02*
X105580407Y-92982963D01*
X105228489Y-93127800D02*
X105492095Y-92982963D01*
X105081657Y-93391672D02*
X105228489Y-93127800D01*
X105081657Y-93481447D02*
X105081657Y-93391672D01*
X105077800Y-107944027D02*
X105081657Y-93481447D01*
X105077800Y-108444386D02*
X105077800Y-107944027D01*
X105077800Y-108532352D02*
X105077800Y-108444386D01*
X105222770Y-108796277D02*
X105077800Y-108532352D01*
X105486509Y-108942896D02*
X105222770Y-108796277D01*
X105576550Y-108942896D02*
X105486509Y-108942896D01*
X135364826Y-108942896D02*
X105576550Y-108942896D01*
X135451143Y-108942896D02*
X135364826Y-108942896D01*
X135714882Y-108796277D02*
X135451143Y-108942896D01*
X135863576Y-108532352D02*
X135714882Y-108796277D01*
X135863576Y-108444386D02*
X135863576Y-108532352D01*
X135863576Y-93481447D02*
X135863576Y-108444386D01*
X135863576Y-93391672D02*
X135863576Y-93481447D01*
X135714882Y-93127800D02*
X135863576Y-93391672D01*
X135451143Y-92982963D02*
X135714882Y-93127800D01*
X135364826Y-92982963D02*
X135451143Y-92982963D01*
X129378895Y-92982963D02*
X135364826Y-92982963D01*
X129291115Y-92982963D02*
X129378895Y-92982963D01*
X129026977Y-93127800D02*
X129291115Y-92982963D01*
X128880544Y-93391672D02*
X129026977Y-93127800D01*
X128880544Y-93481447D02*
X128880544Y-93391672D01*
X128880544Y-94978894D02*
X128880544Y-93481447D01*
X112048197Y-94978894D02*
X128880544Y-94978894D01*
X112048197Y-93481447D02*
X112048197Y-94978894D01*
X112048197Y-93391672D02*
X112048197Y-93481447D01*
X111899503Y-93127800D02*
X112048197Y-93391672D01*
X111635764Y-92982963D02*
X111899503Y-93127800D01*
X111547585Y-92982963D02*
X111635764Y-92982963D01*
X105580407Y-92982963D02*
X111547585Y-92982963D01*
X181501462Y-92982963D02*
X181589242Y-92982963D01*
X181238122Y-93127800D02*
X181501462Y-92982963D01*
X181090492Y-93391672D02*
X181238122Y-93127800D01*
X181090492Y-93481447D02*
X181090492Y-93391672D01*
X181087832Y-107944027D02*
X181090492Y-93481447D01*
X181087832Y-108444386D02*
X181087832Y-107944027D01*
X181087832Y-108532352D02*
X181087832Y-108444386D01*
X181232802Y-108796277D02*
X181087832Y-108532352D01*
X181496142Y-108942896D02*
X181232802Y-108796277D01*
X181586582Y-108942896D02*
X181496142Y-108942896D01*
X211374592Y-108942896D02*
X181586582Y-108942896D01*
X211461042Y-108942896D02*
X211374592Y-108942896D01*
X211724382Y-108796277D02*
X211461042Y-108942896D01*
X211873342Y-108532352D02*
X211724382Y-108796277D01*
X211873342Y-108444386D02*
X211873342Y-108532352D01*
X211873342Y-93481447D02*
X211873342Y-108444386D01*
X211873342Y-93391672D02*
X211873342Y-93481447D01*
X211724382Y-93127800D02*
X211873342Y-93391672D01*
X211461042Y-92982963D02*
X211724382Y-93127800D01*
X211374592Y-92982963D02*
X211461042Y-92982963D01*
X205388262Y-92982963D02*
X211374592Y-92982963D01*
X205300482Y-92982963D02*
X205388262Y-92982963D01*
X205035812Y-93127800D02*
X205300482Y-92982963D01*
X204889512Y-93391672D02*
X205035812Y-93127800D01*
X204889512Y-93481447D02*
X204889512Y-93391672D01*
X204889512Y-94978894D02*
X204889512Y-93481447D01*
X188058362Y-94978894D02*
X204889512Y-94978894D01*
X188058362Y-93481447D02*
X188058362Y-94978894D01*
X188058362Y-93391672D02*
X188058362Y-93481447D01*
X187909402Y-93127800D02*
X188058362Y-93391672D01*
X187644732Y-92982963D02*
X187909402Y-93127800D01*
X187556952Y-92982963D02*
X187644732Y-92982963D01*
X181589242Y-92982963D02*
X187556952Y-92982963D01*
X127447203Y-32515577D02*
X127447203Y-32427398D01*
X127298908Y-32779316D02*
X127447203Y-32515577D01*
X127034770Y-32928010D02*
X127298908Y-32779316D01*
X126948852Y-32928010D02*
X127034770Y-32928010D01*
X113979889Y-32928010D02*
X126948852Y-32928010D01*
X113891710Y-32928010D02*
X113979889Y-32928010D01*
X113627971Y-32779316D02*
X113891710Y-32928010D01*
X113481139Y-32515577D02*
X113627971Y-32779316D01*
X113481139Y-32427398D02*
X113481139Y-32515577D01*
X113481139Y-19460696D02*
X113481139Y-32427398D01*
X113481139Y-19372517D02*
X113481139Y-19460696D01*
X113627971Y-19108911D02*
X113481139Y-19372517D01*
X113891710Y-18963941D02*
X113627971Y-19108911D01*
X113979889Y-18963941D02*
X113891710Y-18963941D01*
X126948852Y-18963941D02*
X113979889Y-18963941D01*
X127034770Y-18963941D02*
X126948852Y-18963941D01*
X127298908Y-19108911D02*
X127034770Y-18963941D01*
X127447203Y-19372517D02*
X127298908Y-19108911D01*
X127447203Y-19460696D02*
X127447203Y-19372517D01*
X127447203Y-32427398D02*
X127447203Y-19460696D01*
X184454062Y-32515577D02*
X184454062Y-32427398D01*
X184306432Y-32779316D02*
X184454062Y-32515577D01*
X184041762Y-32928010D02*
X184306432Y-32779316D01*
X183956642Y-32928010D02*
X184041762Y-32928010D01*
X170986482Y-32928010D02*
X183956642Y-32928010D01*
X170898702Y-32928010D02*
X170986482Y-32928010D01*
X170635362Y-32779316D02*
X170898702Y-32928010D01*
X170487732Y-32515577D02*
X170635362Y-32779316D01*
X170487732Y-32427398D02*
X170487732Y-32515577D01*
X170487732Y-19460696D02*
X170487732Y-32427398D01*
X170487732Y-19372517D02*
X170487732Y-19460696D01*
X170635362Y-19108911D02*
X170487732Y-19372517D01*
X170898702Y-18963941D02*
X170635362Y-19108911D01*
X170986482Y-18963941D02*
X170898702Y-18963941D01*
X183956642Y-18963941D02*
X170986482Y-18963941D01*
X184041762Y-18963941D02*
X183956642Y-18963941D01*
X184306432Y-19108911D02*
X184041762Y-18963941D01*
X184454062Y-19372517D02*
X184306432Y-19108911D01*
X184454062Y-19460696D02*
X184454062Y-19372517D01*
X184454062Y-32427398D02*
X184454062Y-19460696D01*
X146449578Y-32515577D02*
X146449578Y-32427398D01*
X146301283Y-32779316D02*
X146449578Y-32515577D01*
X146037145Y-32928010D02*
X146301283Y-32779316D01*
X145951227Y-32928010D02*
X146037145Y-32928010D01*
X132982264Y-32928010D02*
X145951227Y-32928010D01*
X132894085Y-32928010D02*
X132982264Y-32928010D01*
X132630346Y-32779316D02*
X132894085Y-32928010D01*
X132483514Y-32515577D02*
X132630346Y-32779316D01*
X132483514Y-32427398D02*
X132483514Y-32515577D01*
X132483514Y-19460696D02*
X132483514Y-32427398D01*
X132483514Y-19372517D02*
X132483514Y-19460696D01*
X132630346Y-19108911D02*
X132483514Y-19372517D01*
X132894085Y-18963941D02*
X132630346Y-19108911D01*
X132982264Y-18963941D02*
X132894085Y-18963941D01*
X145951227Y-18963941D02*
X132982264Y-18963941D01*
X146037145Y-18963941D02*
X145951227Y-18963941D01*
X146301283Y-19108911D02*
X146037145Y-18963941D01*
X146449578Y-19372517D02*
X146301283Y-19108911D01*
X146449578Y-19460696D02*
X146449578Y-19372517D01*
X146449578Y-32427398D02*
X146449578Y-19460696D01*
X108444828Y-32515577D02*
X108444828Y-32427398D01*
X108296533Y-32779316D02*
X108444828Y-32515577D01*
X108032395Y-32928010D02*
X108296533Y-32779316D01*
X107946477Y-32928010D02*
X108032395Y-32928010D01*
X94977514Y-32928010D02*
X107946477Y-32928010D01*
X94889335Y-32928010D02*
X94977514Y-32928010D01*
X94625596Y-32779316D02*
X94889335Y-32928010D01*
X94478764Y-32515577D02*
X94625596Y-32779316D01*
X94478764Y-32427398D02*
X94478764Y-32515577D01*
X94478764Y-19460696D02*
X94478764Y-32427398D01*
X94478764Y-19372517D02*
X94478764Y-19460696D01*
X94625596Y-19108911D02*
X94478764Y-19372517D01*
X94889335Y-18963941D02*
X94625596Y-19108911D01*
X94977514Y-18963941D02*
X94889335Y-18963941D01*
X107946477Y-18963941D02*
X94977514Y-18963941D01*
X108032395Y-18963941D02*
X107946477Y-18963941D01*
X108296533Y-19108911D02*
X108032395Y-18963941D01*
X108444828Y-19372517D02*
X108296533Y-19108911D01*
X108444828Y-19460696D02*
X108444828Y-19372517D01*
X108444828Y-32427398D02*
X108444828Y-19460696D01*
X260463562Y-32515577D02*
X260463562Y-32427398D01*
X260315932Y-32779316D02*
X260463562Y-32515577D01*
X260051262Y-32928010D02*
X260315932Y-32779316D01*
X259966142Y-32928010D02*
X260051262Y-32928010D01*
X246995982Y-32928010D02*
X259966142Y-32928010D01*
X246908202Y-32928010D02*
X246995982Y-32928010D01*
X246644862Y-32779316D02*
X246908202Y-32928010D01*
X246497232Y-32515577D02*
X246644862Y-32779316D01*
X246497232Y-32427398D02*
X246497232Y-32515577D01*
X246497232Y-19460696D02*
X246497232Y-32427398D01*
X246497232Y-19372517D02*
X246497232Y-19460696D01*
X246644862Y-19108911D02*
X246497232Y-19372517D01*
X246908202Y-18963941D02*
X246644862Y-19108911D01*
X246995982Y-18963941D02*
X246908202Y-18963941D01*
X259966142Y-18963941D02*
X246995982Y-18963941D01*
X260051262Y-18963941D02*
X259966142Y-18963941D01*
X260315932Y-19108911D02*
X260051262Y-18963941D01*
X260463562Y-19372517D02*
X260315932Y-19108911D01*
X260463562Y-19460696D02*
X260463562Y-19372517D01*
X260463562Y-32427398D02*
X260463562Y-19460696D01*
X241461852Y-32515577D02*
X241461852Y-32427398D01*
X241312892Y-32779316D02*
X241461852Y-32515577D01*
X241049552Y-32928010D02*
X241312892Y-32779316D01*
X240963102Y-32928010D02*
X241049552Y-32928010D01*
X227994272Y-32928010D02*
X240963102Y-32928010D01*
X227906492Y-32928010D02*
X227994272Y-32928010D01*
X227641822Y-32779316D02*
X227906492Y-32928010D01*
X227495522Y-32515577D02*
X227641822Y-32779316D01*
X227495522Y-32427398D02*
X227495522Y-32515577D01*
X227495522Y-19460696D02*
X227495522Y-32427398D01*
X227495522Y-19372517D02*
X227495522Y-19460696D01*
X227641822Y-19108911D02*
X227495522Y-19372517D01*
X227906492Y-18963941D02*
X227641822Y-19108911D01*
X227994272Y-18963941D02*
X227906492Y-18963941D01*
X240963102Y-18963941D02*
X227994272Y-18963941D01*
X241049552Y-18963941D02*
X240963102Y-18963941D01*
X241312892Y-19108911D02*
X241049552Y-18963941D01*
X241461852Y-19372517D02*
X241312892Y-19108911D01*
X241461852Y-19460696D02*
X241461852Y-19372517D01*
X241461852Y-32427398D02*
X241461852Y-19460696D01*
X203457102Y-32515577D02*
X203457102Y-32427398D01*
X203308142Y-32779316D02*
X203457102Y-32515577D01*
X203044802Y-32928010D02*
X203308142Y-32779316D01*
X202958352Y-32928010D02*
X203044802Y-32928010D01*
X189989522Y-32928010D02*
X202958352Y-32928010D01*
X189901742Y-32928010D02*
X189989522Y-32928010D01*
X189637072Y-32779316D02*
X189901742Y-32928010D01*
X189490772Y-32515577D02*
X189637072Y-32779316D01*
X189490772Y-32427398D02*
X189490772Y-32515577D01*
X189490772Y-19460696D02*
X189490772Y-32427398D01*
X189490772Y-19372517D02*
X189490772Y-19460696D01*
X189637072Y-19108911D02*
X189490772Y-19372517D01*
X189901742Y-18963941D02*
X189637072Y-19108911D01*
X189989522Y-18963941D02*
X189901742Y-18963941D01*
X202958352Y-18963941D02*
X189989522Y-18963941D01*
X203044802Y-18963941D02*
X202958352Y-18963941D01*
X203308142Y-19108911D02*
X203044802Y-18963941D01*
X203457102Y-19372517D02*
X203308142Y-19108911D01*
X203457102Y-19460696D02*
X203457102Y-19372517D01*
X203457102Y-32427398D02*
X203457102Y-19460696D01*
X89442453Y-32515577D02*
X89442453Y-32427398D01*
X89294158Y-32779316D02*
X89442453Y-32515577D01*
X89030020Y-32928010D02*
X89294158Y-32779316D01*
X88944102Y-32928010D02*
X89030020Y-32928010D01*
X75975139Y-32928010D02*
X88944102Y-32928010D01*
X75886960Y-32928010D02*
X75975139Y-32928010D01*
X75623221Y-32779316D02*
X75886960Y-32928010D01*
X75476389Y-32515577D02*
X75623221Y-32779316D01*
X75476389Y-32427398D02*
X75476389Y-32515577D01*
X75476389Y-19460696D02*
X75476389Y-32427398D01*
X75476389Y-19372517D02*
X75476389Y-19460696D01*
X75623221Y-19108911D02*
X75476389Y-19372517D01*
X75886960Y-18963941D02*
X75623221Y-19108911D01*
X75975139Y-18963941D02*
X75886960Y-18963941D01*
X88944102Y-18963941D02*
X75975139Y-18963941D01*
X89030020Y-18963941D02*
X88944102Y-18963941D01*
X89294158Y-19108911D02*
X89030020Y-18963941D01*
X89442453Y-19372517D02*
X89294158Y-19108911D01*
X89442453Y-19460696D02*
X89442453Y-19372517D01*
X89442453Y-32427398D02*
X89442453Y-19460696D01*
X222458812Y-32515577D02*
X222458812Y-32427398D01*
X222311182Y-32779316D02*
X222458812Y-32515577D01*
X222046512Y-32928010D02*
X222311182Y-32779316D01*
X221961392Y-32928010D02*
X222046512Y-32928010D01*
X208991232Y-32928010D02*
X221961392Y-32928010D01*
X208903452Y-32928010D02*
X208991232Y-32928010D01*
X208640112Y-32779316D02*
X208903452Y-32928010D01*
X208492482Y-32515577D02*
X208640112Y-32779316D01*
X208492482Y-32427398D02*
X208492482Y-32515577D01*
X208492482Y-19460696D02*
X208492482Y-32427398D01*
X208492482Y-19372517D02*
X208492482Y-19460696D01*
X208640112Y-19108911D02*
X208492482Y-19372517D01*
X208903452Y-18963941D02*
X208640112Y-19108911D01*
X208991232Y-18963941D02*
X208903452Y-18963941D01*
X221961392Y-18963941D02*
X208991232Y-18963941D01*
X222046512Y-18963941D02*
X221961392Y-18963941D01*
X222311182Y-19108911D02*
X222046512Y-18963941D01*
X222458812Y-19372517D02*
X222311182Y-19108911D01*
X222458812Y-19460696D02*
X222458812Y-19372517D01*
X222458812Y-32427398D02*
X222458812Y-19460696D01*
X70440078Y-32515577D02*
X70440078Y-32427398D01*
X70291783Y-32779316D02*
X70440078Y-32515577D01*
X70027645Y-32928010D02*
X70291783Y-32779316D01*
X69941727Y-32928010D02*
X70027645Y-32928010D01*
X56972764Y-32928010D02*
X69941727Y-32928010D01*
X56884718Y-32928010D02*
X56972764Y-32928010D01*
X56620846Y-32779316D02*
X56884718Y-32928010D01*
X56474147Y-32515577D02*
X56620846Y-32779316D01*
X56474147Y-32427398D02*
X56474147Y-32515577D01*
X56474147Y-19460696D02*
X56474147Y-32427398D01*
X56474147Y-19372517D02*
X56474147Y-19460696D01*
X56620846Y-19108911D02*
X56474147Y-19372517D01*
X56884718Y-18963941D02*
X56620846Y-19108911D01*
X56972764Y-18963941D02*
X56884718Y-18963941D01*
X69941727Y-18963941D02*
X56972764Y-18963941D01*
X70027645Y-18963941D02*
X69941727Y-18963941D01*
X70291783Y-19108911D02*
X70027645Y-18963941D01*
X70440078Y-19372517D02*
X70291783Y-19108911D01*
X70440078Y-19460696D02*
X70440078Y-19372517D01*
X70440078Y-32427398D02*
X70440078Y-19460696D01*
X32435328Y-32515577D02*
X32435328Y-32427398D01*
X32286900Y-32779316D02*
X32435328Y-32515577D01*
X32023028Y-32928010D02*
X32286900Y-32779316D01*
X31936844Y-32928010D02*
X32023028Y-32928010D01*
X18967974Y-32928010D02*
X31936844Y-32928010D01*
X18880008Y-32928010D02*
X18967974Y-32928010D01*
X18616083Y-32779316D02*
X18880008Y-32928010D01*
X18469464Y-32515577D02*
X18616083Y-32779316D01*
X18469464Y-32427398D02*
X18469464Y-32515577D01*
X18469464Y-19460696D02*
X18469464Y-32427398D01*
X18469464Y-19372517D02*
X18469464Y-19460696D01*
X18616083Y-19108911D02*
X18469464Y-19372517D01*
X18880008Y-18963941D02*
X18616083Y-19108911D01*
X18967974Y-18963941D02*
X18880008Y-18963941D01*
X31936844Y-18963941D02*
X18967974Y-18963941D01*
X32023028Y-18963941D02*
X31936844Y-18963941D01*
X32286900Y-19108911D02*
X32023028Y-18963941D01*
X32435328Y-19372517D02*
X32286900Y-19108911D01*
X32435328Y-19460696D02*
X32435328Y-19372517D01*
X32435328Y-32427398D02*
X32435328Y-19460696D01*
X37882343Y-32928010D02*
X37970389Y-32928010D01*
X37618471Y-32779316D02*
X37882343Y-32928010D01*
X37471772Y-32515577D02*
X37618471Y-32779316D01*
X37471772Y-32427398D02*
X37471772Y-32515577D01*
X37471772Y-19460696D02*
X37471772Y-32427398D01*
X37471772Y-19372517D02*
X37471772Y-19460696D01*
X37618471Y-19108911D02*
X37471772Y-19372517D01*
X37882343Y-18963941D02*
X37618471Y-19108911D01*
X37970389Y-18963941D02*
X37882343Y-18963941D01*
X50939219Y-18963941D02*
X37970389Y-18963941D01*
X51025403Y-18963941D02*
X50939219Y-18963941D01*
X51289275Y-19108911D02*
X51025403Y-18963941D01*
X51437703Y-19372517D02*
X51289275Y-19108911D01*
X51437703Y-19460696D02*
X51437703Y-19372517D01*
X51437703Y-32427398D02*
X51437703Y-19460696D01*
X51437703Y-32515577D02*
X51437703Y-32427398D01*
X51289275Y-32779316D02*
X51437703Y-32515577D01*
X51025403Y-32928010D02*
X51289275Y-32779316D01*
X50939219Y-32928010D02*
X51025403Y-32928010D01*
X37970389Y-32928010D02*
X50939219Y-32928010D01*
X298468312Y-32522626D02*
X298468312Y-19366931D01*
X298468312Y-32594446D02*
X298468312Y-32522626D01*
X298349942Y-32808842D02*
X298468312Y-32594446D01*
X298134482Y-32928010D02*
X298349942Y-32808842D01*
X298063992Y-32928010D02*
X298134482Y-32928010D01*
X284907632Y-32928010D02*
X298063992Y-32928010D01*
X284834482Y-32928010D02*
X284907632Y-32928010D01*
X284620352Y-32808842D02*
X284834482Y-32928010D01*
X284501982Y-32594446D02*
X284620352Y-32808842D01*
X284501982Y-32522626D02*
X284501982Y-32594446D01*
X284501982Y-19366931D02*
X284501982Y-32522626D01*
X284501982Y-19295643D02*
X284501982Y-19366931D01*
X284620352Y-19081114D02*
X284501982Y-19295643D01*
X284834482Y-18963941D02*
X284620352Y-19081114D01*
X284907632Y-18963941D02*
X284834482Y-18963941D01*
X298063992Y-18963941D02*
X284907632Y-18963941D01*
X298134482Y-18963941D02*
X298063992Y-18963941D01*
X298349942Y-19081114D02*
X298134482Y-18963941D01*
X298468312Y-19295643D02*
X298349942Y-19081114D01*
X298468312Y-19366931D02*
X298468312Y-19295643D01*
X279466602Y-32522626D02*
X279466602Y-19366931D01*
X279466602Y-32594446D02*
X279466602Y-32522626D01*
X279346902Y-32808842D02*
X279466602Y-32594446D01*
X279132772Y-32928010D02*
X279346902Y-32808842D01*
X279060952Y-32928010D02*
X279132772Y-32928010D01*
X265905922Y-32928010D02*
X279060952Y-32928010D01*
X265831442Y-32928010D02*
X265905922Y-32928010D01*
X265617312Y-32808842D02*
X265831442Y-32928010D01*
X265500272Y-32594446D02*
X265617312Y-32808842D01*
X265500272Y-32522626D02*
X265500272Y-32594446D01*
X265500272Y-19366931D02*
X265500272Y-32522626D01*
X265500272Y-19295643D02*
X265500272Y-19366931D01*
X265617312Y-19081114D02*
X265500272Y-19295643D01*
X265831442Y-18963941D02*
X265617312Y-19081114D01*
X265905922Y-18963941D02*
X265831442Y-18963941D01*
X279060952Y-18963941D02*
X265905922Y-18963941D01*
X279132772Y-18963941D02*
X279060952Y-18963941D01*
X279346902Y-19081114D02*
X279132772Y-18963941D01*
X279466602Y-19295643D02*
X279346902Y-19081114D01*
X279466602Y-19366931D02*
X279466602Y-19295643D01*
X275701372Y-42211011D02*
X275468622Y-42211011D01*
X276399622Y-42397743D02*
X275701372Y-42211011D01*
X277160382Y-42911123D02*
X276399622Y-42397743D01*
X277673762Y-43671617D02*
X277160382Y-42911123D01*
X277862622Y-44369867D02*
X277673762Y-43671617D01*
X277862622Y-44602484D02*
X277862622Y-44369867D01*
X277862622Y-44835766D02*
X277862622Y-44602484D01*
X277673762Y-45533883D02*
X277862622Y-44835766D01*
X277160382Y-46296372D02*
X277673762Y-45533883D01*
X276399622Y-46811481D02*
X277160382Y-46296372D01*
X275701372Y-47000075D02*
X276399622Y-46811481D01*
X275468622Y-47000075D02*
X275701372Y-47000075D01*
X275234542Y-47000075D02*
X275468622Y-47000075D01*
X274536292Y-46811481D02*
X275234542Y-47000075D01*
X273775532Y-46296372D02*
X274536292Y-46811481D01*
X273262152Y-45533883D02*
X273775532Y-46296372D01*
X273075952Y-44835766D02*
X273262152Y-45533883D01*
X273075952Y-44602484D02*
X273075952Y-44835766D01*
X273075952Y-44369867D02*
X273075952Y-44602484D01*
X273262152Y-43671617D02*
X273075952Y-44369867D01*
X273775532Y-42911123D02*
X273262152Y-43671617D01*
X274536292Y-42397743D02*
X273775532Y-42911123D01*
X275234542Y-42211011D02*
X274536292Y-42397743D01*
X275468622Y-42211011D02*
X275234542Y-42211011D01*
X41685478Y-42211011D02*
X41452595Y-42211011D01*
X42383728Y-42397743D02*
X41685478Y-42211011D01*
X43144355Y-42911123D02*
X42383728Y-42397743D01*
X43657469Y-43671617D02*
X43144355Y-42911123D01*
X43846329Y-44369867D02*
X43657469Y-43671617D01*
X43846329Y-44602484D02*
X43846329Y-44369867D01*
X43846329Y-44835766D02*
X43846329Y-44602484D01*
X43657469Y-45533883D02*
X43846329Y-44835766D01*
X43144355Y-46296372D02*
X43657469Y-45533883D01*
X42383728Y-46811481D02*
X43144355Y-46296372D01*
X41685478Y-47000075D02*
X42383728Y-46811481D01*
X41452595Y-47000075D02*
X41685478Y-47000075D01*
X41218116Y-47000075D02*
X41452595Y-47000075D01*
X40519733Y-46811481D02*
X41218116Y-47000075D01*
X39759106Y-46296372D02*
X40519733Y-46811481D01*
X39245992Y-45533883D02*
X39759106Y-46296372D01*
X39058994Y-44835766D02*
X39245992Y-45533883D01*
X39058994Y-44602484D02*
X39058994Y-44835766D01*
X39058994Y-44369867D02*
X39058994Y-44602484D01*
X39245992Y-43671617D02*
X39058994Y-44369867D01*
X39759106Y-42911123D02*
X39245992Y-43671617D01*
X40519733Y-42397743D02*
X39759106Y-42911123D01*
X41218116Y-42211011D02*
X40519733Y-42397743D01*
X41452595Y-42211011D02*
X41218116Y-42211011D01*
X293725532Y-70520327D02*
X293725532Y-70432281D01*
X293579232Y-70784199D02*
X293725532Y-70520327D01*
X293314562Y-70932627D02*
X293579232Y-70784199D01*
X293226782Y-70932627D02*
X293314562Y-70932627D01*
X280259282Y-70932627D02*
X293226782Y-70932627D01*
X280171502Y-70932627D02*
X280259282Y-70932627D01*
X279908162Y-70784199D02*
X280171502Y-70932627D01*
X279761862Y-70520327D02*
X279908162Y-70784199D01*
X279761862Y-70432281D02*
X279761862Y-70520327D01*
X279761862Y-57465446D02*
X279761862Y-70432281D01*
X279761862Y-57377267D02*
X279761862Y-57465446D01*
X279908162Y-57113661D02*
X279761862Y-57377267D01*
X280171502Y-56968691D02*
X279908162Y-57113661D01*
X280259282Y-56968691D02*
X280171502Y-56968691D01*
X293226782Y-56968691D02*
X280259282Y-56968691D01*
X293314562Y-56968691D02*
X293226782Y-56968691D01*
X293579232Y-57113661D02*
X293314562Y-56968691D01*
X293725532Y-57377267D02*
X293579232Y-57113661D01*
X293725532Y-57465446D02*
X293725532Y-57377267D01*
X293725532Y-70432281D02*
X293725532Y-57465446D01*
X269965082Y-70520327D02*
X269965082Y-70432281D01*
X269816122Y-70784199D02*
X269965082Y-70520327D01*
X269552782Y-70932627D02*
X269816122Y-70784199D01*
X269466332Y-70932627D02*
X269552782Y-70932627D01*
X256497502Y-70932627D02*
X269466332Y-70932627D01*
X256409722Y-70932627D02*
X256497502Y-70932627D01*
X256146382Y-70784199D02*
X256409722Y-70932627D01*
X255998752Y-70520327D02*
X256146382Y-70784199D01*
X255998752Y-70432281D02*
X255998752Y-70520327D01*
X255998752Y-57465446D02*
X255998752Y-70432281D01*
X255998752Y-57377267D02*
X255998752Y-57465446D01*
X256146382Y-57113661D02*
X255998752Y-57377267D01*
X256409722Y-56968691D02*
X256146382Y-57113661D01*
X256497502Y-56968691D02*
X256409722Y-56968691D01*
X269466332Y-56968691D02*
X256497502Y-56968691D01*
X269552782Y-56968691D02*
X269466332Y-56968691D01*
X269816122Y-57113661D02*
X269552782Y-56968691D01*
X269965082Y-57377267D02*
X269816122Y-57113661D01*
X269965082Y-57465446D02*
X269965082Y-57377267D01*
X269965082Y-70432281D02*
X269965082Y-57465446D01*
X250962042Y-70520327D02*
X250962042Y-70432281D01*
X250814412Y-70784199D02*
X250962042Y-70520327D01*
X250549742Y-70932627D02*
X250814412Y-70784199D01*
X250464622Y-70932627D02*
X250549742Y-70932627D01*
X237495792Y-70932627D02*
X250464622Y-70932627D01*
X237406682Y-70932627D02*
X237495792Y-70932627D01*
X237143342Y-70784199D02*
X237406682Y-70932627D01*
X236997042Y-70520327D02*
X237143342Y-70784199D01*
X236997042Y-70432281D02*
X236997042Y-70520327D01*
X236997042Y-57465446D02*
X236997042Y-70432281D01*
X236997042Y-57377267D02*
X236997042Y-57465446D01*
X237143342Y-57113661D02*
X236997042Y-57377267D01*
X237406682Y-56968691D02*
X237143342Y-57113661D01*
X237495792Y-56968691D02*
X237406682Y-56968691D01*
X250464622Y-56968691D02*
X237495792Y-56968691D01*
X250549742Y-56968691D02*
X250464622Y-56968691D01*
X250814412Y-57113661D02*
X250549742Y-56968691D01*
X250962042Y-57377267D02*
X250814412Y-57113661D01*
X250962042Y-57465446D02*
X250962042Y-57377267D01*
X250962042Y-70432281D02*
X250962042Y-57465446D01*
X293725532Y-51517952D02*
X293725532Y-51429773D01*
X293579232Y-51781691D02*
X293725532Y-51517952D01*
X293314562Y-51930385D02*
X293579232Y-51781691D01*
X293226782Y-51930385D02*
X293314562Y-51930385D01*
X280259282Y-51930385D02*
X293226782Y-51930385D01*
X280171502Y-51930385D02*
X280259282Y-51930385D01*
X279908162Y-51781691D02*
X280171502Y-51930385D01*
X279761862Y-51517952D02*
X279908162Y-51781691D01*
X279761862Y-51429773D02*
X279761862Y-51517952D01*
X279761862Y-38463071D02*
X279761862Y-51429773D01*
X279761862Y-38374892D02*
X279761862Y-38463071D01*
X279908162Y-38111286D02*
X279761862Y-38374892D01*
X280171502Y-37966316D02*
X279908162Y-38111286D01*
X280259282Y-37966316D02*
X280171502Y-37966316D01*
X293226782Y-37966316D02*
X280259282Y-37966316D01*
X293314562Y-37966316D02*
X293226782Y-37966316D01*
X293579232Y-38111286D02*
X293314562Y-37966316D01*
X293725532Y-38374892D02*
X293579232Y-38111286D01*
X293725532Y-38463071D02*
X293725532Y-38374892D01*
X293725532Y-51429773D02*
X293725532Y-38463071D01*
X269965082Y-51517952D02*
X269965082Y-51429773D01*
X269816122Y-51781691D02*
X269965082Y-51517952D01*
X269552782Y-51930385D02*
X269816122Y-51781691D01*
X269466332Y-51930385D02*
X269552782Y-51930385D01*
X256497502Y-51930385D02*
X269466332Y-51930385D01*
X256409722Y-51930385D02*
X256497502Y-51930385D01*
X256146382Y-51781691D02*
X256409722Y-51930385D01*
X255998752Y-51517952D02*
X256146382Y-51781691D01*
X255998752Y-51429773D02*
X255998752Y-51517952D01*
X255998752Y-38463071D02*
X255998752Y-51429773D01*
X255998752Y-38374892D02*
X255998752Y-38463071D01*
X256146382Y-38111286D02*
X255998752Y-38374892D01*
X256409722Y-37966316D02*
X256146382Y-38111286D01*
X256497502Y-37966316D02*
X256409722Y-37966316D01*
X269466332Y-37966316D02*
X256497502Y-37966316D01*
X269552782Y-37966316D02*
X269466332Y-37966316D01*
X269816122Y-38111286D02*
X269552782Y-37966316D01*
X269965082Y-38374892D02*
X269816122Y-38111286D01*
X269965082Y-38463071D02*
X269965082Y-38374892D01*
X269965082Y-51429773D02*
X269965082Y-38463071D01*
X250962042Y-51517952D02*
X250962042Y-51429773D01*
X250814412Y-51781691D02*
X250962042Y-51517952D01*
X250549742Y-51930385D02*
X250814412Y-51781691D01*
X250464622Y-51930385D02*
X250549742Y-51930385D01*
X237495792Y-51930385D02*
X250464622Y-51930385D01*
X237406682Y-51930385D02*
X237495792Y-51930385D01*
X237143342Y-51781691D02*
X237406682Y-51930385D01*
X236997042Y-51517952D02*
X237143342Y-51781691D01*
X236997042Y-51429773D02*
X236997042Y-51517952D01*
X236997042Y-38463071D02*
X236997042Y-51429773D01*
X236997042Y-38374892D02*
X236997042Y-38463071D01*
X237143342Y-38111286D02*
X236997042Y-38374892D01*
X237406682Y-37966316D02*
X237143342Y-38111286D01*
X237495792Y-37966316D02*
X237406682Y-37966316D01*
X250464622Y-37966316D02*
X237495792Y-37966316D01*
X250549742Y-37966316D02*
X250464622Y-37966316D01*
X250814412Y-38111286D02*
X250549742Y-37966316D01*
X250962042Y-38374892D02*
X250814412Y-38111286D01*
X250962042Y-38463071D02*
X250962042Y-38374892D01*
X250962042Y-51429773D02*
X250962042Y-38463071D01*
X231960332Y-51517952D02*
X231960332Y-51429773D01*
X231811372Y-51781691D02*
X231960332Y-51517952D01*
X231548032Y-51930385D02*
X231811372Y-51781691D01*
X231461582Y-51930385D02*
X231548032Y-51930385D01*
X218492752Y-51930385D02*
X231461582Y-51930385D01*
X218404972Y-51930385D02*
X218492752Y-51930385D01*
X218141632Y-51781691D02*
X218404972Y-51930385D01*
X217994002Y-51517952D02*
X218141632Y-51781691D01*
X217994002Y-51429773D02*
X217994002Y-51517952D01*
X217994002Y-38463071D02*
X217994002Y-51429773D01*
X217994002Y-38374892D02*
X217994002Y-38463071D01*
X218141632Y-38111286D02*
X217994002Y-38374892D01*
X218404972Y-37966316D02*
X218141632Y-38111286D01*
X218492752Y-37966316D02*
X218404972Y-37966316D01*
X231461582Y-37966316D02*
X218492752Y-37966316D01*
X231548032Y-37966316D02*
X231461582Y-37966316D01*
X231811372Y-38111286D02*
X231548032Y-37966316D01*
X231960332Y-38374892D02*
X231811372Y-38111286D01*
X231960332Y-38463071D02*
X231960332Y-38374892D01*
X231960332Y-51429773D02*
X231960332Y-38463071D01*
X98943574Y-51517952D02*
X98943574Y-51429773D01*
X98795279Y-51781691D02*
X98943574Y-51517952D01*
X98531141Y-51930385D02*
X98795279Y-51781691D01*
X98445356Y-51930385D02*
X98531141Y-51930385D01*
X85476260Y-51930385D02*
X98445356Y-51930385D01*
X85388081Y-51930385D02*
X85476260Y-51930385D01*
X85124475Y-51781691D02*
X85388081Y-51930385D01*
X84977510Y-51517952D02*
X85124475Y-51781691D01*
X84977510Y-51429773D02*
X84977510Y-51517952D01*
X84977510Y-38463071D02*
X84977510Y-51429773D01*
X84977510Y-38374892D02*
X84977510Y-38463071D01*
X85124475Y-38111286D02*
X84977510Y-38374892D01*
X85388081Y-37966316D02*
X85124475Y-38111286D01*
X85476260Y-37966316D02*
X85388081Y-37966316D01*
X98445356Y-37966316D02*
X85476260Y-37966316D01*
X98531141Y-37966316D02*
X98445356Y-37966316D01*
X98795279Y-38111286D02*
X98531141Y-37966316D01*
X98943574Y-38374892D02*
X98795279Y-38111286D01*
X98943574Y-38463071D02*
X98943574Y-38374892D01*
X98943574Y-51429773D02*
X98943574Y-38463071D01*
X47383597Y-51930385D02*
X47471510Y-51930385D01*
X47119592Y-51781691D02*
X47383597Y-51930385D01*
X46973026Y-51517952D02*
X47119592Y-51781691D01*
X46973026Y-51429773D02*
X46973026Y-51517952D01*
X46973026Y-38463071D02*
X46973026Y-51429773D01*
X46973026Y-38374892D02*
X46973026Y-38463071D01*
X47119592Y-38111286D02*
X46973026Y-38374892D01*
X47383597Y-37966316D02*
X47119592Y-38111286D01*
X47471510Y-37966316D02*
X47383597Y-37966316D01*
X60440340Y-37966316D02*
X47471510Y-37966316D01*
X60526524Y-37966316D02*
X60440340Y-37966316D01*
X60790396Y-38111286D02*
X60526524Y-37966316D01*
X60938957Y-38374892D02*
X60790396Y-38111286D01*
X60938957Y-38463071D02*
X60938957Y-38374892D01*
X60938957Y-51429773D02*
X60938957Y-38463071D01*
X60938957Y-51517952D02*
X60938957Y-51429773D01*
X60790396Y-51781691D02*
X60938957Y-51517952D01*
X60526524Y-51930385D02*
X60790396Y-51781691D01*
X60440340Y-51930385D02*
X60526524Y-51930385D01*
X47471510Y-51930385D02*
X60440340Y-51930385D01*
X79941199Y-51517952D02*
X79941199Y-51429773D01*
X79792904Y-51781691D02*
X79941199Y-51517952D01*
X79528766Y-51930385D02*
X79792904Y-51781691D01*
X79442981Y-51930385D02*
X79528766Y-51930385D01*
X66473885Y-51930385D02*
X79442981Y-51930385D01*
X66385706Y-51930385D02*
X66473885Y-51930385D01*
X66122100Y-51781691D02*
X66385706Y-51930385D01*
X65975135Y-51517952D02*
X66122100Y-51781691D01*
X65975135Y-51429773D02*
X65975135Y-51517952D01*
X65975135Y-38463071D02*
X65975135Y-51429773D01*
X65975135Y-38374892D02*
X65975135Y-38463071D01*
X66122100Y-38111286D02*
X65975135Y-38374892D01*
X66385706Y-37966316D02*
X66122100Y-38111286D01*
X66473885Y-37966316D02*
X66385706Y-37966316D01*
X79442981Y-37966316D02*
X66473885Y-37966316D01*
X79528766Y-37966316D02*
X79442981Y-37966316D01*
X79792904Y-38111286D02*
X79528766Y-37966316D01*
X79941199Y-38374892D02*
X79792904Y-38111286D01*
X79941199Y-38463071D02*
X79941199Y-38374892D01*
X79941199Y-51429773D02*
X79941199Y-38463071D01*
X193955582Y-51517952D02*
X193955582Y-51429773D01*
X193806622Y-51781691D02*
X193955582Y-51517952D01*
X193543282Y-51930385D02*
X193806622Y-51781691D01*
X193456832Y-51930385D02*
X193543282Y-51930385D01*
X180488002Y-51930385D02*
X193456832Y-51930385D01*
X180400222Y-51930385D02*
X180488002Y-51930385D01*
X180136882Y-51781691D02*
X180400222Y-51930385D01*
X179989252Y-51517952D02*
X180136882Y-51781691D01*
X179989252Y-51429773D02*
X179989252Y-51517952D01*
X179989252Y-38463071D02*
X179989252Y-51429773D01*
X179989252Y-38374892D02*
X179989252Y-38463071D01*
X180136882Y-38111286D02*
X179989252Y-38374892D01*
X180400222Y-37966316D02*
X180136882Y-38111286D01*
X180488002Y-37966316D02*
X180400222Y-37966316D01*
X193456832Y-37966316D02*
X180488002Y-37966316D01*
X193543282Y-37966316D02*
X193456832Y-37966316D01*
X193806622Y-38111286D02*
X193543282Y-37966316D01*
X193955582Y-38374892D02*
X193806622Y-38111286D01*
X193955582Y-38463071D02*
X193955582Y-38374892D01*
X193955582Y-51429773D02*
X193955582Y-38463071D01*
X212957292Y-51517952D02*
X212957292Y-51429773D01*
X212809662Y-51781691D02*
X212957292Y-51517952D01*
X212544992Y-51930385D02*
X212809662Y-51781691D01*
X212459872Y-51930385D02*
X212544992Y-51930385D01*
X199491042Y-51930385D02*
X212459872Y-51930385D01*
X199401932Y-51930385D02*
X199491042Y-51930385D01*
X199138592Y-51781691D02*
X199401932Y-51930385D01*
X198992292Y-51517952D02*
X199138592Y-51781691D01*
X198992292Y-51429773D02*
X198992292Y-51517952D01*
X198992292Y-38463071D02*
X198992292Y-51429773D01*
X198992292Y-38374892D02*
X198992292Y-38463071D01*
X199138592Y-38111286D02*
X198992292Y-38374892D01*
X199401932Y-37966316D02*
X199138592Y-38111286D01*
X199491042Y-37966316D02*
X199401932Y-37966316D01*
X212459872Y-37966316D02*
X199491042Y-37966316D01*
X212544992Y-37966316D02*
X212459872Y-37966316D01*
X212809662Y-38111286D02*
X212544992Y-37966316D01*
X212957292Y-38374892D02*
X212809662Y-38111286D01*
X212957292Y-38463071D02*
X212957292Y-38374892D01*
X212957292Y-51429773D02*
X212957292Y-38463071D01*
X117945949Y-51517952D02*
X117945949Y-51429773D01*
X117797787Y-51781691D02*
X117945949Y-51517952D01*
X117533516Y-51930385D02*
X117797787Y-51781691D01*
X117447731Y-51930385D02*
X117533516Y-51930385D01*
X104478635Y-51930385D02*
X117447731Y-51930385D01*
X104390456Y-51930385D02*
X104478635Y-51930385D01*
X104126850Y-51781691D02*
X104390456Y-51930385D01*
X103979885Y-51517952D02*
X104126850Y-51781691D01*
X103979885Y-51429773D02*
X103979885Y-51517952D01*
X103979885Y-38463071D02*
X103979885Y-51429773D01*
X103979885Y-38374892D02*
X103979885Y-38463071D01*
X104126850Y-38111286D02*
X103979885Y-38374892D01*
X104390456Y-37966316D02*
X104126850Y-38111286D01*
X104478635Y-37966316D02*
X104390456Y-37966316D01*
X117447731Y-37966316D02*
X104478635Y-37966316D01*
X117533516Y-37966316D02*
X117447731Y-37966316D01*
X117797787Y-38111286D02*
X117533516Y-37966316D01*
X117945949Y-38374892D02*
X117797787Y-38111286D01*
X117945949Y-38463071D02*
X117945949Y-38374892D01*
X117945949Y-51429773D02*
X117945949Y-38463071D01*
X36773522Y-37966316D02*
X36687471Y-37966316D01*
X37037527Y-38111286D02*
X36773522Y-37966316D01*
X37185955Y-38374892D02*
X37037527Y-38111286D01*
X37185955Y-38463071D02*
X37185955Y-38374892D01*
X37185955Y-51429773D02*
X37185955Y-38463071D01*
X37185955Y-51517952D02*
X37185955Y-51429773D01*
X37037527Y-51781691D02*
X37185955Y-51517952D01*
X36773522Y-51930385D02*
X37037527Y-51781691D01*
X36687471Y-51930385D02*
X36773522Y-51930385D01*
X23718548Y-51930385D02*
X36687471Y-51930385D01*
X23630582Y-51930385D02*
X23718548Y-51930385D01*
X23366657Y-51781691D02*
X23630582Y-51930385D01*
X23220037Y-51517952D02*
X23366657Y-51781691D01*
X23220037Y-51429773D02*
X23220037Y-51517952D01*
X23220037Y-38463071D02*
X23220037Y-51429773D01*
X23220037Y-38374892D02*
X23220037Y-38463071D01*
X23366657Y-38111286D02*
X23220037Y-38374892D01*
X23630582Y-37966316D02*
X23366657Y-38111286D01*
X23718548Y-37966316D02*
X23630582Y-37966316D01*
X36687471Y-37966316D02*
X23718548Y-37966316D01*
X155950832Y-51517952D02*
X155950832Y-51429773D01*
X155801872Y-51781691D02*
X155950832Y-51517952D01*
X155538532Y-51930385D02*
X155801872Y-51781691D01*
X155452082Y-51930385D02*
X155538532Y-51930385D01*
X142483385Y-51930385D02*
X155452082Y-51930385D01*
X142395206Y-51930385D02*
X142483385Y-51930385D01*
X142131600Y-51781691D02*
X142395206Y-51930385D01*
X141984635Y-51517952D02*
X142131600Y-51781691D01*
X141984635Y-51429773D02*
X141984635Y-51517952D01*
X141984635Y-38463071D02*
X141984635Y-51429773D01*
X141984635Y-38374892D02*
X141984635Y-38463071D01*
X142131600Y-38111286D02*
X141984635Y-38374892D01*
X142395206Y-37966316D02*
X142131600Y-38111286D01*
X142483385Y-37966316D02*
X142395206Y-37966316D01*
X155452082Y-37966316D02*
X142483385Y-37966316D01*
X155538532Y-37966316D02*
X155452082Y-37966316D01*
X155801872Y-38111286D02*
X155538532Y-37966316D01*
X155950832Y-38374892D02*
X155801872Y-38111286D01*
X155950832Y-38463071D02*
X155950832Y-38374892D01*
X155950832Y-51429773D02*
X155950832Y-38463071D01*
X136948324Y-51517952D02*
X136948324Y-51429773D01*
X136800029Y-51781691D02*
X136948324Y-51517952D01*
X136535891Y-51930385D02*
X136800029Y-51781691D01*
X136450106Y-51930385D02*
X136535891Y-51930385D01*
X123481010Y-51930385D02*
X136450106Y-51930385D01*
X123392831Y-51930385D02*
X123481010Y-51930385D01*
X123129225Y-51781691D02*
X123392831Y-51930385D01*
X122982260Y-51517952D02*
X123129225Y-51781691D01*
X122982260Y-51429773D02*
X122982260Y-51517952D01*
X122982260Y-38463071D02*
X122982260Y-51429773D01*
X122982260Y-38374892D02*
X122982260Y-38463071D01*
X123129225Y-38111286D02*
X122982260Y-38374892D01*
X123392831Y-37966316D02*
X123129225Y-38111286D01*
X123481010Y-37966316D02*
X123392831Y-37966316D01*
X136450106Y-37966316D02*
X123481010Y-37966316D01*
X136535891Y-37966316D02*
X136450106Y-37966316D01*
X136800029Y-38111286D02*
X136535891Y-37966316D01*
X136948324Y-38374892D02*
X136800029Y-38111286D01*
X136948324Y-38463071D02*
X136948324Y-38374892D01*
X136948324Y-51429773D02*
X136948324Y-38463071D01*
X174952542Y-51517952D02*
X174952542Y-51429773D01*
X174804912Y-51781691D02*
X174952542Y-51517952D01*
X174540242Y-51930385D02*
X174804912Y-51781691D01*
X174455122Y-51930385D02*
X174540242Y-51930385D01*
X161486292Y-51930385D02*
X174455122Y-51930385D01*
X161397182Y-51930385D02*
X161486292Y-51930385D01*
X161133842Y-51781691D02*
X161397182Y-51930385D01*
X160987542Y-51517952D02*
X161133842Y-51781691D01*
X160987542Y-51429773D02*
X160987542Y-51517952D01*
X160987542Y-38463071D02*
X160987542Y-51429773D01*
X160987542Y-38374892D02*
X160987542Y-38463071D01*
X161133842Y-38111286D02*
X160987542Y-38374892D01*
X161397182Y-37966316D02*
X161133842Y-38111286D01*
X161486292Y-37966316D02*
X161397182Y-37966316D01*
X174455122Y-37966316D02*
X161486292Y-37966316D01*
X174540242Y-37966316D02*
X174455122Y-37966316D01*
X174804912Y-38111286D02*
X174540242Y-37966316D01*
X174952542Y-38374892D02*
X174804912Y-38111286D01*
X174952542Y-38463071D02*
X174952542Y-38374892D01*
X174952542Y-51429773D02*
X174952542Y-38463071D01*
X193955582Y-70520327D02*
X193955582Y-70432281D01*
X193806622Y-70784199D02*
X193955582Y-70520327D01*
X193543282Y-70932627D02*
X193806622Y-70784199D01*
X193456832Y-70932627D02*
X193543282Y-70932627D01*
X180488002Y-70932627D02*
X193456832Y-70932627D01*
X180400222Y-70932627D02*
X180488002Y-70932627D01*
X180136882Y-70784199D02*
X180400222Y-70932627D01*
X179989252Y-70520327D02*
X180136882Y-70784199D01*
X179989252Y-70432281D02*
X179989252Y-70520327D01*
X179989252Y-57465446D02*
X179989252Y-70432281D01*
X179989252Y-57377267D02*
X179989252Y-57465446D01*
X180136882Y-57113661D02*
X179989252Y-57377267D01*
X180400222Y-56968691D02*
X180136882Y-57113661D01*
X180488002Y-56968691D02*
X180400222Y-56968691D01*
X193456832Y-56968691D02*
X180488002Y-56968691D01*
X193543282Y-56968691D02*
X193456832Y-56968691D01*
X193806622Y-57113661D02*
X193543282Y-56968691D01*
X193955582Y-57377267D02*
X193806622Y-57113661D01*
X193955582Y-57465446D02*
X193955582Y-57377267D01*
X193955582Y-70432281D02*
X193955582Y-57465446D01*
X79941199Y-70520327D02*
X79941199Y-70432281D01*
X79792904Y-70784199D02*
X79941199Y-70520327D01*
X79528766Y-70932627D02*
X79792904Y-70784199D01*
X79442981Y-70932627D02*
X79528766Y-70932627D01*
X66473885Y-70932627D02*
X79442981Y-70932627D01*
X66385706Y-70932627D02*
X66473885Y-70932627D01*
X66122100Y-70784199D02*
X66385706Y-70932627D01*
X65975135Y-70520327D02*
X66122100Y-70784199D01*
X65975135Y-70432281D02*
X65975135Y-70520327D01*
X65975135Y-57465446D02*
X65975135Y-70432281D01*
X65975135Y-57377267D02*
X65975135Y-57465446D01*
X66122100Y-57113661D02*
X65975135Y-57377267D01*
X66385706Y-56968691D02*
X66122100Y-57113661D01*
X66473885Y-56968691D02*
X66385706Y-56968691D01*
X79442981Y-56968691D02*
X66473885Y-56968691D01*
X79528766Y-56968691D02*
X79442981Y-56968691D01*
X79792904Y-57113661D02*
X79528766Y-56968691D01*
X79941199Y-57377267D02*
X79792904Y-57113661D01*
X79941199Y-57465446D02*
X79941199Y-57377267D01*
X79941199Y-70432281D02*
X79941199Y-57465446D01*
X98943574Y-70520327D02*
X98943574Y-70432281D01*
X98795279Y-70784199D02*
X98943574Y-70520327D01*
X98531141Y-70932627D02*
X98795279Y-70784199D01*
X98445356Y-70932627D02*
X98531141Y-70932627D01*
X85476260Y-70932627D02*
X98445356Y-70932627D01*
X85388081Y-70932627D02*
X85476260Y-70932627D01*
X85124475Y-70784199D02*
X85388081Y-70932627D01*
X84977510Y-70520327D02*
X85124475Y-70784199D01*
X84977510Y-70432281D02*
X84977510Y-70520327D01*
X84977510Y-57465446D02*
X84977510Y-70432281D01*
X84977510Y-57377267D02*
X84977510Y-57465446D01*
X85124475Y-57113661D02*
X84977510Y-57377267D01*
X85388081Y-56968691D02*
X85124475Y-57113661D01*
X85476260Y-56968691D02*
X85388081Y-56968691D01*
X98445356Y-56968691D02*
X85476260Y-56968691D01*
X98531141Y-56968691D02*
X98445356Y-56968691D01*
X98795279Y-57113661D02*
X98531141Y-56968691D01*
X98943574Y-57377267D02*
X98795279Y-57113661D01*
X98943574Y-57465446D02*
X98943574Y-57377267D01*
X98943574Y-70432281D02*
X98943574Y-57465446D01*
X136948324Y-70520327D02*
X136948324Y-70432281D01*
X136800029Y-70784199D02*
X136948324Y-70520327D01*
X136535891Y-70932627D02*
X136800029Y-70784199D01*
X136450106Y-70932627D02*
X136535891Y-70932627D01*
X123481010Y-70932627D02*
X136450106Y-70932627D01*
X123392831Y-70932627D02*
X123481010Y-70932627D01*
X123129225Y-70784199D02*
X123392831Y-70932627D01*
X122982260Y-70520327D02*
X123129225Y-70784199D01*
X122982260Y-70432281D02*
X122982260Y-70520327D01*
X122982260Y-57465446D02*
X122982260Y-70432281D01*
X122982260Y-57377267D02*
X122982260Y-57465446D01*
X123129225Y-57113661D02*
X122982260Y-57377267D01*
X123392831Y-56968691D02*
X123129225Y-57113661D01*
X123481010Y-56968691D02*
X123392831Y-56968691D01*
X136450106Y-56968691D02*
X123481010Y-56968691D01*
X136535891Y-56968691D02*
X136450106Y-56968691D01*
X136800029Y-57113661D02*
X136535891Y-56968691D01*
X136948324Y-57377267D02*
X136800029Y-57113661D01*
X136948324Y-57465446D02*
X136948324Y-57377267D01*
X136948324Y-70432281D02*
X136948324Y-57465446D01*
X47383597Y-70932627D02*
X47471510Y-70932627D01*
X47119592Y-70784199D02*
X47383597Y-70932627D01*
X46973026Y-70520327D02*
X47119592Y-70784199D01*
X46973026Y-70432281D02*
X46973026Y-70520327D01*
X46973026Y-57465446D02*
X46973026Y-70432281D01*
X46973026Y-57377267D02*
X46973026Y-57465446D01*
X47119592Y-57113661D02*
X46973026Y-57377267D01*
X47383597Y-56968691D02*
X47119592Y-57113661D01*
X47471510Y-56968691D02*
X47383597Y-56968691D01*
X60440340Y-56968691D02*
X47471510Y-56968691D01*
X60526524Y-56968691D02*
X60440340Y-56968691D01*
X60790396Y-57113661D02*
X60526524Y-56968691D01*
X60938957Y-57377267D02*
X60790396Y-57113661D01*
X60938957Y-57465446D02*
X60938957Y-57377267D01*
X60938957Y-70432281D02*
X60938957Y-57465446D01*
X60938957Y-70520327D02*
X60938957Y-70432281D01*
X60790396Y-70784199D02*
X60938957Y-70520327D01*
X60526524Y-70932627D02*
X60790396Y-70784199D01*
X60440340Y-70932627D02*
X60526524Y-70932627D01*
X47471510Y-70932627D02*
X60440340Y-70932627D01*
X174952542Y-70520327D02*
X174952542Y-70432281D01*
X174804912Y-70784199D02*
X174952542Y-70520327D01*
X174540242Y-70932627D02*
X174804912Y-70784199D01*
X174455122Y-70932627D02*
X174540242Y-70932627D01*
X161486292Y-70932627D02*
X174455122Y-70932627D01*
X161397182Y-70932627D02*
X161486292Y-70932627D01*
X161133842Y-70784199D02*
X161397182Y-70932627D01*
X160987542Y-70520327D02*
X161133842Y-70784199D01*
X160987542Y-70432281D02*
X160987542Y-70520327D01*
X160987542Y-57465446D02*
X160987542Y-70432281D01*
X160987542Y-57377267D02*
X160987542Y-57465446D01*
X161133842Y-57113661D02*
X160987542Y-57377267D01*
X161397182Y-56968691D02*
X161133842Y-57113661D01*
X161486292Y-56968691D02*
X161397182Y-56968691D01*
X174455122Y-56968691D02*
X161486292Y-56968691D01*
X174540242Y-56968691D02*
X174455122Y-56968691D01*
X174804912Y-57113661D02*
X174540242Y-56968691D01*
X174952542Y-57377267D02*
X174804912Y-57113661D01*
X174952542Y-57465446D02*
X174952542Y-57377267D01*
X174952542Y-70432281D02*
X174952542Y-57465446D01*
X231960332Y-70520327D02*
X231960332Y-70432281D01*
X231811372Y-70784199D02*
X231960332Y-70520327D01*
X231548032Y-70932627D02*
X231811372Y-70784199D01*
X231461582Y-70932627D02*
X231548032Y-70932627D01*
X218492752Y-70932627D02*
X231461582Y-70932627D01*
X218404972Y-70932627D02*
X218492752Y-70932627D01*
X218141632Y-70784199D02*
X218404972Y-70932627D01*
X217994002Y-70520327D02*
X218141632Y-70784199D01*
X217994002Y-70432281D02*
X217994002Y-70520327D01*
X217994002Y-57465446D02*
X217994002Y-70432281D01*
X217994002Y-57377267D02*
X217994002Y-57465446D01*
X218141632Y-57113661D02*
X217994002Y-57377267D01*
X218404972Y-56968691D02*
X218141632Y-57113661D01*
X218492752Y-56968691D02*
X218404972Y-56968691D01*
X231461582Y-56968691D02*
X218492752Y-56968691D01*
X231548032Y-56968691D02*
X231461582Y-56968691D01*
X231811372Y-57113661D02*
X231548032Y-56968691D01*
X231960332Y-57377267D02*
X231811372Y-57113661D01*
X231960332Y-57465446D02*
X231960332Y-57377267D01*
X231960332Y-70432281D02*
X231960332Y-57465446D01*
X36771793Y-56968691D02*
X36683747Y-56968691D01*
X37035665Y-57113661D02*
X36771793Y-56968691D01*
X37182231Y-57377267D02*
X37035665Y-57113661D01*
X37182231Y-57465446D02*
X37182231Y-57377267D01*
X37182231Y-70432281D02*
X37182231Y-57465446D01*
X37182231Y-70520327D02*
X37182231Y-70432281D01*
X37035665Y-70784199D02*
X37182231Y-70520327D01*
X36771793Y-70932627D02*
X37035665Y-70784199D01*
X36683747Y-70932627D02*
X36771793Y-70932627D01*
X23718548Y-70932627D02*
X36683747Y-70932627D01*
X23630582Y-70932627D02*
X23718548Y-70932627D01*
X23366657Y-70784199D02*
X23630582Y-70932627D01*
X23220037Y-70520327D02*
X23366657Y-70784199D01*
X23220037Y-70432281D02*
X23220037Y-70520327D01*
X23220037Y-57465446D02*
X23220037Y-70432281D01*
X23220037Y-57377267D02*
X23220037Y-57465446D01*
X23366657Y-57113661D02*
X23220037Y-57377267D01*
X23630582Y-56968691D02*
X23366657Y-57113661D01*
X23718548Y-56968691D02*
X23630582Y-56968691D01*
X36683747Y-56968691D02*
X23718548Y-56968691D01*
X117945949Y-70520327D02*
X117945949Y-70432281D01*
X117797787Y-70784199D02*
X117945949Y-70520327D01*
X117533516Y-70932627D02*
X117797787Y-70784199D01*
X117447731Y-70932627D02*
X117533516Y-70932627D01*
X104478635Y-70932627D02*
X117447731Y-70932627D01*
X104390456Y-70932627D02*
X104478635Y-70932627D01*
X104126850Y-70784199D02*
X104390456Y-70932627D01*
X103979885Y-70520327D02*
X104126850Y-70784199D01*
X103979885Y-70432281D02*
X103979885Y-70520327D01*
X103979885Y-57465446D02*
X103979885Y-70432281D01*
X103979885Y-57377267D02*
X103979885Y-57465446D01*
X104126850Y-57113661D02*
X103979885Y-57377267D01*
X104390456Y-56968691D02*
X104126850Y-57113661D01*
X104478635Y-56968691D02*
X104390456Y-56968691D01*
X117447731Y-56968691D02*
X104478635Y-56968691D01*
X117533516Y-56968691D02*
X117447731Y-56968691D01*
X117797787Y-57113661D02*
X117533516Y-56968691D01*
X117945949Y-57377267D02*
X117797787Y-57113661D01*
X117945949Y-57465446D02*
X117945949Y-57377267D01*
X117945949Y-70432281D02*
X117945949Y-57465446D01*
X212957292Y-70520327D02*
X212957292Y-70432281D01*
X212809662Y-70784199D02*
X212957292Y-70520327D01*
X212544992Y-70932627D02*
X212809662Y-70784199D01*
X212459872Y-70932627D02*
X212544992Y-70932627D01*
X199491042Y-70932627D02*
X212459872Y-70932627D01*
X199401932Y-70932627D02*
X199491042Y-70932627D01*
X199138592Y-70784199D02*
X199401932Y-70932627D01*
X198992292Y-70520327D02*
X199138592Y-70784199D01*
X198992292Y-70432281D02*
X198992292Y-70520327D01*
X198992292Y-57465446D02*
X198992292Y-70432281D01*
X198992292Y-57377267D02*
X198992292Y-57465446D01*
X199138592Y-57113661D02*
X198992292Y-57377267D01*
X199401932Y-56968691D02*
X199138592Y-57113661D01*
X199491042Y-56968691D02*
X199401932Y-56968691D01*
X212459872Y-56968691D02*
X199491042Y-56968691D01*
X212544992Y-56968691D02*
X212459872Y-56968691D01*
X212809662Y-57113661D02*
X212544992Y-56968691D01*
X212957292Y-57377267D02*
X212809662Y-57113661D01*
X212957292Y-57465446D02*
X212957292Y-57377267D01*
X212957292Y-70432281D02*
X212957292Y-57465446D01*
X155950832Y-70520327D02*
X155950832Y-70432281D01*
X155801872Y-70784199D02*
X155950832Y-70520327D01*
X155538532Y-70932627D02*
X155801872Y-70784199D01*
X155452082Y-70932627D02*
X155538532Y-70932627D01*
X142483385Y-70932627D02*
X155452082Y-70932627D01*
X142395206Y-70932627D02*
X142483385Y-70932627D01*
X142131600Y-70784199D02*
X142395206Y-70932627D01*
X141984635Y-70520327D02*
X142131600Y-70784199D01*
X141984635Y-70432281D02*
X141984635Y-70520327D01*
X141984635Y-57465446D02*
X141984635Y-70432281D01*
X141984635Y-57377267D02*
X141984635Y-57465446D01*
X142131600Y-57113661D02*
X141984635Y-57377267D01*
X142395206Y-56968691D02*
X142131600Y-57113661D01*
X142483385Y-56968691D02*
X142395206Y-56968691D01*
X155452082Y-56968691D02*
X142483385Y-56968691D01*
X155538532Y-56968691D02*
X155452082Y-56968691D01*
X155801872Y-57113661D02*
X155538532Y-56968691D01*
X155950832Y-57377267D02*
X155801872Y-57113661D01*
X155950832Y-57465446D02*
X155950832Y-57377267D01*
X155950832Y-70432281D02*
X155950832Y-57465446D01*
X70440078Y-89522702D02*
X70440078Y-89434656D01*
X70291783Y-89786574D02*
X70440078Y-89522702D01*
X70027645Y-89935002D02*
X70291783Y-89786574D01*
X69941727Y-89935002D02*
X70027645Y-89935002D01*
X56972764Y-89935002D02*
X69941727Y-89935002D01*
X56884718Y-89935002D02*
X56972764Y-89935002D01*
X56620846Y-89786574D02*
X56884718Y-89935002D01*
X56474147Y-89522702D02*
X56620846Y-89786574D01*
X56474147Y-89434656D02*
X56474147Y-89522702D01*
X56474147Y-76467688D02*
X56474147Y-89434656D01*
X56474147Y-76379775D02*
X56474147Y-76467688D01*
X56620846Y-76115770D02*
X56474147Y-76379775D01*
X56884718Y-75971066D02*
X56620846Y-76115770D01*
X56972764Y-75971066D02*
X56884718Y-75971066D01*
X69941727Y-75971066D02*
X56972764Y-75971066D01*
X70027645Y-75971066D02*
X69941727Y-75971066D01*
X70291783Y-76115770D02*
X70027645Y-75971066D01*
X70440078Y-76379775D02*
X70291783Y-76115770D01*
X70440078Y-76467688D02*
X70440078Y-76379775D01*
X70440078Y-89434656D02*
X70440078Y-76467688D01*
X89442453Y-89522702D02*
X89442453Y-89434656D01*
X89294158Y-89786574D02*
X89442453Y-89522702D01*
X89030020Y-89935002D02*
X89294158Y-89786574D01*
X88944102Y-89935002D02*
X89030020Y-89935002D01*
X75975139Y-89935002D02*
X88944102Y-89935002D01*
X75886960Y-89935002D02*
X75975139Y-89935002D01*
X75623221Y-89786574D02*
X75886960Y-89935002D01*
X75476389Y-89522702D02*
X75623221Y-89786574D01*
X75476389Y-89434656D02*
X75476389Y-89522702D01*
X75476389Y-76467688D02*
X75476389Y-89434656D01*
X75476389Y-76379775D02*
X75476389Y-76467688D01*
X75623221Y-76115770D02*
X75476389Y-76379775D01*
X75886960Y-75971066D02*
X75623221Y-76115770D01*
X75975139Y-75971066D02*
X75886960Y-75971066D01*
X88944102Y-75971066D02*
X75975139Y-75971066D01*
X89030020Y-75971066D02*
X88944102Y-75971066D01*
X89294158Y-76115770D02*
X89030020Y-75971066D01*
X89442453Y-76379775D02*
X89294158Y-76115770D01*
X89442453Y-76467688D02*
X89442453Y-76379775D01*
X89442453Y-89434656D02*
X89442453Y-76467688D01*
X222458812Y-89522702D02*
X222458812Y-89434656D01*
X222311182Y-89786574D02*
X222458812Y-89522702D01*
X222046512Y-89935002D02*
X222311182Y-89786574D01*
X221961392Y-89935002D02*
X222046512Y-89935002D01*
X208991232Y-89935002D02*
X221961392Y-89935002D01*
X208903452Y-89935002D02*
X208991232Y-89935002D01*
X208640112Y-89786574D02*
X208903452Y-89935002D01*
X208492482Y-89522702D02*
X208640112Y-89786574D01*
X208492482Y-89434656D02*
X208492482Y-89522702D01*
X208492482Y-76467688D02*
X208492482Y-89434656D01*
X208492482Y-76379775D02*
X208492482Y-76467688D01*
X208640112Y-76115770D02*
X208492482Y-76379775D01*
X208903452Y-75971066D02*
X208640112Y-76115770D01*
X208991232Y-75971066D02*
X208903452Y-75971066D01*
X221961392Y-75971066D02*
X208991232Y-75971066D01*
X222046512Y-75971066D02*
X221961392Y-75971066D01*
X222311182Y-76115770D02*
X222046512Y-75971066D01*
X222458812Y-76379775D02*
X222311182Y-76115770D01*
X222458812Y-76467688D02*
X222458812Y-76379775D01*
X222458812Y-89434656D02*
X222458812Y-76467688D01*
X184454062Y-89522702D02*
X184454062Y-89434656D01*
X184306432Y-89786574D02*
X184454062Y-89522702D01*
X184041762Y-89935002D02*
X184306432Y-89786574D01*
X183956642Y-89935002D02*
X184041762Y-89935002D01*
X170986482Y-89935002D02*
X183956642Y-89935002D01*
X170898702Y-89935002D02*
X170986482Y-89935002D01*
X170635362Y-89786574D02*
X170898702Y-89935002D01*
X170487732Y-89522702D02*
X170635362Y-89786574D01*
X170487732Y-89434656D02*
X170487732Y-89522702D01*
X170487732Y-76467688D02*
X170487732Y-89434656D01*
X170487732Y-76379775D02*
X170487732Y-76467688D01*
X170635362Y-76115770D02*
X170487732Y-76379775D01*
X170898702Y-75971066D02*
X170635362Y-76115770D01*
X170986482Y-75971066D02*
X170898702Y-75971066D01*
X183956642Y-75971066D02*
X170986482Y-75971066D01*
X184041762Y-75971066D02*
X183956642Y-75971066D01*
X184306432Y-76115770D02*
X184041762Y-75971066D01*
X184454062Y-76379775D02*
X184306432Y-76115770D01*
X184454062Y-76467688D02*
X184454062Y-76379775D01*
X184454062Y-89434656D02*
X184454062Y-76467688D01*
X241461852Y-89522702D02*
X241461852Y-89434656D01*
X241312892Y-89786574D02*
X241461852Y-89522702D01*
X241049552Y-89935002D02*
X241312892Y-89786574D01*
X240963102Y-89935002D02*
X241049552Y-89935002D01*
X227994272Y-89935002D02*
X240963102Y-89935002D01*
X227906492Y-89935002D02*
X227994272Y-89935002D01*
X227641822Y-89786574D02*
X227906492Y-89935002D01*
X227495522Y-89522702D02*
X227641822Y-89786574D01*
X227495522Y-89434656D02*
X227495522Y-89522702D01*
X227495522Y-76467688D02*
X227495522Y-89434656D01*
X227495522Y-76379775D02*
X227495522Y-76467688D01*
X227641822Y-76115770D02*
X227495522Y-76379775D01*
X227906492Y-75971066D02*
X227641822Y-76115770D01*
X227994272Y-75971066D02*
X227906492Y-75971066D01*
X240963102Y-75971066D02*
X227994272Y-75971066D01*
X241049552Y-75971066D02*
X240963102Y-75971066D01*
X241312892Y-76115770D02*
X241049552Y-75971066D01*
X241461852Y-76379775D02*
X241312892Y-76115770D01*
X241461852Y-76467688D02*
X241461852Y-76379775D01*
X241461852Y-89434656D02*
X241461852Y-76467688D01*
X165452352Y-89522702D02*
X165452352Y-89434656D01*
X165303392Y-89786574D02*
X165452352Y-89522702D01*
X165040052Y-89935002D02*
X165303392Y-89786574D01*
X164953602Y-89935002D02*
X165040052Y-89935002D01*
X151984772Y-89935002D02*
X164953602Y-89935002D01*
X151896992Y-89935002D02*
X151984772Y-89935002D01*
X151632322Y-89786574D02*
X151896992Y-89935002D01*
X151486022Y-89522702D02*
X151632322Y-89786574D01*
X151486022Y-89434656D02*
X151486022Y-89522702D01*
X151486022Y-76467688D02*
X151486022Y-89434656D01*
X151486022Y-76379775D02*
X151486022Y-76467688D01*
X151632322Y-76115770D02*
X151486022Y-76379775D01*
X151896992Y-75971066D02*
X151632322Y-76115770D01*
X151984772Y-75971066D02*
X151896992Y-75971066D01*
X164953602Y-75971066D02*
X151984772Y-75971066D01*
X165040052Y-75971066D02*
X164953602Y-75971066D01*
X165303392Y-76115770D02*
X165040052Y-75971066D01*
X165452352Y-76379775D02*
X165303392Y-76115770D01*
X165452352Y-76467688D02*
X165452352Y-76379775D01*
X165452352Y-89434656D02*
X165452352Y-76467688D01*
X146449578Y-89522702D02*
X146449578Y-89434656D01*
X146301283Y-89786574D02*
X146449578Y-89522702D01*
X146037145Y-89935002D02*
X146301283Y-89786574D01*
X145951227Y-89935002D02*
X146037145Y-89935002D01*
X132982264Y-89935002D02*
X145951227Y-89935002D01*
X132894085Y-89935002D02*
X132982264Y-89935002D01*
X132630346Y-89786574D02*
X132894085Y-89935002D01*
X132483514Y-89522702D02*
X132630346Y-89786574D01*
X132483514Y-89434656D02*
X132483514Y-89522702D01*
X132483514Y-76467688D02*
X132483514Y-89434656D01*
X132483514Y-76379775D02*
X132483514Y-76467688D01*
X132630346Y-76115770D02*
X132483514Y-76379775D01*
X132894085Y-75971066D02*
X132630346Y-76115770D01*
X132982264Y-75971066D02*
X132894085Y-75971066D01*
X145951227Y-75971066D02*
X132982264Y-75971066D01*
X146037145Y-75971066D02*
X145951227Y-75971066D01*
X146301283Y-76115770D02*
X146037145Y-75971066D01*
X146449578Y-76379775D02*
X146301283Y-76115770D01*
X146449578Y-76467688D02*
X146449578Y-76379775D01*
X146449578Y-89434656D02*
X146449578Y-76467688D01*
X127447203Y-89522702D02*
X127447203Y-89434656D01*
X127298908Y-89786574D02*
X127447203Y-89522702D01*
X127034770Y-89935002D02*
X127298908Y-89786574D01*
X126948852Y-89935002D02*
X127034770Y-89935002D01*
X113979889Y-89935002D02*
X126948852Y-89935002D01*
X113891710Y-89935002D02*
X113979889Y-89935002D01*
X113627971Y-89786574D02*
X113891710Y-89935002D01*
X113481139Y-89522702D02*
X113627971Y-89786574D01*
X113481139Y-89434656D02*
X113481139Y-89522702D01*
X113481139Y-76467688D02*
X113481139Y-89434656D01*
X113481139Y-76379775D02*
X113481139Y-76467688D01*
X113627971Y-76115770D02*
X113481139Y-76379775D01*
X113891710Y-75971066D02*
X113627971Y-76115770D01*
X113979889Y-75971066D02*
X113891710Y-75971066D01*
X126948852Y-75971066D02*
X113979889Y-75971066D01*
X127034770Y-75971066D02*
X126948852Y-75971066D01*
X127298908Y-76115770D02*
X127034770Y-75971066D01*
X127447203Y-76379775D02*
X127298908Y-76115770D01*
X127447203Y-76467688D02*
X127447203Y-76379775D01*
X127447203Y-89434656D02*
X127447203Y-76467688D01*
X203457102Y-89522702D02*
X203457102Y-89434656D01*
X203308142Y-89786574D02*
X203457102Y-89522702D01*
X203044802Y-89935002D02*
X203308142Y-89786574D01*
X202958352Y-89935002D02*
X203044802Y-89935002D01*
X189989522Y-89935002D02*
X202958352Y-89935002D01*
X189901742Y-89935002D02*
X189989522Y-89935002D01*
X189637072Y-89786574D02*
X189901742Y-89935002D01*
X189490772Y-89522702D02*
X189637072Y-89786574D01*
X189490772Y-89434656D02*
X189490772Y-89522702D01*
X189490772Y-76467688D02*
X189490772Y-89434656D01*
X189490772Y-76379775D02*
X189490772Y-76467688D01*
X189637072Y-76115770D02*
X189490772Y-76379775D01*
X189901742Y-75971066D02*
X189637072Y-76115770D01*
X189989522Y-75971066D02*
X189901742Y-75971066D01*
X202958352Y-75971066D02*
X189989522Y-75971066D01*
X203044802Y-75971066D02*
X202958352Y-75971066D01*
X203308142Y-76115770D02*
X203044802Y-75971066D01*
X203457102Y-76379775D02*
X203308142Y-76115770D01*
X203457102Y-76467688D02*
X203457102Y-76379775D01*
X203457102Y-89434656D02*
X203457102Y-76467688D01*
X108444828Y-89522702D02*
X108444828Y-89434656D01*
X108296533Y-89786574D02*
X108444828Y-89522702D01*
X108032395Y-89935002D02*
X108296533Y-89786574D01*
X107946477Y-89935002D02*
X108032395Y-89935002D01*
X94977514Y-89935002D02*
X107946477Y-89935002D01*
X94889335Y-89935002D02*
X94977514Y-89935002D01*
X94625596Y-89786574D02*
X94889335Y-89935002D01*
X94478764Y-89522702D02*
X94625596Y-89786574D01*
X94478764Y-89434656D02*
X94478764Y-89522702D01*
X94478764Y-76467688D02*
X94478764Y-89434656D01*
X94478764Y-76379775D02*
X94478764Y-76467688D01*
X94625596Y-76115770D02*
X94478764Y-76379775D01*
X94889335Y-75971066D02*
X94625596Y-76115770D01*
X94977514Y-75971066D02*
X94889335Y-75971066D01*
X107946477Y-75971066D02*
X94977514Y-75971066D01*
X108032395Y-75971066D02*
X107946477Y-75971066D01*
X108296533Y-76115770D02*
X108032395Y-75971066D01*
X108444828Y-76379775D02*
X108296533Y-76115770D01*
X108444828Y-76467688D02*
X108444828Y-76379775D01*
X108444828Y-89434656D02*
X108444828Y-76467688D01*
X279466602Y-89530017D02*
X279466602Y-89441971D01*
X279317642Y-89793889D02*
X279466602Y-89530017D01*
X279054302Y-89940455D02*
X279317642Y-89793889D01*
X278967852Y-89940455D02*
X279054302Y-89940455D01*
X265999022Y-89940455D02*
X278967852Y-89940455D01*
X265911242Y-89940455D02*
X265999022Y-89940455D01*
X265646572Y-89793889D02*
X265911242Y-89940455D01*
X265500272Y-89530017D02*
X265646572Y-89793889D01*
X265500272Y-89441971D02*
X265500272Y-89530017D01*
X265500272Y-76473141D02*
X265500272Y-89441971D01*
X265500272Y-76385228D02*
X265500272Y-76473141D01*
X265646572Y-76121223D02*
X265500272Y-76385228D01*
X265911242Y-75976519D02*
X265646572Y-76121223D01*
X265999022Y-75976519D02*
X265911242Y-75976519D01*
X278967852Y-75976519D02*
X265999022Y-75976519D01*
X279054302Y-75976519D02*
X278967852Y-75976519D01*
X279317642Y-76121223D02*
X279054302Y-75976519D01*
X279466602Y-76385228D02*
X279317642Y-76121223D01*
X279466602Y-76473141D02*
X279466602Y-76385228D01*
X279466602Y-89441971D02*
X279466602Y-76473141D01*
X260463562Y-89530017D02*
X260463562Y-89441971D01*
X260315932Y-89793889D02*
X260463562Y-89530017D01*
X260051262Y-89940455D02*
X260315932Y-89793889D01*
X259966142Y-89940455D02*
X260051262Y-89940455D01*
X246995982Y-89940455D02*
X259966142Y-89940455D01*
X246908202Y-89940455D02*
X246995982Y-89940455D01*
X246644862Y-89793889D02*
X246908202Y-89940455D01*
X246497232Y-89530017D02*
X246644862Y-89793889D01*
X246497232Y-89441971D02*
X246497232Y-89530017D01*
X246497232Y-76473141D02*
X246497232Y-89441971D01*
X246497232Y-76385228D02*
X246497232Y-76473141D01*
X246644862Y-76121223D02*
X246497232Y-76385228D01*
X246908202Y-75976519D02*
X246644862Y-76121223D01*
X246995982Y-75976519D02*
X246908202Y-75976519D01*
X259966142Y-75976519D02*
X246995982Y-75976519D01*
X260051262Y-75976519D02*
X259966142Y-75976519D01*
X260315932Y-76121223D02*
X260051262Y-75976519D01*
X260463562Y-76385228D02*
X260315932Y-76121223D01*
X260463562Y-76473141D02*
X260463562Y-76385228D01*
X260463562Y-89441971D02*
X260463562Y-76473141D01*
X32083410Y-94973441D02*
X32008265Y-94973441D01*
X32308845Y-95118145D02*
X32083410Y-94973441D01*
X32435328Y-95382150D02*
X32308845Y-95118145D01*
X32435328Y-95470063D02*
X32435328Y-95382150D01*
X32435328Y-108437044D02*
X32435328Y-95470063D01*
X32435328Y-108525024D02*
X32435328Y-108437044D01*
X32308845Y-108788949D02*
X32435328Y-108525024D01*
X32083410Y-108937404D02*
X32308845Y-108788949D01*
X32008265Y-108937404D02*
X32083410Y-108937404D01*
X18896500Y-108937404D02*
X32008265Y-108937404D01*
X18819520Y-108937404D02*
X18896500Y-108937404D01*
X18594085Y-108788949D02*
X18819520Y-108937404D01*
X18469464Y-108525024D02*
X18594085Y-108788949D01*
X18469464Y-108437044D02*
X18469464Y-108525024D01*
X18469464Y-95470063D02*
X18469464Y-108437044D01*
X18469464Y-95382150D02*
X18469464Y-95470063D01*
X18594085Y-95118145D02*
X18469464Y-95382150D01*
X18819520Y-94973441D02*
X18594085Y-95118145D01*
X18896500Y-94973441D02*
X18819520Y-94973441D01*
X32008265Y-94973441D02*
X18896500Y-94973441D01*
X51129808Y-94973441D02*
X51065702Y-94973441D01*
X51327712Y-95118145D02*
X51129808Y-94973441D01*
X51437703Y-95382150D02*
X51327712Y-95118145D01*
X51437703Y-95470063D02*
X51437703Y-95382150D01*
X51437703Y-108437044D02*
X51437703Y-95470063D01*
X51437703Y-108525024D02*
X51437703Y-108437044D01*
X51327712Y-108788949D02*
X51437703Y-108525024D01*
X51129808Y-108937404D02*
X51327712Y-108788949D01*
X51065702Y-108937404D02*
X51129808Y-108937404D01*
X37843906Y-108937404D02*
X51065702Y-108937404D01*
X37777938Y-108937404D02*
X37843906Y-108937404D01*
X37579901Y-108788949D02*
X37777938Y-108937404D01*
X37471772Y-108525024D02*
X37579901Y-108788949D01*
X37471772Y-108437044D02*
X37471772Y-108525024D01*
X37471772Y-95470063D02*
X37471772Y-108437044D01*
X37471772Y-95382150D02*
X37471772Y-95470063D01*
X37579901Y-95118145D02*
X37471772Y-95382150D01*
X37777938Y-94973441D02*
X37579901Y-95118145D01*
X37843906Y-94973441D02*
X37777938Y-94973441D01*
X51065702Y-94973441D02*
X37843906Y-94973441D01*
X279466602Y-108525024D02*
X279466602Y-108437044D01*
X279317642Y-108788949D02*
X279466602Y-108525024D01*
X279054302Y-108937404D02*
X279317642Y-108788949D01*
X278967852Y-108937404D02*
X279054302Y-108937404D01*
X265999022Y-108937404D02*
X278967852Y-108937404D01*
X265911242Y-108937404D02*
X265999022Y-108937404D01*
X265646572Y-108788949D02*
X265911242Y-108937404D01*
X265500272Y-108525024D02*
X265646572Y-108788949D01*
X265500272Y-108437044D02*
X265500272Y-108525024D01*
X265500272Y-95470063D02*
X265500272Y-108437044D01*
X265500272Y-95382150D02*
X265500272Y-95470063D01*
X265646572Y-95118145D02*
X265500272Y-95382150D01*
X265911242Y-94973441D02*
X265646572Y-95118145D01*
X265999022Y-94973441D02*
X265911242Y-94973441D01*
X278967852Y-94973441D02*
X265999022Y-94973441D01*
X279054302Y-94973441D02*
X278967852Y-94973441D01*
X279317642Y-95118145D02*
X279054302Y-94973441D01*
X279466602Y-95382150D02*
X279317642Y-95118145D01*
X279466602Y-95470063D02*
X279466602Y-95382150D01*
X279466602Y-108437044D02*
X279466602Y-95470063D01*
X80630538Y-108937404D02*
X80718185Y-108937404D01*
X80366267Y-108788949D02*
X80630538Y-108937404D01*
X80219967Y-108525024D02*
X80366267Y-108788949D01*
X80219967Y-108437044D02*
X80219967Y-108525024D01*
X80219967Y-95470063D02*
X80219967Y-108437044D01*
X80219967Y-95382150D02*
X80219967Y-95470063D01*
X80366267Y-95118145D02*
X80219967Y-95382150D01*
X80630538Y-94973441D02*
X80366267Y-95118145D01*
X80718185Y-94973441D02*
X80630538Y-94973441D01*
X93677838Y-94973441D02*
X80718185Y-94973441D01*
X93764155Y-94973441D02*
X93677838Y-94973441D01*
X94028293Y-95118145D02*
X93764155Y-94973441D01*
X94176588Y-95382150D02*
X94028293Y-95118145D01*
X94176588Y-95470063D02*
X94176588Y-95382150D01*
X94176588Y-108437044D02*
X94176588Y-95470063D01*
X94176588Y-108525024D02*
X94176588Y-108437044D01*
X94028293Y-108788949D02*
X94176588Y-108525024D01*
X93764155Y-108937404D02*
X94028293Y-108788949D01*
X93677838Y-108937404D02*
X93764155Y-108937404D01*
X80718185Y-108937404D02*
X93677838Y-108937404D01*
X298468312Y-108525024D02*
X298468312Y-108437044D01*
X298320682Y-108788949D02*
X298468312Y-108525024D01*
X298056012Y-108937404D02*
X298320682Y-108788949D01*
X297970892Y-108937404D02*
X298056012Y-108937404D01*
X285000732Y-108937404D02*
X297970892Y-108937404D01*
X284912952Y-108937404D02*
X285000732Y-108937404D01*
X284649612Y-108788949D02*
X284912952Y-108937404D01*
X284501982Y-108525024D02*
X284649612Y-108788949D01*
X284501982Y-108437044D02*
X284501982Y-108525024D01*
X284501982Y-95470063D02*
X284501982Y-108437044D01*
X284501982Y-95382150D02*
X284501982Y-95470063D01*
X284649612Y-95118145D02*
X284501982Y-95382150D01*
X284912952Y-94973441D02*
X284649612Y-95118145D01*
X285000732Y-94973441D02*
X284912952Y-94973441D01*
X297970892Y-94973441D02*
X285000732Y-94973441D01*
X298056012Y-94973441D02*
X297970892Y-94973441D01*
X298320682Y-95118145D02*
X298056012Y-94973441D01*
X298468312Y-95382150D02*
X298320682Y-95118145D01*
X298468312Y-95470063D02*
X298468312Y-95382150D01*
X298468312Y-108437044D02*
X298468312Y-95470063D01*
X70077387Y-94973441D02*
X70001843Y-94973441D01*
X70308142Y-95118145D02*
X70077387Y-94973441D01*
X70436354Y-95382150D02*
X70308142Y-95118145D01*
X70436354Y-95470063D02*
X70436354Y-95382150D01*
X70436354Y-108437044D02*
X70436354Y-95470063D01*
X70436354Y-108525024D02*
X70436354Y-108437044D01*
X70308142Y-108788949D02*
X70436354Y-108525024D01*
X70077387Y-108937404D02*
X70308142Y-108788949D01*
X70001843Y-108937404D02*
X70077387Y-108937404D01*
X56910387Y-108937404D02*
X70001843Y-108937404D01*
X56831651Y-108937404D02*
X56910387Y-108937404D01*
X56600630Y-108788949D02*
X56831651Y-108937404D01*
X56474147Y-108525024D02*
X56600630Y-108788949D01*
X56474147Y-108437044D02*
X56474147Y-108525024D01*
X56474147Y-95470063D02*
X56474147Y-108437044D01*
X56474147Y-95382150D02*
X56474147Y-95470063D01*
X56600630Y-95118145D02*
X56474147Y-95382150D01*
X56831651Y-94973441D02*
X56600630Y-95118145D01*
X56910387Y-94973441D02*
X56831651Y-94973441D01*
X70001843Y-94973441D02*
X56910387Y-94973441D01*
X223190312Y-108937404D02*
X236256232Y-108937404D01*
X223109182Y-108937404D02*
X223190312Y-108937404D01*
X222869782Y-108805441D02*
X223109182Y-108937404D01*
X222738112Y-108565349D02*
X222869782Y-108805441D01*
X222738112Y-108486534D02*
X222738112Y-108565349D01*
X222738112Y-95429764D02*
X222738112Y-108486534D01*
X222738112Y-95349033D02*
X222738112Y-95429764D01*
X222869782Y-95108968D02*
X222738112Y-95349033D01*
X223107852Y-94978894D02*
X222869782Y-95108968D01*
X223188982Y-94978894D02*
X223107852Y-94978894D01*
X223892552Y-94978894D02*
X223188982Y-94978894D01*
X226008582Y-94977032D02*
X223892552Y-94978894D01*
X229723272Y-94975170D02*
X226008582Y-94977032D01*
X233435302Y-94973441D02*
X229723272Y-94975170D01*
X235563302Y-94973441D02*
X233435302Y-94973441D01*
X236256232Y-94973441D02*
X235563302Y-94973441D01*
X236329382Y-94973441D02*
X236256232Y-94973441D01*
X236555482Y-95081437D02*
X236329382Y-94973441D01*
X236576762Y-95103515D02*
X236555482Y-95081437D01*
X236596712Y-95123731D02*
X236576762Y-95103515D01*
X236708432Y-95345442D02*
X236596712Y-95123731D01*
X236708432Y-95426040D02*
X236708432Y-95345442D01*
X236708432Y-108486534D02*
X236708432Y-95426040D01*
X236708432Y-108559843D02*
X236708432Y-108486534D01*
X236596712Y-108783443D02*
X236708432Y-108559843D01*
X236576762Y-108805441D02*
X236596712Y-108783443D01*
X236555482Y-108825604D02*
X236576762Y-108805441D01*
X236334702Y-108937404D02*
X236555482Y-108825604D01*
X236256232Y-108937404D02*
X236334702Y-108937404D01*
X247033222Y-108937404D02*
X259948852Y-108937404D01*
X246941452Y-108937404D02*
X247033222Y-108937404D01*
X246668802Y-108785278D02*
X246941452Y-108937404D01*
X246519842Y-108514025D02*
X246668802Y-108785278D01*
X246519842Y-108424223D02*
X246519842Y-108514025D01*
X246519842Y-95492008D02*
X246519842Y-108424223D01*
X246519842Y-95400371D02*
X246519842Y-95492008D01*
X246668802Y-95129184D02*
X246519842Y-95400371D01*
X246941452Y-94978894D02*
X246668802Y-95129184D01*
X247033222Y-94978894D02*
X246941452Y-94978894D01*
X247708862Y-94978894D02*
X247033222Y-94978894D01*
X249738442Y-94977032D02*
X247708862Y-94978894D01*
X253490372Y-94975170D02*
X249738442Y-94977032D01*
X257242302Y-94973441D02*
X253490372Y-94975170D01*
X259337052Y-94973441D02*
X257242302Y-94973441D01*
X259948852Y-94973441D02*
X259337052Y-94973441D01*
X260032642Y-94973441D02*
X259948852Y-94973441D01*
X260288002Y-95098062D02*
X260032642Y-94973441D01*
X260313272Y-95121869D02*
X260288002Y-95098062D01*
X260337212Y-95145676D02*
X260313272Y-95121869D01*
X260463562Y-95396780D02*
X260337212Y-95145676D01*
X260463562Y-95488417D02*
X260463562Y-95396780D01*
X260463562Y-108424223D02*
X260463562Y-95488417D01*
X260463562Y-108514025D02*
X260463562Y-108424223D01*
X260311942Y-108785278D02*
X260463562Y-108514025D01*
X260039292Y-108937404D02*
X260311942Y-108785278D01*
X259948852Y-108937404D02*
X260039292Y-108937404D01*
X155538532Y-108942896D02*
X155452082Y-108942896D01*
X155801872Y-108796277D02*
X155538532Y-108942896D01*
X155950832Y-108532352D02*
X155801872Y-108796277D01*
X155950832Y-108444386D02*
X155950832Y-108532352D01*
X155950832Y-95475516D02*
X155950832Y-108444386D01*
X155950832Y-95387603D02*
X155950832Y-95475516D01*
X155801872Y-95123731D02*
X155950832Y-95387603D01*
X155538532Y-94978894D02*
X155801872Y-95123731D01*
X155452082Y-94978894D02*
X155538532Y-94978894D01*
X142483385Y-94978894D02*
X155452082Y-94978894D01*
X142395206Y-94978894D02*
X142483385Y-94978894D01*
X142131600Y-95123731D02*
X142395206Y-94978894D01*
X141984635Y-95387603D02*
X142131600Y-95123731D01*
X141984635Y-95475516D02*
X141984635Y-95387603D01*
X141984635Y-108444386D02*
X141984635Y-95475516D01*
X141984635Y-108532352D02*
X141984635Y-108444386D01*
X142131600Y-108796277D02*
X141984635Y-108532352D01*
X142395206Y-108942896D02*
X142131600Y-108796277D01*
X142483385Y-108942896D02*
X142395206Y-108942896D01*
X155452082Y-108942896D02*
X142483385Y-108942896D01*
X174540242Y-108942896D02*
X174455122Y-108942896D01*
X174804912Y-108796277D02*
X174540242Y-108942896D01*
X174952542Y-108532352D02*
X174804912Y-108796277D01*
X174952542Y-108444386D02*
X174952542Y-108532352D01*
X174952542Y-95475516D02*
X174952542Y-108444386D01*
X174952542Y-95387603D02*
X174952542Y-95475516D01*
X174804912Y-95123731D02*
X174952542Y-95387603D01*
X174540242Y-94978894D02*
X174804912Y-95123731D01*
X174455122Y-94978894D02*
X174540242Y-94978894D01*
X161486292Y-94978894D02*
X174455122Y-94978894D01*
X161397182Y-94978894D02*
X161486292Y-94978894D01*
X161133842Y-95123731D02*
X161397182Y-94978894D01*
X160987542Y-95387603D02*
X161133842Y-95123731D01*
X160987542Y-95475516D02*
X160987542Y-95387603D01*
X160987542Y-108444386D02*
X160987542Y-95475516D01*
X160987542Y-108532352D02*
X160987542Y-108444386D01*
X161133842Y-108796277D02*
X160987542Y-108532352D01*
X161397182Y-108942896D02*
X161133842Y-108796277D01*
X161486292Y-108942896D02*
X161397182Y-108942896D01*
X174455122Y-108942896D02*
X161486292Y-108942896D01*
X165452352Y-32515577D02*
X165452352Y-32427398D01*
X165303392Y-32779316D02*
X165452352Y-32515577D01*
X165040052Y-32928010D02*
X165303392Y-32779316D01*
X164953602Y-32928010D02*
X165040052Y-32928010D01*
X151984772Y-32928010D02*
X164953602Y-32928010D01*
X151896992Y-32928010D02*
X151984772Y-32928010D01*
X151632322Y-32779316D02*
X151896992Y-32928010D01*
X151486022Y-32515577D02*
X151632322Y-32779316D01*
X151486022Y-32427398D02*
X151486022Y-32515577D01*
X151486022Y-19460696D02*
X151486022Y-32427398D01*
X151486022Y-19372517D02*
X151486022Y-19460696D01*
X151632322Y-19108911D02*
X151486022Y-19372517D01*
X151896992Y-18963941D02*
X151632322Y-19108911D01*
X151984772Y-18963941D02*
X151896992Y-18963941D01*
X164953602Y-18963941D02*
X151984772Y-18963941D01*
X165040052Y-18963941D02*
X164953602Y-18963941D01*
X165303392Y-19108911D02*
X165040052Y-18963941D01*
X165452352Y-19372517D02*
X165303392Y-19108911D01*
X165452352Y-19460696D02*
X165452352Y-19372517D01*
X165452352Y-32427398D02*
X165452352Y-19460696D01*
X300265142Y-70932627D02*
X298468312Y-70932627D01*
X300356912Y-70932627D02*
X300265142Y-70932627D01*
X300634882Y-70778746D02*
X300356912Y-70932627D01*
X300790492Y-70498249D02*
X300634882Y-70778746D01*
X300790492Y-70406612D02*
X300790492Y-70498249D01*
X300790492Y-18606304D02*
X300790492Y-70406612D01*
X300785172Y-18448699D02*
X300790492Y-18606304D01*
X300765222Y-18292956D02*
X300785172Y-18448699D01*
X300733302Y-18139075D02*
X300765222Y-18292956D01*
X300692072Y-17990780D02*
X300733302Y-18139075D01*
X300636212Y-17842086D02*
X300692072Y-17990780D01*
X300572372Y-17699377D02*
X300636212Y-17842086D01*
X300495232Y-17563850D02*
X300572372Y-17699377D01*
X300410112Y-17431515D02*
X300495232Y-17563850D01*
X300310362Y-17309022D02*
X300410112Y-17431515D01*
X300206622Y-17193578D02*
X300310362Y-17309022D01*
X300090912Y-17090902D02*
X300206622Y-17193578D01*
X299967222Y-16991817D02*
X300090912Y-17090902D01*
X299835552Y-16903638D02*
X299967222Y-16991817D01*
X299699892Y-16826764D02*
X299835552Y-16903638D01*
X299558912Y-16762924D02*
X299699892Y-16826764D01*
X299412612Y-16707463D02*
X299558912Y-16762924D01*
X299260992Y-16665834D02*
X299412612Y-16707463D01*
X299106712Y-16634313D02*
X299260992Y-16665834D01*
X298949772Y-16617954D02*
X299106712Y-16634313D01*
X298794162Y-16610373D02*
X298949772Y-16617954D01*
X18123065Y-16608511D02*
X298794162Y-16610373D01*
X17967282Y-16617954D02*
X18123065Y-16608511D01*
X17811486Y-16634313D02*
X17967282Y-16617954D01*
X17657538Y-16665834D02*
X17811486Y-16634313D01*
X17507248Y-16707463D02*
X17657538Y-16665834D01*
X17360616Y-16762924D02*
X17507248Y-16707463D01*
X17217668Y-16826764D02*
X17360616Y-16762924D01*
X17082037Y-16903638D02*
X17217668Y-16826764D01*
X16950077Y-16991817D02*
X17082037Y-16903638D01*
X16827279Y-17090902D02*
X16950077Y-16991817D01*
X16711810Y-17193578D02*
X16827279Y-17090902D01*
X16607344Y-17309022D02*
X16711810Y-17193578D01*
X16508372Y-17431515D02*
X16607344Y-17309022D01*
X16422233Y-17563850D02*
X16508372Y-17431515D01*
X16345254Y-17699377D02*
X16422233Y-17563850D01*
X16281105Y-17842086D02*
X16345254Y-17699377D01*
X16226122Y-17990780D02*
X16281105Y-17842086D01*
X16183968Y-18139075D02*
X16226122Y-17990780D01*
X16152811Y-18292956D02*
X16183968Y-18139075D01*
X16134482Y-18448699D02*
X16152811Y-18292956D01*
X16128984Y-18606304D02*
X16134482Y-18448699D01*
X16127151Y-70139016D02*
X16128984Y-18606304D01*
X16273774Y-70492796D02*
X16127151Y-70139016D01*
X16625671Y-70639362D02*
X16273774Y-70492796D01*
X19620446Y-70639362D02*
X16625671Y-70639362D01*
X20390223Y-70760392D02*
X19620446Y-70639362D01*
X21084869Y-71114039D02*
X20390223Y-70760392D01*
X21636499Y-71665723D02*
X21084869Y-71114039D01*
X21990226Y-72360382D02*
X21636499Y-71665723D01*
X22113065Y-73132048D02*
X21990226Y-72360382D01*
X22098382Y-75971066D02*
X22113065Y-73132048D01*
X50939219Y-75976519D02*
X22098382Y-75971066D01*
X51025403Y-75976519D02*
X50939219Y-75976519D01*
X51289275Y-76121223D02*
X51025403Y-75976519D01*
X51437703Y-76385228D02*
X51289275Y-76121223D01*
X51437703Y-76473141D02*
X51437703Y-76385228D01*
X51437703Y-89441971D02*
X51437703Y-76473141D01*
X51437703Y-89530017D02*
X51437703Y-89441971D01*
X51289275Y-89793889D02*
X51437703Y-89530017D01*
X51025403Y-89940455D02*
X51289275Y-89793889D01*
X50939219Y-89940455D02*
X51025403Y-89940455D01*
X50352689Y-89940455D02*
X50939219Y-89940455D01*
X50352689Y-91437902D02*
X50352689Y-89940455D01*
X50352689Y-91524086D02*
X50352689Y-91437902D01*
X50204261Y-91787958D02*
X50352689Y-91524086D01*
X49940389Y-91934657D02*
X50204261Y-91787958D01*
X49854205Y-91934657D02*
X49940389Y-91934657D01*
X43868274Y-91934657D02*
X49854205Y-91934657D01*
X43780361Y-91934657D02*
X43868274Y-91934657D01*
X43516356Y-91787958D02*
X43780361Y-91934657D01*
X43369790Y-91524086D02*
X43516356Y-91787958D01*
X43369790Y-91437902D02*
X43369790Y-91524086D01*
X43369790Y-89940455D02*
X43369790Y-91437902D01*
X26537430Y-89940455D02*
X43369790Y-89940455D01*
X26537430Y-91437902D02*
X26537430Y-89940455D01*
X26537430Y-91524086D02*
X26537430Y-91437902D01*
X26388922Y-91787958D02*
X26537430Y-91524086D01*
X26125010Y-91934657D02*
X26388922Y-91787958D01*
X26037031Y-91934657D02*
X26125010Y-91934657D01*
X20052988Y-91934657D02*
X26037031Y-91934657D01*
X19965022Y-91934657D02*
X20052988Y-91934657D01*
X19701097Y-91787958D02*
X19965022Y-91934657D01*
X19554478Y-91524086D02*
X19701097Y-91787958D01*
X19554478Y-91437902D02*
X19554478Y-91524086D01*
X19554478Y-89940455D02*
X19554478Y-91437902D01*
X18967974Y-89940455D02*
X19554478Y-89940455D01*
X18880008Y-89940455D02*
X18967974Y-89940455D01*
X18616083Y-89793889D02*
X18880008Y-89940455D01*
X18469464Y-89530017D02*
X18616083Y-89793889D01*
X18469464Y-89441971D02*
X18469464Y-89530017D01*
X18469464Y-75972795D02*
X18469464Y-89441971D01*
X16625671Y-75971066D02*
X18469464Y-75972795D01*
X16535862Y-75971066D02*
X16625671Y-75971066D01*
X16271942Y-76115770D02*
X16535862Y-75971066D01*
X16127151Y-76379775D02*
X16271942Y-76115770D01*
X16127151Y-76467688D02*
X16127151Y-76379775D01*
X16127151Y-109307622D02*
X16127151Y-76467688D01*
X16134482Y-109461570D02*
X16127151Y-109307622D01*
X16152811Y-109617366D02*
X16134482Y-109461570D01*
X16183968Y-109769491D02*
X16152811Y-109617366D01*
X16226122Y-109919781D02*
X16183968Y-109769491D01*
X16281105Y-110070071D02*
X16226122Y-109919781D01*
X16345254Y-110209349D02*
X16281105Y-110070071D01*
X16422233Y-110344985D02*
X16345254Y-110209349D01*
X16508372Y-110478775D02*
X16422233Y-110344985D01*
X16607344Y-110599744D02*
X16508372Y-110478775D01*
X16711810Y-110717042D02*
X16607344Y-110599744D01*
X16827279Y-110819678D02*
X16711810Y-110717042D01*
X16950077Y-110918646D02*
X16827279Y-110819678D01*
X17082037Y-111006619D02*
X16950077Y-110918646D01*
X17217668Y-111083598D02*
X17082037Y-111006619D01*
X17360616Y-111147747D02*
X17217668Y-111083598D01*
X17507248Y-111204563D02*
X17360616Y-111147747D01*
X17657538Y-111244884D02*
X17507248Y-111204563D01*
X17811486Y-111274208D02*
X17657538Y-111244884D01*
X17967282Y-111292537D02*
X17811486Y-111274208D01*
X18123065Y-111301701D02*
X17967282Y-111292537D01*
X298794162Y-111299868D02*
X18123065Y-111301701D01*
X298949772Y-111292537D02*
X298794162Y-111299868D01*
X299106712Y-111274208D02*
X298949772Y-111292537D01*
X299260992Y-111244884D02*
X299106712Y-111274208D01*
X299412612Y-111204563D02*
X299260992Y-111244884D01*
X299558912Y-111147747D02*
X299412612Y-111204563D01*
X299699892Y-111083598D02*
X299558912Y-111147747D01*
X299835552Y-111006619D02*
X299699892Y-111083598D01*
X299967222Y-110918646D02*
X299835552Y-111006619D01*
X300090912Y-110819678D02*
X299967222Y-110918646D01*
X300206622Y-110717042D02*
X300090912Y-110819678D01*
X300310362Y-110599744D02*
X300206622Y-110717042D01*
X300410112Y-110478775D02*
X300310362Y-110599744D01*
X300495232Y-110344985D02*
X300410112Y-110478775D01*
X300572372Y-110209349D02*
X300495232Y-110344985D01*
X300636212Y-110070071D02*
X300572372Y-110209349D01*
X300692072Y-109919781D02*
X300636212Y-110070071D01*
X300733302Y-109769491D02*
X300692072Y-109919781D01*
X300765222Y-109617366D02*
X300733302Y-109769491D01*
X300785172Y-109461570D02*
X300765222Y-109617366D01*
X300790492Y-109307622D02*
X300785172Y-109461570D01*
X300790492Y-76511711D02*
X300790492Y-109307622D01*
X300790492Y-76416350D02*
X300790492Y-76511711D01*
X300630892Y-76132262D02*
X300790492Y-76416350D01*
X300347602Y-75976519D02*
X300630892Y-76132262D01*
X300253172Y-75976519D02*
X300347602Y-75976519D01*
X298468312Y-75976519D02*
X300253172Y-75976519D01*
X298468312Y-89441971D02*
X298468312Y-75976519D01*
X298468312Y-89530017D02*
X298468312Y-89441971D01*
X298320682Y-89793889D02*
X298468312Y-89530017D01*
X298056012Y-89940455D02*
X298320682Y-89793889D01*
X297970892Y-89940455D02*
X298056012Y-89940455D01*
X285000732Y-89940455D02*
X297970892Y-89940455D01*
X284912952Y-89940455D02*
X285000732Y-89940455D01*
X284649612Y-89793889D02*
X284912952Y-89940455D01*
X284501982Y-89530017D02*
X284649612Y-89793889D01*
X284501982Y-89441971D02*
X284501982Y-89530017D01*
X284501982Y-76473141D02*
X284501982Y-89441971D01*
X284501982Y-76385228D02*
X284501982Y-76473141D01*
X284649612Y-76121223D02*
X284501982Y-76385228D01*
X284912952Y-75976519D02*
X284649612Y-76121223D01*
X285000732Y-75976519D02*
X284912952Y-75976519D01*
X294938492Y-75971066D02*
X285000732Y-75976519D01*
X294938492Y-72683040D02*
X294938492Y-75971066D01*
X294938492Y-72512534D02*
X294938492Y-72683040D01*
X295074152Y-72003011D02*
X294938492Y-72512534D01*
X295447882Y-71447603D02*
X295074152Y-72003011D01*
X296003822Y-71072011D02*
X295447882Y-71447603D01*
X296514542Y-70934489D02*
X296003822Y-71072011D01*
X296684782Y-70934489D02*
X296514542Y-70934489D01*
X296906892Y-70932627D02*
X296684782Y-70934489D01*
X297909712Y-70932627D02*
X296906892Y-70932627D01*
X298468312Y-70932627D02*
X297909712Y-70932627D01*
X298468312Y-70932627D02*
X298468312Y-70932627D01*
X105492095Y-92982963D02*
X105580407Y-92982963D01*
X105228489Y-93127800D02*
X105492095Y-92982963D01*
X105081657Y-93391672D02*
X105228489Y-93127800D01*
X105081657Y-93481447D02*
X105081657Y-93391672D01*
X105077800Y-107944027D02*
X105081657Y-93481447D01*
X105077800Y-108444386D02*
X105077800Y-107944027D01*
X105077800Y-108532352D02*
X105077800Y-108444386D01*
X105222770Y-108796277D02*
X105077800Y-108532352D01*
X105486509Y-108942896D02*
X105222770Y-108796277D01*
X105576550Y-108942896D02*
X105486509Y-108942896D01*
X135364826Y-108942896D02*
X105576550Y-108942896D01*
X135451143Y-108942896D02*
X135364826Y-108942896D01*
X135714882Y-108796277D02*
X135451143Y-108942896D01*
X135863576Y-108532352D02*
X135714882Y-108796277D01*
X135863576Y-108444386D02*
X135863576Y-108532352D01*
X135863576Y-93481447D02*
X135863576Y-108444386D01*
X135863576Y-93391672D02*
X135863576Y-93481447D01*
X135714882Y-93127800D02*
X135863576Y-93391672D01*
X135451143Y-92982963D02*
X135714882Y-93127800D01*
X135364826Y-92982963D02*
X135451143Y-92982963D01*
X129378895Y-92982963D02*
X135364826Y-92982963D01*
X129291115Y-92982963D02*
X129378895Y-92982963D01*
X129026977Y-93127800D02*
X129291115Y-92982963D01*
X128880544Y-93391672D02*
X129026977Y-93127800D01*
X128880544Y-93481447D02*
X128880544Y-93391672D01*
X128880544Y-94978894D02*
X128880544Y-93481447D01*
X112048197Y-94978894D02*
X128880544Y-94978894D01*
X112048197Y-93481447D02*
X112048197Y-94978894D01*
X112048197Y-93391672D02*
X112048197Y-93481447D01*
X111899503Y-93127800D02*
X112048197Y-93391672D01*
X111635764Y-92982963D02*
X111899503Y-93127800D01*
X111547585Y-92982963D02*
X111635764Y-92982963D01*
X105580407Y-92982963D02*
X111547585Y-92982963D01*
X181501462Y-92982963D02*
X181589242Y-92982963D01*
X181238122Y-93127800D02*
X181501462Y-92982963D01*
X181090492Y-93391672D02*
X181238122Y-93127800D01*
X181090492Y-93481447D02*
X181090492Y-93391672D01*
X181087832Y-107944027D02*
X181090492Y-93481447D01*
X181087832Y-108444386D02*
X181087832Y-107944027D01*
X181087832Y-108532352D02*
X181087832Y-108444386D01*
X181232802Y-108796277D02*
X181087832Y-108532352D01*
X181496142Y-108942896D02*
X181232802Y-108796277D01*
X181586582Y-108942896D02*
X181496142Y-108942896D01*
X211374592Y-108942896D02*
X181586582Y-108942896D01*
X211461042Y-108942896D02*
X211374592Y-108942896D01*
X211724382Y-108796277D02*
X211461042Y-108942896D01*
X211873342Y-108532352D02*
X211724382Y-108796277D01*
X211873342Y-108444386D02*
X211873342Y-108532352D01*
X211873342Y-93481447D02*
X211873342Y-108444386D01*
X211873342Y-93391672D02*
X211873342Y-93481447D01*
X211724382Y-93127800D02*
X211873342Y-93391672D01*
X211461042Y-92982963D02*
X211724382Y-93127800D01*
X211374592Y-92982963D02*
X211461042Y-92982963D01*
X205388262Y-92982963D02*
X211374592Y-92982963D01*
X205300482Y-92982963D02*
X205388262Y-92982963D01*
X205035812Y-93127800D02*
X205300482Y-92982963D01*
X204889512Y-93391672D02*
X205035812Y-93127800D01*
X204889512Y-93481447D02*
X204889512Y-93391672D01*
X204889512Y-94978894D02*
X204889512Y-93481447D01*
X188058362Y-94978894D02*
X204889512Y-94978894D01*
X188058362Y-93481447D02*
X188058362Y-94978894D01*
X188058362Y-93391672D02*
X188058362Y-93481447D01*
X187909402Y-93127800D02*
X188058362Y-93391672D01*
X187644732Y-92982963D02*
X187909402Y-93127800D01*
X187556952Y-92982963D02*
X187644732Y-92982963D01*
X181589242Y-92982963D02*
X187556952Y-92982963D01*
X127447203Y-32515577D02*
X127447203Y-32427398D01*
X127298908Y-32781178D02*
X127447203Y-32515577D01*
X127034770Y-32929872D02*
X127298908Y-32781178D01*
X126948852Y-32929872D02*
X127034770Y-32929872D01*
X113979889Y-32929872D02*
X126948852Y-32929872D01*
X113891710Y-32929872D02*
X113979889Y-32929872D01*
X113627971Y-32781178D02*
X113891710Y-32929872D01*
X113481139Y-32515577D02*
X113627971Y-32781178D01*
X113481139Y-32427398D02*
X113481139Y-32515577D01*
X113481139Y-19460696D02*
X113481139Y-32427398D01*
X113481139Y-19372517D02*
X113481139Y-19460696D01*
X113627971Y-19108911D02*
X113481139Y-19372517D01*
X113891710Y-18963941D02*
X113627971Y-19108911D01*
X113979889Y-18963941D02*
X113891710Y-18963941D01*
X126948852Y-18963941D02*
X113979889Y-18963941D01*
X127034770Y-18963941D02*
X126948852Y-18963941D01*
X127298908Y-19108911D02*
X127034770Y-18963941D01*
X127447203Y-19372517D02*
X127298908Y-19108911D01*
X127447203Y-19460696D02*
X127447203Y-19372517D01*
X127447203Y-32427398D02*
X127447203Y-19460696D01*
X184454062Y-32515577D02*
X184454062Y-32427398D01*
X184306432Y-32781178D02*
X184454062Y-32515577D01*
X184041762Y-32929872D02*
X184306432Y-32781178D01*
X183956642Y-32929872D02*
X184041762Y-32929872D01*
X170986482Y-32929872D02*
X183956642Y-32929872D01*
X170898702Y-32929872D02*
X170986482Y-32929872D01*
X170635362Y-32781178D02*
X170898702Y-32929872D01*
X170487732Y-32515577D02*
X170635362Y-32781178D01*
X170487732Y-32427398D02*
X170487732Y-32515577D01*
X170487732Y-19460696D02*
X170487732Y-32427398D01*
X170487732Y-19372517D02*
X170487732Y-19460696D01*
X170635362Y-19108911D02*
X170487732Y-19372517D01*
X170898702Y-18963941D02*
X170635362Y-19108911D01*
X170986482Y-18963941D02*
X170898702Y-18963941D01*
X183956642Y-18963941D02*
X170986482Y-18963941D01*
X184041762Y-18963941D02*
X183956642Y-18963941D01*
X184306432Y-19108911D02*
X184041762Y-18963941D01*
X184454062Y-19372517D02*
X184306432Y-19108911D01*
X184454062Y-19460696D02*
X184454062Y-19372517D01*
X184454062Y-32427398D02*
X184454062Y-19460696D01*
X146449578Y-32515577D02*
X146449578Y-32427398D01*
X146301283Y-32781178D02*
X146449578Y-32515577D01*
X146037145Y-32929872D02*
X146301283Y-32781178D01*
X145951227Y-32929872D02*
X146037145Y-32929872D01*
X132982264Y-32929872D02*
X145951227Y-32929872D01*
X132894085Y-32929872D02*
X132982264Y-32929872D01*
X132630346Y-32781178D02*
X132894085Y-32929872D01*
X132483514Y-32515577D02*
X132630346Y-32781178D01*
X132483514Y-32427398D02*
X132483514Y-32515577D01*
X132483514Y-19460696D02*
X132483514Y-32427398D01*
X132483514Y-19372517D02*
X132483514Y-19460696D01*
X132630346Y-19108911D02*
X132483514Y-19372517D01*
X132894085Y-18963941D02*
X132630346Y-19108911D01*
X132982264Y-18963941D02*
X132894085Y-18963941D01*
X145951227Y-18963941D02*
X132982264Y-18963941D01*
X146037145Y-18963941D02*
X145951227Y-18963941D01*
X146301283Y-19108911D02*
X146037145Y-18963941D01*
X146449578Y-19372517D02*
X146301283Y-19108911D01*
X146449578Y-19460696D02*
X146449578Y-19372517D01*
X146449578Y-32427398D02*
X146449578Y-19460696D01*
X108444828Y-32515577D02*
X108444828Y-32427398D01*
X108296533Y-32781178D02*
X108444828Y-32515577D01*
X108032395Y-32929872D02*
X108296533Y-32781178D01*
X107946477Y-32929872D02*
X108032395Y-32929872D01*
X94977514Y-32929872D02*
X107946477Y-32929872D01*
X94889335Y-32929872D02*
X94977514Y-32929872D01*
X94625596Y-32781178D02*
X94889335Y-32929872D01*
X94478764Y-32515577D02*
X94625596Y-32781178D01*
X94478764Y-32427398D02*
X94478764Y-32515577D01*
X94478764Y-19460696D02*
X94478764Y-32427398D01*
X94478764Y-19372517D02*
X94478764Y-19460696D01*
X94625596Y-19108911D02*
X94478764Y-19372517D01*
X94889335Y-18963941D02*
X94625596Y-19108911D01*
X94977514Y-18963941D02*
X94889335Y-18963941D01*
X107946477Y-18963941D02*
X94977514Y-18963941D01*
X108032395Y-18963941D02*
X107946477Y-18963941D01*
X108296533Y-19108911D02*
X108032395Y-18963941D01*
X108444828Y-19372517D02*
X108296533Y-19108911D01*
X108444828Y-19460696D02*
X108444828Y-19372517D01*
X108444828Y-32427398D02*
X108444828Y-19460696D01*
X260463562Y-32515577D02*
X260463562Y-32427398D01*
X260315932Y-32781178D02*
X260463562Y-32515577D01*
X260051262Y-32929872D02*
X260315932Y-32781178D01*
X259966142Y-32929872D02*
X260051262Y-32929872D01*
X246995982Y-32929872D02*
X259966142Y-32929872D01*
X246908202Y-32929872D02*
X246995982Y-32929872D01*
X246644862Y-32781178D02*
X246908202Y-32929872D01*
X246497232Y-32515577D02*
X246644862Y-32781178D01*
X246497232Y-32427398D02*
X246497232Y-32515577D01*
X246497232Y-19460696D02*
X246497232Y-32427398D01*
X246497232Y-19372517D02*
X246497232Y-19460696D01*
X246644862Y-19108911D02*
X246497232Y-19372517D01*
X246908202Y-18963941D02*
X246644862Y-19108911D01*
X246995982Y-18963941D02*
X246908202Y-18963941D01*
X259966142Y-18963941D02*
X246995982Y-18963941D01*
X260051262Y-18963941D02*
X259966142Y-18963941D01*
X260315932Y-19108911D02*
X260051262Y-18963941D01*
X260463562Y-19372517D02*
X260315932Y-19108911D01*
X260463562Y-19460696D02*
X260463562Y-19372517D01*
X260463562Y-32427398D02*
X260463562Y-19460696D01*
X241461852Y-32515577D02*
X241461852Y-32427398D01*
X241312892Y-32781178D02*
X241461852Y-32515577D01*
X241049552Y-32929872D02*
X241312892Y-32781178D01*
X240963102Y-32929872D02*
X241049552Y-32929872D01*
X227994272Y-32929872D02*
X240963102Y-32929872D01*
X227906492Y-32929872D02*
X227994272Y-32929872D01*
X227641822Y-32781178D02*
X227906492Y-32929872D01*
X227495522Y-32515577D02*
X227641822Y-32781178D01*
X227495522Y-32427398D02*
X227495522Y-32515577D01*
X227495522Y-19460696D02*
X227495522Y-32427398D01*
X227495522Y-19372517D02*
X227495522Y-19460696D01*
X227641822Y-19108911D02*
X227495522Y-19372517D01*
X227906492Y-18963941D02*
X227641822Y-19108911D01*
X227994272Y-18963941D02*
X227906492Y-18963941D01*
X240963102Y-18963941D02*
X227994272Y-18963941D01*
X241049552Y-18963941D02*
X240963102Y-18963941D01*
X241312892Y-19108911D02*
X241049552Y-18963941D01*
X241461852Y-19372517D02*
X241312892Y-19108911D01*
X241461852Y-19460696D02*
X241461852Y-19372517D01*
X241461852Y-32427398D02*
X241461852Y-19460696D01*
X203457102Y-32515577D02*
X203457102Y-32427398D01*
X203308142Y-32781178D02*
X203457102Y-32515577D01*
X203044802Y-32929872D02*
X203308142Y-32781178D01*
X202958352Y-32929872D02*
X203044802Y-32929872D01*
X189989522Y-32929872D02*
X202958352Y-32929872D01*
X189901742Y-32929872D02*
X189989522Y-32929872D01*
X189637072Y-32781178D02*
X189901742Y-32929872D01*
X189490772Y-32515577D02*
X189637072Y-32781178D01*
X189490772Y-32427398D02*
X189490772Y-32515577D01*
X189490772Y-19460696D02*
X189490772Y-32427398D01*
X189490772Y-19372517D02*
X189490772Y-19460696D01*
X189637072Y-19108911D02*
X189490772Y-19372517D01*
X189901742Y-18963941D02*
X189637072Y-19108911D01*
X189989522Y-18963941D02*
X189901742Y-18963941D01*
X202958352Y-18963941D02*
X189989522Y-18963941D01*
X203044802Y-18963941D02*
X202958352Y-18963941D01*
X203308142Y-19108911D02*
X203044802Y-18963941D01*
X203457102Y-19372517D02*
X203308142Y-19108911D01*
X203457102Y-19460696D02*
X203457102Y-19372517D01*
X203457102Y-32427398D02*
X203457102Y-19460696D01*
X89442453Y-32515577D02*
X89442453Y-32427398D01*
X89294158Y-32781178D02*
X89442453Y-32515577D01*
X89030020Y-32929872D02*
X89294158Y-32781178D01*
X88944102Y-32929872D02*
X89030020Y-32929872D01*
X75975139Y-32929872D02*
X88944102Y-32929872D01*
X75886960Y-32929872D02*
X75975139Y-32929872D01*
X75623221Y-32781178D02*
X75886960Y-32929872D01*
X75476389Y-32515577D02*
X75623221Y-32781178D01*
X75476389Y-32427398D02*
X75476389Y-32515577D01*
X75476389Y-19460696D02*
X75476389Y-32427398D01*
X75476389Y-19372517D02*
X75476389Y-19460696D01*
X75623221Y-19108911D02*
X75476389Y-19372517D01*
X75886960Y-18963941D02*
X75623221Y-19108911D01*
X75975139Y-18963941D02*
X75886960Y-18963941D01*
X88944102Y-18963941D02*
X75975139Y-18963941D01*
X89030020Y-18963941D02*
X88944102Y-18963941D01*
X89294158Y-19108911D02*
X89030020Y-18963941D01*
X89442453Y-19372517D02*
X89294158Y-19108911D01*
X89442453Y-19460696D02*
X89442453Y-19372517D01*
X89442453Y-32427398D02*
X89442453Y-19460696D01*
X222458812Y-32515577D02*
X222458812Y-32427398D01*
X222311182Y-32781178D02*
X222458812Y-32515577D01*
X222046512Y-32929872D02*
X222311182Y-32781178D01*
X221961392Y-32929872D02*
X222046512Y-32929872D01*
X208991232Y-32929872D02*
X221961392Y-32929872D01*
X208903452Y-32929872D02*
X208991232Y-32929872D01*
X208640112Y-32781178D02*
X208903452Y-32929872D01*
X208492482Y-32515577D02*
X208640112Y-32781178D01*
X208492482Y-32427398D02*
X208492482Y-32515577D01*
X208492482Y-19460696D02*
X208492482Y-32427398D01*
X208492482Y-19372517D02*
X208492482Y-19460696D01*
X208640112Y-19108911D02*
X208492482Y-19372517D01*
X208903452Y-18963941D02*
X208640112Y-19108911D01*
X208991232Y-18963941D02*
X208903452Y-18963941D01*
X221961392Y-18963941D02*
X208991232Y-18963941D01*
X222046512Y-18963941D02*
X221961392Y-18963941D01*
X222311182Y-19108911D02*
X222046512Y-18963941D01*
X222458812Y-19372517D02*
X222311182Y-19108911D01*
X222458812Y-19460696D02*
X222458812Y-19372517D01*
X222458812Y-32427398D02*
X222458812Y-19460696D01*
X70440078Y-32515577D02*
X70440078Y-32427398D01*
X70291783Y-32781178D02*
X70440078Y-32515577D01*
X70027645Y-32929872D02*
X70291783Y-32781178D01*
X69941727Y-32929872D02*
X70027645Y-32929872D01*
X56972764Y-32929872D02*
X69941727Y-32929872D01*
X56884718Y-32929872D02*
X56972764Y-32929872D01*
X56620846Y-32781178D02*
X56884718Y-32929872D01*
X56474147Y-32515577D02*
X56620846Y-32781178D01*
X56474147Y-32427398D02*
X56474147Y-32515577D01*
X56474147Y-19460696D02*
X56474147Y-32427398D01*
X56474147Y-19372517D02*
X56474147Y-19460696D01*
X56620846Y-19108911D02*
X56474147Y-19372517D01*
X56884718Y-18963941D02*
X56620846Y-19108911D01*
X56972764Y-18963941D02*
X56884718Y-18963941D01*
X69941727Y-18963941D02*
X56972764Y-18963941D01*
X70027645Y-18963941D02*
X69941727Y-18963941D01*
X70291783Y-19108911D02*
X70027645Y-18963941D01*
X70440078Y-19372517D02*
X70291783Y-19108911D01*
X70440078Y-19460696D02*
X70440078Y-19372517D01*
X70440078Y-32427398D02*
X70440078Y-19460696D01*
X32435328Y-32515577D02*
X32435328Y-32427398D01*
X32286900Y-32781178D02*
X32435328Y-32515577D01*
X32023028Y-32929872D02*
X32286900Y-32781178D01*
X31936844Y-32929872D02*
X32023028Y-32929872D01*
X18967974Y-32929872D02*
X31936844Y-32929872D01*
X18880008Y-32929872D02*
X18967974Y-32929872D01*
X18616083Y-32781178D02*
X18880008Y-32929872D01*
X18469464Y-32515577D02*
X18616083Y-32781178D01*
X18469464Y-32427398D02*
X18469464Y-32515577D01*
X18469464Y-19460696D02*
X18469464Y-32427398D01*
X18469464Y-19372517D02*
X18469464Y-19460696D01*
X18616083Y-19108911D02*
X18469464Y-19372517D01*
X18880008Y-18963941D02*
X18616083Y-19108911D01*
X18967974Y-18963941D02*
X18880008Y-18963941D01*
X31936844Y-18963941D02*
X18967974Y-18963941D01*
X32023028Y-18963941D02*
X31936844Y-18963941D01*
X32286900Y-19108911D02*
X32023028Y-18963941D01*
X32435328Y-19372517D02*
X32286900Y-19108911D01*
X32435328Y-19460696D02*
X32435328Y-19372517D01*
X32435328Y-32427398D02*
X32435328Y-19460696D01*
X37882343Y-32929872D02*
X37970389Y-32929872D01*
X37618471Y-32781178D02*
X37882343Y-32929872D01*
X37471772Y-32515577D02*
X37618471Y-32781178D01*
X37471772Y-32427398D02*
X37471772Y-32515577D01*
X37471772Y-19460696D02*
X37471772Y-32427398D01*
X37471772Y-19372517D02*
X37471772Y-19460696D01*
X37618471Y-19108911D02*
X37471772Y-19372517D01*
X37882343Y-18963941D02*
X37618471Y-19108911D01*
X37970389Y-18963941D02*
X37882343Y-18963941D01*
X50939219Y-18963941D02*
X37970389Y-18963941D01*
X51025403Y-18963941D02*
X50939219Y-18963941D01*
X51289275Y-19108911D02*
X51025403Y-18963941D01*
X51437703Y-19372517D02*
X51289275Y-19108911D01*
X51437703Y-19460696D02*
X51437703Y-19372517D01*
X51437703Y-32427398D02*
X51437703Y-19460696D01*
X51437703Y-32515577D02*
X51437703Y-32427398D01*
X51289275Y-32781178D02*
X51437703Y-32515577D01*
X51025403Y-32929872D02*
X51289275Y-32781178D01*
X50939219Y-32929872D02*
X51025403Y-32929872D01*
X37970389Y-32929872D02*
X50939219Y-32929872D01*
X298468312Y-32522626D02*
X298468312Y-19366931D01*
X298468312Y-32594446D02*
X298468312Y-32522626D01*
X298349942Y-32810704D02*
X298468312Y-32594446D01*
X298134482Y-32929872D02*
X298349942Y-32810704D01*
X298063992Y-32929872D02*
X298134482Y-32929872D01*
X284907632Y-32929872D02*
X298063992Y-32929872D01*
X284834482Y-32929872D02*
X284907632Y-32929872D01*
X284620352Y-32810704D02*
X284834482Y-32929872D01*
X284501982Y-32594446D02*
X284620352Y-32810704D01*
X284501982Y-32522626D02*
X284501982Y-32594446D01*
X284501982Y-19366931D02*
X284501982Y-32522626D01*
X284501982Y-19295643D02*
X284501982Y-19366931D01*
X284620352Y-19081114D02*
X284501982Y-19295643D01*
X284834482Y-18963941D02*
X284620352Y-19081114D01*
X284907632Y-18963941D02*
X284834482Y-18963941D01*
X298063992Y-18963941D02*
X284907632Y-18963941D01*
X298134482Y-18963941D02*
X298063992Y-18963941D01*
X298349942Y-19081114D02*
X298134482Y-18963941D01*
X298468312Y-19295643D02*
X298349942Y-19081114D01*
X298468312Y-19366931D02*
X298468312Y-19295643D01*
X279466602Y-32522626D02*
X279466602Y-19366931D01*
X279466602Y-32594446D02*
X279466602Y-32522626D01*
X279346902Y-32810704D02*
X279466602Y-32594446D01*
X279132772Y-32929872D02*
X279346902Y-32810704D01*
X279060952Y-32929872D02*
X279132772Y-32929872D01*
X265905922Y-32929872D02*
X279060952Y-32929872D01*
X265831442Y-32929872D02*
X265905922Y-32929872D01*
X265617312Y-32810704D02*
X265831442Y-32929872D01*
X265500272Y-32594446D02*
X265617312Y-32810704D01*
X265500272Y-32522626D02*
X265500272Y-32594446D01*
X265500272Y-19366931D02*
X265500272Y-32522626D01*
X265500272Y-19295643D02*
X265500272Y-19366931D01*
X265617312Y-19081114D02*
X265500272Y-19295643D01*
X265831442Y-18963941D02*
X265617312Y-19081114D01*
X265905922Y-18963941D02*
X265831442Y-18963941D01*
X279060952Y-18963941D02*
X265905922Y-18963941D01*
X279132772Y-18963941D02*
X279060952Y-18963941D01*
X279346902Y-19081114D02*
X279132772Y-18963941D01*
X279466602Y-19295643D02*
X279346902Y-19081114D01*
X279466602Y-19366931D02*
X279466602Y-19295643D01*
X275701372Y-42211011D02*
X275468622Y-42211011D01*
X276399622Y-42397743D02*
X275701372Y-42211011D01*
X277160382Y-42911123D02*
X276399622Y-42397743D01*
X277673762Y-43671617D02*
X277160382Y-42911123D01*
X277862622Y-44369867D02*
X277673762Y-43671617D01*
X277862622Y-44602484D02*
X277862622Y-44369867D01*
X277862622Y-44835766D02*
X277862622Y-44602484D01*
X277673762Y-45533883D02*
X277862622Y-44835766D01*
X277160382Y-46296372D02*
X277673762Y-45533883D01*
X276399622Y-46811481D02*
X277160382Y-46296372D01*
X275701372Y-47000075D02*
X276399622Y-46811481D01*
X275468622Y-47000075D02*
X275701372Y-47000075D01*
X275234542Y-47000075D02*
X275468622Y-47000075D01*
X274536292Y-46811481D02*
X275234542Y-47000075D01*
X273775532Y-46296372D02*
X274536292Y-46811481D01*
X273262152Y-45533883D02*
X273775532Y-46296372D01*
X273075952Y-44835766D02*
X273262152Y-45533883D01*
X273075952Y-44602484D02*
X273075952Y-44835766D01*
X273075952Y-44369867D02*
X273075952Y-44602484D01*
X273262152Y-43671617D02*
X273075952Y-44369867D01*
X273775532Y-42911123D02*
X273262152Y-43671617D01*
X274536292Y-42397743D02*
X273775532Y-42911123D01*
X275234542Y-42211011D02*
X274536292Y-42397743D01*
X275468622Y-42211011D02*
X275234542Y-42211011D01*
X41685478Y-42211011D02*
X41452595Y-42211011D01*
X42383728Y-42397743D02*
X41685478Y-42211011D01*
X43144355Y-42911123D02*
X42383728Y-42397743D01*
X43657469Y-43671617D02*
X43144355Y-42911123D01*
X43846329Y-44369867D02*
X43657469Y-43671617D01*
X43846329Y-44602484D02*
X43846329Y-44369867D01*
X43846329Y-44835766D02*
X43846329Y-44602484D01*
X43657469Y-45533883D02*
X43846329Y-44835766D01*
X43144355Y-46296372D02*
X43657469Y-45533883D01*
X42383728Y-46811481D02*
X43144355Y-46296372D01*
X41685478Y-47000075D02*
X42383728Y-46811481D01*
X41452595Y-47000075D02*
X41685478Y-47000075D01*
X41218116Y-47000075D02*
X41452595Y-47000075D01*
X40519733Y-46811481D02*
X41218116Y-47000075D01*
X39759106Y-46296372D02*
X40519733Y-46811481D01*
X39245992Y-45533883D02*
X39759106Y-46296372D01*
X39058994Y-44835766D02*
X39245992Y-45533883D01*
X39058994Y-44602484D02*
X39058994Y-44835766D01*
X39058994Y-44369867D02*
X39058994Y-44602484D01*
X39245992Y-43671617D02*
X39058994Y-44369867D01*
X39759106Y-42911123D02*
X39245992Y-43671617D01*
X40519733Y-42397743D02*
X39759106Y-42911123D01*
X41218116Y-42211011D02*
X40519733Y-42397743D01*
X41452595Y-42211011D02*
X41218116Y-42211011D01*
X293725532Y-70520327D02*
X293725532Y-70432281D01*
X293579232Y-70786061D02*
X293725532Y-70520327D01*
X293314562Y-70934489D02*
X293579232Y-70786061D01*
X293226782Y-70934489D02*
X293314562Y-70934489D01*
X280259282Y-70934489D02*
X293226782Y-70934489D01*
X280171502Y-70934489D02*
X280259282Y-70934489D01*
X279908162Y-70786061D02*
X280171502Y-70934489D01*
X279761862Y-70520327D02*
X279908162Y-70786061D01*
X279761862Y-70432281D02*
X279761862Y-70520327D01*
X279761862Y-57465446D02*
X279761862Y-70432281D01*
X279761862Y-57377267D02*
X279761862Y-57465446D01*
X279908162Y-57113661D02*
X279761862Y-57377267D01*
X280171502Y-56968691D02*
X279908162Y-57113661D01*
X280259282Y-56968691D02*
X280171502Y-56968691D01*
X293226782Y-56968691D02*
X280259282Y-56968691D01*
X293314562Y-56968691D02*
X293226782Y-56968691D01*
X293579232Y-57113661D02*
X293314562Y-56968691D01*
X293725532Y-57377267D02*
X293579232Y-57113661D01*
X293725532Y-57465446D02*
X293725532Y-57377267D01*
X293725532Y-70432281D02*
X293725532Y-57465446D01*
X269965082Y-70520327D02*
X269965082Y-70432281D01*
X269816122Y-70786061D02*
X269965082Y-70520327D01*
X269552782Y-70934489D02*
X269816122Y-70786061D01*
X269466332Y-70934489D02*
X269552782Y-70934489D01*
X256497502Y-70934489D02*
X269466332Y-70934489D01*
X256409722Y-70934489D02*
X256497502Y-70934489D01*
X256146382Y-70786061D02*
X256409722Y-70934489D01*
X255998752Y-70520327D02*
X256146382Y-70786061D01*
X255998752Y-70432281D02*
X255998752Y-70520327D01*
X255998752Y-57465446D02*
X255998752Y-70432281D01*
X255998752Y-57377267D02*
X255998752Y-57465446D01*
X256146382Y-57113661D02*
X255998752Y-57377267D01*
X256409722Y-56968691D02*
X256146382Y-57113661D01*
X256497502Y-56968691D02*
X256409722Y-56968691D01*
X269466332Y-56968691D02*
X256497502Y-56968691D01*
X269552782Y-56968691D02*
X269466332Y-56968691D01*
X269816122Y-57113661D02*
X269552782Y-56968691D01*
X269965082Y-57377267D02*
X269816122Y-57113661D01*
X269965082Y-57465446D02*
X269965082Y-57377267D01*
X269965082Y-70432281D02*
X269965082Y-57465446D01*
X250962042Y-70520327D02*
X250962042Y-70432281D01*
X250814412Y-70786061D02*
X250962042Y-70520327D01*
X250549742Y-70934489D02*
X250814412Y-70786061D01*
X250464622Y-70934489D02*
X250549742Y-70934489D01*
X237495792Y-70934489D02*
X250464622Y-70934489D01*
X237406682Y-70934489D02*
X237495792Y-70934489D01*
X237143342Y-70786061D02*
X237406682Y-70934489D01*
X236997042Y-70520327D02*
X237143342Y-70786061D01*
X236997042Y-70432281D02*
X236997042Y-70520327D01*
X236997042Y-57465446D02*
X236997042Y-70432281D01*
X236997042Y-57377267D02*
X236997042Y-57465446D01*
X237143342Y-57113661D02*
X236997042Y-57377267D01*
X237406682Y-56968691D02*
X237143342Y-57113661D01*
X237495792Y-56968691D02*
X237406682Y-56968691D01*
X250464622Y-56968691D02*
X237495792Y-56968691D01*
X250549742Y-56968691D02*
X250464622Y-56968691D01*
X250814412Y-57113661D02*
X250549742Y-56968691D01*
X250962042Y-57377267D02*
X250814412Y-57113661D01*
X250962042Y-57465446D02*
X250962042Y-57377267D01*
X250962042Y-70432281D02*
X250962042Y-57465446D01*
X293725532Y-51517952D02*
X293725532Y-51429773D01*
X293579232Y-51783553D02*
X293725532Y-51517952D01*
X293314562Y-51932247D02*
X293579232Y-51783553D01*
X293226782Y-51932247D02*
X293314562Y-51932247D01*
X280259282Y-51932247D02*
X293226782Y-51932247D01*
X280171502Y-51932247D02*
X280259282Y-51932247D01*
X279908162Y-51783553D02*
X280171502Y-51932247D01*
X279761862Y-51517952D02*
X279908162Y-51783553D01*
X279761862Y-51429773D02*
X279761862Y-51517952D01*
X279761862Y-38463071D02*
X279761862Y-51429773D01*
X279761862Y-38374892D02*
X279761862Y-38463071D01*
X279908162Y-38111286D02*
X279761862Y-38374892D01*
X280171502Y-37966316D02*
X279908162Y-38111286D01*
X280259282Y-37966316D02*
X280171502Y-37966316D01*
X293226782Y-37966316D02*
X280259282Y-37966316D01*
X293314562Y-37966316D02*
X293226782Y-37966316D01*
X293579232Y-38111286D02*
X293314562Y-37966316D01*
X293725532Y-38374892D02*
X293579232Y-38111286D01*
X293725532Y-38463071D02*
X293725532Y-38374892D01*
X293725532Y-51429773D02*
X293725532Y-38463071D01*
X269965082Y-51517952D02*
X269965082Y-51429773D01*
X269816122Y-51783553D02*
X269965082Y-51517952D01*
X269552782Y-51932247D02*
X269816122Y-51783553D01*
X269466332Y-51932247D02*
X269552782Y-51932247D01*
X256497502Y-51932247D02*
X269466332Y-51932247D01*
X256409722Y-51932247D02*
X256497502Y-51932247D01*
X256146382Y-51783553D02*
X256409722Y-51932247D01*
X255998752Y-51517952D02*
X256146382Y-51783553D01*
X255998752Y-51429773D02*
X255998752Y-51517952D01*
X255998752Y-38463071D02*
X255998752Y-51429773D01*
X255998752Y-38374892D02*
X255998752Y-38463071D01*
X256146382Y-38111286D02*
X255998752Y-38374892D01*
X256409722Y-37966316D02*
X256146382Y-38111286D01*
X256497502Y-37966316D02*
X256409722Y-37966316D01*
X269466332Y-37966316D02*
X256497502Y-37966316D01*
X269552782Y-37966316D02*
X269466332Y-37966316D01*
X269816122Y-38111286D02*
X269552782Y-37966316D01*
X269965082Y-38374892D02*
X269816122Y-38111286D01*
X269965082Y-38463071D02*
X269965082Y-38374892D01*
X269965082Y-51429773D02*
X269965082Y-38463071D01*
X250962042Y-51517952D02*
X250962042Y-51429773D01*
X250814412Y-51783553D02*
X250962042Y-51517952D01*
X250549742Y-51932247D02*
X250814412Y-51783553D01*
X250464622Y-51932247D02*
X250549742Y-51932247D01*
X237495792Y-51932247D02*
X250464622Y-51932247D01*
X237406682Y-51932247D02*
X237495792Y-51932247D01*
X237143342Y-51783553D02*
X237406682Y-51932247D01*
X236997042Y-51517952D02*
X237143342Y-51783553D01*
X236997042Y-51429773D02*
X236997042Y-51517952D01*
X236997042Y-38463071D02*
X236997042Y-51429773D01*
X236997042Y-38374892D02*
X236997042Y-38463071D01*
X237143342Y-38111286D02*
X236997042Y-38374892D01*
X237406682Y-37966316D02*
X237143342Y-38111286D01*
X237495792Y-37966316D02*
X237406682Y-37966316D01*
X250464622Y-37966316D02*
X237495792Y-37966316D01*
X250549742Y-37966316D02*
X250464622Y-37966316D01*
X250814412Y-38111286D02*
X250549742Y-37966316D01*
X250962042Y-38374892D02*
X250814412Y-38111286D01*
X250962042Y-38463071D02*
X250962042Y-38374892D01*
X250962042Y-51429773D02*
X250962042Y-38463071D01*
X231960332Y-51517952D02*
X231960332Y-51429773D01*
X231811372Y-51783553D02*
X231960332Y-51517952D01*
X231548032Y-51932247D02*
X231811372Y-51783553D01*
X231461582Y-51932247D02*
X231548032Y-51932247D01*
X218492752Y-51932247D02*
X231461582Y-51932247D01*
X218404972Y-51932247D02*
X218492752Y-51932247D01*
X218141632Y-51783553D02*
X218404972Y-51932247D01*
X217994002Y-51517952D02*
X218141632Y-51783553D01*
X217994002Y-51429773D02*
X217994002Y-51517952D01*
X217994002Y-38463071D02*
X217994002Y-51429773D01*
X217994002Y-38374892D02*
X217994002Y-38463071D01*
X218141632Y-38111286D02*
X217994002Y-38374892D01*
X218404972Y-37966316D02*
X218141632Y-38111286D01*
X218492752Y-37966316D02*
X218404972Y-37966316D01*
X231461582Y-37966316D02*
X218492752Y-37966316D01*
X231548032Y-37966316D02*
X231461582Y-37966316D01*
X231811372Y-38111286D02*
X231548032Y-37966316D01*
X231960332Y-38374892D02*
X231811372Y-38111286D01*
X231960332Y-38463071D02*
X231960332Y-38374892D01*
X231960332Y-51429773D02*
X231960332Y-38463071D01*
X98943574Y-51517952D02*
X98943574Y-51429773D01*
X98795279Y-51783553D02*
X98943574Y-51517952D01*
X98531141Y-51932247D02*
X98795279Y-51783553D01*
X98445356Y-51932247D02*
X98531141Y-51932247D01*
X85476260Y-51932247D02*
X98445356Y-51932247D01*
X85388081Y-51932247D02*
X85476260Y-51932247D01*
X85124475Y-51783553D02*
X85388081Y-51932247D01*
X84977510Y-51517952D02*
X85124475Y-51783553D01*
X84977510Y-51429773D02*
X84977510Y-51517952D01*
X84977510Y-38463071D02*
X84977510Y-51429773D01*
X84977510Y-38374892D02*
X84977510Y-38463071D01*
X85124475Y-38111286D02*
X84977510Y-38374892D01*
X85388081Y-37966316D02*
X85124475Y-38111286D01*
X85476260Y-37966316D02*
X85388081Y-37966316D01*
X98445356Y-37966316D02*
X85476260Y-37966316D01*
X98531141Y-37966316D02*
X98445356Y-37966316D01*
X98795279Y-38111286D02*
X98531141Y-37966316D01*
X98943574Y-38374892D02*
X98795279Y-38111286D01*
X98943574Y-38463071D02*
X98943574Y-38374892D01*
X98943574Y-51429773D02*
X98943574Y-38463071D01*
X47383597Y-51932247D02*
X47471510Y-51932247D01*
X47119592Y-51783553D02*
X47383597Y-51932247D01*
X46973026Y-51517952D02*
X47119592Y-51783553D01*
X46973026Y-51429773D02*
X46973026Y-51517952D01*
X46973026Y-38463071D02*
X46973026Y-51429773D01*
X46973026Y-38374892D02*
X46973026Y-38463071D01*
X47119592Y-38111286D02*
X46973026Y-38374892D01*
X47383597Y-37966316D02*
X47119592Y-38111286D01*
X47471510Y-37966316D02*
X47383597Y-37966316D01*
X60440340Y-37966316D02*
X47471510Y-37966316D01*
X60526524Y-37966316D02*
X60440340Y-37966316D01*
X60790396Y-38111286D02*
X60526524Y-37966316D01*
X60938957Y-38374892D02*
X60790396Y-38111286D01*
X60938957Y-38463071D02*
X60938957Y-38374892D01*
X60938957Y-51429773D02*
X60938957Y-38463071D01*
X60938957Y-51517952D02*
X60938957Y-51429773D01*
X60790396Y-51783553D02*
X60938957Y-51517952D01*
X60526524Y-51932247D02*
X60790396Y-51783553D01*
X60440340Y-51932247D02*
X60526524Y-51932247D01*
X47471510Y-51932247D02*
X60440340Y-51932247D01*
X79941199Y-51517952D02*
X79941199Y-51429773D01*
X79792904Y-51783553D02*
X79941199Y-51517952D01*
X79528766Y-51932247D02*
X79792904Y-51783553D01*
X79442981Y-51932247D02*
X79528766Y-51932247D01*
X66473885Y-51932247D02*
X79442981Y-51932247D01*
X66385706Y-51932247D02*
X66473885Y-51932247D01*
X66122100Y-51783553D02*
X66385706Y-51932247D01*
X65975135Y-51517952D02*
X66122100Y-51783553D01*
X65975135Y-51429773D02*
X65975135Y-51517952D01*
X65975135Y-38463071D02*
X65975135Y-51429773D01*
X65975135Y-38374892D02*
X65975135Y-38463071D01*
X66122100Y-38111286D02*
X65975135Y-38374892D01*
X66385706Y-37966316D02*
X66122100Y-38111286D01*
X66473885Y-37966316D02*
X66385706Y-37966316D01*
X79442981Y-37966316D02*
X66473885Y-37966316D01*
X79528766Y-37966316D02*
X79442981Y-37966316D01*
X79792904Y-38111286D02*
X79528766Y-37966316D01*
X79941199Y-38374892D02*
X79792904Y-38111286D01*
X79941199Y-38463071D02*
X79941199Y-38374892D01*
X79941199Y-51429773D02*
X79941199Y-38463071D01*
X193955582Y-51517952D02*
X193955582Y-51429773D01*
X193806622Y-51783553D02*
X193955582Y-51517952D01*
X193543282Y-51932247D02*
X193806622Y-51783553D01*
X193456832Y-51932247D02*
X193543282Y-51932247D01*
X180488002Y-51932247D02*
X193456832Y-51932247D01*
X180400222Y-51932247D02*
X180488002Y-51932247D01*
X180136882Y-51783553D02*
X180400222Y-51932247D01*
X179989252Y-51517952D02*
X180136882Y-51783553D01*
X179989252Y-51429773D02*
X179989252Y-51517952D01*
X179989252Y-38463071D02*
X179989252Y-51429773D01*
X179989252Y-38374892D02*
X179989252Y-38463071D01*
X180136882Y-38111286D02*
X179989252Y-38374892D01*
X180400222Y-37966316D02*
X180136882Y-38111286D01*
X180488002Y-37966316D02*
X180400222Y-37966316D01*
X193456832Y-37966316D02*
X180488002Y-37966316D01*
X193543282Y-37966316D02*
X193456832Y-37966316D01*
X193806622Y-38111286D02*
X193543282Y-37966316D01*
X193955582Y-38374892D02*
X193806622Y-38111286D01*
X193955582Y-38463071D02*
X193955582Y-38374892D01*
X193955582Y-51429773D02*
X193955582Y-38463071D01*
X212957292Y-51517952D02*
X212957292Y-51429773D01*
X212809662Y-51783553D02*
X212957292Y-51517952D01*
X212544992Y-51932247D02*
X212809662Y-51783553D01*
X212459872Y-51932247D02*
X212544992Y-51932247D01*
X199491042Y-51932247D02*
X212459872Y-51932247D01*
X199401932Y-51932247D02*
X199491042Y-51932247D01*
X199138592Y-51783553D02*
X199401932Y-51932247D01*
X198992292Y-51517952D02*
X199138592Y-51783553D01*
X198992292Y-51429773D02*
X198992292Y-51517952D01*
X198992292Y-38463071D02*
X198992292Y-51429773D01*
X198992292Y-38374892D02*
X198992292Y-38463071D01*
X199138592Y-38111286D02*
X198992292Y-38374892D01*
X199401932Y-37966316D02*
X199138592Y-38111286D01*
X199491042Y-37966316D02*
X199401932Y-37966316D01*
X212459872Y-37966316D02*
X199491042Y-37966316D01*
X212544992Y-37966316D02*
X212459872Y-37966316D01*
X212809662Y-38111286D02*
X212544992Y-37966316D01*
X212957292Y-38374892D02*
X212809662Y-38111286D01*
X212957292Y-38463071D02*
X212957292Y-38374892D01*
X212957292Y-51429773D02*
X212957292Y-38463071D01*
X117945949Y-51517952D02*
X117945949Y-51429773D01*
X117797787Y-51783553D02*
X117945949Y-51517952D01*
X117533516Y-51932247D02*
X117797787Y-51783553D01*
X117447731Y-51932247D02*
X117533516Y-51932247D01*
X104478635Y-51932247D02*
X117447731Y-51932247D01*
X104390456Y-51932247D02*
X104478635Y-51932247D01*
X104126850Y-51783553D02*
X104390456Y-51932247D01*
X103979885Y-51517952D02*
X104126850Y-51783553D01*
X103979885Y-51429773D02*
X103979885Y-51517952D01*
X103979885Y-38463071D02*
X103979885Y-51429773D01*
X103979885Y-38374892D02*
X103979885Y-38463071D01*
X104126850Y-38111286D02*
X103979885Y-38374892D01*
X104390456Y-37966316D02*
X104126850Y-38111286D01*
X104478635Y-37966316D02*
X104390456Y-37966316D01*
X117447731Y-37966316D02*
X104478635Y-37966316D01*
X117533516Y-37966316D02*
X117447731Y-37966316D01*
X117797787Y-38111286D02*
X117533516Y-37966316D01*
X117945949Y-38374892D02*
X117797787Y-38111286D01*
X117945949Y-38463071D02*
X117945949Y-38374892D01*
X117945949Y-51429773D02*
X117945949Y-38463071D01*
X36773522Y-37966316D02*
X36687471Y-37966316D01*
X37037527Y-38111286D02*
X36773522Y-37966316D01*
X37185955Y-38374892D02*
X37037527Y-38111286D01*
X37185955Y-38463071D02*
X37185955Y-38374892D01*
X37185955Y-51429773D02*
X37185955Y-38463071D01*
X37185955Y-51517952D02*
X37185955Y-51429773D01*
X37037527Y-51783553D02*
X37185955Y-51517952D01*
X36773522Y-51932247D02*
X37037527Y-51783553D01*
X36687471Y-51932247D02*
X36773522Y-51932247D01*
X23718548Y-51932247D02*
X36687471Y-51932247D01*
X23630582Y-51932247D02*
X23718548Y-51932247D01*
X23366657Y-51783553D02*
X23630582Y-51932247D01*
X23220037Y-51517952D02*
X23366657Y-51783553D01*
X23220037Y-51429773D02*
X23220037Y-51517952D01*
X23220037Y-38463071D02*
X23220037Y-51429773D01*
X23220037Y-38374892D02*
X23220037Y-38463071D01*
X23366657Y-38111286D02*
X23220037Y-38374892D01*
X23630582Y-37966316D02*
X23366657Y-38111286D01*
X23718548Y-37966316D02*
X23630582Y-37966316D01*
X36687471Y-37966316D02*
X23718548Y-37966316D01*
X155950832Y-51517952D02*
X155950832Y-51429773D01*
X155801872Y-51783553D02*
X155950832Y-51517952D01*
X155538532Y-51932247D02*
X155801872Y-51783553D01*
X155452082Y-51932247D02*
X155538532Y-51932247D01*
X142483385Y-51932247D02*
X155452082Y-51932247D01*
X142395206Y-51932247D02*
X142483385Y-51932247D01*
X142131600Y-51783553D02*
X142395206Y-51932247D01*
X141984635Y-51517952D02*
X142131600Y-51783553D01*
X141984635Y-51429773D02*
X141984635Y-51517952D01*
X141984635Y-38463071D02*
X141984635Y-51429773D01*
X141984635Y-38374892D02*
X141984635Y-38463071D01*
X142131600Y-38111286D02*
X141984635Y-38374892D01*
X142395206Y-37966316D02*
X142131600Y-38111286D01*
X142483385Y-37966316D02*
X142395206Y-37966316D01*
X155452082Y-37966316D02*
X142483385Y-37966316D01*
X155538532Y-37966316D02*
X155452082Y-37966316D01*
X155801872Y-38111286D02*
X155538532Y-37966316D01*
X155950832Y-38374892D02*
X155801872Y-38111286D01*
X155950832Y-38463071D02*
X155950832Y-38374892D01*
X155950832Y-51429773D02*
X155950832Y-38463071D01*
X136948324Y-51517952D02*
X136948324Y-51429773D01*
X136800029Y-51783553D02*
X136948324Y-51517952D01*
X136535891Y-51932247D02*
X136800029Y-51783553D01*
X136450106Y-51932247D02*
X136535891Y-51932247D01*
X123481010Y-51932247D02*
X136450106Y-51932247D01*
X123392831Y-51932247D02*
X123481010Y-51932247D01*
X123129225Y-51783553D02*
X123392831Y-51932247D01*
X122982260Y-51517952D02*
X123129225Y-51783553D01*
X122982260Y-51429773D02*
X122982260Y-51517952D01*
X122982260Y-38463071D02*
X122982260Y-51429773D01*
X122982260Y-38374892D02*
X122982260Y-38463071D01*
X123129225Y-38111286D02*
X122982260Y-38374892D01*
X123392831Y-37966316D02*
X123129225Y-38111286D01*
X123481010Y-37966316D02*
X123392831Y-37966316D01*
X136450106Y-37966316D02*
X123481010Y-37966316D01*
X136535891Y-37966316D02*
X136450106Y-37966316D01*
X136800029Y-38111286D02*
X136535891Y-37966316D01*
X136948324Y-38374892D02*
X136800029Y-38111286D01*
X136948324Y-38463071D02*
X136948324Y-38374892D01*
X136948324Y-51429773D02*
X136948324Y-38463071D01*
X174952542Y-51517952D02*
X174952542Y-51429773D01*
X174804912Y-51783553D02*
X174952542Y-51517952D01*
X174540242Y-51932247D02*
X174804912Y-51783553D01*
X174455122Y-51932247D02*
X174540242Y-51932247D01*
X161486292Y-51932247D02*
X174455122Y-51932247D01*
X161397182Y-51932247D02*
X161486292Y-51932247D01*
X161133842Y-51783553D02*
X161397182Y-51932247D01*
X160987542Y-51517952D02*
X161133842Y-51783553D01*
X160987542Y-51429773D02*
X160987542Y-51517952D01*
X160987542Y-38463071D02*
X160987542Y-51429773D01*
X160987542Y-38374892D02*
X160987542Y-38463071D01*
X161133842Y-38111286D02*
X160987542Y-38374892D01*
X161397182Y-37966316D02*
X161133842Y-38111286D01*
X161486292Y-37966316D02*
X161397182Y-37966316D01*
X174455122Y-37966316D02*
X161486292Y-37966316D01*
X174540242Y-37966316D02*
X174455122Y-37966316D01*
X174804912Y-38111286D02*
X174540242Y-37966316D01*
X174952542Y-38374892D02*
X174804912Y-38111286D01*
X174952542Y-38463071D02*
X174952542Y-38374892D01*
X174952542Y-51429773D02*
X174952542Y-38463071D01*
X193955582Y-70520327D02*
X193955582Y-70432281D01*
X193806622Y-70786061D02*
X193955582Y-70520327D01*
X193543282Y-70934489D02*
X193806622Y-70786061D01*
X193456832Y-70934489D02*
X193543282Y-70934489D01*
X180488002Y-70934489D02*
X193456832Y-70934489D01*
X180400222Y-70934489D02*
X180488002Y-70934489D01*
X180136882Y-70786061D02*
X180400222Y-70934489D01*
X179989252Y-70520327D02*
X180136882Y-70786061D01*
X179989252Y-70432281D02*
X179989252Y-70520327D01*
X179989252Y-57465446D02*
X179989252Y-70432281D01*
X179989252Y-57377267D02*
X179989252Y-57465446D01*
X180136882Y-57113661D02*
X179989252Y-57377267D01*
X180400222Y-56968691D02*
X180136882Y-57113661D01*
X180488002Y-56968691D02*
X180400222Y-56968691D01*
X193456832Y-56968691D02*
X180488002Y-56968691D01*
X193543282Y-56968691D02*
X193456832Y-56968691D01*
X193806622Y-57113661D02*
X193543282Y-56968691D01*
X193955582Y-57377267D02*
X193806622Y-57113661D01*
X193955582Y-57465446D02*
X193955582Y-57377267D01*
X193955582Y-70432281D02*
X193955582Y-57465446D01*
X79941199Y-70520327D02*
X79941199Y-70432281D01*
X79792904Y-70786061D02*
X79941199Y-70520327D01*
X79528766Y-70934489D02*
X79792904Y-70786061D01*
X79442981Y-70934489D02*
X79528766Y-70934489D01*
X66473885Y-70934489D02*
X79442981Y-70934489D01*
X66385706Y-70934489D02*
X66473885Y-70934489D01*
X66122100Y-70786061D02*
X66385706Y-70934489D01*
X65975135Y-70520327D02*
X66122100Y-70786061D01*
X65975135Y-70432281D02*
X65975135Y-70520327D01*
X65975135Y-57465446D02*
X65975135Y-70432281D01*
X65975135Y-57377267D02*
X65975135Y-57465446D01*
X66122100Y-57113661D02*
X65975135Y-57377267D01*
X66385706Y-56968691D02*
X66122100Y-57113661D01*
X66473885Y-56968691D02*
X66385706Y-56968691D01*
X79442981Y-56968691D02*
X66473885Y-56968691D01*
X79528766Y-56968691D02*
X79442981Y-56968691D01*
X79792904Y-57113661D02*
X79528766Y-56968691D01*
X79941199Y-57377267D02*
X79792904Y-57113661D01*
X79941199Y-57465446D02*
X79941199Y-57377267D01*
X79941199Y-70432281D02*
X79941199Y-57465446D01*
X98943574Y-70520327D02*
X98943574Y-70432281D01*
X98795279Y-70786061D02*
X98943574Y-70520327D01*
X98531141Y-70934489D02*
X98795279Y-70786061D01*
X98445356Y-70934489D02*
X98531141Y-70934489D01*
X85476260Y-70934489D02*
X98445356Y-70934489D01*
X85388081Y-70934489D02*
X85476260Y-70934489D01*
X85124475Y-70786061D02*
X85388081Y-70934489D01*
X84977510Y-70520327D02*
X85124475Y-70786061D01*
X84977510Y-70432281D02*
X84977510Y-70520327D01*
X84977510Y-57465446D02*
X84977510Y-70432281D01*
X84977510Y-57377267D02*
X84977510Y-57465446D01*
X85124475Y-57113661D02*
X84977510Y-57377267D01*
X85388081Y-56968691D02*
X85124475Y-57113661D01*
X85476260Y-56968691D02*
X85388081Y-56968691D01*
X98445356Y-56968691D02*
X85476260Y-56968691D01*
X98531141Y-56968691D02*
X98445356Y-56968691D01*
X98795279Y-57113661D02*
X98531141Y-56968691D01*
X98943574Y-57377267D02*
X98795279Y-57113661D01*
X98943574Y-57465446D02*
X98943574Y-57377267D01*
X98943574Y-70432281D02*
X98943574Y-57465446D01*
X136948324Y-70520327D02*
X136948324Y-70432281D01*
X136800029Y-70786061D02*
X136948324Y-70520327D01*
X136535891Y-70934489D02*
X136800029Y-70786061D01*
X136450106Y-70934489D02*
X136535891Y-70934489D01*
X123481010Y-70934489D02*
X136450106Y-70934489D01*
X123392831Y-70934489D02*
X123481010Y-70934489D01*
X123129225Y-70786061D02*
X123392831Y-70934489D01*
X122982260Y-70520327D02*
X123129225Y-70786061D01*
X122982260Y-70432281D02*
X122982260Y-70520327D01*
X122982260Y-57465446D02*
X122982260Y-70432281D01*
X122982260Y-57377267D02*
X122982260Y-57465446D01*
X123129225Y-57113661D02*
X122982260Y-57377267D01*
X123392831Y-56968691D02*
X123129225Y-57113661D01*
X123481010Y-56968691D02*
X123392831Y-56968691D01*
X136450106Y-56968691D02*
X123481010Y-56968691D01*
X136535891Y-56968691D02*
X136450106Y-56968691D01*
X136800029Y-57113661D02*
X136535891Y-56968691D01*
X136948324Y-57377267D02*
X136800029Y-57113661D01*
X136948324Y-57465446D02*
X136948324Y-57377267D01*
X136948324Y-70432281D02*
X136948324Y-57465446D01*
X47383597Y-70934489D02*
X47471510Y-70934489D01*
X47119592Y-70786061D02*
X47383597Y-70934489D01*
X46973026Y-70520327D02*
X47119592Y-70786061D01*
X46973026Y-70432281D02*
X46973026Y-70520327D01*
X46973026Y-57465446D02*
X46973026Y-70432281D01*
X46973026Y-57377267D02*
X46973026Y-57465446D01*
X47119592Y-57113661D02*
X46973026Y-57377267D01*
X47383597Y-56968691D02*
X47119592Y-57113661D01*
X47471510Y-56968691D02*
X47383597Y-56968691D01*
X60440340Y-56968691D02*
X47471510Y-56968691D01*
X60526524Y-56968691D02*
X60440340Y-56968691D01*
X60790396Y-57113661D02*
X60526524Y-56968691D01*
X60938957Y-57377267D02*
X60790396Y-57113661D01*
X60938957Y-57465446D02*
X60938957Y-57377267D01*
X60938957Y-70432281D02*
X60938957Y-57465446D01*
X60938957Y-70520327D02*
X60938957Y-70432281D01*
X60790396Y-70786061D02*
X60938957Y-70520327D01*
X60526524Y-70934489D02*
X60790396Y-70786061D01*
X60440340Y-70934489D02*
X60526524Y-70934489D01*
X47471510Y-70934489D02*
X60440340Y-70934489D01*
X174952542Y-70520327D02*
X174952542Y-70432281D01*
X174804912Y-70786061D02*
X174952542Y-70520327D01*
X174540242Y-70934489D02*
X174804912Y-70786061D01*
X174455122Y-70934489D02*
X174540242Y-70934489D01*
X161486292Y-70934489D02*
X174455122Y-70934489D01*
X161397182Y-70934489D02*
X161486292Y-70934489D01*
X161133842Y-70786061D02*
X161397182Y-70934489D01*
X160987542Y-70520327D02*
X161133842Y-70786061D01*
X160987542Y-70432281D02*
X160987542Y-70520327D01*
X160987542Y-57465446D02*
X160987542Y-70432281D01*
X160987542Y-57377267D02*
X160987542Y-57465446D01*
X161133842Y-57113661D02*
X160987542Y-57377267D01*
X161397182Y-56968691D02*
X161133842Y-57113661D01*
X161486292Y-56968691D02*
X161397182Y-56968691D01*
X174455122Y-56968691D02*
X161486292Y-56968691D01*
X174540242Y-56968691D02*
X174455122Y-56968691D01*
X174804912Y-57113661D02*
X174540242Y-56968691D01*
X174952542Y-57377267D02*
X174804912Y-57113661D01*
X174952542Y-57465446D02*
X174952542Y-57377267D01*
X174952542Y-70432281D02*
X174952542Y-57465446D01*
X231960332Y-70520327D02*
X231960332Y-70432281D01*
X231811372Y-70786061D02*
X231960332Y-70520327D01*
X231548032Y-70934489D02*
X231811372Y-70786061D01*
X231461582Y-70934489D02*
X231548032Y-70934489D01*
X218492752Y-70934489D02*
X231461582Y-70934489D01*
X218404972Y-70934489D02*
X218492752Y-70934489D01*
X218141632Y-70786061D02*
X218404972Y-70934489D01*
X217994002Y-70520327D02*
X218141632Y-70786061D01*
X217994002Y-70432281D02*
X217994002Y-70520327D01*
X217994002Y-57465446D02*
X217994002Y-70432281D01*
X217994002Y-57377267D02*
X217994002Y-57465446D01*
X218141632Y-57113661D02*
X217994002Y-57377267D01*
X218404972Y-56968691D02*
X218141632Y-57113661D01*
X218492752Y-56968691D02*
X218404972Y-56968691D01*
X231461582Y-56968691D02*
X218492752Y-56968691D01*
X231548032Y-56968691D02*
X231461582Y-56968691D01*
X231811372Y-57113661D02*
X231548032Y-56968691D01*
X231960332Y-57377267D02*
X231811372Y-57113661D01*
X231960332Y-57465446D02*
X231960332Y-57377267D01*
X231960332Y-70432281D02*
X231960332Y-57465446D01*
X36771793Y-56968691D02*
X36683747Y-56968691D01*
X37035665Y-57113661D02*
X36771793Y-56968691D01*
X37182231Y-57377267D02*
X37035665Y-57113661D01*
X37182231Y-57465446D02*
X37182231Y-57377267D01*
X37182231Y-70432281D02*
X37182231Y-57465446D01*
X37182231Y-70520327D02*
X37182231Y-70432281D01*
X37035665Y-70786061D02*
X37182231Y-70520327D01*
X36771793Y-70934489D02*
X37035665Y-70786061D01*
X36683747Y-70934489D02*
X36771793Y-70934489D01*
X23718548Y-70934489D02*
X36683747Y-70934489D01*
X23630582Y-70934489D02*
X23718548Y-70934489D01*
X23366657Y-70786061D02*
X23630582Y-70934489D01*
X23220037Y-70520327D02*
X23366657Y-70786061D01*
X23220037Y-70432281D02*
X23220037Y-70520327D01*
X23220037Y-57465446D02*
X23220037Y-70432281D01*
X23220037Y-57377267D02*
X23220037Y-57465446D01*
X23366657Y-57113661D02*
X23220037Y-57377267D01*
X23630582Y-56968691D02*
X23366657Y-57113661D01*
X23718548Y-56968691D02*
X23630582Y-56968691D01*
X36683747Y-56968691D02*
X23718548Y-56968691D01*
X117945949Y-70520327D02*
X117945949Y-70432281D01*
X117797787Y-70786061D02*
X117945949Y-70520327D01*
X117533516Y-70934489D02*
X117797787Y-70786061D01*
X117447731Y-70934489D02*
X117533516Y-70934489D01*
X104478635Y-70934489D02*
X117447731Y-70934489D01*
X104390456Y-70934489D02*
X104478635Y-70934489D01*
X104126850Y-70786061D02*
X104390456Y-70934489D01*
X103979885Y-70520327D02*
X104126850Y-70786061D01*
X103979885Y-70432281D02*
X103979885Y-70520327D01*
X103979885Y-57465446D02*
X103979885Y-70432281D01*
X103979885Y-57377267D02*
X103979885Y-57465446D01*
X104126850Y-57113661D02*
X103979885Y-57377267D01*
X104390456Y-56968691D02*
X104126850Y-57113661D01*
X104478635Y-56968691D02*
X104390456Y-56968691D01*
X117447731Y-56968691D02*
X104478635Y-56968691D01*
X117533516Y-56968691D02*
X117447731Y-56968691D01*
X117797787Y-57113661D02*
X117533516Y-56968691D01*
X117945949Y-57377267D02*
X117797787Y-57113661D01*
X117945949Y-57465446D02*
X117945949Y-57377267D01*
X117945949Y-70432281D02*
X117945949Y-57465446D01*
X212957292Y-70520327D02*
X212957292Y-70432281D01*
X212809662Y-70786061D02*
X212957292Y-70520327D01*
X212544992Y-70934489D02*
X212809662Y-70786061D01*
X212459872Y-70934489D02*
X212544992Y-70934489D01*
X199491042Y-70934489D02*
X212459872Y-70934489D01*
X199401932Y-70934489D02*
X199491042Y-70934489D01*
X199138592Y-70786061D02*
X199401932Y-70934489D01*
X198992292Y-70520327D02*
X199138592Y-70786061D01*
X198992292Y-70432281D02*
X198992292Y-70520327D01*
X198992292Y-57465446D02*
X198992292Y-70432281D01*
X198992292Y-57377267D02*
X198992292Y-57465446D01*
X199138592Y-57113661D02*
X198992292Y-57377267D01*
X199401932Y-56968691D02*
X199138592Y-57113661D01*
X199491042Y-56968691D02*
X199401932Y-56968691D01*
X212459872Y-56968691D02*
X199491042Y-56968691D01*
X212544992Y-56968691D02*
X212459872Y-56968691D01*
X212809662Y-57113661D02*
X212544992Y-56968691D01*
X212957292Y-57377267D02*
X212809662Y-57113661D01*
X212957292Y-57465446D02*
X212957292Y-57377267D01*
X212957292Y-70432281D02*
X212957292Y-57465446D01*
X155950832Y-70520327D02*
X155950832Y-70432281D01*
X155801872Y-70786061D02*
X155950832Y-70520327D01*
X155538532Y-70934489D02*
X155801872Y-70786061D01*
X155452082Y-70934489D02*
X155538532Y-70934489D01*
X142483385Y-70934489D02*
X155452082Y-70934489D01*
X142395206Y-70934489D02*
X142483385Y-70934489D01*
X142131600Y-70786061D02*
X142395206Y-70934489D01*
X141984635Y-70520327D02*
X142131600Y-70786061D01*
X141984635Y-70432281D02*
X141984635Y-70520327D01*
X141984635Y-57465446D02*
X141984635Y-70432281D01*
X141984635Y-57377267D02*
X141984635Y-57465446D01*
X142131600Y-57113661D02*
X141984635Y-57377267D01*
X142395206Y-56968691D02*
X142131600Y-57113661D01*
X142483385Y-56968691D02*
X142395206Y-56968691D01*
X155452082Y-56968691D02*
X142483385Y-56968691D01*
X155538532Y-56968691D02*
X155452082Y-56968691D01*
X155801872Y-57113661D02*
X155538532Y-56968691D01*
X155950832Y-57377267D02*
X155801872Y-57113661D01*
X155950832Y-57465446D02*
X155950832Y-57377267D01*
X155950832Y-70432281D02*
X155950832Y-57465446D01*
X70440078Y-89522702D02*
X70440078Y-89434656D01*
X70291783Y-89788436D02*
X70440078Y-89522702D01*
X70027645Y-89936864D02*
X70291783Y-89788436D01*
X69941727Y-89936864D02*
X70027645Y-89936864D01*
X56972764Y-89936864D02*
X69941727Y-89936864D01*
X56884718Y-89936864D02*
X56972764Y-89936864D01*
X56620846Y-89788436D02*
X56884718Y-89936864D01*
X56474147Y-89522702D02*
X56620846Y-89788436D01*
X56474147Y-89434656D02*
X56474147Y-89522702D01*
X56474147Y-76467688D02*
X56474147Y-89434656D01*
X56474147Y-76379775D02*
X56474147Y-76467688D01*
X56620846Y-76115770D02*
X56474147Y-76379775D01*
X56884718Y-75971066D02*
X56620846Y-76115770D01*
X56972764Y-75971066D02*
X56884718Y-75971066D01*
X69941727Y-75971066D02*
X56972764Y-75971066D01*
X70027645Y-75971066D02*
X69941727Y-75971066D01*
X70291783Y-76115770D02*
X70027645Y-75971066D01*
X70440078Y-76379775D02*
X70291783Y-76115770D01*
X70440078Y-76467688D02*
X70440078Y-76379775D01*
X70440078Y-89434656D02*
X70440078Y-76467688D01*
X89442453Y-89522702D02*
X89442453Y-89434656D01*
X89294158Y-89788436D02*
X89442453Y-89522702D01*
X89030020Y-89936864D02*
X89294158Y-89788436D01*
X88944102Y-89936864D02*
X89030020Y-89936864D01*
X75975139Y-89936864D02*
X88944102Y-89936864D01*
X75886960Y-89936864D02*
X75975139Y-89936864D01*
X75623221Y-89788436D02*
X75886960Y-89936864D01*
X75476389Y-89522702D02*
X75623221Y-89788436D01*
X75476389Y-89434656D02*
X75476389Y-89522702D01*
X75476389Y-76467688D02*
X75476389Y-89434656D01*
X75476389Y-76379775D02*
X75476389Y-76467688D01*
X75623221Y-76115770D02*
X75476389Y-76379775D01*
X75886960Y-75971066D02*
X75623221Y-76115770D01*
X75975139Y-75971066D02*
X75886960Y-75971066D01*
X88944102Y-75971066D02*
X75975139Y-75971066D01*
X89030020Y-75971066D02*
X88944102Y-75971066D01*
X89294158Y-76115770D02*
X89030020Y-75971066D01*
X89442453Y-76379775D02*
X89294158Y-76115770D01*
X89442453Y-76467688D02*
X89442453Y-76379775D01*
X89442453Y-89434656D02*
X89442453Y-76467688D01*
X222458812Y-89522702D02*
X222458812Y-89434656D01*
X222311182Y-89788436D02*
X222458812Y-89522702D01*
X222046512Y-89936864D02*
X222311182Y-89788436D01*
X221961392Y-89936864D02*
X222046512Y-89936864D01*
X208991232Y-89936864D02*
X221961392Y-89936864D01*
X208903452Y-89936864D02*
X208991232Y-89936864D01*
X208640112Y-89788436D02*
X208903452Y-89936864D01*
X208492482Y-89522702D02*
X208640112Y-89788436D01*
X208492482Y-89434656D02*
X208492482Y-89522702D01*
X208492482Y-76467688D02*
X208492482Y-89434656D01*
X208492482Y-76379775D02*
X208492482Y-76467688D01*
X208640112Y-76115770D02*
X208492482Y-76379775D01*
X208903452Y-75971066D02*
X208640112Y-76115770D01*
X208991232Y-75971066D02*
X208903452Y-75971066D01*
X221961392Y-75971066D02*
X208991232Y-75971066D01*
X222046512Y-75971066D02*
X221961392Y-75971066D01*
X222311182Y-76115770D02*
X222046512Y-75971066D01*
X222458812Y-76379775D02*
X222311182Y-76115770D01*
X222458812Y-76467688D02*
X222458812Y-76379775D01*
X222458812Y-89434656D02*
X222458812Y-76467688D01*
X184454062Y-89522702D02*
X184454062Y-89434656D01*
X184306432Y-89788436D02*
X184454062Y-89522702D01*
X184041762Y-89936864D02*
X184306432Y-89788436D01*
X183956642Y-89936864D02*
X184041762Y-89936864D01*
X170986482Y-89936864D02*
X183956642Y-89936864D01*
X170898702Y-89936864D02*
X170986482Y-89936864D01*
X170635362Y-89788436D02*
X170898702Y-89936864D01*
X170487732Y-89522702D02*
X170635362Y-89788436D01*
X170487732Y-89434656D02*
X170487732Y-89522702D01*
X170487732Y-76467688D02*
X170487732Y-89434656D01*
X170487732Y-76379775D02*
X170487732Y-76467688D01*
X170635362Y-76115770D02*
X170487732Y-76379775D01*
X170898702Y-75971066D02*
X170635362Y-76115770D01*
X170986482Y-75971066D02*
X170898702Y-75971066D01*
X183956642Y-75971066D02*
X170986482Y-75971066D01*
X184041762Y-75971066D02*
X183956642Y-75971066D01*
X184306432Y-76115770D02*
X184041762Y-75971066D01*
X184454062Y-76379775D02*
X184306432Y-76115770D01*
X184454062Y-76467688D02*
X184454062Y-76379775D01*
X184454062Y-89434656D02*
X184454062Y-76467688D01*
X241461852Y-89522702D02*
X241461852Y-89434656D01*
X241312892Y-89788436D02*
X241461852Y-89522702D01*
X241049552Y-89936864D02*
X241312892Y-89788436D01*
X240963102Y-89936864D02*
X241049552Y-89936864D01*
X227994272Y-89936864D02*
X240963102Y-89936864D01*
X227906492Y-89936864D02*
X227994272Y-89936864D01*
X227641822Y-89788436D02*
X227906492Y-89936864D01*
X227495522Y-89522702D02*
X227641822Y-89788436D01*
X227495522Y-89434656D02*
X227495522Y-89522702D01*
X227495522Y-76467688D02*
X227495522Y-89434656D01*
X227495522Y-76379775D02*
X227495522Y-76467688D01*
X227641822Y-76115770D02*
X227495522Y-76379775D01*
X227906492Y-75971066D02*
X227641822Y-76115770D01*
X227994272Y-75971066D02*
X227906492Y-75971066D01*
X240963102Y-75971066D02*
X227994272Y-75971066D01*
X241049552Y-75971066D02*
X240963102Y-75971066D01*
X241312892Y-76115770D02*
X241049552Y-75971066D01*
X241461852Y-76379775D02*
X241312892Y-76115770D01*
X241461852Y-76467688D02*
X241461852Y-76379775D01*
X241461852Y-89434656D02*
X241461852Y-76467688D01*
X165452352Y-89522702D02*
X165452352Y-89434656D01*
X165303392Y-89788436D02*
X165452352Y-89522702D01*
X165040052Y-89936864D02*
X165303392Y-89788436D01*
X164953602Y-89936864D02*
X165040052Y-89936864D01*
X151984772Y-89936864D02*
X164953602Y-89936864D01*
X151896992Y-89936864D02*
X151984772Y-89936864D01*
X151632322Y-89788436D02*
X151896992Y-89936864D01*
X151486022Y-89522702D02*
X151632322Y-89788436D01*
X151486022Y-89434656D02*
X151486022Y-89522702D01*
X151486022Y-76467688D02*
X151486022Y-89434656D01*
X151486022Y-76379775D02*
X151486022Y-76467688D01*
X151632322Y-76115770D02*
X151486022Y-76379775D01*
X151896992Y-75971066D02*
X151632322Y-76115770D01*
X151984772Y-75971066D02*
X151896992Y-75971066D01*
X164953602Y-75971066D02*
X151984772Y-75971066D01*
X165040052Y-75971066D02*
X164953602Y-75971066D01*
X165303392Y-76115770D02*
X165040052Y-75971066D01*
X165452352Y-76379775D02*
X165303392Y-76115770D01*
X165452352Y-76467688D02*
X165452352Y-76379775D01*
X165452352Y-89434656D02*
X165452352Y-76467688D01*
X146449578Y-89522702D02*
X146449578Y-89434656D01*
X146301283Y-89788436D02*
X146449578Y-89522702D01*
X146037145Y-89936864D02*
X146301283Y-89788436D01*
X145951227Y-89936864D02*
X146037145Y-89936864D01*
X132982264Y-89936864D02*
X145951227Y-89936864D01*
X132894085Y-89936864D02*
X132982264Y-89936864D01*
X132630346Y-89788436D02*
X132894085Y-89936864D01*
X132483514Y-89522702D02*
X132630346Y-89788436D01*
X132483514Y-89434656D02*
X132483514Y-89522702D01*
X132483514Y-76467688D02*
X132483514Y-89434656D01*
X132483514Y-76379775D02*
X132483514Y-76467688D01*
X132630346Y-76115770D02*
X132483514Y-76379775D01*
X132894085Y-75971066D02*
X132630346Y-76115770D01*
X132982264Y-75971066D02*
X132894085Y-75971066D01*
X145951227Y-75971066D02*
X132982264Y-75971066D01*
X146037145Y-75971066D02*
X145951227Y-75971066D01*
X146301283Y-76115770D02*
X146037145Y-75971066D01*
X146449578Y-76379775D02*
X146301283Y-76115770D01*
X146449578Y-76467688D02*
X146449578Y-76379775D01*
X146449578Y-89434656D02*
X146449578Y-76467688D01*
X127447203Y-89522702D02*
X127447203Y-89434656D01*
X127298908Y-89788436D02*
X127447203Y-89522702D01*
X127034770Y-89936864D02*
X127298908Y-89788436D01*
X126948852Y-89936864D02*
X127034770Y-89936864D01*
X113979889Y-89936864D02*
X126948852Y-89936864D01*
X113891710Y-89936864D02*
X113979889Y-89936864D01*
X113627971Y-89788436D02*
X113891710Y-89936864D01*
X113481139Y-89522702D02*
X113627971Y-89788436D01*
X113481139Y-89434656D02*
X113481139Y-89522702D01*
X113481139Y-76467688D02*
X113481139Y-89434656D01*
X113481139Y-76379775D02*
X113481139Y-76467688D01*
X113627971Y-76115770D02*
X113481139Y-76379775D01*
X113891710Y-75971066D02*
X113627971Y-76115770D01*
X113979889Y-75971066D02*
X113891710Y-75971066D01*
X126948852Y-75971066D02*
X113979889Y-75971066D01*
X127034770Y-75971066D02*
X126948852Y-75971066D01*
X127298908Y-76115770D02*
X127034770Y-75971066D01*
X127447203Y-76379775D02*
X127298908Y-76115770D01*
X127447203Y-76467688D02*
X127447203Y-76379775D01*
X127447203Y-89434656D02*
X127447203Y-76467688D01*
X203457102Y-89522702D02*
X203457102Y-89434656D01*
X203308142Y-89788436D02*
X203457102Y-89522702D01*
X203044802Y-89936864D02*
X203308142Y-89788436D01*
X202958352Y-89936864D02*
X203044802Y-89936864D01*
X189989522Y-89936864D02*
X202958352Y-89936864D01*
X189901742Y-89936864D02*
X189989522Y-89936864D01*
X189637072Y-89788436D02*
X189901742Y-89936864D01*
X189490772Y-89522702D02*
X189637072Y-89788436D01*
X189490772Y-89434656D02*
X189490772Y-89522702D01*
X189490772Y-76467688D02*
X189490772Y-89434656D01*
X189490772Y-76379775D02*
X189490772Y-76467688D01*
X189637072Y-76115770D02*
X189490772Y-76379775D01*
X189901742Y-75971066D02*
X189637072Y-76115770D01*
X189989522Y-75971066D02*
X189901742Y-75971066D01*
X202958352Y-75971066D02*
X189989522Y-75971066D01*
X203044802Y-75971066D02*
X202958352Y-75971066D01*
X203308142Y-76115770D02*
X203044802Y-75971066D01*
X203457102Y-76379775D02*
X203308142Y-76115770D01*
X203457102Y-76467688D02*
X203457102Y-76379775D01*
X203457102Y-89434656D02*
X203457102Y-76467688D01*
X108444828Y-89522702D02*
X108444828Y-89434656D01*
X108296533Y-89788436D02*
X108444828Y-89522702D01*
X108032395Y-89936864D02*
X108296533Y-89788436D01*
X107946477Y-89936864D02*
X108032395Y-89936864D01*
X94977514Y-89936864D02*
X107946477Y-89936864D01*
X94889335Y-89936864D02*
X94977514Y-89936864D01*
X94625596Y-89788436D02*
X94889335Y-89936864D01*
X94478764Y-89522702D02*
X94625596Y-89788436D01*
X94478764Y-89434656D02*
X94478764Y-89522702D01*
X94478764Y-76467688D02*
X94478764Y-89434656D01*
X94478764Y-76379775D02*
X94478764Y-76467688D01*
X94625596Y-76115770D02*
X94478764Y-76379775D01*
X94889335Y-75971066D02*
X94625596Y-76115770D01*
X94977514Y-75971066D02*
X94889335Y-75971066D01*
X107946477Y-75971066D02*
X94977514Y-75971066D01*
X108032395Y-75971066D02*
X107946477Y-75971066D01*
X108296533Y-76115770D02*
X108032395Y-75971066D01*
X108444828Y-76379775D02*
X108296533Y-76115770D01*
X108444828Y-76467688D02*
X108444828Y-76379775D01*
X108444828Y-89434656D02*
X108444828Y-76467688D01*
X279466602Y-89530017D02*
X279466602Y-89441971D01*
X279317642Y-89793889D02*
X279466602Y-89530017D01*
X279054302Y-89940455D02*
X279317642Y-89793889D01*
X278967852Y-89940455D02*
X279054302Y-89940455D01*
X265999022Y-89940455D02*
X278967852Y-89940455D01*
X265911242Y-89940455D02*
X265999022Y-89940455D01*
X265646572Y-89793889D02*
X265911242Y-89940455D01*
X265500272Y-89530017D02*
X265646572Y-89793889D01*
X265500272Y-89441971D02*
X265500272Y-89530017D01*
X265500272Y-76473141D02*
X265500272Y-89441971D01*
X265500272Y-76385228D02*
X265500272Y-76473141D01*
X265646572Y-76121223D02*
X265500272Y-76385228D01*
X265911242Y-75976519D02*
X265646572Y-76121223D01*
X265999022Y-75976519D02*
X265911242Y-75976519D01*
X278967852Y-75976519D02*
X265999022Y-75976519D01*
X279054302Y-75976519D02*
X278967852Y-75976519D01*
X279317642Y-76121223D02*
X279054302Y-75976519D01*
X279466602Y-76385228D02*
X279317642Y-76121223D01*
X279466602Y-76473141D02*
X279466602Y-76385228D01*
X279466602Y-89441971D02*
X279466602Y-76473141D01*
X260463562Y-89530017D02*
X260463562Y-89441971D01*
X260315932Y-89793889D02*
X260463562Y-89530017D01*
X260051262Y-89940455D02*
X260315932Y-89793889D01*
X259966142Y-89940455D02*
X260051262Y-89940455D01*
X246995982Y-89940455D02*
X259966142Y-89940455D01*
X246908202Y-89940455D02*
X246995982Y-89940455D01*
X246644862Y-89793889D02*
X246908202Y-89940455D01*
X246497232Y-89530017D02*
X246644862Y-89793889D01*
X246497232Y-89441971D02*
X246497232Y-89530017D01*
X246497232Y-76473141D02*
X246497232Y-89441971D01*
X246497232Y-76385228D02*
X246497232Y-76473141D01*
X246644862Y-76121223D02*
X246497232Y-76385228D01*
X246908202Y-75976519D02*
X246644862Y-76121223D01*
X246995982Y-75976519D02*
X246908202Y-75976519D01*
X259966142Y-75976519D02*
X246995982Y-75976519D01*
X260051262Y-75976519D02*
X259966142Y-75976519D01*
X260315932Y-76121223D02*
X260051262Y-75976519D01*
X260463562Y-76385228D02*
X260315932Y-76121223D01*
X260463562Y-76473141D02*
X260463562Y-76385228D01*
X260463562Y-89441971D02*
X260463562Y-76473141D01*
X32083410Y-94973441D02*
X32008265Y-94973441D01*
X32308845Y-95118145D02*
X32083410Y-94973441D01*
X32435328Y-95382150D02*
X32308845Y-95118145D01*
X32435328Y-95470063D02*
X32435328Y-95382150D01*
X32435328Y-108437044D02*
X32435328Y-95470063D01*
X32435328Y-108525024D02*
X32435328Y-108437044D01*
X32308845Y-108790784D02*
X32435328Y-108525024D01*
X32083410Y-108939226D02*
X32308845Y-108790784D01*
X32008265Y-108939226D02*
X32083410Y-108939226D01*
X18896500Y-108939226D02*
X32008265Y-108939226D01*
X18819520Y-108939226D02*
X18896500Y-108939226D01*
X18594085Y-108790784D02*
X18819520Y-108939226D01*
X18469464Y-108525024D02*
X18594085Y-108790784D01*
X18469464Y-108437044D02*
X18469464Y-108525024D01*
X18469464Y-95470063D02*
X18469464Y-108437044D01*
X18469464Y-95382150D02*
X18469464Y-95470063D01*
X18594085Y-95118145D02*
X18469464Y-95382150D01*
X18819520Y-94973441D02*
X18594085Y-95118145D01*
X18896500Y-94973441D02*
X18819520Y-94973441D01*
X32008265Y-94973441D02*
X18896500Y-94973441D01*
X51129808Y-94973441D02*
X51065702Y-94973441D01*
X51327712Y-95118145D02*
X51129808Y-94973441D01*
X51437703Y-95382150D02*
X51327712Y-95118145D01*
X51437703Y-95470063D02*
X51437703Y-95382150D01*
X51437703Y-108437044D02*
X51437703Y-95470063D01*
X51437703Y-108525024D02*
X51437703Y-108437044D01*
X51327712Y-108790784D02*
X51437703Y-108525024D01*
X51129808Y-108939226D02*
X51327712Y-108790784D01*
X51065702Y-108939226D02*
X51129808Y-108939226D01*
X37843906Y-108939226D02*
X51065702Y-108939226D01*
X37777938Y-108939226D02*
X37843906Y-108939226D01*
X37579901Y-108790784D02*
X37777938Y-108939226D01*
X37471772Y-108525024D02*
X37579901Y-108790784D01*
X37471772Y-108437044D02*
X37471772Y-108525024D01*
X37471772Y-95470063D02*
X37471772Y-108437044D01*
X37471772Y-95382150D02*
X37471772Y-95470063D01*
X37579901Y-95118145D02*
X37471772Y-95382150D01*
X37777938Y-94973441D02*
X37579901Y-95118145D01*
X37843906Y-94973441D02*
X37777938Y-94973441D01*
X51065702Y-94973441D02*
X37843906Y-94973441D01*
X279466602Y-108525024D02*
X279466602Y-108437044D01*
X279317642Y-108790784D02*
X279466602Y-108525024D01*
X279054302Y-108939226D02*
X279317642Y-108790784D01*
X278967852Y-108939226D02*
X279054302Y-108939226D01*
X265999022Y-108939226D02*
X278967852Y-108939226D01*
X265911242Y-108939226D02*
X265999022Y-108939226D01*
X265646572Y-108790784D02*
X265911242Y-108939226D01*
X265500272Y-108525024D02*
X265646572Y-108790784D01*
X265500272Y-108437044D02*
X265500272Y-108525024D01*
X265500272Y-95470063D02*
X265500272Y-108437044D01*
X265500272Y-95382150D02*
X265500272Y-95470063D01*
X265646572Y-95118145D02*
X265500272Y-95382150D01*
X265911242Y-94973441D02*
X265646572Y-95118145D01*
X265999022Y-94973441D02*
X265911242Y-94973441D01*
X278967852Y-94973441D02*
X265999022Y-94973441D01*
X279054302Y-94973441D02*
X278967852Y-94973441D01*
X279317642Y-95118145D02*
X279054302Y-94973441D01*
X279466602Y-95382150D02*
X279317642Y-95118145D01*
X279466602Y-95470063D02*
X279466602Y-95382150D01*
X279466602Y-108437044D02*
X279466602Y-95470063D01*
X80630538Y-108939226D02*
X80718185Y-108939226D01*
X80366267Y-108790784D02*
X80630538Y-108939226D01*
X80219967Y-108525024D02*
X80366267Y-108790784D01*
X80219967Y-108437044D02*
X80219967Y-108525024D01*
X80219967Y-95470063D02*
X80219967Y-108437044D01*
X80219967Y-95382150D02*
X80219967Y-95470063D01*
X80366267Y-95118145D02*
X80219967Y-95382150D01*
X80630538Y-94973441D02*
X80366267Y-95118145D01*
X80718185Y-94973441D02*
X80630538Y-94973441D01*
X93677838Y-94973441D02*
X80718185Y-94973441D01*
X93764155Y-94973441D02*
X93677838Y-94973441D01*
X94028293Y-95118145D02*
X93764155Y-94973441D01*
X94176588Y-95382150D02*
X94028293Y-95118145D01*
X94176588Y-95470063D02*
X94176588Y-95382150D01*
X94176588Y-108437044D02*
X94176588Y-95470063D01*
X94176588Y-108525024D02*
X94176588Y-108437044D01*
X94028293Y-108790784D02*
X94176588Y-108525024D01*
X93764155Y-108939226D02*
X94028293Y-108790784D01*
X93677838Y-108939226D02*
X93764155Y-108939226D01*
X80718185Y-108939226D02*
X93677838Y-108939226D01*
X298468312Y-108525024D02*
X298468312Y-108437044D01*
X298320682Y-108790784D02*
X298468312Y-108525024D01*
X298056012Y-108939226D02*
X298320682Y-108790784D01*
X297970892Y-108939226D02*
X298056012Y-108939226D01*
X285000732Y-108939226D02*
X297970892Y-108939226D01*
X284912952Y-108939226D02*
X285000732Y-108939226D01*
X284649612Y-108790784D02*
X284912952Y-108939226D01*
X284501982Y-108525024D02*
X284649612Y-108790784D01*
X284501982Y-108437044D02*
X284501982Y-108525024D01*
X284501982Y-95470063D02*
X284501982Y-108437044D01*
X284501982Y-95382150D02*
X284501982Y-95470063D01*
X284649612Y-95118145D02*
X284501982Y-95382150D01*
X284912952Y-94973441D02*
X284649612Y-95118145D01*
X285000732Y-94973441D02*
X284912952Y-94973441D01*
X297970892Y-94973441D02*
X285000732Y-94973441D01*
X298056012Y-94973441D02*
X297970892Y-94973441D01*
X298320682Y-95118145D02*
X298056012Y-94973441D01*
X298468312Y-95382150D02*
X298320682Y-95118145D01*
X298468312Y-95470063D02*
X298468312Y-95382150D01*
X298468312Y-108437044D02*
X298468312Y-95470063D01*
X70077387Y-94973441D02*
X70001843Y-94973441D01*
X70308142Y-95118145D02*
X70077387Y-94973441D01*
X70436354Y-95382150D02*
X70308142Y-95118145D01*
X70436354Y-95470063D02*
X70436354Y-95382150D01*
X70436354Y-108437044D02*
X70436354Y-95470063D01*
X70436354Y-108525024D02*
X70436354Y-108437044D01*
X70308142Y-108790784D02*
X70436354Y-108525024D01*
X70077387Y-108939226D02*
X70308142Y-108790784D01*
X70001843Y-108939226D02*
X70077387Y-108939226D01*
X56910387Y-108939226D02*
X70001843Y-108939226D01*
X56831651Y-108939226D02*
X56910387Y-108939226D01*
X56600630Y-108790784D02*
X56831651Y-108939226D01*
X56474147Y-108525024D02*
X56600630Y-108790784D01*
X56474147Y-108437044D02*
X56474147Y-108525024D01*
X56474147Y-95470063D02*
X56474147Y-108437044D01*
X56474147Y-95382150D02*
X56474147Y-95470063D01*
X56600630Y-95118145D02*
X56474147Y-95382150D01*
X56831651Y-94973441D02*
X56600630Y-95118145D01*
X56910387Y-94973441D02*
X56831651Y-94973441D01*
X70001843Y-94973441D02*
X56910387Y-94973441D01*
X223190312Y-108939226D02*
X236256232Y-108939226D01*
X223109182Y-108939226D02*
X223190312Y-108939226D01*
X222869782Y-108805441D02*
X223109182Y-108939226D01*
X222738112Y-108565349D02*
X222869782Y-108805441D01*
X222738112Y-108486534D02*
X222738112Y-108565349D01*
X222738112Y-95429764D02*
X222738112Y-108486534D01*
X222738112Y-95349033D02*
X222738112Y-95429764D01*
X222869782Y-95108968D02*
X222738112Y-95349033D01*
X223107852Y-94978894D02*
X222869782Y-95108968D01*
X223188982Y-94978894D02*
X223107852Y-94978894D01*
X223892552Y-94978894D02*
X223188982Y-94978894D01*
X226008582Y-94977032D02*
X223892552Y-94978894D01*
X229723272Y-94975170D02*
X226008582Y-94977032D01*
X233435302Y-94973441D02*
X229723272Y-94975170D01*
X235563302Y-94973441D02*
X233435302Y-94973441D01*
X236256232Y-94973441D02*
X235563302Y-94973441D01*
X236329382Y-94973441D02*
X236256232Y-94973441D01*
X236555482Y-95081437D02*
X236329382Y-94973441D01*
X236576762Y-95103515D02*
X236555482Y-95081437D01*
X236596712Y-95123731D02*
X236576762Y-95103515D01*
X236708432Y-95345442D02*
X236596712Y-95123731D01*
X236708432Y-95426040D02*
X236708432Y-95345442D01*
X236708432Y-108486534D02*
X236708432Y-95426040D01*
X236708432Y-108559843D02*
X236708432Y-108486534D01*
X236596712Y-108783443D02*
X236708432Y-108559843D01*
X236576762Y-108805441D02*
X236596712Y-108783443D01*
X236555482Y-108825604D02*
X236576762Y-108805441D01*
X236334702Y-108939226D02*
X236555482Y-108825604D01*
X236256232Y-108939226D02*
X236334702Y-108939226D01*
X247033222Y-108939226D02*
X259948852Y-108939226D01*
X246941452Y-108939226D02*
X247033222Y-108939226D01*
X246668802Y-108787114D02*
X246941452Y-108939226D01*
X246519842Y-108514025D02*
X246668802Y-108787114D01*
X246519842Y-108424223D02*
X246519842Y-108514025D01*
X246519842Y-95492008D02*
X246519842Y-108424223D01*
X246519842Y-95400371D02*
X246519842Y-95492008D01*
X246668802Y-95129184D02*
X246519842Y-95400371D01*
X246941452Y-94978894D02*
X246668802Y-95129184D01*
X247033222Y-94978894D02*
X246941452Y-94978894D01*
X247708862Y-94978894D02*
X247033222Y-94978894D01*
X249738442Y-94977032D02*
X247708862Y-94978894D01*
X253490372Y-94975170D02*
X249738442Y-94977032D01*
X257242302Y-94973441D02*
X253490372Y-94975170D01*
X259337052Y-94973441D02*
X257242302Y-94973441D01*
X259948852Y-94973441D02*
X259337052Y-94973441D01*
X260032642Y-94973441D02*
X259948852Y-94973441D01*
X260288002Y-95098062D02*
X260032642Y-94973441D01*
X260313272Y-95121869D02*
X260288002Y-95098062D01*
X260337212Y-95145676D02*
X260313272Y-95121869D01*
X260463562Y-95396780D02*
X260337212Y-95145676D01*
X260463562Y-95488417D02*
X260463562Y-95396780D01*
X260463562Y-108424223D02*
X260463562Y-95488417D01*
X260463562Y-108514025D02*
X260463562Y-108424223D01*
X260311942Y-108787114D02*
X260463562Y-108514025D01*
X260039292Y-108939226D02*
X260311942Y-108787114D01*
X259948852Y-108939226D02*
X260039292Y-108939226D01*
X155538532Y-108942896D02*
X155452082Y-108942896D01*
X155801872Y-108796277D02*
X155538532Y-108942896D01*
X155950832Y-108532352D02*
X155801872Y-108796277D01*
X155950832Y-108444386D02*
X155950832Y-108532352D01*
X155950832Y-95475516D02*
X155950832Y-108444386D01*
X155950832Y-95387603D02*
X155950832Y-95475516D01*
X155801872Y-95123731D02*
X155950832Y-95387603D01*
X155538532Y-94978894D02*
X155801872Y-95123731D01*
X155452082Y-94978894D02*
X155538532Y-94978894D01*
X142483385Y-94978894D02*
X155452082Y-94978894D01*
X142395206Y-94978894D02*
X142483385Y-94978894D01*
X142131600Y-95123731D02*
X142395206Y-94978894D01*
X141984635Y-95387603D02*
X142131600Y-95123731D01*
X141984635Y-95475516D02*
X141984635Y-95387603D01*
X141984635Y-108444386D02*
X141984635Y-95475516D01*
X141984635Y-108532352D02*
X141984635Y-108444386D01*
X142131600Y-108796277D02*
X141984635Y-108532352D01*
X142395206Y-108942896D02*
X142131600Y-108796277D01*
X142483385Y-108942896D02*
X142395206Y-108942896D01*
X155452082Y-108942896D02*
X142483385Y-108942896D01*
X174540242Y-108942896D02*
X174455122Y-108942896D01*
X174804912Y-108796277D02*
X174540242Y-108942896D01*
X174952542Y-108532352D02*
X174804912Y-108796277D01*
X174952542Y-108444386D02*
X174952542Y-108532352D01*
X174952542Y-95475516D02*
X174952542Y-108444386D01*
X174952542Y-95387603D02*
X174952542Y-95475516D01*
X174804912Y-95123731D02*
X174952542Y-95387603D01*
X174540242Y-94978894D02*
X174804912Y-95123731D01*
X174455122Y-94978894D02*
X174540242Y-94978894D01*
X161486292Y-94978894D02*
X174455122Y-94978894D01*
X161397182Y-94978894D02*
X161486292Y-94978894D01*
X161133842Y-95123731D02*
X161397182Y-94978894D01*
X160987542Y-95387603D02*
X161133842Y-95123731D01*
X160987542Y-95475516D02*
X160987542Y-95387603D01*
X160987542Y-108444386D02*
X160987542Y-95475516D01*
X160987542Y-108532352D02*
X160987542Y-108444386D01*
X161133842Y-108796277D02*
X160987542Y-108532352D01*
X161397182Y-108942896D02*
X161133842Y-108796277D01*
X161486292Y-108942896D02*
X161397182Y-108942896D01*
X174455122Y-108942896D02*
X161486292Y-108942896D01*
X165452352Y-32515577D02*
X165452352Y-32427398D01*
X165303392Y-32781178D02*
X165452352Y-32515577D01*
X165040052Y-32929872D02*
X165303392Y-32781178D01*
X164953602Y-32929872D02*
X165040052Y-32929872D01*
X151984772Y-32929872D02*
X164953602Y-32929872D01*
X151896992Y-32929872D02*
X151984772Y-32929872D01*
X151632322Y-32781178D02*
X151896992Y-32929872D01*
X151486022Y-32515577D02*
X151632322Y-32781178D01*
X151486022Y-32427398D02*
X151486022Y-32515577D01*
X151486022Y-19460696D02*
X151486022Y-32427398D01*
X151486022Y-19372517D02*
X151486022Y-19460696D01*
X151632322Y-19108911D02*
X151486022Y-19372517D01*
X151896992Y-18963941D02*
X151632322Y-19108911D01*
X151984772Y-18963941D02*
X151896992Y-18963941D01*
X164953602Y-18963941D02*
X151984772Y-18963941D01*
X165040052Y-18963941D02*
X164953602Y-18963941D01*
X165303392Y-19108911D02*
X165040052Y-18963941D01*
X165452352Y-19372517D02*
X165303392Y-19108911D01*
X165452352Y-19460696D02*
X165452352Y-19372517D01*
X165452352Y-32427398D02*
X165452352Y-19460696D01*
X300265142Y-70934489D02*
X298468312Y-70934489D01*
X300356912Y-70934489D02*
X300265142Y-70934489D01*
X300634882Y-70778746D02*
X300356912Y-70934489D01*
X300790492Y-70498249D02*
X300634882Y-70778746D01*
X300790492Y-70406612D02*
X300790492Y-70498249D01*
X300790492Y-18606304D02*
X300790492Y-70406612D01*
X300785172Y-18448699D02*
X300790492Y-18606304D01*
X300765222Y-18292956D02*
X300785172Y-18448699D01*
X300733302Y-18139075D02*
X300765222Y-18292956D01*
X300692072Y-17990780D02*
X300733302Y-18139075D01*
X300636212Y-17842086D02*
X300692072Y-17990780D01*
X300572372Y-17699377D02*
X300636212Y-17842086D01*
X300495232Y-17563850D02*
X300572372Y-17699377D01*
X300410112Y-17431515D02*
X300495232Y-17563850D01*
X300310362Y-17309022D02*
X300410112Y-17431515D01*
X300206622Y-17193578D02*
X300310362Y-17309022D01*
X300090912Y-17090902D02*
X300206622Y-17193578D01*
X299967222Y-16991817D02*
X300090912Y-17090902D01*
X299835552Y-16903638D02*
X299967222Y-16991817D01*
X299699892Y-16826764D02*
X299835552Y-16903638D01*
X299558912Y-16762924D02*
X299699892Y-16826764D01*
X299412612Y-16707463D02*
X299558912Y-16762924D01*
X299260992Y-16665834D02*
X299412612Y-16707463D01*
X299106712Y-16634313D02*
X299260992Y-16665834D01*
X298949772Y-16617954D02*
X299106712Y-16634313D01*
X298794162Y-16610373D02*
X298949772Y-16617954D01*
X18123065Y-16608511D02*
X298794162Y-16610373D01*
X17967282Y-16617954D02*
X18123065Y-16608511D01*
X17811486Y-16634313D02*
X17967282Y-16617954D01*
X17657538Y-16665834D02*
X17811486Y-16634313D01*
X17507248Y-16707463D02*
X17657538Y-16665834D01*
X17360616Y-16762924D02*
X17507248Y-16707463D01*
X17217668Y-16826764D02*
X17360616Y-16762924D01*
X17082037Y-16903638D02*
X17217668Y-16826764D01*
X16950077Y-16991817D02*
X17082037Y-16903638D01*
X16827279Y-17090902D02*
X16950077Y-16991817D01*
X16711810Y-17193578D02*
X16827279Y-17090902D01*
X16607344Y-17309022D02*
X16711810Y-17193578D01*
X16508372Y-17431515D02*
X16607344Y-17309022D01*
X16422233Y-17563850D02*
X16508372Y-17431515D01*
X16345254Y-17699377D02*
X16422233Y-17563850D01*
X16281105Y-17842086D02*
X16345254Y-17699377D01*
X16226122Y-17990780D02*
X16281105Y-17842086D01*
X16183968Y-18139075D02*
X16226122Y-17990780D01*
X16152811Y-18292956D02*
X16183968Y-18139075D01*
X16134482Y-18448699D02*
X16152811Y-18292956D01*
X16128984Y-18606304D02*
X16134482Y-18448699D01*
X16127151Y-70139016D02*
X16128984Y-18606304D01*
X16273774Y-70492796D02*
X16127151Y-70139016D01*
X16625671Y-70639362D02*
X16273774Y-70492796D01*
X19620446Y-70639362D02*
X16625671Y-70639362D01*
X20390223Y-70760392D02*
X19620446Y-70639362D01*
X21084869Y-71114039D02*
X20390223Y-70760392D01*
X21636499Y-71665723D02*
X21084869Y-71114039D01*
X21990226Y-72360382D02*
X21636499Y-71665723D01*
X22113065Y-73132048D02*
X21990226Y-72360382D01*
X22098382Y-75971066D02*
X22113065Y-73132048D01*
X50939219Y-75976519D02*
X22098382Y-75971066D01*
X51025403Y-75976519D02*
X50939219Y-75976519D01*
X51289275Y-76121223D02*
X51025403Y-75976519D01*
X51437703Y-76385228D02*
X51289275Y-76121223D01*
X51437703Y-76473141D02*
X51437703Y-76385228D01*
X51437703Y-89441971D02*
X51437703Y-76473141D01*
X51437703Y-89530017D02*
X51437703Y-89441971D01*
X51289275Y-89793889D02*
X51437703Y-89530017D01*
X51025403Y-89940455D02*
X51289275Y-89793889D01*
X50939219Y-89940455D02*
X51025403Y-89940455D01*
X50352689Y-89940455D02*
X50939219Y-89940455D01*
X50352689Y-91437902D02*
X50352689Y-89940455D01*
X50352689Y-91524086D02*
X50352689Y-91437902D01*
X50204261Y-91787958D02*
X50352689Y-91524086D01*
X49940389Y-91934657D02*
X50204261Y-91787958D01*
X49854205Y-91934657D02*
X49940389Y-91934657D01*
X43868274Y-91934657D02*
X49854205Y-91934657D01*
X43780361Y-91934657D02*
X43868274Y-91934657D01*
X43516356Y-91787958D02*
X43780361Y-91934657D01*
X43369790Y-91524086D02*
X43516356Y-91787958D01*
X43369790Y-91437902D02*
X43369790Y-91524086D01*
X43369790Y-89940455D02*
X43369790Y-91437902D01*
X26537430Y-89940455D02*
X43369790Y-89940455D01*
X26537430Y-91437902D02*
X26537430Y-89940455D01*
X26537430Y-91524086D02*
X26537430Y-91437902D01*
X26388922Y-91787958D02*
X26537430Y-91524086D01*
X26125010Y-91934657D02*
X26388922Y-91787958D01*
X26037031Y-91934657D02*
X26125010Y-91934657D01*
X20052988Y-91934657D02*
X26037031Y-91934657D01*
X19965022Y-91934657D02*
X20052988Y-91934657D01*
X19701097Y-91787958D02*
X19965022Y-91934657D01*
X19554478Y-91524086D02*
X19701097Y-91787958D01*
X19554478Y-91437902D02*
X19554478Y-91524086D01*
X19554478Y-89940455D02*
X19554478Y-91437902D01*
X18967974Y-89940455D02*
X19554478Y-89940455D01*
X18880008Y-89940455D02*
X18967974Y-89940455D01*
X18616083Y-89793889D02*
X18880008Y-89940455D01*
X18469464Y-89530017D02*
X18616083Y-89793889D01*
X18469464Y-89441971D02*
X18469464Y-89530017D01*
X18469464Y-75972795D02*
X18469464Y-89441971D01*
X16625671Y-75971066D02*
X18469464Y-75972795D01*
X16535862Y-75971066D02*
X16625671Y-75971066D01*
X16271942Y-76115770D02*
X16535862Y-75971066D01*
X16127151Y-76379775D02*
X16271942Y-76115770D01*
X16127151Y-76467688D02*
X16127151Y-76379775D01*
X16127151Y-109307622D02*
X16127151Y-76467688D01*
X16134482Y-109461570D02*
X16127151Y-109307622D01*
X16152811Y-109617366D02*
X16134482Y-109461570D01*
X16183968Y-109769491D02*
X16152811Y-109617366D01*
X16226122Y-109919781D02*
X16183968Y-109769491D01*
X16281105Y-110070071D02*
X16226122Y-109919781D01*
X16345254Y-110209349D02*
X16281105Y-110070071D01*
X16422233Y-110346815D02*
X16345254Y-110209349D01*
X16508372Y-110478775D02*
X16422233Y-110346815D01*
X16607344Y-110599744D02*
X16508372Y-110478775D01*
X16711810Y-110717042D02*
X16607344Y-110599744D01*
X16827279Y-110819678D02*
X16711810Y-110717042D01*
X16950077Y-110918646D02*
X16827279Y-110819678D01*
X17082037Y-111006619D02*
X16950077Y-110918646D01*
X17217668Y-111083598D02*
X17082037Y-111006619D01*
X17360616Y-111147747D02*
X17217668Y-111083598D01*
X17507248Y-111204563D02*
X17360616Y-111147747D01*
X17657538Y-111244884D02*
X17507248Y-111204563D01*
X17811486Y-111274208D02*
X17657538Y-111244884D01*
X17967282Y-111292537D02*
X17811486Y-111274208D01*
X18123065Y-111301701D02*
X17967282Y-111292537D01*
X298794162Y-111299868D02*
X18123065Y-111301701D01*
X298949772Y-111292537D02*
X298794162Y-111299868D01*
X299106712Y-111274208D02*
X298949772Y-111292537D01*
X299260992Y-111244884D02*
X299106712Y-111274208D01*
X299412612Y-111204563D02*
X299260992Y-111244884D01*
X299558912Y-111147747D02*
X299412612Y-111204563D01*
X299699892Y-111083598D02*
X299558912Y-111147747D01*
X299835552Y-111006619D02*
X299699892Y-111083598D01*
X299967222Y-110918646D02*
X299835552Y-111006619D01*
X300090912Y-110819678D02*
X299967222Y-110918646D01*
X300206622Y-110717042D02*
X300090912Y-110819678D01*
X300310362Y-110599744D02*
X300206622Y-110717042D01*
X300410112Y-110478775D02*
X300310362Y-110599744D01*
X300495232Y-110346815D02*
X300410112Y-110478775D01*
X300572372Y-110209349D02*
X300495232Y-110346815D01*
X300636212Y-110070071D02*
X300572372Y-110209349D01*
X300692072Y-109919781D02*
X300636212Y-110070071D01*
X300733302Y-109769491D02*
X300692072Y-109919781D01*
X300765222Y-109617366D02*
X300733302Y-109769491D01*
X300785172Y-109461570D02*
X300765222Y-109617366D01*
X300790492Y-109307622D02*
X300785172Y-109461570D01*
X300790492Y-76511711D02*
X300790492Y-109307622D01*
X300790492Y-76416350D02*
X300790492Y-76511711D01*
X300630892Y-76132262D02*
X300790492Y-76416350D01*
X300347602Y-75976519D02*
X300630892Y-76132262D01*
X300253172Y-75976519D02*
X300347602Y-75976519D01*
X298468312Y-75976519D02*
X300253172Y-75976519D01*
X298468312Y-89441971D02*
X298468312Y-75976519D01*
X298468312Y-89530017D02*
X298468312Y-89441971D01*
X298320682Y-89793889D02*
X298468312Y-89530017D01*
X298056012Y-89940455D02*
X298320682Y-89793889D01*
X297970892Y-89940455D02*
X298056012Y-89940455D01*
X285000732Y-89940455D02*
X297970892Y-89940455D01*
X284912952Y-89940455D02*
X285000732Y-89940455D01*
X284649612Y-89793889D02*
X284912952Y-89940455D01*
X284501982Y-89530017D02*
X284649612Y-89793889D01*
X284501982Y-89441971D02*
X284501982Y-89530017D01*
X284501982Y-76473141D02*
X284501982Y-89441971D01*
X284501982Y-76385228D02*
X284501982Y-76473141D01*
X284649612Y-76121223D02*
X284501982Y-76385228D01*
X284912952Y-75976519D02*
X284649612Y-76121223D01*
X285000732Y-75976519D02*
X284912952Y-75976519D01*
X294938492Y-75971066D02*
X285000732Y-75976519D01*
X294938492Y-72683040D02*
X294938492Y-75971066D01*
X294938492Y-72512534D02*
X294938492Y-72683040D01*
X295074152Y-72003011D02*
X294938492Y-72512534D01*
X295447882Y-71447603D02*
X295074152Y-72003011D01*
X296003822Y-71072011D02*
X295447882Y-71447603D01*
X296514542Y-70934489D02*
X296003822Y-71072011D01*
X296684782Y-70934489D02*
X296514542Y-70934489D01*
X296992012Y-70934489D02*
X296684782Y-70934489D01*
X297909712Y-70934489D02*
X296992012Y-70934489D01*
X298468312Y-70934489D02*
X297909712Y-70934489D01*
X298468312Y-70934489D02*
X298468312Y-70934489D01*
M02*
