%TF.GenerationSoftware,KiCad,Pcbnew,(6.0.2-0)*%
%TF.CreationDate,2022-08-05T01:26:09+09:00*%
%TF.ProjectId,keyplate,6b657970-6c61-4746-952e-6b696361645f,rev?*%
%TF.SameCoordinates,Original*%
%TF.FileFunction,Profile,NP*%
%FSLAX46Y46*%
G04 Gerber Fmt 4.6, Leading zero omitted, Abs format (unit mm)*
G04 Created by KiCad (PCBNEW (6.0.2-0)) date 2022-08-05 01:26:09*
%MOMM*%
%LPD*%
G01*
G04 APERTURE LIST*
%TA.AperFunction,Profile*%
%ADD10C,0.353780*%
%TD*%
G04 APERTURE END LIST*
D10*
X246855793Y-33015931D02*
X246943573Y-33015931D01*
X246467433Y-105871043D02*
X246467433Y-107850469D01*
X174900133Y-70606386D02*
X174900133Y-70518340D01*
X227443113Y-89608761D02*
X227589413Y-89874495D01*
X40467324Y-42483802D02*
X39706697Y-42997182D01*
X299208583Y-16751893D02*
X299360203Y-16793522D01*
X202992393Y-76057125D02*
X202905943Y-76057125D01*
X236944633Y-51604011D02*
X237090933Y-51869612D01*
X231907923Y-70518340D02*
X231907923Y-57551505D01*
X220689373Y-109023463D02*
X220770503Y-109023463D01*
X298297533Y-32896763D02*
X298415903Y-32680505D01*
X43605060Y-45619942D02*
X43793920Y-44921825D01*
X161344773Y-71020548D02*
X161433883Y-71020548D01*
X47067183Y-51867750D02*
X47331188Y-52016444D01*
X298415903Y-108523103D02*
X298415903Y-95556122D01*
X293526823Y-57199720D02*
X293262153Y-57054750D01*
X32382919Y-108523103D02*
X32382919Y-95556122D01*
X51385294Y-108611083D02*
X51385294Y-108523103D01*
X189438363Y-32513457D02*
X189438363Y-32601636D01*
X70255733Y-95204204D02*
X70024978Y-95059500D01*
X202992393Y-90022923D02*
X203255733Y-89874495D01*
X69889318Y-76057125D02*
X56920355Y-76057125D01*
X127394794Y-89608761D02*
X127394794Y-89520715D01*
X222406403Y-19458576D02*
X222258773Y-19194970D01*
X51275303Y-95204204D02*
X51077399Y-95059500D01*
X189438363Y-89608761D02*
X189584663Y-89872633D01*
X234288623Y-98144036D02*
X234288623Y-96170183D01*
X70383945Y-95556122D02*
X70383945Y-95468209D01*
X189584663Y-89872633D02*
X189849333Y-90021061D01*
X298415903Y-32608685D02*
X298415903Y-19452990D01*
X202905943Y-90022923D02*
X202992393Y-90022923D01*
X250762003Y-51869612D02*
X250909633Y-51604011D01*
X231907923Y-51515832D02*
X231907923Y-38549130D01*
X132431105Y-19546755D02*
X132431105Y-32513457D01*
X293673123Y-51515832D02*
X293673123Y-38549130D01*
X108392419Y-32513457D02*
X108392419Y-19546755D01*
X146397169Y-32513457D02*
X146397169Y-19546755D01*
X85072066Y-57199720D02*
X84925101Y-57463326D01*
X165399943Y-76553747D02*
X165399943Y-76465834D01*
X75423980Y-32513457D02*
X75423980Y-32601636D01*
X220316973Y-102042372D02*
X220316973Y-105938887D01*
X117893540Y-38549130D02*
X117893540Y-38460951D01*
X41400186Y-47086134D02*
X41633069Y-47086134D01*
X107979986Y-33015931D02*
X108244124Y-32867237D01*
X250909633Y-57463326D02*
X250762003Y-57199720D01*
X246616393Y-95215243D02*
X246467433Y-95486430D01*
X20337814Y-70846451D02*
X19568037Y-70725421D01*
X174900133Y-57463326D02*
X174752503Y-57199720D01*
X104338047Y-52016444D02*
X104426226Y-52016444D01*
X193490873Y-52018306D02*
X193754213Y-51869612D01*
X142079191Y-95209790D02*
X142342797Y-95064953D01*
X43793920Y-44455926D02*
X43605060Y-43757676D01*
X126896443Y-19050000D02*
X113927480Y-19050000D01*
X294886083Y-76057125D02*
X294886083Y-76057125D01*
X257189893Y-95059500D02*
X253437963Y-95061229D01*
X275182133Y-42297070D02*
X274483883Y-42483802D01*
X174402713Y-52016444D02*
X174487833Y-52016444D01*
X23666139Y-71018686D02*
X36631338Y-71018686D01*
X16074742Y-76553747D02*
X16074742Y-76465834D01*
X75834551Y-90021061D02*
X75922730Y-90021061D01*
X151844583Y-33014069D02*
X151932363Y-33014069D01*
X88977611Y-33014069D02*
X89241749Y-32865375D01*
X75423980Y-76553747D02*
X75423980Y-89520715D01*
X199086183Y-38197345D02*
X198939883Y-38460951D01*
X253437963Y-109023463D02*
X257189893Y-109023463D01*
X84925101Y-57463326D02*
X84925101Y-57551505D01*
X107894068Y-76057125D02*
X94925105Y-76057125D01*
X199086183Y-57199720D02*
X198939883Y-57463326D01*
X199349523Y-52018306D02*
X199438633Y-52018306D01*
X174900133Y-51604011D02*
X174900133Y-51515832D01*
X165399943Y-19546755D02*
X165399943Y-19458576D01*
X279414193Y-32608685D02*
X279414193Y-19452990D01*
X96017434Y-95059500D02*
X83057781Y-95059500D01*
X265447863Y-95468209D02*
X265447863Y-95556122D01*
X284567943Y-19167173D02*
X284449573Y-19381702D01*
X89390044Y-76465834D02*
X89241749Y-76201829D01*
X265779033Y-33015931D02*
X265853513Y-33015931D01*
X70387669Y-32601636D02*
X70387669Y-32513457D01*
X127394794Y-76553747D02*
X127394794Y-76465834D01*
X246444823Y-19546755D02*
X246444823Y-32513457D01*
X132841676Y-90021061D02*
X132929855Y-90021061D01*
X51385294Y-32601636D02*
X51385294Y-32513457D01*
X17605129Y-16751893D02*
X17759077Y-16720372D01*
X51385294Y-76559200D02*
X51385294Y-76471287D01*
X70383945Y-108523103D02*
X70383945Y-95556122D01*
X151433613Y-32601636D02*
X151579913Y-32867237D01*
X233910903Y-95059500D02*
X233837753Y-95059500D01*
X136483482Y-52016444D02*
X136747620Y-51867750D01*
X136895915Y-51604011D02*
X136895915Y-51515832D01*
X132841676Y-76057125D02*
X132577937Y-76201829D01*
X250762003Y-38197345D02*
X250497333Y-38052375D01*
X18417055Y-32513457D02*
X18417055Y-32601636D01*
X103927476Y-57551505D02*
X103927476Y-70518340D01*
X250497333Y-38052375D02*
X250412213Y-38052375D01*
X298415903Y-32608685D02*
X298415903Y-19452990D01*
X79740495Y-70872120D02*
X79888790Y-70606386D01*
X75922730Y-76057125D02*
X75834551Y-76057125D01*
X105025391Y-108530445D02*
X105025391Y-108030086D01*
X127246499Y-89874495D02*
X127394794Y-89608761D01*
X136747620Y-51869612D02*
X136895915Y-51604011D01*
X234288623Y-107912793D02*
X234288623Y-105937051D01*
X79888790Y-70606386D02*
X79888790Y-70518340D01*
X17029628Y-16989697D02*
X17165259Y-16912823D01*
X181180393Y-108882336D02*
X181035423Y-108618411D01*
X298415903Y-76062578D02*
X299050313Y-76062578D01*
X146248874Y-32865375D02*
X146397169Y-32601636D01*
X98891165Y-70606386D02*
X98891165Y-70518340D01*
X170435323Y-32601636D02*
X170582953Y-32867237D01*
X103927476Y-70606386D02*
X104074441Y-70870258D01*
X236944633Y-70606386D02*
X237090933Y-70872120D01*
X179936843Y-51604011D02*
X180084473Y-51867750D01*
X47419101Y-71020548D02*
X60387931Y-71020548D01*
X36631338Y-57054750D02*
X23666139Y-57054750D01*
X279001893Y-109023463D02*
X279265233Y-108875008D01*
X212407463Y-57054750D02*
X199438633Y-57054750D01*
X300257953Y-110685803D02*
X300154213Y-110803101D01*
X127394794Y-76465834D02*
X127246499Y-76201829D01*
X279294493Y-19167173D02*
X279080363Y-19050000D01*
X104426226Y-52016444D02*
X117395322Y-52016444D01*
X221908983Y-19050000D02*
X208938823Y-19050000D01*
X164901193Y-76057125D02*
X151932363Y-76057125D01*
X170582953Y-32867237D02*
X170846293Y-33015931D01*
X142079191Y-51869612D02*
X142342797Y-52018306D01*
X260411153Y-19458576D02*
X260263523Y-19194970D01*
X256093973Y-38197345D02*
X255946343Y-38460951D01*
X151579913Y-76201829D02*
X151433613Y-76465834D01*
X36635062Y-52016444D02*
X36721113Y-52016444D01*
X184401653Y-89520715D02*
X184401653Y-76553747D01*
X255946343Y-38460951D02*
X255946343Y-38549130D01*
X17759077Y-16720372D02*
X17914873Y-16704013D01*
X66421476Y-38052375D02*
X66333297Y-38052375D01*
X241260483Y-32867237D02*
X241409443Y-32601636D01*
X280119093Y-57054750D02*
X279855753Y-57199720D01*
X202992393Y-76057125D02*
X202905943Y-76057125D01*
X41165707Y-47086134D02*
X41400186Y-47086134D01*
X212904883Y-51515832D02*
X212904883Y-38549130D01*
X260263523Y-76207282D02*
X259998853Y-76062578D01*
X50151852Y-91874017D02*
X50300280Y-91610145D01*
X269912673Y-70606386D02*
X269912673Y-70518340D01*
X231409173Y-38052375D02*
X218440343Y-38052375D01*
X240910693Y-19050000D02*
X227941863Y-19050000D01*
X117893540Y-51515832D02*
X117893540Y-38549130D01*
X122929851Y-51604011D02*
X123076816Y-51867750D01*
X75423980Y-19546755D02*
X75423980Y-32513457D01*
X89241749Y-32865375D02*
X89390044Y-32601636D01*
X203404693Y-19458576D02*
X203255733Y-19194970D01*
X170934073Y-33014069D02*
X183904233Y-33014069D01*
X284449573Y-108523103D02*
X284449573Y-108611083D01*
X123340422Y-52018306D02*
X123428601Y-52018306D01*
X32382919Y-19546755D02*
X32382919Y-19458576D01*
X300732763Y-18534758D02*
X300738083Y-18692363D01*
X269912673Y-70518340D02*
X269912673Y-57551505D01*
X31955856Y-109025285D02*
X32031001Y-109025285D01*
X279414193Y-76559200D02*
X279414193Y-76471287D01*
X132929855Y-76057125D02*
X132841676Y-76057125D01*
X51385294Y-89616076D02*
X51385294Y-89528030D01*
X96103751Y-95059500D02*
X96017434Y-95059500D01*
X273023543Y-44455926D02*
X273023543Y-44688543D01*
X231409173Y-38052375D02*
X218440343Y-38052375D01*
X165399943Y-32601636D02*
X165399943Y-32513457D01*
X155898423Y-38460951D02*
X155749463Y-38197345D01*
X70387669Y-19546755D02*
X70387669Y-19458576D01*
X117745378Y-38197345D02*
X117481107Y-38052375D01*
X255946343Y-51604011D02*
X256093973Y-51867750D01*
X300738083Y-70492671D02*
X300738083Y-70584308D01*
X237090933Y-57199720D02*
X236944633Y-57463326D01*
X279709453Y-38549130D02*
X279709453Y-51515832D01*
X32382919Y-32513457D02*
X32382919Y-19546755D01*
X46920617Y-70518340D02*
X46920617Y-70606386D01*
X43091946Y-42997182D02*
X42331319Y-42483802D01*
X256445093Y-38052375D02*
X256357313Y-38052375D01*
X94426355Y-76465834D02*
X94426355Y-76553747D01*
X269763713Y-57199720D02*
X269500373Y-57054750D01*
X16455963Y-110564834D02*
X16369824Y-110431044D01*
X32256436Y-95204204D02*
X32031001Y-95059500D01*
X107894068Y-33014069D02*
X107979986Y-33014069D01*
X236944633Y-70518340D02*
X236944633Y-70606386D01*
X50300280Y-91610145D02*
X50300280Y-91523961D01*
X170582953Y-19194970D02*
X170435323Y-19458576D01*
X94426355Y-32601636D02*
X94573187Y-32867237D01*
X174900133Y-95473662D02*
X174900133Y-95561575D01*
X18541676Y-108875008D02*
X18767111Y-109023463D01*
X199438633Y-52016444D02*
X212407463Y-52016444D01*
X21584090Y-71751782D02*
X21032460Y-71200098D01*
X31955856Y-95059500D02*
X18844091Y-95059500D01*
X94836926Y-33015931D02*
X94925105Y-33015931D01*
X79888790Y-57551505D02*
X79888790Y-57463326D01*
X16897668Y-17077876D02*
X17029628Y-16989697D01*
X37419363Y-95556122D02*
X37419363Y-108523103D01*
X241260483Y-76201829D02*
X240997143Y-76057125D01*
X208440073Y-19546755D02*
X208440073Y-32513457D01*
X37419363Y-19458576D02*
X37419363Y-19546755D01*
X265447863Y-89528030D02*
X265447863Y-89616076D01*
X98891165Y-38460951D02*
X98742870Y-38197345D01*
X269413923Y-57054750D02*
X256445093Y-57054750D01*
X66069691Y-51867750D02*
X66333297Y-52016444D01*
X16100402Y-18379015D02*
X16131559Y-18225134D01*
X164987643Y-76057125D02*
X164901193Y-76057125D01*
X298415903Y-71020548D02*
X298415903Y-71020548D01*
X269912673Y-57463326D02*
X269763713Y-57199720D01*
X183989353Y-19050000D02*
X183904233Y-19050000D01*
X193490873Y-52016444D02*
X193754213Y-51867750D01*
X36985118Y-38197345D02*
X36721113Y-38052375D01*
X94426355Y-19546755D02*
X94426355Y-32513457D01*
X218440343Y-71018686D02*
X231409173Y-71018686D01*
X49887980Y-92020716D02*
X50151852Y-91874017D01*
X32382919Y-95468209D02*
X32256436Y-95204204D01*
X300680893Y-18225134D02*
X300712813Y-18379015D01*
X103927476Y-70606386D02*
X104074441Y-70872120D01*
X79390572Y-71018686D02*
X79476357Y-71018686D01*
X19502069Y-90026514D02*
X19502069Y-91523961D01*
X17605129Y-111330943D02*
X17454839Y-111290622D01*
X16292845Y-17785436D02*
X16369824Y-17649909D01*
X255946343Y-38460951D02*
X255946343Y-38549130D01*
X298415903Y-89616076D02*
X298415903Y-89528030D01*
X75423980Y-32513457D02*
X75423980Y-32601636D01*
X141932226Y-57551505D02*
X141932226Y-70518340D01*
X37133546Y-38549130D02*
X37133546Y-38460951D01*
X105029248Y-93567506D02*
X105029248Y-93477731D01*
X204837103Y-93477731D02*
X204983403Y-93213859D01*
X265594163Y-89879948D02*
X265858833Y-90026514D01*
X183989353Y-90021061D02*
X184254023Y-89872633D01*
X70387669Y-76553747D02*
X70387669Y-76465834D01*
X43091946Y-42997182D02*
X42331319Y-42483802D01*
X79888790Y-38549130D02*
X79888790Y-38460951D01*
X88977611Y-90021061D02*
X89241749Y-89872633D01*
X151844583Y-19050000D02*
X151579913Y-19194970D01*
X240910693Y-90021061D02*
X240997143Y-90021061D01*
X255946343Y-70606386D02*
X256093973Y-70870258D01*
X70387669Y-89608761D02*
X70387669Y-89520715D01*
X212492583Y-71018686D02*
X212757253Y-70870258D01*
X117893540Y-38549130D02*
X117893540Y-38460951D01*
X18417055Y-108523103D02*
X18417055Y-108611083D01*
X181035423Y-108530445D02*
X181035423Y-108030086D01*
X300712813Y-18379015D02*
X300732763Y-18534758D01*
X136747620Y-57199720D02*
X136483482Y-57054750D01*
X256357313Y-38052375D02*
X256093973Y-38197345D01*
X60474115Y-57054750D02*
X60387931Y-57054750D01*
X17165259Y-16912823D02*
X17308207Y-16848983D01*
X84925101Y-70518340D02*
X84925101Y-70606386D01*
X293673123Y-51515832D02*
X293673123Y-38549130D01*
X113428730Y-32601636D02*
X113575562Y-32865375D01*
X49801796Y-92020716D02*
X49887980Y-92020716D01*
X36631338Y-71018686D02*
X36719384Y-71018686D01*
X220316973Y-98147627D02*
X220316973Y-102042372D01*
X279855753Y-70870258D02*
X280119093Y-71018686D01*
X240997143Y-76057125D02*
X240910693Y-76057125D01*
X151433613Y-32513457D02*
X151433613Y-32601636D01*
X37791497Y-109025285D02*
X51013293Y-109025285D01*
X160935133Y-38549130D02*
X160935133Y-51515832D01*
X111495176Y-93069022D02*
X111583355Y-93069022D01*
X94836926Y-76057125D02*
X94573187Y-76201829D01*
X47067183Y-70872120D02*
X47331188Y-71020548D01*
X300639663Y-110005840D02*
X300583803Y-110156130D01*
X222258773Y-76201829D02*
X221994103Y-76057125D01*
X23578173Y-71018686D02*
X23666139Y-71018686D01*
X189438363Y-76465834D02*
X189438363Y-76553747D01*
X298897363Y-111378596D02*
X298741753Y-111385927D01*
X170435323Y-76553747D02*
X170435323Y-89520715D01*
X208587703Y-76201829D02*
X208440073Y-76465834D01*
X180347813Y-71018686D02*
X180435593Y-71018686D01*
X300738083Y-69008125D02*
X300738083Y-70120670D01*
X278915443Y-90026514D02*
X279001893Y-90026514D01*
X107894068Y-90022923D02*
X107979986Y-90022923D01*
X32382919Y-95468209D02*
X32256436Y-95204204D01*
X300038503Y-110905737D02*
X299914813Y-111004705D01*
X96516184Y-95468209D02*
X96367357Y-95204204D01*
X203404693Y-32601636D02*
X203404693Y-32513457D01*
X184401653Y-32513457D02*
X184401653Y-19546755D01*
X203404693Y-32513457D02*
X203404693Y-19546755D01*
X60886548Y-38549130D02*
X60886548Y-38460951D01*
X117893540Y-51604011D02*
X117893540Y-51515832D01*
X85072066Y-38197345D02*
X84925101Y-38460951D01*
X250412213Y-38052375D02*
X237443383Y-38052375D01*
X151932363Y-33014069D02*
X164901193Y-33014069D01*
X203404693Y-76553747D02*
X203404693Y-76465834D01*
X141932226Y-95473662D02*
X142079191Y-95209790D01*
X151844583Y-90022923D02*
X151932363Y-90022923D01*
X46920617Y-38460951D02*
X46920617Y-38549130D01*
X250497333Y-57054750D02*
X250412213Y-57054750D01*
X203404693Y-76553747D02*
X203404693Y-76465834D01*
X265447863Y-76559200D02*
X265447863Y-89528030D01*
X50972994Y-90026514D02*
X51236866Y-89879948D01*
X220770503Y-109025285D02*
X221474073Y-109025285D01*
X300442823Y-17649909D02*
X300519963Y-17785436D01*
X211408633Y-93069022D02*
X211671973Y-93213859D01*
X128974568Y-93213859D02*
X129238706Y-93069022D01*
X265594163Y-108875008D02*
X265858833Y-109023463D01*
X18844091Y-95059500D02*
X18767111Y-95059500D01*
X284449573Y-89528030D02*
X284449573Y-89616076D01*
X151433613Y-19546755D02*
X151433613Y-32513457D01*
X211322183Y-93069022D02*
X211408633Y-93069022D01*
X170846293Y-76057125D02*
X170582953Y-76201829D01*
X183989353Y-19050000D02*
X183904233Y-19050000D01*
X211671973Y-93213859D02*
X211820933Y-93477731D01*
X165250983Y-19194970D02*
X164987643Y-19050000D01*
X189584663Y-32867237D02*
X189849333Y-33015931D01*
X255946343Y-70518340D02*
X255946343Y-70606386D01*
X56779242Y-95059500D02*
X56548221Y-95204204D01*
X184401653Y-76553747D02*
X184401653Y-76465834D01*
X227443113Y-76465834D02*
X227443113Y-76553747D01*
X180347813Y-57054750D02*
X180084473Y-57199720D01*
X117745378Y-38197345D02*
X117481107Y-38052375D01*
X299914813Y-17077876D02*
X300038503Y-17176961D01*
X151844583Y-33015931D02*
X151932363Y-33015931D01*
X221994103Y-90021061D02*
X222258773Y-89872633D01*
X265779033Y-19050000D02*
X265564903Y-19167173D01*
X32031001Y-95059500D02*
X31955856Y-95059500D01*
X161433883Y-57054750D02*
X161344773Y-57054750D01*
X221994103Y-90022923D02*
X222258773Y-89874495D01*
X198939883Y-57463326D02*
X198939883Y-57551505D01*
X145984736Y-19050000D02*
X145898818Y-19050000D01*
X246444823Y-89616076D02*
X246592453Y-89879948D01*
X23167628Y-38460951D02*
X23167628Y-38549130D01*
X70387669Y-32601636D02*
X70387669Y-32513457D01*
X56421738Y-76553747D02*
X56421738Y-89520715D01*
X56421738Y-76465834D02*
X56421738Y-76553747D01*
X300582473Y-70864805D02*
X300304503Y-71018686D01*
X105170361Y-108882336D02*
X105025391Y-108618411D01*
X161344773Y-71018686D02*
X161433883Y-71018686D01*
X129326486Y-93069022D02*
X135312417Y-93069022D01*
X180435593Y-52018306D02*
X193404423Y-52018306D01*
X108244124Y-76201829D02*
X107979986Y-76057125D01*
X276347213Y-42483802D02*
X275648963Y-42297070D01*
X132929855Y-19050000D02*
X132841676Y-19050000D01*
X256357313Y-71020548D02*
X256445093Y-71020548D01*
X56568437Y-76201829D02*
X56421738Y-76465834D01*
X135398734Y-93069022D02*
X135662473Y-93213859D01*
X18070656Y-16694570D02*
X298741753Y-16696432D01*
X236944633Y-51604011D02*
X237090933Y-51867750D01*
X269500373Y-57054750D02*
X269413923Y-57054750D01*
X127246499Y-76201829D02*
X126982361Y-76057125D01*
X174402713Y-38052375D02*
X161433883Y-38052375D01*
X51385294Y-89528030D02*
X51385294Y-76559200D01*
X107894068Y-76057125D02*
X94925105Y-76057125D01*
X183989353Y-90022923D02*
X184254023Y-89874495D01*
X300680893Y-109855550D02*
X300639663Y-110005840D01*
X50886810Y-33015931D02*
X50972994Y-33015931D01*
X103927476Y-57463326D02*
X103927476Y-57551505D01*
X180435593Y-71020548D02*
X193404423Y-71020548D01*
X56568437Y-32867237D02*
X56832309Y-33015931D01*
X113428730Y-76465834D02*
X113428730Y-76553747D01*
X36719384Y-57054750D02*
X36631338Y-57054750D01*
X179936843Y-51604011D02*
X180084473Y-51869612D01*
X60387931Y-57054750D02*
X47419101Y-57054750D01*
X174487833Y-38052375D02*
X174402713Y-38052375D01*
X135312417Y-109028955D02*
X105524141Y-109028955D01*
X75922730Y-33014069D02*
X88891693Y-33014069D01*
X212757253Y-51869612D02*
X212904883Y-51604011D01*
X260263523Y-32867237D02*
X260411153Y-32601636D01*
X47067183Y-51869612D02*
X47331188Y-52018306D01*
X284855223Y-33014069D02*
X298011583Y-33014069D01*
X146397169Y-19546755D02*
X146397169Y-19458576D01*
X174487833Y-71018686D02*
X174752503Y-70870258D01*
X280206873Y-71020548D02*
X293174373Y-71020548D01*
X212757253Y-57199720D02*
X212492583Y-57054750D01*
X89390044Y-32513457D02*
X89390044Y-19546755D01*
X105527998Y-93069022D02*
X111495176Y-93069022D01*
X16074742Y-109393681D02*
X16074742Y-76553747D01*
X161081433Y-95209790D02*
X161344773Y-95064953D01*
X85423851Y-38052375D02*
X85335672Y-38052375D01*
X161433883Y-52016444D02*
X174402713Y-52016444D01*
X231907923Y-57463326D02*
X231758963Y-57199720D01*
X113839301Y-19050000D02*
X113575562Y-19194970D01*
X189438363Y-76553747D02*
X189438363Y-89520715D01*
X70255733Y-95204204D02*
X70024978Y-95059500D01*
X165399943Y-19458576D02*
X165250983Y-19194970D01*
X202905943Y-90021061D02*
X202992393Y-90021061D01*
X75570812Y-89874495D02*
X75834551Y-90022923D01*
X146248874Y-89872633D02*
X146397169Y-89608761D01*
X126982361Y-33015931D02*
X127246499Y-32867237D01*
X246855793Y-90026514D02*
X246943573Y-90026514D01*
X279855753Y-38197345D02*
X279709453Y-38460951D01*
X255946343Y-51515832D02*
X255946343Y-51604011D01*
X221994103Y-76057125D02*
X221908983Y-76057125D01*
X16573262Y-76057125D02*
X18417055Y-76058854D01*
X184254023Y-89872633D02*
X184401653Y-89608761D01*
X284449573Y-89616076D02*
X284597203Y-89879948D01*
X89241749Y-19194970D02*
X88977611Y-19050000D01*
X132577937Y-19194970D02*
X132431105Y-19458576D01*
X65922726Y-57551505D02*
X65922726Y-70518340D01*
X164987643Y-76057125D02*
X164901193Y-76057125D01*
X16483453Y-76057125D02*
X16573262Y-76057125D01*
X279001893Y-95059500D02*
X278915443Y-95059500D01*
X193490873Y-38052375D02*
X193404423Y-38052375D01*
X222406403Y-89520715D02*
X222406403Y-76553747D01*
X79390572Y-57054750D02*
X66421476Y-57054750D01*
X135811167Y-93477731D02*
X135811167Y-93567506D01*
X170846293Y-33015931D02*
X170934073Y-33015931D01*
X96103751Y-109023463D02*
X96367357Y-108875008D01*
X227443113Y-32601636D02*
X227589413Y-32865375D01*
X189438363Y-19458576D02*
X189438363Y-19546755D01*
X56568437Y-19194970D02*
X56421738Y-19458576D01*
X84925101Y-70606386D02*
X85072066Y-70870258D01*
X16483453Y-76057125D02*
X16573262Y-76057125D01*
X300738083Y-18692363D02*
X300738083Y-18692363D01*
X170582953Y-76201829D02*
X170435323Y-76465834D01*
X212757253Y-51867750D02*
X212904883Y-51604011D01*
X122929851Y-57551505D02*
X122929851Y-70518340D01*
X269912673Y-38460951D02*
X269763713Y-38197345D01*
X241409443Y-89520715D02*
X241409443Y-76553747D01*
X107894068Y-33015931D02*
X107979986Y-33015931D01*
X65922726Y-70518340D02*
X65922726Y-70606386D01*
X16659401Y-17279637D02*
X16774870Y-17176961D01*
X43605060Y-43757676D02*
X43091946Y-42997182D01*
X193404423Y-71020548D02*
X193490873Y-71020548D01*
X94925105Y-76057125D02*
X94836926Y-76057125D01*
X250412213Y-71018686D02*
X250497333Y-71018686D01*
X151433613Y-89520715D02*
X151433613Y-89608761D01*
X105439686Y-93069022D02*
X105527998Y-93069022D01*
X32382919Y-19458576D02*
X32234491Y-19194970D01*
X294886083Y-75747368D02*
X294886083Y-76057125D01*
X250762003Y-70872120D02*
X250909633Y-70606386D01*
X183989353Y-76057125D02*
X183904233Y-76057125D01*
X60387931Y-71018686D02*
X60474115Y-71018686D01*
X75834551Y-90022923D02*
X75922730Y-90022923D01*
X66333297Y-57054750D02*
X66069691Y-57199720D01*
X300738083Y-56053925D02*
X300738083Y-60089943D01*
X293262153Y-71020548D02*
X293526823Y-70872120D01*
X113575562Y-32865375D02*
X113839301Y-33014069D01*
X298741753Y-16696432D02*
X298897363Y-16704013D01*
X135312417Y-93069022D02*
X135398734Y-93069022D01*
X279709453Y-38549130D02*
X279709453Y-51515832D01*
X146397169Y-76465834D02*
X146248874Y-76201829D01*
X180084473Y-38197345D02*
X179936843Y-38460951D01*
X193903173Y-57463326D02*
X193754213Y-57199720D01*
X174752503Y-95209790D02*
X174900133Y-95473662D01*
X299506503Y-111233806D02*
X299360203Y-111290622D01*
X142430976Y-57054750D02*
X142342797Y-57054750D01*
X165250983Y-32865375D02*
X165399943Y-32601636D01*
X82559031Y-95556122D02*
X82559031Y-108523103D01*
X141932226Y-108530445D02*
X141932226Y-95561575D01*
X84925101Y-38460951D02*
X84925101Y-38549130D01*
X295951413Y-71158070D02*
X295395473Y-71533662D01*
X260411153Y-108600084D02*
X260411153Y-108510282D01*
X189937113Y-90022923D02*
X202905943Y-90022923D01*
X155399673Y-71020548D02*
X155486123Y-71020548D01*
X127394794Y-89520715D02*
X127394794Y-76553747D01*
X56568437Y-76201829D02*
X56421738Y-76465834D01*
X94836926Y-19050000D02*
X94573187Y-19194970D01*
X18827599Y-90026514D02*
X18915565Y-90026514D01*
X105524141Y-109028955D02*
X105434100Y-109028955D01*
X145898818Y-76057125D02*
X132929855Y-76057125D01*
X136747620Y-51867750D02*
X136895915Y-51604011D01*
X193903173Y-38549130D02*
X193903173Y-38460951D01*
X183989353Y-76057125D02*
X183904233Y-76057125D01*
X193903173Y-57551505D02*
X193903173Y-57463326D01*
X37419363Y-108611083D02*
X37527492Y-108876843D01*
X108244124Y-76201829D02*
X107979986Y-76057125D01*
X56568437Y-89872633D02*
X56832309Y-90021061D01*
X236944633Y-38460951D02*
X236944633Y-38549130D01*
X189937113Y-19050000D02*
X189849333Y-19050000D01*
X135662473Y-108882336D02*
X135398734Y-109028955D01*
X135662473Y-93213859D02*
X135811167Y-93477731D01*
X170435323Y-76465834D02*
X170435323Y-76553747D01*
X75834551Y-19050000D02*
X75570812Y-19194970D01*
X155898423Y-108618411D02*
X155749463Y-108882336D01*
X300738083Y-29603018D02*
X300738083Y-33639036D01*
X25984622Y-92020716D02*
X26072601Y-92020716D01*
X26336513Y-91874017D02*
X26485021Y-91610145D01*
X142079191Y-70870258D02*
X142342797Y-71018686D01*
X69949434Y-95059500D02*
X56857978Y-95059500D01*
X89390044Y-89608761D02*
X89390044Y-89520715D01*
X108392419Y-89520715D02*
X108392419Y-76553747D01*
X208440073Y-32513457D02*
X208440073Y-32601636D01*
X47067183Y-70870258D02*
X47331188Y-71018686D01*
X132841676Y-19050000D02*
X132577937Y-19194970D01*
X199438633Y-57054750D02*
X199349523Y-57054750D01*
X117893540Y-57463326D02*
X117745378Y-57199720D01*
X89390044Y-32601636D02*
X89390044Y-32513457D01*
X98742870Y-57199720D02*
X98478732Y-57054750D01*
X32256436Y-108876843D02*
X32382919Y-108611083D01*
X75423980Y-76553747D02*
X75423980Y-89520715D01*
X180435593Y-57054750D02*
X180347813Y-57054750D01*
X212904883Y-38549130D02*
X212904883Y-38460951D01*
X269912673Y-57551505D02*
X269912673Y-57463326D01*
X202905943Y-19050000D02*
X189937113Y-19050000D01*
X105025391Y-108530445D02*
X105025391Y-108030086D01*
X170435323Y-89520715D02*
X170435323Y-89608761D01*
X184401653Y-76465834D02*
X184254023Y-76201829D01*
X241260483Y-19194970D02*
X240997143Y-19050000D01*
X18844091Y-95059500D02*
X18767111Y-95059500D01*
X151844583Y-76057125D02*
X151579913Y-76201829D01*
X170435323Y-19546755D02*
X170435323Y-32513457D01*
X69889318Y-19050000D02*
X56920355Y-19050000D01*
X37725529Y-95059500D02*
X37527492Y-95204204D01*
X222406403Y-76553747D02*
X222406403Y-76465834D01*
X56832309Y-76057125D02*
X56568437Y-76201829D01*
X82559031Y-108611083D02*
X82705863Y-108875008D01*
X279414193Y-32680505D02*
X279414193Y-32608685D01*
X117395322Y-38052375D02*
X104426226Y-38052375D01*
X300712813Y-109703425D02*
X300680893Y-109855550D01*
X279080363Y-33015931D02*
X279294493Y-32896763D01*
X113575562Y-76201829D02*
X113428730Y-76465834D01*
X193404423Y-52018306D02*
X193490873Y-52018306D01*
X212757253Y-70870258D02*
X212904883Y-70606386D01*
X250909633Y-51515832D02*
X250909633Y-38549130D01*
X183989353Y-33015931D02*
X184254023Y-32867237D01*
X179936843Y-57463326D02*
X179936843Y-57551505D01*
X155898423Y-70606386D02*
X155898423Y-70518340D01*
X104426226Y-71020548D02*
X117395322Y-71020548D01*
X221994103Y-33014069D02*
X222258773Y-32865375D01*
X246444823Y-32601636D02*
X246592453Y-32865375D01*
X161433883Y-57054750D02*
X161344773Y-57054750D01*
X193754213Y-70872120D02*
X193903173Y-70606386D01*
X127394794Y-19458576D02*
X127246499Y-19194970D01*
X284449573Y-76559200D02*
X284449573Y-89528030D01*
X284449573Y-19381702D02*
X284449573Y-19452990D01*
X47419101Y-52016444D02*
X60387931Y-52016444D01*
X284948323Y-90026514D02*
X297918483Y-90026514D01*
X298415903Y-19452990D02*
X298415903Y-19381702D01*
X18417055Y-95556122D02*
X18417055Y-108523103D01*
X253437963Y-95061229D02*
X249686033Y-95063091D01*
X260260863Y-95207928D02*
X260235593Y-95184121D01*
X122929851Y-38460951D02*
X122929851Y-38549130D01*
X164901193Y-33014069D02*
X164987643Y-33014069D01*
X37527492Y-108876843D02*
X37725529Y-109025285D01*
X250909633Y-57551505D02*
X250909633Y-57463326D01*
X265594163Y-89879948D02*
X265858833Y-90026514D01*
X161433883Y-71018686D02*
X174402713Y-71018686D01*
X184401653Y-19458576D02*
X184254023Y-19194970D01*
X198939883Y-51515832D02*
X198939883Y-51604011D01*
X218352563Y-57054750D02*
X218089223Y-57199720D01*
X122929851Y-38549130D02*
X122929851Y-51515832D01*
X108244124Y-89874495D02*
X108392419Y-89608761D01*
X117893540Y-38460951D02*
X117745378Y-38197345D01*
X284597203Y-89879948D02*
X284860543Y-90026514D01*
X66421476Y-57054750D02*
X66333297Y-57054750D01*
X142430976Y-52016444D02*
X155399673Y-52016444D01*
X17914873Y-16704013D02*
X18070656Y-16694570D01*
X60886548Y-51604011D02*
X60886548Y-51515832D01*
X227443113Y-76553747D02*
X227443113Y-89520715D01*
X75423980Y-89608761D02*
X75570812Y-89874495D01*
X160935133Y-57463326D02*
X160935133Y-57551505D01*
X40467324Y-42483802D02*
X39706697Y-42997182D01*
X37527492Y-95204204D02*
X37419363Y-95468209D01*
X300639663Y-18076839D02*
X300680893Y-18225134D01*
X17029628Y-16989697D02*
X17165259Y-16912823D01*
X123428601Y-57054750D02*
X123340422Y-57054750D01*
X212757253Y-38197345D02*
X212492583Y-38052375D01*
X51013293Y-109025285D02*
X51077399Y-109025285D01*
X257189893Y-109025285D02*
X259218143Y-109025285D01*
X155898423Y-95473662D02*
X155898423Y-95561575D01*
X233837753Y-109023463D02*
X233916223Y-109023463D01*
X164987643Y-19050000D02*
X164901193Y-19050000D01*
X82559031Y-108523103D02*
X82559031Y-108611083D01*
X161081433Y-57199720D02*
X160935133Y-57463326D01*
X293262153Y-57054750D02*
X293174373Y-57054750D01*
X273209743Y-45619942D02*
X273723123Y-46382431D01*
X208851043Y-33015931D02*
X208938823Y-33015931D01*
X31970619Y-19050000D02*
X31884435Y-19050000D01*
X165399943Y-89520715D02*
X165399943Y-76553747D01*
X299506503Y-111233806D02*
X299360203Y-111290622D01*
X174900133Y-108530445D02*
X174900133Y-108618411D01*
X265594163Y-108876843D02*
X265858833Y-109025285D01*
X279855753Y-38197345D02*
X279709453Y-38460951D01*
X126896443Y-19050000D02*
X113927480Y-19050000D01*
X79888790Y-38460951D02*
X79740495Y-38197345D01*
X222258773Y-32867237D02*
X222406403Y-32601636D01*
X277810213Y-44921825D02*
X277810213Y-44688543D01*
X278915443Y-109025285D02*
X279001893Y-109025285D01*
X113575562Y-19194970D02*
X113428730Y-19458576D01*
X269413923Y-38052375D02*
X256445093Y-38052375D01*
X299914813Y-111004705D02*
X299783143Y-111092678D01*
X227589413Y-89874495D02*
X227854083Y-90022923D01*
X32382919Y-95556122D02*
X32382919Y-95468209D01*
X155749463Y-57199720D02*
X155486123Y-57054750D01*
X26072601Y-92020716D02*
X26336513Y-91874017D01*
X161433883Y-95064953D02*
X174402713Y-95064953D01*
X250909633Y-38549130D02*
X250909633Y-38460951D01*
X180435593Y-57054750D02*
X180347813Y-57054750D01*
X69975236Y-90021061D02*
X70239374Y-89872633D01*
X96516184Y-95556122D02*
X96516184Y-95468209D01*
X69889318Y-33014069D02*
X69975236Y-33014069D01*
X227854083Y-76057125D02*
X227589413Y-76201829D01*
X39706697Y-46382431D02*
X40467324Y-46897540D01*
X160935133Y-51515832D02*
X160935133Y-51604011D01*
X260263523Y-76207282D02*
X259998853Y-76062578D01*
X56857978Y-95059500D02*
X56779242Y-95059500D01*
X108392419Y-76553747D02*
X108392419Y-76465834D01*
X181035423Y-108030086D02*
X181038083Y-93567506D01*
X294886083Y-72769099D02*
X294886083Y-73049463D01*
X246467433Y-95578067D02*
X246467433Y-96236151D01*
X37419363Y-32601636D02*
X37566062Y-32867237D01*
X180084473Y-38197345D02*
X179936843Y-38460951D01*
X299360203Y-16793522D02*
X299506503Y-16848983D01*
X65922726Y-38549130D02*
X65922726Y-51515832D01*
X300519963Y-17785436D02*
X300583803Y-17928145D01*
X280119093Y-71018686D02*
X280206873Y-71018686D01*
X220316973Y-105938887D02*
X220316973Y-107912793D01*
X94925105Y-19050000D02*
X94836926Y-19050000D01*
X250762003Y-51867750D02*
X250909633Y-51604011D01*
X300738083Y-100147242D02*
X300738083Y-104872173D01*
X300738083Y-77257583D02*
X300738083Y-79238751D01*
X298003603Y-95059500D02*
X297918483Y-95059500D01*
X51385294Y-95468209D02*
X51275303Y-95204204D01*
X37791497Y-95059500D02*
X37725529Y-95059500D01*
X299647483Y-111169657D02*
X299506503Y-111233806D01*
X212757253Y-57199720D02*
X212492583Y-57054750D01*
X126896443Y-33015931D02*
X126982361Y-33015931D01*
X141932226Y-38460951D02*
X141932226Y-38549130D01*
X26072601Y-92020716D02*
X26336513Y-91874017D01*
X199349523Y-38052375D02*
X199086183Y-38197345D01*
X231495623Y-38052375D02*
X231409173Y-38052375D01*
X265779033Y-19050000D02*
X265564903Y-19167173D01*
X50886810Y-90026514D02*
X50972994Y-90026514D01*
X250412213Y-52018306D02*
X250497333Y-52018306D01*
X32382919Y-19546755D02*
X32382919Y-19458576D01*
X231495623Y-71018686D02*
X231758963Y-70870258D01*
X142430976Y-52018306D02*
X155399673Y-52018306D01*
X56421738Y-32601636D02*
X56568437Y-32865375D01*
X79476357Y-52016444D02*
X79740495Y-51867750D01*
X284948323Y-90026514D02*
X297918483Y-90026514D01*
X141932226Y-57463326D02*
X141932226Y-57551505D01*
X117481107Y-57054750D02*
X117395322Y-57054750D01*
X250909633Y-70606386D02*
X250909633Y-70518340D01*
X47419101Y-71018686D02*
X60387931Y-71018686D01*
X122929851Y-70518340D02*
X122929851Y-70606386D01*
X37129822Y-70606386D02*
X37129822Y-70518340D01*
X179936843Y-51515832D02*
X179936843Y-51604011D01*
X31884435Y-33014069D02*
X31970619Y-33014069D01*
X250909633Y-51515832D02*
X250909633Y-38549130D01*
X250909633Y-38460951D02*
X250762003Y-38197345D01*
X279265233Y-89879948D02*
X279414193Y-89616076D01*
X155399673Y-52018306D02*
X155486123Y-52018306D01*
X246444823Y-76559200D02*
X246444823Y-89528030D01*
X277621353Y-45619942D02*
X277810213Y-44921825D01*
X126982361Y-90022923D02*
X127246499Y-89874495D01*
X170582953Y-76201829D02*
X170435323Y-76465834D01*
X89390044Y-32513457D02*
X89390044Y-19546755D01*
X70387669Y-19458576D02*
X70239374Y-19194970D01*
X155486123Y-109028955D02*
X155399673Y-109028955D01*
X161344773Y-38052375D02*
X161081433Y-38197345D01*
X16369824Y-110431044D02*
X16292845Y-110295408D01*
X212904883Y-70518340D02*
X212904883Y-57551505D01*
X237443383Y-57054750D02*
X237354273Y-57054750D01*
X284948323Y-76062578D02*
X284860543Y-76062578D01*
X19648688Y-91874017D02*
X19912613Y-92020716D01*
X43815865Y-92020716D02*
X49801796Y-92020716D01*
X155486123Y-95064953D02*
X155749463Y-95209790D01*
X255946343Y-51604011D02*
X256093973Y-51869612D01*
X142342797Y-57054750D02*
X142079191Y-57199720D01*
X237354273Y-52018306D02*
X237443383Y-52018306D01*
X160935133Y-108530445D02*
X160935133Y-95561575D01*
X234288623Y-108572593D02*
X234288623Y-107912793D01*
X189849333Y-90021061D02*
X189937113Y-90021061D01*
X161344773Y-57054750D02*
X161081433Y-57199720D01*
X155749463Y-38197345D02*
X155486123Y-38052375D01*
X212904883Y-57551505D02*
X212904883Y-57463326D01*
X236944633Y-51515832D02*
X236944633Y-51604011D01*
X236944633Y-57463326D02*
X236944633Y-57551505D01*
X240997143Y-33014069D02*
X241260483Y-32865375D01*
X174900133Y-108530445D02*
X174900133Y-108618411D01*
X65922726Y-57551505D02*
X65922726Y-70518340D01*
X265946613Y-76062578D02*
X265858833Y-76062578D01*
X66069691Y-57199720D02*
X65922726Y-57463326D01*
X104074441Y-57199720D02*
X103927476Y-57463326D01*
X82559031Y-108523103D02*
X82559031Y-108611083D01*
X180084473Y-70872120D02*
X180347813Y-71020548D01*
X123076816Y-51869612D02*
X123340422Y-52018306D01*
X284597203Y-95204204D02*
X284449573Y-95468209D01*
X279414193Y-19452990D02*
X279414193Y-19381702D01*
X265594163Y-95204204D02*
X265447863Y-95468209D01*
X160935133Y-95473662D02*
X161081433Y-95209790D01*
X269763713Y-70870258D02*
X269912673Y-70606386D01*
X26336513Y-91874017D02*
X26485021Y-91610145D01*
X75570812Y-32867237D02*
X75834551Y-33015931D01*
X37829934Y-33014069D02*
X37917980Y-33014069D01*
X42331319Y-46897540D02*
X43091946Y-46382431D01*
X298415903Y-89528030D02*
X298415903Y-76062578D01*
X16774870Y-17176961D02*
X16897668Y-17077876D01*
X217941593Y-70606386D02*
X218089223Y-70872120D01*
X23578173Y-38052375D02*
X23314248Y-38197345D01*
X275416213Y-42297070D02*
X275182133Y-42297070D01*
X84925101Y-38460951D02*
X84925101Y-38549130D01*
X127394794Y-76465834D02*
X127246499Y-76201829D01*
X66333297Y-71018686D02*
X66421476Y-71018686D01*
X296854483Y-71018686D02*
X296632373Y-71020548D01*
X43091946Y-46382431D02*
X43605060Y-45619942D01*
X141932226Y-51604011D02*
X142079191Y-51869612D01*
X293673123Y-57463326D02*
X293526823Y-57199720D01*
X237090933Y-51869612D02*
X237354273Y-52018306D01*
X220688043Y-95064953D02*
X220448643Y-95195027D01*
X161081433Y-108882336D02*
X160935133Y-108618411D01*
X84925101Y-70518340D02*
X84925101Y-70606386D01*
X276347213Y-46897540D02*
X277107973Y-46382431D01*
X237354273Y-71020548D02*
X237443383Y-71020548D01*
X212407463Y-57054750D02*
X199438633Y-57054750D01*
X236944633Y-38549130D02*
X236944633Y-51515832D01*
X250909633Y-51604011D02*
X250909633Y-51515832D01*
X16131559Y-18225134D02*
X16173713Y-18076839D01*
X51385294Y-32513457D02*
X51385294Y-19546755D01*
X300304503Y-71018686D02*
X300212733Y-71018686D01*
X174900133Y-70518340D02*
X174900133Y-57551505D01*
X75423980Y-19546755D02*
X75423980Y-32513457D01*
X193490873Y-38052375D02*
X193404423Y-38052375D01*
X155749463Y-57199720D02*
X155486123Y-57054750D01*
X37133546Y-51515832D02*
X37133546Y-38549130D01*
X151433613Y-76465834D02*
X151433613Y-76553747D01*
X108392419Y-32601636D02*
X108392419Y-32513457D01*
X300738083Y-26016540D02*
X300738083Y-29603018D01*
X51013293Y-95059500D02*
X37791497Y-95059500D01*
X223588773Y-109025285D02*
X227302133Y-109025285D01*
X259998853Y-90026514D02*
X260263523Y-89879948D01*
X275416213Y-42297070D02*
X275182133Y-42297070D01*
X246616393Y-108871337D02*
X246889043Y-109023463D01*
X265447863Y-32608685D02*
X265447863Y-32680505D01*
X43317381Y-91610145D02*
X43463947Y-91874017D01*
X85423851Y-52018306D02*
X98392947Y-52018306D01*
X161433883Y-95064953D02*
X174402713Y-95064953D01*
X50886810Y-33014069D02*
X50972994Y-33014069D01*
X69975236Y-76057125D02*
X69889318Y-76057125D01*
X123340422Y-38052375D02*
X123076816Y-38197345D01*
X234288623Y-107912793D02*
X234288623Y-105937051D01*
X241409443Y-32513457D02*
X241409443Y-19546755D01*
X16228696Y-17928145D02*
X16292845Y-17785436D01*
X246855793Y-76062578D02*
X246592453Y-76207282D01*
X279008543Y-33015931D02*
X279080363Y-33015931D01*
X75570812Y-32865375D02*
X75834551Y-33014069D01*
X70024978Y-109023463D02*
X70255733Y-108875008D01*
X165399943Y-32513457D02*
X165399943Y-19546755D01*
X56920355Y-90021061D02*
X69889318Y-90021061D01*
X174900133Y-51515832D02*
X174900133Y-38549130D01*
X117481107Y-71020548D02*
X117745378Y-70872120D01*
X79476357Y-71018686D02*
X79740495Y-70870258D01*
X174402713Y-95064953D02*
X174487833Y-95064953D01*
X193754213Y-51867750D02*
X193903173Y-51604011D01*
X31970619Y-33014069D02*
X32234491Y-32865375D01*
X104338047Y-57054750D02*
X104074441Y-57199720D01*
X202992393Y-19050000D02*
X202905943Y-19050000D01*
X165250983Y-32867237D02*
X165399943Y-32601636D01*
X184401653Y-19546755D02*
X184401653Y-19458576D01*
X298415903Y-89528030D02*
X298415903Y-76062578D01*
X279008543Y-19050000D02*
X265853513Y-19050000D01*
X43793920Y-44688543D02*
X43793920Y-44455926D01*
X236944633Y-38549130D02*
X236944633Y-51515832D01*
X108392419Y-19458576D02*
X108244124Y-19194970D01*
X107894068Y-19050000D02*
X94925105Y-19050000D01*
X16554935Y-17395081D02*
X16659401Y-17279637D01*
X16774870Y-110905737D02*
X16659401Y-110803101D01*
X113575562Y-89874495D02*
X113839301Y-90022923D01*
X94836926Y-76057125D02*
X94573187Y-76201829D01*
X117481107Y-52016444D02*
X117745378Y-51867750D01*
X132577937Y-19194970D02*
X132431105Y-19458576D01*
X127246499Y-19194970D02*
X126982361Y-19050000D01*
X155749463Y-38197345D02*
X155486123Y-38052375D01*
X36983256Y-57199720D02*
X36719384Y-57054750D01*
X212492583Y-52018306D02*
X212757253Y-51869612D01*
X160935133Y-38460951D02*
X160935133Y-38549130D01*
X275182133Y-47086134D02*
X275416213Y-47086134D01*
X284597203Y-108876843D02*
X284860543Y-109025285D01*
X246592453Y-76207282D02*
X246444823Y-76471287D01*
X300738083Y-18692363D02*
X300738083Y-19213191D01*
X46920617Y-51604011D02*
X47067183Y-51869612D01*
X16292845Y-17785436D02*
X16369824Y-17649909D01*
X255946343Y-70606386D02*
X256093973Y-70872120D01*
X18417055Y-108611083D02*
X18541676Y-108875008D01*
X293262153Y-52016444D02*
X293526823Y-51867750D01*
X151433613Y-76465834D02*
X151433613Y-76553747D01*
X37419363Y-95468209D02*
X37419363Y-95556122D01*
X36983256Y-70870258D02*
X37129822Y-70606386D01*
X295395473Y-71533662D02*
X295021743Y-72089070D01*
X117745378Y-51869612D02*
X117893540Y-51604011D01*
X155898423Y-108530445D02*
X155898423Y-108618411D01*
X279709453Y-38460951D02*
X279709453Y-38549130D01*
X47419101Y-57054750D02*
X47331188Y-57054750D01*
X231409173Y-52018306D02*
X231495623Y-52018306D01*
X155898423Y-95473662D02*
X155898423Y-95561575D01*
X79888790Y-51515832D02*
X79888790Y-38549130D01*
X16074742Y-70225075D02*
X16076575Y-18692363D01*
X299055633Y-71020548D02*
X298415903Y-71020548D01*
X141932226Y-51515832D02*
X141932226Y-51604011D01*
X129326486Y-93069022D02*
X135312417Y-93069022D01*
X300732763Y-18534758D02*
X300738083Y-18692363D01*
X246467433Y-98213595D02*
X246467433Y-102042372D01*
X300680893Y-109855550D02*
X300639663Y-110005840D01*
X75423980Y-19458576D02*
X75423980Y-19546755D01*
X300738083Y-51697377D02*
X300738083Y-56053925D01*
X255946343Y-57463326D02*
X255946343Y-57551505D01*
X300442823Y-17649909D02*
X300519963Y-17785436D01*
X66421476Y-57054750D02*
X66333297Y-57054750D01*
X193754213Y-38197345D02*
X193490873Y-38052375D01*
X151932363Y-76057125D02*
X151844583Y-76057125D01*
X70387669Y-76553747D02*
X70387669Y-76465834D01*
X132929855Y-90021061D02*
X145898818Y-90021061D01*
X293673123Y-70606386D02*
X293673123Y-70518340D01*
X128828135Y-95064953D02*
X128828135Y-93567506D01*
X174752503Y-51867750D02*
X174900133Y-51604011D01*
X126896443Y-90022923D02*
X126982361Y-90022923D01*
X161081433Y-70872120D02*
X161344773Y-71020548D01*
X179936843Y-51515832D02*
X179936843Y-51604011D01*
X32382919Y-95556122D02*
X32382919Y-95468209D01*
X300738083Y-20692151D02*
X300738083Y-23003425D01*
X66333297Y-38052375D02*
X66069691Y-38197345D01*
X146397169Y-89520715D02*
X146397169Y-76553747D01*
X217941593Y-38549130D02*
X217941593Y-51515832D01*
X174402713Y-57054750D02*
X161433883Y-57054750D01*
X279265233Y-108875008D02*
X279414193Y-108611083D01*
X142079191Y-57199720D02*
X141932226Y-57463326D01*
X141932226Y-51604011D02*
X142079191Y-51867750D01*
X174900133Y-108618411D02*
X174752503Y-108882336D01*
X96103751Y-109025285D02*
X96367357Y-108876843D01*
X50886810Y-90026514D02*
X50972994Y-90026514D01*
X136747620Y-70870258D02*
X136895915Y-70606386D01*
X19912613Y-92020716D02*
X20000579Y-92020716D01*
X211322183Y-109028955D02*
X181534173Y-109028955D01*
X300738083Y-23003425D02*
X300738083Y-26016540D01*
X220448643Y-95195027D02*
X220316973Y-95435092D01*
X164901193Y-90021061D02*
X164987643Y-90021061D01*
X179936843Y-57551505D02*
X179936843Y-70518340D01*
X296939603Y-71020548D02*
X296632373Y-71020548D01*
X298268273Y-89879948D02*
X298415903Y-89616076D01*
X39006585Y-44688543D02*
X39006585Y-44921825D01*
X37419363Y-19546755D02*
X37419363Y-32513457D01*
X23167628Y-57463326D02*
X23167628Y-57551505D01*
X136747620Y-57199720D02*
X136483482Y-57054750D01*
X79476357Y-38052375D02*
X79390572Y-38052375D01*
X36635062Y-52018306D02*
X36721113Y-52018306D01*
X89390044Y-76553747D02*
X89390044Y-76465834D01*
X293673123Y-38460951D02*
X293526823Y-38197345D01*
X265858833Y-76062578D02*
X265594163Y-76207282D01*
X297918483Y-95059500D02*
X284948323Y-95059500D01*
X135811167Y-93567506D02*
X135811167Y-108530445D01*
X298268273Y-108876843D02*
X298415903Y-108611083D01*
X85423851Y-57054750D02*
X85335672Y-57054750D01*
X142342797Y-109028955D02*
X142079191Y-108882336D01*
X103927476Y-51515832D02*
X103927476Y-51604011D01*
X269912673Y-70518340D02*
X269912673Y-57551505D01*
X255946343Y-38549130D02*
X255946343Y-51515832D01*
X231015493Y-109023463D02*
X233131523Y-109023463D01*
X184254023Y-76201829D02*
X183989353Y-76057125D01*
X145898818Y-90022923D02*
X145984736Y-90022923D01*
X269763713Y-38197345D02*
X269500373Y-38052375D01*
X257189893Y-109023463D02*
X259218143Y-109023463D01*
X170934073Y-19050000D02*
X170846293Y-19050000D01*
X98891165Y-70518340D02*
X98891165Y-57551505D01*
X37917980Y-19050000D02*
X37829934Y-19050000D01*
X69975236Y-33015931D02*
X70239374Y-32867237D01*
X132431105Y-76465834D02*
X132431105Y-76553747D01*
X155399673Y-38052375D02*
X142430976Y-38052375D01*
X98891165Y-38549130D02*
X98891165Y-38460951D01*
X217941593Y-57551505D02*
X217941593Y-70518340D01*
X297857303Y-71018686D02*
X296854483Y-71018686D01*
X231758963Y-38197345D02*
X231495623Y-38052375D01*
X23578173Y-57054750D02*
X23314248Y-57199720D01*
X60474115Y-71020548D02*
X60737987Y-70872120D01*
X284449573Y-89528030D02*
X284449573Y-89616076D01*
X23314248Y-57199720D02*
X23167628Y-57463326D01*
X256445093Y-57054750D02*
X256357313Y-57054750D01*
X180347813Y-38052375D02*
X180084473Y-38197345D01*
X60886548Y-51515832D02*
X60886548Y-38549130D01*
X265447863Y-32680505D02*
X265564903Y-32894901D01*
X184401653Y-32513457D02*
X184401653Y-19546755D01*
X269912673Y-51515832D02*
X269912673Y-38549130D01*
X98478732Y-52016444D02*
X98742870Y-51867750D01*
X46920617Y-38460951D02*
X46920617Y-38549130D01*
X212407463Y-52016444D02*
X212492583Y-52016444D01*
X299783143Y-111092678D02*
X299647483Y-111169657D01*
X60886548Y-51515832D02*
X60886548Y-38549130D01*
X174900133Y-57551505D02*
X174900133Y-57463326D01*
X43091946Y-46382431D02*
X43605060Y-45619942D01*
X37129822Y-70518340D02*
X37129822Y-57551505D01*
X146248874Y-32867237D02*
X146397169Y-32601636D01*
X155486123Y-109028955D02*
X155399673Y-109028955D01*
X89390044Y-76553747D02*
X89390044Y-76465834D01*
X136397697Y-57054750D02*
X123428601Y-57054750D01*
X189438363Y-32601636D02*
X189584663Y-32865375D01*
X85072066Y-51867750D02*
X85335672Y-52016444D01*
X260263523Y-32865375D02*
X260411153Y-32601636D01*
X50300280Y-91523961D02*
X50300280Y-90026514D01*
X65922726Y-57463326D02*
X65922726Y-57551505D01*
X181035423Y-108618411D02*
X181035423Y-108530445D01*
X136397697Y-71020548D02*
X136483482Y-71020548D01*
X51385294Y-108523103D02*
X51385294Y-95556122D01*
X179936843Y-38460951D02*
X179936843Y-38549130D01*
X126982361Y-19050000D02*
X126896443Y-19050000D01*
X18915565Y-33014069D02*
X31884435Y-33014069D01*
X298003603Y-109025285D02*
X298268273Y-108876843D01*
X256093973Y-51869612D02*
X256357313Y-52018306D01*
X300738083Y-66695122D02*
X300738083Y-69008125D01*
X295021743Y-72089070D02*
X294886083Y-72598593D01*
X193903173Y-51515832D02*
X193903173Y-38549130D01*
X284449573Y-108611083D02*
X284597203Y-108876843D01*
X227941863Y-76057125D02*
X227854083Y-76057125D01*
X246943573Y-19050000D02*
X246855793Y-19050000D01*
X220316973Y-108572593D02*
X220316973Y-108651408D01*
X146397169Y-19546755D02*
X146397169Y-19458576D01*
X208938823Y-90021061D02*
X221908983Y-90021061D01*
X174487833Y-38052375D02*
X174402713Y-38052375D01*
X122929851Y-51604011D02*
X123076816Y-51869612D01*
X85423851Y-71020548D02*
X98392947Y-71020548D01*
X60737987Y-70870258D02*
X60886548Y-70606386D01*
X180084473Y-51869612D02*
X180347813Y-52018306D01*
X300738083Y-63680145D02*
X300738083Y-66695122D01*
X170435323Y-32601636D02*
X170582953Y-32865375D01*
X234288623Y-108645902D02*
X234288623Y-108572593D01*
X279414193Y-108611083D02*
X279414193Y-108523103D01*
X234288623Y-95431501D02*
X234176903Y-95209790D01*
X155486123Y-38052375D02*
X155399673Y-38052375D01*
X300738083Y-76597770D02*
X300738083Y-77257583D01*
X16659401Y-17279637D02*
X16774870Y-17176961D01*
X193754213Y-70870258D02*
X193903173Y-70606386D01*
X174752503Y-108882336D02*
X174487833Y-109028955D01*
X151579913Y-32865375D02*
X151844583Y-33014069D01*
X218352563Y-57054750D02*
X218089223Y-57199720D01*
X278915443Y-95059500D02*
X265946613Y-95059500D01*
X170934073Y-19050000D02*
X170846293Y-19050000D01*
X85335672Y-71020548D02*
X85423851Y-71020548D01*
X60474115Y-57054750D02*
X60387931Y-57054750D01*
X136397697Y-52018306D02*
X136483482Y-52018306D01*
X56832309Y-90021061D02*
X56920355Y-90021061D01*
X18844091Y-109025285D02*
X31955856Y-109025285D01*
X83057781Y-109025285D02*
X96017434Y-109025285D01*
X18915565Y-19050000D02*
X18827599Y-19050000D01*
X203404693Y-32513457D02*
X203404693Y-19546755D01*
X256093973Y-70872120D02*
X256357313Y-71020548D01*
X233131523Y-109023463D02*
X233837753Y-109023463D01*
X259998853Y-76062578D02*
X259913733Y-76062578D01*
X136483482Y-38052375D02*
X136397697Y-38052375D01*
X25984622Y-92020716D02*
X26072601Y-92020716D01*
X293262153Y-57054750D02*
X293174373Y-57054750D01*
X129238706Y-93069022D02*
X129326486Y-93069022D01*
X160935133Y-57551505D02*
X160935133Y-70518340D01*
X300738083Y-23003425D02*
X300738083Y-26016540D01*
X113428730Y-32601636D02*
X113575562Y-32867237D01*
X56832309Y-19050000D02*
X56568437Y-19194970D01*
X70387669Y-19546755D02*
X70387669Y-19458576D01*
X211820933Y-93567506D02*
X211820933Y-108530445D01*
X221474073Y-109025285D02*
X223588773Y-109025285D01*
X241409443Y-76465834D02*
X241260483Y-76201829D01*
X298003603Y-109023463D02*
X298268273Y-108875008D01*
X85335672Y-57054750D02*
X85072066Y-57199720D01*
X82969602Y-95059500D02*
X82705863Y-95204204D01*
X132431105Y-89608761D02*
X132577937Y-89874495D01*
X89390044Y-19546755D02*
X89390044Y-19458576D01*
X51077399Y-95059500D02*
X51013293Y-95059500D01*
X300154213Y-110803101D02*
X300038503Y-110905737D01*
X234288623Y-95512099D02*
X234288623Y-95431501D01*
X198939883Y-70606386D02*
X199086183Y-70870258D01*
X17914873Y-111378596D02*
X17759077Y-111360267D01*
X273723123Y-46382431D02*
X274483883Y-46897540D01*
X174900133Y-70606386D02*
X174900133Y-70518340D01*
X208851043Y-19050000D02*
X208587703Y-19194970D01*
X260411153Y-95574476D02*
X260411153Y-95482839D01*
X193404423Y-57054750D02*
X180435593Y-57054750D01*
X105025391Y-108030086D02*
X105029248Y-93567506D01*
X56421738Y-19458576D02*
X56421738Y-19546755D01*
X98891165Y-70518340D02*
X98891165Y-57551505D01*
X88977611Y-19050000D02*
X88891693Y-19050000D01*
X39006585Y-44921825D02*
X39193583Y-45619942D01*
X265447863Y-19381702D02*
X265447863Y-19452990D01*
X218089223Y-38197345D02*
X217941593Y-38460951D01*
X298415903Y-32680505D02*
X298415903Y-32608685D01*
X293673123Y-57551505D02*
X293673123Y-57463326D01*
X257189893Y-95059500D02*
X253437963Y-95061229D01*
X23666139Y-52016444D02*
X36635062Y-52016444D01*
X17605129Y-111330943D02*
X17454839Y-111290622D01*
X18417055Y-89528030D02*
X18417055Y-89616076D01*
X299050313Y-76062578D02*
X299913483Y-76062578D01*
X265447863Y-108611083D02*
X265594163Y-108876843D01*
X142430976Y-71020548D02*
X155399673Y-71020548D01*
X113428730Y-32513457D02*
X113428730Y-32601636D01*
X56421738Y-89608761D02*
X56568437Y-89872633D01*
X146397169Y-89608761D02*
X146397169Y-89520715D01*
X165250983Y-89872633D02*
X165399943Y-89608761D01*
X96017434Y-109025285D02*
X96103751Y-109025285D01*
X70383945Y-108611083D02*
X70383945Y-108523103D01*
X108244124Y-32865375D02*
X108392419Y-32601636D01*
X188005953Y-95064953D02*
X204837103Y-95064953D01*
X98478732Y-52018306D02*
X98742870Y-51869612D01*
X279414193Y-76471287D02*
X279265233Y-76207282D01*
X65922726Y-51515832D02*
X65922726Y-51604011D01*
X208440073Y-89608761D02*
X208587703Y-89872633D01*
X208938823Y-33014069D02*
X221908983Y-33014069D01*
X234288623Y-105937051D02*
X234288623Y-102040537D01*
X198939883Y-70518340D02*
X198939883Y-70606386D01*
X16573262Y-76057125D02*
X18417055Y-76058854D01*
X265853513Y-19050000D02*
X265779033Y-19050000D01*
X70387669Y-89520715D02*
X70387669Y-76553747D01*
X293262153Y-71018686D02*
X293526823Y-70870258D01*
X222258773Y-19194970D02*
X221994103Y-19050000D01*
X16897668Y-111004705D02*
X16774870Y-110905737D01*
X79888790Y-70518340D02*
X79888790Y-57551505D01*
X284597203Y-95204204D02*
X284449573Y-95468209D01*
X300738083Y-94603044D02*
X300738083Y-100147242D01*
X269500373Y-52018306D02*
X269763713Y-51869612D01*
X18915565Y-90026514D02*
X19502069Y-90026514D01*
X161433883Y-109028955D02*
X161344773Y-109028955D01*
X300357703Y-110564834D02*
X300257953Y-110685803D01*
X241260483Y-19194970D02*
X240997143Y-19050000D01*
X111583355Y-93069022D02*
X111847094Y-93213859D01*
X165250983Y-19194970D02*
X164987643Y-19050000D01*
X253437963Y-109025285D02*
X257189893Y-109025285D01*
X234134343Y-108911663D02*
X234156953Y-108891500D01*
X151844583Y-76057125D02*
X151579913Y-76201829D01*
X136895915Y-51604011D02*
X136895915Y-51515832D01*
X142342797Y-52018306D02*
X142430976Y-52018306D01*
X280119093Y-52016444D02*
X280206873Y-52016444D01*
X89390044Y-89520715D02*
X89390044Y-76553747D01*
X265946613Y-90026514D02*
X278915443Y-90026514D01*
X259913733Y-19050000D02*
X246943573Y-19050000D01*
X151844583Y-19050000D02*
X151579913Y-19194970D01*
X16173713Y-18076839D02*
X16228696Y-17928145D01*
X151932363Y-19050000D02*
X151844583Y-19050000D01*
X256093973Y-70870258D02*
X256357313Y-71018686D01*
X211671973Y-93213859D02*
X211820933Y-93477731D01*
X79390572Y-57054750D02*
X66421476Y-57054750D01*
X260411153Y-76559200D02*
X260411153Y-76471287D01*
X142079191Y-108882336D02*
X141932226Y-108618411D01*
X260284803Y-95231735D02*
X260260863Y-95207928D01*
X237090933Y-38197345D02*
X236944633Y-38460951D01*
X260411153Y-89616076D02*
X260411153Y-89528030D01*
X17454839Y-16793522D02*
X17605129Y-16751893D01*
X36983256Y-57199720D02*
X36719384Y-57054750D01*
X300738083Y-79238751D02*
X300738083Y-83531193D01*
X47419101Y-57054750D02*
X47331188Y-57054750D01*
X83057781Y-95059500D02*
X82969602Y-95059500D01*
X70239374Y-32867237D02*
X70387669Y-32601636D01*
X284782073Y-33015931D02*
X284855223Y-33015931D01*
X236944633Y-57463326D02*
X236944633Y-57551505D01*
X246467433Y-107850469D02*
X246467433Y-108510282D01*
X300519963Y-17785436D02*
X300583803Y-17928145D01*
X246943573Y-19050000D02*
X246855793Y-19050000D01*
X151579913Y-76201829D02*
X151433613Y-76465834D01*
X241409443Y-89520715D02*
X241409443Y-76553747D01*
X79888790Y-70518340D02*
X79888790Y-57551505D01*
X260411153Y-95482839D02*
X260284803Y-95231735D01*
X107894068Y-19050000D02*
X94925105Y-19050000D01*
X246444823Y-76471287D02*
X246444823Y-76559200D01*
X300357703Y-17517574D02*
X300442823Y-17649909D01*
X208587703Y-19194970D02*
X208440073Y-19458576D01*
X269413923Y-57054750D02*
X256445093Y-57054750D01*
X56421738Y-32513457D02*
X56421738Y-32601636D01*
X142079191Y-108882336D02*
X141932226Y-108618411D01*
X279709453Y-51604011D02*
X279855753Y-51867750D01*
X227443113Y-89520715D02*
X227443113Y-89608761D01*
X66333297Y-38052375D02*
X66069691Y-38197345D01*
X300304503Y-71020548D02*
X300212733Y-71020548D01*
X212492583Y-71020548D02*
X212757253Y-70872120D01*
X94925105Y-33015931D02*
X107894068Y-33015931D01*
X164901193Y-90022923D02*
X164987643Y-90022923D01*
X227854083Y-19050000D02*
X227589413Y-19194970D01*
X161344773Y-52016444D02*
X161433883Y-52016444D01*
X22045973Y-76057125D02*
X22060656Y-73218107D01*
X170846293Y-19050000D02*
X170582953Y-19194970D01*
X293673123Y-38460951D02*
X293526823Y-38197345D01*
X75922730Y-33015931D02*
X88891693Y-33015931D01*
X184401653Y-32601636D02*
X184401653Y-32513457D01*
X273023543Y-44455926D02*
X273023543Y-44688543D01*
X16173713Y-18076839D02*
X16228696Y-17928145D01*
X39193583Y-45619942D02*
X39706697Y-46382431D01*
X105025391Y-108618411D02*
X105025391Y-108530445D01*
X79740495Y-38197345D02*
X79476357Y-38052375D01*
X19502069Y-91523961D02*
X19502069Y-91610145D01*
X16573262Y-70725421D02*
X16221365Y-70578855D01*
X204837103Y-95064953D02*
X204837103Y-93567506D01*
X113839301Y-76057125D02*
X113575562Y-76201829D01*
X160935133Y-108530445D02*
X160935133Y-95561575D01*
X43317381Y-91610145D02*
X43463947Y-91874017D01*
X218440343Y-38052375D02*
X218352563Y-38052375D01*
X218089223Y-51869612D02*
X218352563Y-52018306D01*
X277107973Y-42997182D02*
X276347213Y-42483802D01*
X202905943Y-33014069D02*
X202992393Y-33014069D01*
X212492583Y-38052375D02*
X212407463Y-38052375D01*
X94426355Y-32513457D02*
X94426355Y-32601636D01*
X300738083Y-70584308D02*
X300582473Y-70864805D01*
X174402713Y-71020548D02*
X174487833Y-71020548D01*
X189438363Y-76553747D02*
X189438363Y-89520715D01*
X299208583Y-16751893D02*
X299360203Y-16793522D01*
X259998853Y-33015931D02*
X260263523Y-32867237D01*
X18070656Y-111387760D02*
X17914873Y-111378596D01*
X284567943Y-19167173D02*
X284449573Y-19381702D01*
X108392419Y-89608761D02*
X108392419Y-89520715D01*
X16100402Y-109703425D02*
X16082073Y-109547629D01*
X233837753Y-95059500D02*
X233144823Y-95059500D01*
X246467433Y-98213595D02*
X246467433Y-102042372D01*
X23167628Y-70518340D02*
X23167628Y-70606386D01*
X46920617Y-51515832D02*
X46920617Y-51604011D01*
X300519963Y-110295408D02*
X300442823Y-110432874D01*
X218089223Y-57199720D02*
X217941593Y-57463326D01*
X56421738Y-19458576D02*
X56421738Y-19546755D01*
X39193583Y-43757676D02*
X39006585Y-44455926D01*
X298268273Y-95204204D02*
X298003603Y-95059500D01*
X227854083Y-33014069D02*
X227941863Y-33014069D01*
X280206873Y-57054750D02*
X280119093Y-57054750D01*
X269500373Y-38052375D02*
X269413923Y-38052375D01*
X126896443Y-76057125D02*
X113927480Y-76057125D01*
X280206873Y-38052375D02*
X280119093Y-38052375D01*
X23167628Y-57551505D02*
X23167628Y-70518340D01*
X221908983Y-19050000D02*
X208938823Y-19050000D01*
X70387669Y-32513457D02*
X70387669Y-19546755D01*
X247656453Y-109023463D02*
X249686033Y-109023463D01*
X234176903Y-108869502D02*
X234288623Y-108645902D01*
X236944633Y-38460951D02*
X236944633Y-38549130D01*
X241260483Y-89874495D02*
X241409443Y-89608761D01*
X69949434Y-95059500D02*
X56857978Y-95059500D01*
X212757253Y-70872120D02*
X212904883Y-70606386D01*
X75570812Y-76201829D02*
X75423980Y-76465834D01*
X181180393Y-108882336D02*
X181035423Y-108618411D01*
X220770503Y-109023463D02*
X221474073Y-109023463D01*
X237443383Y-71018686D02*
X250412213Y-71018686D01*
X108244124Y-32867237D02*
X108392419Y-32601636D01*
X75834551Y-19050000D02*
X75570812Y-19194970D01*
X17605129Y-16751893D02*
X17759077Y-16720372D01*
X246444823Y-19458576D02*
X246444823Y-19546755D01*
X221908983Y-90022923D02*
X221994103Y-90022923D01*
X104338047Y-38052375D02*
X104074441Y-38197345D01*
X300738083Y-83531193D02*
X300738083Y-88859040D01*
X181536833Y-93069022D02*
X187504543Y-93069022D01*
X108392419Y-19546755D02*
X108392419Y-19458576D01*
X39006585Y-44455926D02*
X39006585Y-44688543D01*
X208440073Y-89520715D02*
X208440073Y-89608761D01*
X50886810Y-76062578D02*
X22045973Y-76057125D01*
X211408633Y-109028955D02*
X211322183Y-109028955D01*
X279709453Y-70606386D02*
X279855753Y-70872120D01*
X50151852Y-91874017D02*
X50300280Y-91610145D01*
X103927476Y-57551505D02*
X103927476Y-70518340D01*
X96367357Y-108876843D02*
X96516184Y-108611083D01*
X300212733Y-71020548D02*
X299922793Y-71020548D01*
X69949434Y-109023463D02*
X70024978Y-109023463D01*
X280206873Y-38052375D02*
X280119093Y-38052375D01*
X211820933Y-93477731D02*
X211820933Y-93567506D01*
X145898818Y-76057125D02*
X132929855Y-76057125D01*
X227941863Y-33014069D02*
X240910693Y-33014069D01*
X218352563Y-71018686D02*
X218440343Y-71018686D01*
X246592453Y-89879948D02*
X246855793Y-90026514D01*
X260411153Y-89616076D02*
X260411153Y-89528030D01*
X155749463Y-51867750D02*
X155898423Y-51604011D01*
X50972994Y-90026514D02*
X51236866Y-89879948D01*
X40467324Y-46897540D02*
X41165707Y-47086134D01*
X298297533Y-32894901D02*
X298415903Y-32680505D01*
X113839301Y-33014069D02*
X113927480Y-33014069D01*
X94426355Y-19458576D02*
X94426355Y-19546755D01*
X113575562Y-89872633D02*
X113839301Y-90021061D01*
X136747620Y-70872120D02*
X136895915Y-70606386D01*
X98392947Y-71020548D02*
X98478732Y-71020548D01*
X66069691Y-51869612D02*
X66333297Y-52018306D01*
X300738083Y-70120670D02*
X300738083Y-70492671D01*
X293262153Y-38052375D02*
X293174373Y-38052375D01*
X142342797Y-95064953D02*
X142430976Y-95064953D01*
X208440073Y-76553747D02*
X208440073Y-89520715D01*
X278915443Y-76062578D02*
X265946613Y-76062578D01*
X155399673Y-57054750D02*
X142430976Y-57054750D01*
X284449573Y-32680505D02*
X284567943Y-32894901D01*
X222406403Y-19546755D02*
X222406403Y-19458576D01*
X155486123Y-57054750D02*
X155399673Y-57054750D01*
X122929851Y-70606386D02*
X123076816Y-70870258D01*
X255946343Y-38549130D02*
X255946343Y-51515832D01*
X300583803Y-17928145D02*
X300639663Y-18076839D01*
X300738083Y-109393681D02*
X300738083Y-109393681D01*
X82705863Y-95204204D02*
X82559031Y-95468209D01*
X105434100Y-109028955D02*
X105170361Y-108882336D01*
X82559031Y-95468209D02*
X82559031Y-95556122D01*
X39706697Y-46382431D02*
X40467324Y-46897540D01*
X298415903Y-95468209D02*
X298268273Y-95204204D01*
X127394794Y-32513457D02*
X127394794Y-19546755D01*
X269413923Y-71020548D02*
X269500373Y-71020548D01*
X298415903Y-71018686D02*
X298415903Y-71018686D01*
X203255733Y-32867237D02*
X203404693Y-32601636D01*
X105025391Y-108030086D02*
X105029248Y-93567506D01*
X21032460Y-71200098D02*
X20337814Y-70846451D01*
X269413923Y-71018686D02*
X269500373Y-71018686D01*
X174752503Y-57199720D02*
X174487833Y-57054750D01*
X208440073Y-32601636D02*
X208587703Y-32865375D01*
X221908983Y-76057125D02*
X208938823Y-76057125D01*
X246444823Y-32513457D02*
X246444823Y-32601636D01*
X70383945Y-108523103D02*
X70383945Y-95556122D01*
X260411153Y-89528030D02*
X260411153Y-76559200D01*
X240997143Y-90021061D02*
X241260483Y-89872633D01*
X246444823Y-89528030D02*
X246444823Y-89616076D01*
X165399943Y-89520715D02*
X165399943Y-76553747D01*
X113428730Y-19546755D02*
X113428730Y-32513457D01*
X105029248Y-93477731D02*
X105176080Y-93213859D01*
X174900133Y-51604011D02*
X174900133Y-51515832D01*
X16074742Y-70225075D02*
X16076575Y-18692363D01*
X36721113Y-38052375D02*
X36635062Y-38052375D01*
X184254023Y-89874495D02*
X184401653Y-89608761D01*
X218089223Y-38197345D02*
X217941593Y-38460951D01*
X127394794Y-19458576D02*
X127246499Y-19194970D01*
X247656453Y-95064953D02*
X246980813Y-95064953D01*
X212407463Y-52018306D02*
X212492583Y-52018306D01*
X16228696Y-110156130D02*
X16173713Y-110005840D01*
X56421738Y-19546755D02*
X56421738Y-32513457D01*
X47331188Y-57054750D02*
X47067183Y-57199720D01*
X70239374Y-89872633D02*
X70387669Y-89608761D01*
X113839301Y-33015931D02*
X113927480Y-33015931D01*
X43793920Y-44455926D02*
X43605060Y-43757676D01*
X217941593Y-51604011D02*
X218089223Y-51869612D01*
X103927476Y-57463326D02*
X103927476Y-57551505D01*
X246444823Y-32513457D02*
X246444823Y-32601636D01*
X111995788Y-93567506D02*
X111995788Y-95064953D01*
X104338047Y-71018686D02*
X104426226Y-71018686D01*
X246444823Y-19546755D02*
X246444823Y-32513457D01*
X231495623Y-52018306D02*
X231758963Y-51869612D01*
X184401653Y-19458576D02*
X184254023Y-19194970D01*
X19502069Y-91610145D02*
X19648688Y-91874017D01*
X277810213Y-44688543D02*
X277810213Y-44455926D01*
X198939883Y-51515832D02*
X198939883Y-51604011D01*
X231758963Y-57199720D02*
X231495623Y-57054750D01*
X17308207Y-16848983D02*
X17454839Y-16793522D01*
X79390572Y-71020548D02*
X79476357Y-71020548D01*
X113428730Y-89520715D02*
X113428730Y-89608761D01*
X89241749Y-89874495D02*
X89390044Y-89608761D01*
X227589413Y-89872633D02*
X227854083Y-90021061D01*
X256357313Y-57054750D02*
X256093973Y-57199720D01*
X298415903Y-71020548D02*
X297857303Y-71020548D01*
X193903173Y-70518340D02*
X193903173Y-57551505D01*
X294886083Y-72769099D02*
X294886083Y-73049463D01*
X199438633Y-71018686D02*
X212407463Y-71018686D01*
X180435593Y-38052375D02*
X180347813Y-38052375D01*
X279414193Y-89528030D02*
X279414193Y-76559200D01*
X94426355Y-19546755D02*
X94426355Y-32513457D01*
X117395322Y-71020548D02*
X117481107Y-71020548D01*
X250412213Y-57054750D02*
X237443383Y-57054750D01*
X300738083Y-77257583D02*
X300738083Y-79238751D01*
X18767111Y-109025285D02*
X18844091Y-109025285D01*
X231015493Y-95059500D02*
X227302133Y-95061229D01*
X142342797Y-57054750D02*
X142079191Y-57199720D01*
X18563674Y-32867237D02*
X18827599Y-33015931D01*
X96017434Y-109023463D02*
X96103751Y-109023463D01*
X79888790Y-51604011D02*
X79888790Y-51515832D01*
X117481107Y-38052375D02*
X117395322Y-38052375D01*
X65922726Y-51604011D02*
X66069691Y-51867750D01*
X246943573Y-33015931D02*
X259913733Y-33015931D01*
X170846293Y-19050000D02*
X170582953Y-19194970D01*
X246616393Y-108873173D02*
X246889043Y-109025285D01*
X237354273Y-57054750D02*
X237090933Y-57199720D01*
X16074742Y-76465834D02*
X16219533Y-76201829D01*
X56920355Y-33014069D02*
X69889318Y-33014069D01*
X293262153Y-52018306D02*
X293526823Y-51869612D01*
X155486123Y-57054750D02*
X155399673Y-57054750D01*
X51385294Y-95556122D02*
X51385294Y-95468209D01*
X89390044Y-19458576D02*
X89241749Y-19194970D01*
X181035423Y-108530445D02*
X181035423Y-108030086D01*
X160935133Y-38549130D02*
X160935133Y-51515832D01*
X37129822Y-57551505D02*
X37129822Y-57463326D01*
X208851043Y-90021061D02*
X208938823Y-90021061D01*
X208440073Y-19458576D02*
X208440073Y-19546755D01*
X98742870Y-70870258D02*
X98891165Y-70606386D01*
X198939883Y-70606386D02*
X199086183Y-70872120D01*
X187592323Y-93069022D02*
X187856993Y-93213859D01*
X141932226Y-70518340D02*
X141932226Y-70606386D01*
X269763713Y-38197345D02*
X269500373Y-38052375D01*
X23167628Y-51604011D02*
X23314248Y-51869612D01*
X43815865Y-92020716D02*
X49801796Y-92020716D01*
X300357703Y-110564834D02*
X300257953Y-110685803D01*
X84925101Y-51604011D02*
X85072066Y-51869612D01*
X279414193Y-95556122D02*
X279414193Y-95468209D01*
X193404423Y-71018686D02*
X193490873Y-71018686D01*
X241409443Y-32601636D02*
X241409443Y-32513457D01*
X19502069Y-91610145D02*
X19648688Y-91874017D01*
X41633069Y-42297070D02*
X41400186Y-42297070D01*
X142430976Y-95064953D02*
X155399673Y-95064953D01*
X187856993Y-93213859D02*
X188005953Y-93477731D01*
X174487833Y-52018306D02*
X174752503Y-51869612D01*
X218440343Y-52018306D02*
X231409173Y-52018306D01*
X299922793Y-71018686D02*
X299055633Y-71018686D01*
X23666139Y-57054750D02*
X23578173Y-57054750D01*
X107979986Y-33014069D02*
X108244124Y-32865375D01*
X246943573Y-33014069D02*
X259913733Y-33014069D01*
X51385294Y-32601636D02*
X51385294Y-32513457D01*
X298415903Y-76062578D02*
X299050313Y-76062578D01*
X98742870Y-38197345D02*
X98478732Y-38052375D01*
X279414193Y-76559200D02*
X279414193Y-76471287D01*
X294886083Y-76057125D02*
X284948323Y-76062578D01*
X165250983Y-89874495D02*
X165399943Y-89608761D01*
X202905943Y-76057125D02*
X189937113Y-76057125D01*
X265447863Y-108523103D02*
X265447863Y-108611083D01*
X16131559Y-109855550D02*
X16100402Y-109703425D01*
X117893540Y-57551505D02*
X117893540Y-57463326D01*
X151433613Y-89608761D02*
X151579913Y-89874495D01*
X218089223Y-70870258D02*
X218352563Y-71018686D01*
X260411153Y-19546755D02*
X260411153Y-19458576D01*
X18417055Y-32601636D02*
X18563674Y-32867237D01*
X298415903Y-76062578D02*
X298415903Y-76062578D01*
X126982361Y-76057125D02*
X126896443Y-76057125D01*
X146248874Y-76201829D02*
X145984736Y-76057125D01*
X98392947Y-52016444D02*
X98478732Y-52016444D01*
X265447863Y-95556122D02*
X265447863Y-108523103D01*
X20337814Y-70846451D02*
X19568037Y-70725421D01*
X298268273Y-89879948D02*
X298415903Y-89616076D01*
X96516184Y-108611083D02*
X96516184Y-108523103D01*
X117745378Y-51867750D02*
X117893540Y-51604011D01*
X222406403Y-89608761D02*
X222406403Y-89520715D01*
X65922726Y-38549130D02*
X65922726Y-51515832D01*
X135811167Y-108618411D02*
X135662473Y-108882336D01*
X155486123Y-95064953D02*
X155749463Y-95209790D01*
X296632373Y-71020548D02*
X296462133Y-71020548D01*
X43793920Y-44688543D02*
X43793920Y-44455926D01*
X129238706Y-93069022D02*
X129326486Y-93069022D01*
X50972994Y-33015931D02*
X51236866Y-32867237D01*
X66421476Y-52016444D02*
X79390572Y-52016444D01*
X246889043Y-109023463D02*
X246980813Y-109023463D01*
X300738083Y-20692151D02*
X300738083Y-23003425D01*
X221994103Y-19050000D02*
X221908983Y-19050000D01*
X161081433Y-51869612D02*
X161344773Y-52018306D01*
X141932226Y-70606386D02*
X142079191Y-70872120D01*
X280119093Y-52018306D02*
X280206873Y-52018306D01*
X26485021Y-91610145D02*
X26485021Y-91523961D01*
X56832309Y-33015931D02*
X56920355Y-33015931D01*
X60474115Y-52018306D02*
X60737987Y-51869612D01*
X284449573Y-89616076D02*
X284597203Y-89879948D01*
X273209743Y-43757676D02*
X273023543Y-44455926D01*
X23314248Y-57199720D02*
X23167628Y-57463326D01*
X37527492Y-108875008D02*
X37725529Y-109023463D01*
X104338047Y-71020548D02*
X104426226Y-71020548D01*
X250497333Y-52018306D02*
X250762003Y-51869612D01*
X89241749Y-89872633D02*
X89390044Y-89608761D01*
X23167628Y-51515832D02*
X23167628Y-51604011D01*
X23666139Y-71020548D02*
X36631338Y-71020548D01*
X142342797Y-38052375D02*
X142079191Y-38197345D01*
X146397169Y-76553747D02*
X146397169Y-76465834D01*
X246467433Y-96236151D02*
X246467433Y-98213595D01*
X60474115Y-38052375D02*
X60387931Y-38052375D01*
X46920617Y-70606386D02*
X47067183Y-70872120D01*
X227302133Y-109025285D02*
X231015493Y-109025285D01*
X146397169Y-76465834D02*
X146248874Y-76201829D01*
X299783143Y-16989697D02*
X299914813Y-17077876D01*
X18417055Y-95468209D02*
X18417055Y-95556122D01*
X298415903Y-89616076D02*
X298415903Y-89528030D01*
X294886083Y-73896141D02*
X294886083Y-74957348D01*
X279080363Y-33014069D02*
X279294493Y-32894901D01*
X66069691Y-38197345D02*
X65922726Y-38460951D01*
X184401653Y-89608761D02*
X184401653Y-89520715D01*
X113428730Y-19458576D02*
X113428730Y-19546755D01*
X234156953Y-108891500D02*
X234176903Y-108869502D01*
X141932226Y-108530445D02*
X141932226Y-95561575D01*
X113927480Y-19050000D02*
X113839301Y-19050000D01*
X82969602Y-109023463D02*
X83057781Y-109023463D01*
X145898818Y-19050000D02*
X132929855Y-19050000D01*
X276347213Y-46897540D02*
X277107973Y-46382431D01*
X299647483Y-111169657D02*
X299506503Y-111233806D01*
X300738083Y-47150506D02*
X300738083Y-51697377D01*
X79740495Y-51867750D02*
X79888790Y-51604011D01*
X241409443Y-76553747D02*
X241409443Y-76465834D01*
X212904883Y-70606386D02*
X212904883Y-70518340D01*
X51385294Y-89528030D02*
X51385294Y-76559200D01*
X79740495Y-57199720D02*
X79476357Y-57054750D01*
X23167628Y-70606386D02*
X23314248Y-70870258D01*
X65922726Y-51604011D02*
X66069691Y-51869612D01*
X294886083Y-73896141D02*
X294886083Y-74957348D01*
X88891693Y-90022923D02*
X88977611Y-90022923D01*
X277107973Y-42997182D02*
X276347213Y-42483802D01*
X231907923Y-51604011D02*
X231907923Y-51515832D01*
X103927476Y-38549130D02*
X103927476Y-51515832D01*
X193903173Y-51604011D02*
X193903173Y-51515832D01*
X108244124Y-89872633D02*
X108392419Y-89608761D01*
X88891693Y-76057125D02*
X75922730Y-76057125D01*
X300738083Y-108160213D02*
X300738083Y-109393681D01*
X82969602Y-95059500D02*
X82705863Y-95204204D01*
X170846293Y-33014069D02*
X170934073Y-33014069D01*
X293174373Y-52016444D02*
X293262153Y-52016444D01*
X98478732Y-38052375D02*
X98392947Y-38052375D01*
X256357313Y-38052375D02*
X256093973Y-38197345D01*
X300738083Y-29603018D02*
X300738083Y-33639036D01*
X279265233Y-76207282D02*
X279001893Y-76062578D01*
X145984736Y-76057125D02*
X145898818Y-76057125D01*
X79476357Y-38052375D02*
X79390572Y-38052375D01*
X50300280Y-90026514D02*
X50886810Y-90026514D01*
X231758963Y-70872120D02*
X231907923Y-70606386D01*
X222406403Y-76465834D02*
X222258773Y-76201829D01*
X23666139Y-38052375D02*
X23578173Y-38052375D01*
X84925101Y-57463326D02*
X84925101Y-57551505D01*
X16219533Y-76201829D02*
X16483453Y-76057125D01*
X220448643Y-95195027D02*
X220316973Y-95435092D01*
X60886548Y-70606386D02*
X60886548Y-70518340D01*
X151932363Y-90022923D02*
X164901193Y-90022923D01*
X16076575Y-18692363D02*
X16082073Y-18534758D01*
X132929855Y-33014069D02*
X145898818Y-33014069D01*
X241409443Y-76553747D02*
X241409443Y-76465834D01*
X298082073Y-33015931D02*
X298297533Y-32896763D01*
X212757253Y-38197345D02*
X212492583Y-38052375D01*
X179936843Y-70606386D02*
X180084473Y-70872120D01*
X16228696Y-110156130D02*
X16173713Y-110005840D01*
X50886810Y-19050000D02*
X37917980Y-19050000D01*
X47331188Y-71020548D02*
X47419101Y-71020548D01*
X220316973Y-95435092D02*
X220316973Y-95515823D01*
X89390044Y-89520715D02*
X89390044Y-76553747D01*
X189849333Y-19050000D02*
X189584663Y-19194970D01*
X293526823Y-70872120D02*
X293673123Y-70606386D01*
X189584663Y-76201829D02*
X189438363Y-76465834D01*
X231907923Y-38549130D02*
X231907923Y-38460951D01*
X66069691Y-70872120D02*
X66333297Y-71020548D01*
X132577937Y-89872633D02*
X132841676Y-90021061D01*
X277107973Y-46382431D02*
X277621353Y-45619942D01*
X66421476Y-52018306D02*
X79390572Y-52018306D01*
X151433613Y-32513457D02*
X151433613Y-32601636D01*
X234156953Y-95189574D02*
X234134343Y-95167496D01*
X18417055Y-76058854D02*
X18417055Y-89528030D01*
X32382919Y-108523103D02*
X32382919Y-95556122D01*
X36721113Y-52018306D02*
X36985118Y-51869612D01*
X212492583Y-57054750D02*
X212407463Y-57054750D01*
X280119093Y-38052375D02*
X279855753Y-38197345D01*
X117893540Y-51515832D02*
X117893540Y-38549130D01*
X113428730Y-89608761D02*
X113575562Y-89874495D01*
X237443383Y-38052375D02*
X237354273Y-38052375D01*
X155898423Y-51604011D02*
X155898423Y-51515832D01*
X60886548Y-38460951D02*
X60737987Y-38197345D01*
X108392419Y-32513457D02*
X108392419Y-19546755D01*
X180084473Y-57199720D02*
X179936843Y-57463326D01*
X208587703Y-89874495D02*
X208851043Y-90022923D01*
X18417055Y-19458576D02*
X18417055Y-19546755D01*
X160935133Y-95561575D02*
X160935133Y-95473662D01*
X180435593Y-71018686D02*
X193404423Y-71018686D01*
X51385294Y-19458576D02*
X51236866Y-19194970D01*
X250762003Y-38197345D02*
X250497333Y-38052375D01*
X70387669Y-89608761D02*
X70387669Y-89520715D01*
X16573262Y-70725421D02*
X16221365Y-70578855D01*
X155898423Y-70518340D02*
X155898423Y-57551505D01*
X222406403Y-32513457D02*
X222406403Y-19546755D01*
X279855753Y-51869612D02*
X280119093Y-52018306D01*
X107979986Y-90022923D02*
X108244124Y-89874495D01*
X300442823Y-110431044D02*
X300357703Y-110564834D01*
X284449573Y-32680505D02*
X284567943Y-32896763D01*
X132431105Y-89520715D02*
X132431105Y-89608761D01*
X70024978Y-95059500D02*
X69949434Y-95059500D01*
X231015493Y-109025285D02*
X233131523Y-109025285D01*
X43793920Y-44921825D02*
X43793920Y-44688543D01*
X155898423Y-108530445D02*
X155898423Y-108618411D01*
X18827599Y-19050000D02*
X18563674Y-19194970D01*
X51013293Y-95059500D02*
X37791497Y-95059500D01*
X51385294Y-95556122D02*
X51385294Y-95468209D01*
X47331188Y-38052375D02*
X47067183Y-38197345D01*
X212904883Y-70518340D02*
X212904883Y-57551505D01*
X151433613Y-89608761D02*
X151579913Y-89872633D01*
X122929851Y-38549130D02*
X122929851Y-51515832D01*
X127394794Y-32513457D02*
X127394794Y-19546755D01*
X108244124Y-19194970D02*
X107979986Y-19050000D01*
X279294493Y-32896763D02*
X279414193Y-32680505D01*
X155898423Y-51515832D02*
X155898423Y-38549130D01*
X211820933Y-93567506D02*
X211820933Y-108530445D01*
X279709453Y-57551505D02*
X279709453Y-70518340D01*
X111995788Y-93477731D02*
X111995788Y-93567506D01*
X160935133Y-57551505D02*
X160935133Y-70518340D01*
X299054303Y-111360267D02*
X298897363Y-111378596D01*
X107894068Y-90021061D02*
X107979986Y-90021061D01*
X246467433Y-95486430D02*
X246467433Y-95578067D01*
X284449573Y-95556122D02*
X284449573Y-108523103D01*
X85423851Y-57054750D02*
X85335672Y-57054750D01*
X84925101Y-38549130D02*
X84925101Y-51515832D01*
X107979986Y-19050000D02*
X107894068Y-19050000D01*
X205248073Y-93069022D02*
X205335853Y-93069022D01*
X50300280Y-91610145D02*
X50300280Y-91523961D01*
X122929851Y-51515832D02*
X122929851Y-51604011D01*
X136895915Y-57463326D02*
X136747620Y-57199720D01*
X142342797Y-71018686D02*
X142430976Y-71018686D01*
X164987643Y-33014069D02*
X165250983Y-32865375D01*
X299913483Y-76062578D02*
X300200763Y-76062578D01*
X260411153Y-32513457D02*
X260411153Y-19546755D01*
X256357313Y-52018306D02*
X256445093Y-52018306D01*
X31970619Y-33015931D02*
X32234491Y-32867237D01*
X300738083Y-51697377D02*
X300738083Y-56053925D01*
X16455963Y-110564834D02*
X16369824Y-110432874D01*
X199438633Y-57054750D02*
X199349523Y-57054750D01*
X16074742Y-76465834D02*
X16219533Y-76201829D01*
X47331188Y-52016444D02*
X47419101Y-52016444D01*
X135811167Y-108618411D02*
X135662473Y-108882336D01*
X56832309Y-76057125D02*
X56568437Y-76201829D01*
X227443113Y-19546755D02*
X227443113Y-32513457D01*
X300583803Y-110156130D02*
X300519963Y-110295408D01*
X103927476Y-51604011D02*
X104074441Y-51867750D01*
X218440343Y-38052375D02*
X218352563Y-38052375D01*
X82559031Y-108611083D02*
X82705863Y-108876843D01*
X284860543Y-76062578D02*
X284597203Y-76207282D01*
X181449053Y-93069022D02*
X181536833Y-93069022D01*
X161081433Y-38197345D02*
X160935133Y-38460951D01*
X217941593Y-38549130D02*
X217941593Y-51515832D01*
X85072066Y-70870258D02*
X85335672Y-71018686D01*
X18070656Y-111387760D02*
X17914873Y-111378596D01*
X85423851Y-71018686D02*
X98392947Y-71018686D01*
X179936843Y-38549130D02*
X179936843Y-51515832D01*
X211322183Y-109028955D02*
X181534173Y-109028955D01*
X293673123Y-70606386D02*
X293673123Y-70518340D01*
X79390572Y-52018306D02*
X79476357Y-52018306D01*
X155898423Y-51604011D02*
X155898423Y-51515832D01*
X300154213Y-17279637D02*
X300257953Y-17395081D01*
X135312417Y-93069022D02*
X135398734Y-93069022D01*
X227854083Y-33015931D02*
X227941863Y-33015931D01*
X227941863Y-76057125D02*
X227854083Y-76057125D01*
X16100402Y-109703425D02*
X16082073Y-109547629D01*
X279709453Y-70606386D02*
X279855753Y-70870258D01*
X203404693Y-89520715D02*
X203404693Y-76553747D01*
X122929851Y-57463326D02*
X122929851Y-57551505D01*
X37133546Y-51604011D02*
X37133546Y-51515832D01*
X170435323Y-19546755D02*
X170435323Y-32513457D01*
X265946613Y-109025285D02*
X278915443Y-109025285D01*
X136895915Y-70518340D02*
X136895915Y-57551505D01*
X122929851Y-57463326D02*
X122929851Y-57551505D01*
X36985118Y-51867750D02*
X37133546Y-51604011D01*
X155898423Y-70606386D02*
X155898423Y-70518340D01*
X37829934Y-19050000D02*
X37566062Y-19194970D01*
X298897363Y-16704013D02*
X299054303Y-16720372D01*
X36985118Y-51869612D02*
X37133546Y-51604011D01*
X83057781Y-109023463D02*
X96017434Y-109023463D01*
X279008543Y-19050000D02*
X265853513Y-19050000D01*
X16228696Y-17928145D02*
X16292845Y-17785436D01*
X155399673Y-95064953D02*
X155486123Y-95064953D01*
X170934073Y-90022923D02*
X183904233Y-90022923D01*
X136483482Y-52018306D02*
X136747620Y-51869612D01*
X117893540Y-70518340D02*
X117893540Y-57551505D01*
X298297533Y-19167173D02*
X298082073Y-19050000D01*
X146397169Y-76553747D02*
X146397169Y-76465834D01*
X234288623Y-105937051D02*
X234288623Y-102040537D01*
X246616393Y-95215243D02*
X246467433Y-95486430D01*
X274483883Y-42483802D02*
X273723123Y-42997182D01*
X18417055Y-19546755D02*
X18417055Y-32513457D01*
X293673123Y-70518340D02*
X293673123Y-57551505D01*
X293673123Y-57551505D02*
X293673123Y-57463326D01*
X278915443Y-76062578D02*
X265946613Y-76062578D01*
X151433613Y-19458576D02*
X151433613Y-19546755D01*
X94836926Y-90022923D02*
X94925105Y-90022923D01*
X51077399Y-109023463D02*
X51275303Y-108875008D01*
X126896443Y-33014069D02*
X126982361Y-33014069D01*
X203404693Y-19458576D02*
X203255733Y-19194970D01*
X43317381Y-91523961D02*
X43317381Y-91610145D01*
X217941593Y-57463326D02*
X217941593Y-57551505D01*
X241409443Y-76465834D02*
X241260483Y-76201829D01*
X41400186Y-47086134D02*
X41633069Y-47086134D01*
X89241749Y-76201829D02*
X88977611Y-76057125D01*
X227443113Y-76465834D02*
X227443113Y-76553747D01*
X37725529Y-109025285D02*
X37791497Y-109025285D01*
X128828135Y-93477731D02*
X128974568Y-93213859D01*
X56421738Y-95556122D02*
X56421738Y-108523103D01*
X295951413Y-71158070D02*
X295395473Y-71533662D01*
X273723123Y-42997182D02*
X273209743Y-43757676D01*
X113927480Y-33015931D02*
X126896443Y-33015931D01*
X199349523Y-71020548D02*
X199438633Y-71020548D01*
X113428730Y-76553747D02*
X113428730Y-89520715D01*
X70383945Y-95468209D02*
X70255733Y-95204204D01*
X51385294Y-19546755D02*
X51385294Y-19458576D01*
X37419363Y-95468209D02*
X37419363Y-95556122D01*
X170435323Y-76465834D02*
X170435323Y-76553747D01*
X189438363Y-89520715D02*
X189438363Y-89608761D01*
X46920617Y-51515832D02*
X46920617Y-51604011D01*
X37129822Y-70606386D02*
X37129822Y-70518340D01*
X180347813Y-71020548D02*
X180435593Y-71020548D01*
X75834551Y-76057125D02*
X75570812Y-76201829D01*
X227443113Y-89608761D02*
X227589413Y-89872633D01*
X227302133Y-95061229D02*
X223588773Y-95063091D01*
X265447863Y-19452990D02*
X265447863Y-32608685D01*
X66421476Y-71020548D02*
X79390572Y-71020548D01*
X117893540Y-38460951D02*
X117745378Y-38197345D01*
X265858833Y-90026514D02*
X265946613Y-90026514D01*
X217941593Y-57463326D02*
X217941593Y-57551505D01*
X135312417Y-109028955D02*
X105524141Y-109028955D01*
X132577937Y-32867237D02*
X132841676Y-33015931D01*
X31884435Y-33015931D02*
X31970619Y-33015931D01*
X231907923Y-38460951D02*
X231758963Y-38197345D01*
X94573187Y-19194970D02*
X94426355Y-19458576D01*
X41633069Y-47086134D02*
X42331319Y-46897540D01*
X181443733Y-109028955D02*
X181180393Y-108882336D01*
X231409173Y-71018686D02*
X231495623Y-71018686D01*
X233837753Y-95059500D02*
X233144823Y-95059500D01*
X18417055Y-19458576D02*
X18417055Y-19546755D01*
X123340422Y-38052375D02*
X123076816Y-38197345D01*
X199086183Y-57199720D02*
X198939883Y-57463326D01*
X217941593Y-51515832D02*
X217941593Y-51604011D01*
X279414193Y-32680505D02*
X279414193Y-32608685D01*
X108392419Y-89520715D02*
X108392419Y-76553747D01*
X211820933Y-108618411D02*
X211671973Y-108882336D01*
X204837103Y-93567506D02*
X204837103Y-93477731D01*
X298415903Y-95468209D02*
X298268273Y-95204204D01*
X75423980Y-76465834D02*
X75423980Y-76553747D01*
X18563674Y-19194970D02*
X18417055Y-19458576D01*
X132431105Y-76553747D02*
X132431105Y-89520715D01*
X56920355Y-76057125D02*
X56832309Y-76057125D01*
X51385294Y-19458576D02*
X51236866Y-19194970D01*
X123428601Y-38052375D02*
X123340422Y-38052375D01*
X212904883Y-70606386D02*
X212904883Y-70518340D01*
X199438633Y-52018306D02*
X212407463Y-52018306D01*
X250909633Y-38460951D02*
X250762003Y-38197345D01*
X174752503Y-70870258D02*
X174900133Y-70606386D01*
X94426355Y-32601636D02*
X94573187Y-32865375D01*
X174900133Y-57551505D02*
X174900133Y-57463326D01*
X202905943Y-19050000D02*
X189937113Y-19050000D01*
X117481107Y-57054750D02*
X117395322Y-57054750D01*
X174402713Y-71018686D02*
X174487833Y-71018686D01*
X17029628Y-111092678D02*
X16897668Y-111004705D01*
X300738083Y-42540593D02*
X300738083Y-47150506D01*
X136895915Y-57551505D02*
X136895915Y-57463326D01*
X70239374Y-32865375D02*
X70387669Y-32601636D01*
X23167628Y-57463326D02*
X23167628Y-57551505D01*
X127246499Y-32865375D02*
X127394794Y-32601636D01*
X188005953Y-93567506D02*
X188005953Y-95064953D01*
X298897363Y-16704013D02*
X299054303Y-16720372D01*
X94426355Y-89608761D02*
X94573187Y-89872633D01*
X94836926Y-33014069D02*
X94925105Y-33014069D01*
X293673123Y-57463326D02*
X293526823Y-57199720D01*
X84925101Y-38549130D02*
X84925101Y-51515832D01*
X231409173Y-57054750D02*
X218440343Y-57054750D01*
X37133546Y-51515832D02*
X37133546Y-38549130D01*
X269912673Y-51604011D02*
X269912673Y-51515832D01*
X180347813Y-52018306D02*
X180435593Y-52018306D01*
X227854083Y-90021061D02*
X227941863Y-90021061D01*
X260411153Y-19546755D02*
X260411153Y-19458576D01*
X205335853Y-93069022D02*
X211322183Y-93069022D01*
X260411153Y-76471287D02*
X260263523Y-76207282D01*
X20000579Y-92020716D02*
X25984622Y-92020716D01*
X161433883Y-109028955D02*
X161344773Y-109028955D01*
X142342797Y-95064953D02*
X142430976Y-95064953D01*
X96367357Y-108875008D02*
X96516184Y-108611083D01*
X279414193Y-108523103D02*
X279414193Y-95556122D01*
X184254023Y-32867237D02*
X184401653Y-32601636D01*
X17029628Y-111092678D02*
X16897668Y-111004705D01*
X269413923Y-52018306D02*
X269500373Y-52018306D01*
X161081433Y-95209790D02*
X161344773Y-95064953D01*
X174752503Y-57199720D02*
X174487833Y-57054750D01*
X36983256Y-70872120D02*
X37129822Y-70606386D01*
X37419363Y-108523103D02*
X37419363Y-108611083D01*
X132841676Y-90022923D02*
X132929855Y-90022923D01*
X300738083Y-18692363D02*
X300738083Y-19213191D01*
X60474115Y-71018686D02*
X60737987Y-70870258D01*
X89390044Y-76465834D02*
X89241749Y-76201829D01*
X208587703Y-32865375D02*
X208851043Y-33014069D01*
X46920617Y-57463326D02*
X46920617Y-57551505D01*
X23578173Y-71020548D02*
X23666139Y-71020548D01*
X246980813Y-95064953D02*
X246889043Y-95064953D01*
X293673123Y-70518340D02*
X293673123Y-57551505D01*
X41165707Y-42297070D02*
X40467324Y-42483802D01*
X246592453Y-19194970D02*
X246444823Y-19458576D01*
X212904883Y-57463326D02*
X212757253Y-57199720D01*
X298082073Y-19050000D02*
X298011583Y-19050000D01*
X98891165Y-57463326D02*
X98742870Y-57199720D01*
X37725529Y-109023463D02*
X37791497Y-109023463D01*
X107979986Y-76057125D02*
X107894068Y-76057125D01*
X174900133Y-38460951D02*
X174752503Y-38197345D01*
X300738083Y-108160213D02*
X300738083Y-109393681D01*
X198939883Y-51604011D02*
X199086183Y-51869612D01*
X51385294Y-108523103D02*
X51385294Y-95556122D01*
X117481107Y-52018306D02*
X117745378Y-51869612D01*
X56920355Y-90022923D02*
X69889318Y-90022923D01*
X188005953Y-95064953D02*
X204837103Y-95064953D01*
X94426355Y-89608761D02*
X94573187Y-89874495D01*
X51236866Y-19194970D02*
X50972994Y-19050000D01*
X39193583Y-45619942D02*
X39706697Y-46382431D01*
X227443113Y-32601636D02*
X227589413Y-32867237D01*
X222406403Y-76465834D02*
X222258773Y-76201829D01*
X300639663Y-110005840D02*
X300583803Y-110156130D01*
X98478732Y-57054750D02*
X98392947Y-57054750D01*
X284948323Y-76062578D02*
X284860543Y-76062578D01*
X260263523Y-89879948D02*
X260411153Y-89616076D01*
X188005953Y-93477731D02*
X188005953Y-93567506D01*
X250762003Y-57199720D02*
X250497333Y-57054750D01*
X105439686Y-93069022D02*
X105527998Y-93069022D01*
X142430976Y-38052375D02*
X142342797Y-38052375D01*
X217941593Y-70606386D02*
X218089223Y-70870258D01*
X260259533Y-108873173D02*
X260411153Y-108600084D01*
X103927476Y-51604011D02*
X104074441Y-51869612D01*
X160935133Y-95561575D02*
X160935133Y-95473662D01*
X299914813Y-17077876D02*
X300038503Y-17176961D01*
X160935133Y-57463326D02*
X160935133Y-57551505D01*
X79740495Y-51869612D02*
X79888790Y-51604011D01*
X246592453Y-76207282D02*
X246444823Y-76471287D01*
X111583355Y-93069022D02*
X111847094Y-93213859D01*
X37917980Y-33014069D02*
X50886810Y-33014069D01*
X42331319Y-42483802D02*
X41633069Y-42297070D01*
X236944633Y-57551505D02*
X236944633Y-70518340D01*
X136397697Y-57054750D02*
X123428601Y-57054750D01*
X94573187Y-89874495D02*
X94836926Y-90022923D01*
X88891693Y-33014069D02*
X88977611Y-33014069D01*
X51385294Y-89616076D02*
X51385294Y-89528030D01*
X141932226Y-57551505D02*
X141932226Y-70518340D01*
X280119093Y-57054750D02*
X279855753Y-57199720D01*
X218440343Y-57054750D02*
X218352563Y-57054750D01*
X199086183Y-38197345D02*
X198939883Y-38460951D01*
X17308207Y-111233806D02*
X17165259Y-111169657D01*
X222406403Y-32601636D02*
X222406403Y-32513457D01*
X66333297Y-52018306D02*
X66421476Y-52018306D01*
X236944633Y-70518340D02*
X236944633Y-70606386D01*
X22060656Y-73218107D02*
X21937817Y-72446441D01*
X211671973Y-108882336D02*
X211408633Y-109028955D01*
X300738083Y-109393681D02*
X300738083Y-109393681D01*
X279414193Y-19381702D02*
X279294493Y-19167173D01*
X265447863Y-32680505D02*
X265564903Y-32896763D01*
X18915565Y-90026514D02*
X19502069Y-90026514D01*
X117745378Y-70872120D02*
X117893540Y-70606386D01*
X94426355Y-76553747D02*
X94426355Y-89520715D01*
X299050313Y-76062578D02*
X299913483Y-76062578D01*
X141932226Y-38549130D02*
X141932226Y-51515832D01*
X180084473Y-57199720D02*
X179936843Y-57463326D01*
X234176903Y-108869502D02*
X234288623Y-108645902D01*
X17759077Y-16720372D02*
X17914873Y-16704013D01*
X113927480Y-76057125D02*
X113839301Y-76057125D01*
X247656453Y-95064953D02*
X246980813Y-95064953D01*
X79390572Y-38052375D02*
X66421476Y-38052375D01*
X181038083Y-93567506D02*
X181038083Y-93477731D01*
X284449573Y-19452990D02*
X284449573Y-32608685D01*
X260411153Y-32601636D02*
X260411153Y-32513457D01*
X82969602Y-109025285D02*
X83057781Y-109025285D01*
X300738083Y-18692363D02*
X300738083Y-18692363D01*
X23314248Y-38197345D02*
X23167628Y-38460951D01*
X94925105Y-90022923D02*
X107894068Y-90022923D01*
X221908983Y-33015931D02*
X221994103Y-33015931D01*
X280119093Y-38052375D02*
X279855753Y-38197345D01*
X56568437Y-89874495D02*
X56832309Y-90022923D01*
X46920617Y-38549130D02*
X46920617Y-51515832D01*
X79888790Y-51604011D02*
X79888790Y-51515832D01*
X31970619Y-19050000D02*
X31884435Y-19050000D01*
X70024978Y-109025285D02*
X70255733Y-108876843D01*
X174900133Y-38549130D02*
X174900133Y-38460951D01*
X277621353Y-45619942D02*
X277810213Y-44921825D01*
X155898423Y-108618411D02*
X155749463Y-108882336D01*
X203404693Y-89608761D02*
X203404693Y-89520715D01*
X85072066Y-38197345D02*
X84925101Y-38460951D01*
X170435323Y-32513457D02*
X170435323Y-32601636D01*
X56421738Y-95556122D02*
X56421738Y-108523103D01*
X170934073Y-76057125D02*
X170846293Y-76057125D01*
X297918483Y-109023463D02*
X298003603Y-109023463D01*
X85335672Y-52018306D02*
X85423851Y-52018306D01*
X237090933Y-70872120D02*
X237354273Y-71020548D01*
X37566062Y-32867237D02*
X37829934Y-33015931D01*
X142430976Y-38052375D02*
X142342797Y-38052375D01*
X155749463Y-95209790D02*
X155898423Y-95473662D01*
X56421738Y-76553747D02*
X56421738Y-89520715D01*
X26485021Y-90026514D02*
X43317381Y-90026514D01*
X193903173Y-70518340D02*
X193903173Y-57551505D01*
X23167628Y-38549130D02*
X23167628Y-51515832D01*
X18417055Y-89616076D02*
X18563674Y-89879948D01*
X123076816Y-38197345D02*
X122929851Y-38460951D01*
X79476357Y-57054750D02*
X79390572Y-57054750D01*
X37419363Y-19546755D02*
X37419363Y-32513457D01*
X298082073Y-19050000D02*
X298011583Y-19050000D01*
X50972994Y-19050000D02*
X50886810Y-19050000D01*
X299055633Y-71018686D02*
X298415903Y-71018686D01*
X247656453Y-109025285D02*
X249686033Y-109025285D01*
X117395322Y-57054750D02*
X104426226Y-57054750D01*
X94573187Y-19194970D02*
X94426355Y-19458576D01*
X18541676Y-95204204D02*
X18417055Y-95468209D01*
X179936843Y-57463326D02*
X179936843Y-57551505D01*
X212407463Y-38052375D02*
X199438633Y-38052375D01*
X260263523Y-19194970D02*
X259998853Y-19050000D01*
X280206873Y-52016444D02*
X293174373Y-52016444D01*
X155898423Y-57463326D02*
X155749463Y-57199720D01*
X208440073Y-76465834D02*
X208440073Y-76553747D01*
X56779242Y-95059500D02*
X56548221Y-95204204D01*
X299208583Y-111330943D02*
X299054303Y-111360267D01*
X237443383Y-52016444D02*
X250412213Y-52016444D01*
X300738083Y-26016540D02*
X300738083Y-29603018D01*
X126896443Y-90021061D02*
X126982361Y-90021061D01*
X279709453Y-38460951D02*
X279709453Y-38549130D01*
X269763713Y-70872120D02*
X269912673Y-70606386D01*
X279414193Y-95556122D02*
X279414193Y-95468209D01*
X32382919Y-32601636D02*
X32382919Y-32513457D01*
X56832309Y-90022923D02*
X56920355Y-90022923D01*
X51077399Y-109025285D02*
X51275303Y-108876843D01*
X98392947Y-38052375D02*
X85423851Y-38052375D01*
X103927476Y-38460951D02*
X103927476Y-38549130D01*
X279709453Y-51515832D02*
X279709453Y-51604011D01*
X284449573Y-95468209D02*
X284449573Y-95556122D01*
X279709453Y-57463326D02*
X279709453Y-57551505D01*
X265447863Y-89616076D02*
X265594163Y-89879948D01*
X88891693Y-19050000D02*
X75922730Y-19050000D01*
X155898423Y-38549130D02*
X155898423Y-38460951D01*
X259913733Y-33014069D02*
X259998853Y-33014069D01*
X89241749Y-76201829D02*
X88977611Y-76057125D01*
X234156953Y-95189574D02*
X234134343Y-95167496D01*
X246467433Y-105871043D02*
X246467433Y-107850469D01*
X179936843Y-38549130D02*
X179936843Y-51515832D01*
X189937113Y-76057125D02*
X189849333Y-76057125D01*
X233916223Y-109025285D02*
X234134343Y-108911663D01*
X300154213Y-110803101D02*
X300038503Y-110905737D01*
X204837103Y-93477731D02*
X204983403Y-93213859D01*
X18915565Y-19050000D02*
X18827599Y-19050000D01*
X79390572Y-38052375D02*
X66421476Y-38052375D01*
X184401653Y-89608761D02*
X184401653Y-89520715D01*
X17165259Y-111169657D02*
X17029628Y-111092678D01*
X265447863Y-108611083D02*
X265594163Y-108875008D01*
X104074441Y-38197345D02*
X103927476Y-38460951D01*
X233916223Y-109023463D02*
X234134343Y-108911663D01*
X122929851Y-57551505D02*
X122929851Y-70518340D01*
X51236866Y-19194970D02*
X50972994Y-19050000D01*
X202992393Y-33015931D02*
X203255733Y-32867237D01*
X222406403Y-76553747D02*
X222406403Y-76465834D01*
X297918483Y-90026514D02*
X298003603Y-90026514D01*
X135811167Y-93477731D02*
X135811167Y-93567506D01*
X300200763Y-76062578D02*
X300295193Y-76062578D01*
X241260483Y-89872633D02*
X241409443Y-89608761D01*
X94925105Y-90021061D02*
X107894068Y-90021061D01*
X142342797Y-38052375D02*
X142079191Y-38197345D01*
X208851043Y-76057125D02*
X208587703Y-76201829D01*
X70255733Y-108876843D02*
X70383945Y-108611083D01*
X98891165Y-57551505D02*
X98891165Y-57463326D01*
X146397169Y-32513457D02*
X146397169Y-19546755D01*
X37917980Y-33015931D02*
X50886810Y-33015931D01*
X165399943Y-89608761D02*
X165399943Y-89520715D01*
X123076816Y-70870258D02*
X123340422Y-71018686D01*
X170582953Y-89874495D02*
X170846293Y-90022923D01*
X211322183Y-93069022D02*
X211408633Y-93069022D01*
X260411153Y-32513457D02*
X260411153Y-19546755D01*
X94573187Y-32865375D02*
X94836926Y-33014069D01*
X50972994Y-33014069D02*
X51236866Y-32865375D01*
X56421738Y-32601636D02*
X56568437Y-32867237D01*
X174402713Y-52018306D02*
X174487833Y-52018306D01*
X212904883Y-51604011D02*
X212904883Y-51515832D01*
X56920355Y-76057125D02*
X56832309Y-76057125D01*
X128828135Y-93567506D02*
X128828135Y-93477731D01*
X293174373Y-71020548D02*
X293262153Y-71020548D01*
X227443113Y-76553747D02*
X227443113Y-89520715D01*
X49887980Y-92020716D02*
X50151852Y-91874017D01*
X16100402Y-18379015D02*
X16131559Y-18225134D01*
X36631338Y-57054750D02*
X23666139Y-57054750D01*
X203255733Y-19194970D02*
X202992393Y-19050000D01*
X299054303Y-111360267D02*
X298897363Y-111378596D01*
X179936843Y-70518340D02*
X179936843Y-70606386D01*
X300738083Y-104872173D02*
X300738083Y-108160213D01*
X189937113Y-90021061D02*
X202905943Y-90021061D01*
X220316973Y-95515823D02*
X220316973Y-96173774D01*
X75423980Y-19458576D02*
X75423980Y-19546755D01*
X98392947Y-38052375D02*
X85423851Y-38052375D01*
X69889318Y-90021061D02*
X69975236Y-90021061D01*
X189584663Y-89874495D02*
X189849333Y-90022923D01*
X18417055Y-89528030D02*
X18417055Y-89616076D01*
X70387669Y-32513457D02*
X70387669Y-19546755D01*
X298415903Y-71018686D02*
X298415903Y-71018686D01*
X16082073Y-109547629D02*
X16074742Y-109393681D01*
X278915443Y-90026514D02*
X279001893Y-90026514D01*
X231907923Y-57463326D02*
X231758963Y-57199720D01*
X300257953Y-17395081D02*
X300357703Y-17517574D01*
X20000579Y-92020716D02*
X25984622Y-92020716D01*
X189438363Y-89520715D02*
X189438363Y-89608761D01*
X222406403Y-19546755D02*
X222406403Y-19458576D01*
X234288623Y-102040537D02*
X234288623Y-98144036D01*
X111995788Y-95064953D02*
X128828135Y-95064953D01*
X56857978Y-109023463D02*
X69949434Y-109023463D01*
X183904233Y-19050000D02*
X170934073Y-19050000D01*
X128828135Y-93477731D02*
X128974568Y-93213859D01*
X136483482Y-71018686D02*
X136747620Y-70870258D01*
X117481107Y-38052375D02*
X117395322Y-38052375D01*
X300295193Y-76062578D02*
X300578483Y-76218321D01*
X31955856Y-109023463D02*
X32031001Y-109023463D01*
X94925105Y-33014069D02*
X107894068Y-33014069D01*
X70387669Y-76465834D02*
X70239374Y-76201829D01*
X265447863Y-89616076D02*
X265594163Y-89879948D01*
X240910693Y-76057125D02*
X227941863Y-76057125D01*
X36985118Y-38197345D02*
X36721113Y-38052375D01*
X208938823Y-19050000D02*
X208851043Y-19050000D01*
X98891165Y-57551505D02*
X98891165Y-57463326D01*
X234176903Y-95209790D02*
X234156953Y-95189574D01*
X16369824Y-110432874D02*
X16292845Y-110295408D01*
X300738083Y-56053925D02*
X300738083Y-60089943D01*
X208587703Y-19194970D02*
X208440073Y-19458576D01*
X246467433Y-108510282D02*
X246467433Y-108600084D01*
X269763713Y-51867750D02*
X269912673Y-51604011D01*
X250412213Y-71020548D02*
X250497333Y-71020548D01*
X174402713Y-109028955D02*
X161433883Y-109028955D01*
X160935133Y-70606386D02*
X161081433Y-70870258D01*
X299913483Y-76062578D02*
X300200763Y-76062578D01*
X132841676Y-76057125D02*
X132577937Y-76201829D01*
X98392947Y-52018306D02*
X98478732Y-52018306D01*
X117395322Y-38052375D02*
X104426226Y-38052375D01*
X300639663Y-18076839D02*
X300680893Y-18225134D01*
X279709453Y-70518340D02*
X279709453Y-70606386D01*
X300738083Y-100147242D02*
X300738083Y-104872173D01*
X277621353Y-43757676D02*
X277107973Y-42997182D01*
X60737987Y-38197345D02*
X60474115Y-38052375D01*
X75922730Y-90022923D02*
X88891693Y-90022923D01*
X259284643Y-95059500D02*
X257189893Y-95059500D01*
X18541676Y-108876843D02*
X18767111Y-109025285D01*
X260235593Y-95184121D02*
X259980233Y-95059500D01*
X279414193Y-95468209D02*
X279265233Y-95204204D01*
X165250983Y-76201829D02*
X164987643Y-76057125D01*
X132841676Y-33015931D02*
X132929855Y-33015931D01*
X66421476Y-71018686D02*
X79390572Y-71018686D01*
X298268273Y-95204204D02*
X298003603Y-95059500D01*
X278915443Y-95059500D02*
X265946613Y-95059500D01*
X246855793Y-90026514D02*
X246943573Y-90026514D01*
X23167628Y-70606386D02*
X23314248Y-70872120D01*
X56568437Y-19194970D02*
X56421738Y-19458576D01*
X236944633Y-70606386D02*
X237090933Y-70870258D01*
X198939883Y-38460951D02*
X198939883Y-38549130D01*
X279294493Y-32894901D02*
X279414193Y-32680505D01*
X36719384Y-57054750D02*
X36631338Y-57054750D01*
X111495176Y-93069022D02*
X111583355Y-93069022D01*
X85072066Y-57199720D02*
X84925101Y-57463326D01*
X212492583Y-57054750D02*
X212407463Y-57054750D01*
X189937113Y-19050000D02*
X189849333Y-19050000D01*
X211820933Y-108618411D02*
X211671973Y-108882336D01*
X237443383Y-57054750D02*
X237354273Y-57054750D01*
X155898423Y-57463326D02*
X155749463Y-57199720D01*
X250497333Y-71020548D02*
X250762003Y-70872120D01*
X220316973Y-107912793D02*
X220316973Y-108572593D01*
X69889318Y-19050000D02*
X56920355Y-19050000D01*
X299647483Y-16912823D02*
X299783143Y-16989697D01*
X212904883Y-57551505D02*
X212904883Y-57463326D01*
X220767843Y-95064953D02*
X220688043Y-95064953D01*
X284948323Y-95059500D02*
X284860543Y-95059500D01*
X293174373Y-38052375D02*
X280206873Y-38052375D01*
X135662473Y-93213859D02*
X135811167Y-93477731D01*
X26485021Y-90026514D02*
X43317381Y-90026514D01*
X69889318Y-90022923D02*
X69975236Y-90022923D01*
X83057781Y-95059500D02*
X82969602Y-95059500D01*
X36631338Y-71020548D02*
X36719384Y-71020548D01*
X51236866Y-32865375D02*
X51385294Y-32601636D01*
X284597203Y-76207282D02*
X284449573Y-76471287D01*
X18563674Y-19194970D02*
X18417055Y-19458576D01*
X174752503Y-38197345D02*
X174487833Y-38052375D01*
X117893540Y-70518340D02*
X117893540Y-57551505D01*
X88977611Y-76057125D02*
X88891693Y-76057125D01*
X300738083Y-63680145D02*
X300738083Y-66695122D01*
X18417055Y-95468209D02*
X18417055Y-95556122D01*
X127394794Y-32601636D02*
X127394794Y-32513457D01*
X265447863Y-76471287D02*
X265447863Y-76559200D01*
X56548221Y-95204204D02*
X56421738Y-95468209D01*
X246855793Y-19050000D02*
X246592453Y-19194970D01*
X23167628Y-51515832D02*
X23167628Y-51604011D01*
X151932363Y-76057125D02*
X151844583Y-76057125D01*
X231907923Y-70606386D02*
X231907923Y-70518340D01*
X96516184Y-108523103D02*
X96516184Y-95556122D01*
X161433883Y-38052375D02*
X161344773Y-38052375D01*
X160935133Y-108618411D02*
X160935133Y-108530445D01*
X250909633Y-70518340D02*
X250909633Y-57551505D01*
X16659401Y-110803101D02*
X16554935Y-110685803D01*
X279001893Y-95059500D02*
X278915443Y-95059500D01*
X284449573Y-108523103D02*
X284449573Y-108611083D01*
X233910903Y-95059500D02*
X233837753Y-95059500D01*
X241260483Y-32865375D02*
X241409443Y-32601636D01*
X155399673Y-109028955D02*
X142430976Y-109028955D01*
X269413923Y-38052375D02*
X256445093Y-38052375D01*
X56920355Y-19050000D02*
X56832309Y-19050000D01*
X234288623Y-95431501D02*
X234176903Y-95209790D01*
X51275303Y-95204204D02*
X51077399Y-95059500D01*
X260284803Y-95231735D02*
X260260863Y-95207928D01*
X39706697Y-42997182D02*
X39193583Y-43757676D01*
X56421738Y-108523103D02*
X56421738Y-108611083D01*
X220688043Y-95064953D02*
X220448643Y-95195027D01*
X293673123Y-38549130D02*
X293673123Y-38460951D01*
X18417055Y-89616076D02*
X18563674Y-89879948D01*
X300582473Y-70864805D02*
X300304503Y-71020548D01*
X60387931Y-38052375D02*
X47419101Y-38052375D01*
X265853513Y-33015931D02*
X279008543Y-33015931D01*
X212407463Y-71018686D02*
X212492583Y-71018686D01*
X246592453Y-19194970D02*
X246444823Y-19458576D01*
X113927480Y-19050000D02*
X113839301Y-19050000D01*
X217941593Y-51515832D02*
X217941593Y-51604011D01*
X16554935Y-110685803D02*
X16455963Y-110564834D01*
X193903173Y-57551505D02*
X193903173Y-57463326D01*
X300738083Y-60089943D02*
X300738083Y-63680145D01*
X300738083Y-76597770D02*
X300738083Y-77257583D01*
X132431105Y-19546755D02*
X132431105Y-32513457D01*
X122929851Y-70606386D02*
X123076816Y-70872120D01*
X98891165Y-51515832D02*
X98891165Y-38549130D01*
X256357313Y-57054750D02*
X256093973Y-57199720D01*
X250412213Y-57054750D02*
X237443383Y-57054750D01*
X136747620Y-38197345D02*
X136483482Y-38052375D01*
X126982361Y-90021061D02*
X127246499Y-89872633D01*
X279414193Y-95468209D02*
X279265233Y-95204204D01*
X56421738Y-89608761D02*
X56568437Y-89874495D01*
X98478732Y-71020548D02*
X98742870Y-70872120D01*
X165250983Y-76201829D02*
X164987643Y-76057125D01*
X259896443Y-95059500D02*
X259284643Y-95059500D01*
X151579913Y-89874495D02*
X151844583Y-90022923D01*
X265564903Y-32896763D02*
X265779033Y-33015931D01*
X300738083Y-33639036D02*
X300738083Y-37993722D01*
X240997143Y-76057125D02*
X240910693Y-76057125D01*
X70383945Y-95556122D02*
X70383945Y-95468209D01*
X293526823Y-51869612D02*
X293673123Y-51604011D01*
X142079191Y-57199720D02*
X141932226Y-57463326D01*
X145984736Y-19050000D02*
X145898818Y-19050000D01*
X274483883Y-46897540D02*
X275182133Y-47086134D01*
X208587703Y-32867237D02*
X208851043Y-33015931D01*
X94925105Y-76057125D02*
X94836926Y-76057125D01*
X85335672Y-57054750D02*
X85072066Y-57199720D01*
X181185713Y-93213859D02*
X181449053Y-93069022D01*
X294886083Y-74957348D02*
X294886083Y-75747368D01*
X79740495Y-57199720D02*
X79476357Y-57054750D01*
X141932226Y-95473662D02*
X142079191Y-95209790D01*
X155749463Y-70872120D02*
X155898423Y-70606386D01*
X141932226Y-70518340D02*
X141932226Y-70606386D01*
X37419363Y-108611083D02*
X37527492Y-108875008D01*
X181534173Y-109028955D02*
X181443733Y-109028955D01*
X265594163Y-76207282D02*
X265447863Y-76471287D01*
X16369824Y-17649909D02*
X16455963Y-17517574D01*
X132841676Y-33014069D02*
X132929855Y-33014069D01*
X113575562Y-32867237D02*
X113839301Y-33015931D01*
X277107973Y-46382431D02*
X277621353Y-45619942D01*
X300357703Y-17517574D02*
X300442823Y-17649909D01*
X203255733Y-19194970D02*
X202992393Y-19050000D01*
X70239374Y-89874495D02*
X70387669Y-89608761D01*
X113575562Y-19194970D02*
X113428730Y-19458576D01*
X284948323Y-109023463D02*
X297918483Y-109023463D01*
X284449573Y-32608685D02*
X284449573Y-32680505D01*
X155486123Y-71020548D02*
X155749463Y-70872120D01*
X79888790Y-38460951D02*
X79740495Y-38197345D01*
X299783143Y-111092678D02*
X299647483Y-111169657D01*
X66421476Y-38052375D02*
X66333297Y-38052375D01*
X43317381Y-91523961D02*
X43317381Y-91610145D01*
X46920617Y-57463326D02*
X46920617Y-57551505D01*
X23666139Y-38052375D02*
X23578173Y-38052375D01*
X111847094Y-93213859D02*
X111995788Y-93477731D01*
X23314248Y-51869612D02*
X23578173Y-52018306D01*
X284449573Y-19381702D02*
X284449573Y-19452990D01*
X193903173Y-38549130D02*
X193903173Y-38460951D01*
X151433613Y-76553747D02*
X151433613Y-89520715D01*
X265447863Y-89528030D02*
X265447863Y-89616076D01*
X300738083Y-88859040D02*
X300738083Y-94603044D01*
X227854083Y-19050000D02*
X227589413Y-19194970D01*
X293673123Y-51604011D02*
X293673123Y-51515832D01*
X284782073Y-19050000D02*
X284567943Y-19167173D01*
X208851043Y-76057125D02*
X208587703Y-76201829D01*
X37133546Y-38460951D02*
X36985118Y-38197345D01*
X16131559Y-109855550D02*
X16100402Y-109703425D01*
X275648963Y-42297070D02*
X275416213Y-42297070D01*
X202905943Y-33015931D02*
X202992393Y-33015931D01*
X284860543Y-95059500D02*
X284597203Y-95204204D01*
X132431105Y-89608761D02*
X132577937Y-89872633D01*
X265858833Y-95059500D02*
X265594163Y-95204204D01*
X65922726Y-51515832D02*
X65922726Y-51604011D01*
X122929851Y-51515832D02*
X122929851Y-51604011D01*
X179936843Y-70518340D02*
X179936843Y-70606386D01*
X275182133Y-42297070D02*
X274483883Y-42483802D01*
X117893540Y-70606386D02*
X117893540Y-70518340D01*
X222258773Y-76201829D02*
X221994103Y-76057125D01*
X300738083Y-94603044D02*
X300738083Y-100147242D01*
X174900133Y-38549130D02*
X174900133Y-38460951D01*
X117893540Y-51604011D02*
X117893540Y-51515832D01*
X240910693Y-33014069D02*
X240997143Y-33014069D01*
X275416213Y-47086134D02*
X275648963Y-47086134D01*
X136483482Y-57054750D02*
X136397697Y-57054750D01*
X278915443Y-109023463D02*
X279001893Y-109023463D01*
X51013293Y-109023463D02*
X51077399Y-109023463D01*
X211820933Y-93477731D02*
X211820933Y-93567506D01*
X37419363Y-32601636D02*
X37566062Y-32865375D01*
X127394794Y-32601636D02*
X127394794Y-32513457D01*
X51385294Y-76471287D02*
X51236866Y-76207282D01*
X246467433Y-102042372D02*
X246467433Y-105871043D01*
X75423980Y-89608761D02*
X75570812Y-89872633D01*
X293526823Y-57199720D02*
X293262153Y-57054750D01*
X205335853Y-93069022D02*
X211322183Y-93069022D01*
X300038503Y-110905737D02*
X299914813Y-111004705D01*
X60886548Y-57551505D02*
X60886548Y-57463326D01*
X246467433Y-108600084D02*
X246616393Y-108871337D01*
X241409443Y-89608761D02*
X241409443Y-89520715D01*
X161344773Y-57054750D02*
X161081433Y-57199720D01*
X84925101Y-51604011D02*
X85072066Y-51867750D01*
X189438363Y-89608761D02*
X189584663Y-89874495D01*
X298415903Y-71020548D02*
X298415903Y-71020548D01*
X199349523Y-38052375D02*
X199086183Y-38197345D01*
X26485021Y-91610145D02*
X26485021Y-91523961D01*
X16082073Y-109547629D02*
X16074742Y-109393681D01*
X136483482Y-71020548D02*
X136747620Y-70872120D01*
X279855753Y-51867750D02*
X280119093Y-52016444D01*
X279414193Y-19452990D02*
X279414193Y-19381702D01*
X111995788Y-95064953D02*
X128828135Y-95064953D01*
X193903173Y-51604011D02*
X193903173Y-51515832D01*
X56421738Y-89520715D02*
X56421738Y-89608761D01*
X259913733Y-90026514D02*
X259998853Y-90026514D01*
X221474073Y-109023463D02*
X223588773Y-109023463D01*
X218440343Y-71020548D02*
X231409173Y-71020548D01*
X136895915Y-38460951D02*
X136747620Y-38197345D01*
X22045973Y-76057125D02*
X22060656Y-73218107D01*
X208851043Y-90022923D02*
X208938823Y-90022923D01*
X23578173Y-57054750D02*
X23314248Y-57199720D01*
X141932226Y-38549130D02*
X141932226Y-51515832D01*
X32256436Y-95204204D02*
X32031001Y-95059500D01*
X265946613Y-90026514D02*
X278915443Y-90026514D01*
X174752503Y-108882336D02*
X174487833Y-109028955D01*
X155399673Y-109028955D02*
X142430976Y-109028955D01*
X299360203Y-111290622D02*
X299208583Y-111330943D01*
X47067183Y-38197345D02*
X46920617Y-38460951D01*
X113927480Y-90021061D02*
X126896443Y-90021061D01*
X265564903Y-32894901D02*
X265779033Y-33014069D01*
X234288623Y-102040537D02*
X234288623Y-98144036D01*
X174402713Y-57054750D02*
X161433883Y-57054750D01*
X105170361Y-108882336D02*
X105025391Y-108618411D01*
X104426226Y-71018686D02*
X117395322Y-71018686D01*
X246444823Y-89616076D02*
X246592453Y-89879948D01*
X75834551Y-33014069D02*
X75922730Y-33014069D01*
X18767111Y-95059500D02*
X18541676Y-95204204D01*
X189438363Y-32513457D02*
X189438363Y-32601636D01*
X241260483Y-76201829D02*
X240997143Y-76057125D01*
X265946613Y-76062578D02*
X265858833Y-76062578D01*
X269500373Y-71020548D02*
X269763713Y-70872120D01*
X246592453Y-32867237D02*
X246855793Y-33015931D01*
X104426226Y-38052375D02*
X104338047Y-38052375D01*
X222258773Y-89874495D02*
X222406403Y-89608761D01*
X208851043Y-33014069D02*
X208938823Y-33014069D01*
X142430976Y-57054750D02*
X142342797Y-57054750D01*
X246444823Y-32601636D02*
X246592453Y-32867237D01*
X69889318Y-76057125D02*
X56920355Y-76057125D01*
X183904233Y-90021061D02*
X183989353Y-90021061D01*
X50886810Y-76062578D02*
X22045973Y-76057125D01*
X298011583Y-19050000D02*
X284855223Y-19050000D01*
X164901193Y-19050000D02*
X151932363Y-19050000D01*
X65922726Y-70606386D02*
X66069691Y-70870258D01*
X189584663Y-19194970D02*
X189438363Y-19458576D01*
X113428730Y-76553747D02*
X113428730Y-89520715D01*
X43605060Y-43757676D02*
X43091946Y-42997182D01*
X265447863Y-19452990D02*
X265447863Y-32608685D01*
X246467433Y-108510282D02*
X246467433Y-108600084D01*
X98478732Y-71018686D02*
X98742870Y-70870258D01*
X174900133Y-95473662D02*
X174900133Y-95561575D01*
X18827599Y-33014069D02*
X18915565Y-33014069D01*
X98478732Y-57054750D02*
X98392947Y-57054750D01*
X220316973Y-105938887D02*
X220316973Y-107912793D01*
X300738083Y-70120670D02*
X300738083Y-70492671D01*
X249686033Y-109023463D02*
X253437963Y-109023463D01*
X104074441Y-70872120D02*
X104338047Y-71020548D01*
X155898423Y-57551505D02*
X155898423Y-57463326D01*
X60737987Y-70872120D02*
X60886548Y-70606386D01*
X298268273Y-108875008D02*
X298415903Y-108611083D01*
X136895915Y-70518340D02*
X136895915Y-57551505D01*
X132577937Y-32865375D02*
X132841676Y-33014069D01*
X142079191Y-70872120D02*
X142342797Y-71020548D01*
X189849333Y-76057125D02*
X189584663Y-76201829D01*
X199438633Y-71020548D02*
X212407463Y-71020548D01*
X240997143Y-90022923D02*
X241260483Y-89874495D01*
X37791497Y-109023463D02*
X51013293Y-109023463D01*
X208440073Y-32513457D02*
X208440073Y-32601636D01*
X193903173Y-38460951D02*
X193754213Y-38197345D01*
X174487833Y-52016444D02*
X174752503Y-51867750D01*
X227302133Y-109023463D02*
X231015493Y-109023463D01*
X221994103Y-19050000D02*
X221908983Y-19050000D01*
X85335672Y-71018686D02*
X85423851Y-71018686D01*
X161081433Y-51867750D02*
X161344773Y-52016444D01*
X164987643Y-19050000D02*
X164901193Y-19050000D01*
X217941593Y-38460951D02*
X217941593Y-38549130D01*
X155749463Y-108882336D02*
X155486123Y-109028955D01*
X105025391Y-108618411D02*
X105025391Y-108530445D01*
X123076816Y-51867750D02*
X123340422Y-52016444D01*
X141932226Y-70606386D02*
X142079191Y-70870258D01*
X217941593Y-57551505D02*
X217941593Y-70518340D01*
X23314248Y-70872120D02*
X23578173Y-71020548D01*
X293526823Y-51867750D02*
X293673123Y-51604011D01*
X16897668Y-17077876D02*
X17029628Y-16989697D01*
X32382919Y-19458576D02*
X32234491Y-19194970D01*
X69949434Y-109025285D02*
X70024978Y-109025285D01*
X273723123Y-46382431D02*
X274483883Y-46897540D01*
X174900133Y-108618411D02*
X174752503Y-108882336D01*
X221994103Y-76057125D02*
X221908983Y-76057125D01*
X294886083Y-75747368D02*
X294886083Y-76057125D01*
X227443113Y-32513457D02*
X227443113Y-32601636D01*
X117745378Y-57199720D02*
X117481107Y-57054750D01*
X255946343Y-51515832D02*
X255946343Y-51604011D01*
X43317381Y-90026514D02*
X43317381Y-91523961D01*
X56920355Y-19050000D02*
X56832309Y-19050000D01*
X18541676Y-95204204D02*
X18417055Y-95468209D01*
X165399943Y-76465834D02*
X165250983Y-76201829D01*
X246444823Y-76471287D02*
X246444823Y-76559200D01*
X279001893Y-76062578D02*
X278915443Y-76062578D01*
X298415903Y-19381702D02*
X298297533Y-19167173D01*
X284449573Y-19452990D02*
X284449573Y-32608685D01*
X127394794Y-89608761D02*
X127394794Y-89520715D01*
X16082073Y-18534758D02*
X16100402Y-18379015D01*
X123076816Y-70872120D02*
X123340422Y-71020548D01*
X187856993Y-93213859D02*
X188005953Y-93477731D01*
X279855753Y-57199720D02*
X279709453Y-57463326D01*
X212407463Y-38052375D02*
X199438633Y-38052375D01*
X70239374Y-76201829D02*
X69975236Y-76057125D01*
X300738083Y-70492671D02*
X300738083Y-70584308D01*
X250762003Y-57199720D02*
X250497333Y-57054750D01*
X231495623Y-57054750D02*
X231409173Y-57054750D01*
X227854083Y-90022923D02*
X227941863Y-90022923D01*
X49801796Y-92020716D02*
X49887980Y-92020716D01*
X181536833Y-93069022D02*
X187504543Y-93069022D01*
X211820933Y-108530445D02*
X211820933Y-108618411D01*
X183904233Y-76057125D02*
X170934073Y-76057125D01*
X203404693Y-32601636D02*
X203404693Y-32513457D01*
X151932363Y-90021061D02*
X164901193Y-90021061D01*
X51275303Y-108876843D02*
X51385294Y-108611083D01*
X17165259Y-16912823D02*
X17308207Y-16848983D01*
X88977611Y-90022923D02*
X89241749Y-89874495D01*
X117395322Y-71018686D02*
X117481107Y-71018686D01*
X204837103Y-95064953D02*
X204837103Y-93567506D01*
X220316973Y-107912793D02*
X220316973Y-108572593D01*
X94925105Y-19050000D02*
X94836926Y-19050000D01*
X141932226Y-108618411D02*
X141932226Y-108530445D01*
X136895915Y-57463326D02*
X136747620Y-57199720D01*
X234288623Y-96170183D02*
X234288623Y-95512099D01*
X170435323Y-19458576D02*
X170435323Y-19546755D01*
X300738083Y-66695122D02*
X300738083Y-69008125D01*
X240910693Y-19050000D02*
X227941863Y-19050000D01*
X146397169Y-19458576D02*
X146248874Y-19194970D01*
X18417055Y-108611083D02*
X18541676Y-108876843D01*
X37566062Y-32865375D02*
X37829934Y-33014069D01*
X23314248Y-38197345D02*
X23167628Y-38460951D01*
X298741753Y-111385927D02*
X18070656Y-111387760D01*
X127394794Y-76553747D02*
X127394794Y-76465834D01*
X240910693Y-76057125D02*
X227941863Y-76057125D01*
X39006585Y-44455926D02*
X39006585Y-44688543D01*
X18563674Y-89879948D02*
X18827599Y-90026514D01*
X181185713Y-93213859D02*
X181449053Y-93069022D01*
X260263523Y-89879948D02*
X260411153Y-89616076D01*
X259998853Y-76062578D02*
X259913733Y-76062578D01*
X227941863Y-90021061D02*
X240910693Y-90021061D01*
X75922730Y-19050000D02*
X75834551Y-19050000D01*
X279265233Y-95204204D02*
X279001893Y-95059500D01*
X174402713Y-38052375D02*
X161433883Y-38052375D01*
X300257953Y-17395081D02*
X300357703Y-17517574D01*
X231907923Y-38460951D02*
X231758963Y-38197345D01*
X265447863Y-108523103D02*
X265447863Y-108611083D01*
X108392419Y-76465834D02*
X108244124Y-76201829D01*
X37419363Y-19458576D02*
X37419363Y-19546755D01*
X260411153Y-76471287D02*
X260263523Y-76207282D01*
X16221365Y-70578855D02*
X16074742Y-70225075D01*
X296462133Y-71020548D02*
X295951413Y-71158070D01*
X202992393Y-33014069D02*
X203255733Y-32865375D01*
X117893540Y-57551505D02*
X117893540Y-57463326D01*
X89241749Y-32867237D02*
X89390044Y-32601636D01*
X259913733Y-33015931D02*
X259998853Y-33015931D01*
X227443113Y-89520715D02*
X227443113Y-89608761D01*
X249686033Y-95063091D02*
X247656453Y-95064953D01*
X265564903Y-19167173D02*
X265447863Y-19381702D01*
X170934073Y-76057125D02*
X170846293Y-76057125D01*
X193903173Y-70606386D02*
X193903173Y-70518340D01*
X42331319Y-46897540D02*
X43091946Y-46382431D01*
X181038083Y-93477731D02*
X181185713Y-93213859D01*
X280206873Y-57054750D02*
X280119093Y-57054750D01*
X75922730Y-76057125D02*
X75834551Y-76057125D01*
X240910693Y-90022923D02*
X240997143Y-90022923D01*
X136747620Y-38197345D02*
X136483482Y-38052375D01*
X265564903Y-19167173D02*
X265447863Y-19381702D01*
X23578173Y-52016444D02*
X23666139Y-52016444D01*
X234288623Y-98144036D02*
X234288623Y-96170183D01*
X26485021Y-91523961D02*
X26485021Y-90026514D01*
X227589413Y-32865375D02*
X227854083Y-33014069D01*
X189937113Y-33015931D02*
X202905943Y-33015931D01*
X31884435Y-19050000D02*
X18915565Y-19050000D01*
X18827599Y-19050000D02*
X18563674Y-19194970D01*
X136895915Y-70606386D02*
X136895915Y-70518340D01*
X165399943Y-19546755D02*
X165399943Y-19458576D01*
X132431105Y-76553747D02*
X132431105Y-89520715D01*
X298415903Y-108523103D02*
X298415903Y-95556122D01*
X184254023Y-32865375D02*
X184401653Y-32601636D01*
X181038083Y-93567506D02*
X181038083Y-93477731D01*
X47331188Y-71018686D02*
X47419101Y-71018686D01*
X237443383Y-38052375D02*
X237354273Y-38052375D01*
X98742870Y-38197345D02*
X98478732Y-38052375D01*
X79476357Y-71020548D02*
X79740495Y-70872120D01*
X16074742Y-76553747D02*
X16074742Y-76465834D01*
X105527998Y-93069022D02*
X111495176Y-93069022D01*
X184254023Y-19194970D02*
X183989353Y-19050000D01*
X142342797Y-109028955D02*
X142079191Y-108882336D01*
X221471413Y-95064953D02*
X220767843Y-95064953D01*
X37527492Y-95204204D02*
X37419363Y-95468209D01*
X113428730Y-19458576D02*
X113428730Y-19546755D01*
X294886083Y-76057125D02*
X284948323Y-76062578D01*
X105176080Y-93213859D02*
X105439686Y-93069022D01*
X277621353Y-43757676D02*
X277107973Y-42997182D01*
X89390044Y-19546755D02*
X89390044Y-19458576D01*
X273023543Y-44688543D02*
X273023543Y-44921825D01*
X221908983Y-90021061D02*
X221994103Y-90021061D01*
X300712813Y-109703425D02*
X300680893Y-109855550D01*
X96516184Y-108611083D02*
X96516184Y-108523103D01*
X246889043Y-95064953D02*
X246616393Y-95215243D01*
X211820933Y-108530445D02*
X211820933Y-108618411D01*
X255946343Y-57463326D02*
X255946343Y-57551505D01*
X202992393Y-90021061D02*
X203255733Y-89872633D01*
X284782073Y-19050000D02*
X284567943Y-19167173D01*
X136895915Y-57551505D02*
X136895915Y-57463326D01*
X189438363Y-19546755D02*
X189438363Y-32513457D01*
X50886810Y-19050000D02*
X37917980Y-19050000D01*
X265447863Y-95556122D02*
X265447863Y-108523103D01*
X155749463Y-51869612D02*
X155898423Y-51604011D01*
X60387931Y-71020548D02*
X60474115Y-71020548D01*
X17308207Y-16848983D02*
X17454839Y-16793522D01*
X170435323Y-89520715D02*
X170435323Y-89608761D01*
X221471413Y-95064953D02*
X220767843Y-95064953D01*
X227589413Y-19194970D02*
X227443113Y-19458576D01*
X18563674Y-89879948D02*
X18827599Y-90026514D01*
X132841676Y-19050000D02*
X132577937Y-19194970D01*
X208587703Y-76201829D02*
X208440073Y-76465834D01*
X60474115Y-38052375D02*
X60387931Y-38052375D01*
X234176903Y-95209790D02*
X234156953Y-95189574D01*
X16455963Y-17517574D02*
X16554935Y-17395081D01*
X295021743Y-72089070D02*
X294886083Y-72598593D01*
X174752503Y-38197345D02*
X174487833Y-38052375D01*
X108392419Y-19458576D02*
X108244124Y-19194970D01*
X183904233Y-90022923D02*
X183989353Y-90022923D01*
X284855223Y-19050000D02*
X284782073Y-19050000D01*
X300519963Y-110295408D02*
X300442823Y-110431044D01*
X36635062Y-38052375D02*
X23666139Y-38052375D01*
X155486123Y-52016444D02*
X155749463Y-51867750D01*
X136397697Y-38052375D02*
X123428601Y-38052375D01*
X96017434Y-95059500D02*
X83057781Y-95059500D01*
X189438363Y-32601636D02*
X189584663Y-32867237D01*
X174900133Y-95561575D02*
X174900133Y-108530445D01*
X299922793Y-71020548D02*
X299055633Y-71020548D01*
X56421738Y-89520715D02*
X56421738Y-89608761D01*
X18827599Y-33015931D02*
X18915565Y-33015931D01*
X231409173Y-52016444D02*
X231495623Y-52016444D01*
X36721113Y-52016444D02*
X36985118Y-51867750D01*
X65922726Y-70606386D02*
X66069691Y-70872120D01*
X227941863Y-19050000D02*
X227854083Y-19050000D01*
X113575562Y-76201829D02*
X113428730Y-76465834D01*
X123340422Y-52016444D02*
X123428601Y-52016444D01*
X117745378Y-57199720D02*
X117481107Y-57054750D01*
X18417055Y-19546755D02*
X18417055Y-32513457D01*
X18070656Y-16694570D02*
X298741753Y-16696432D01*
X188005953Y-93567506D02*
X188005953Y-95064953D01*
X221994103Y-33015931D02*
X222258773Y-32867237D01*
X220316973Y-102042372D02*
X220316973Y-105938887D01*
X298415903Y-19381702D02*
X298297533Y-19167173D01*
X193490873Y-71018686D02*
X193754213Y-70870258D01*
X174487833Y-57054750D02*
X174402713Y-57054750D01*
X293526823Y-38197345D02*
X293262153Y-38052375D01*
X199086183Y-51869612D02*
X199349523Y-52018306D01*
X19568037Y-70725421D02*
X16573262Y-70725421D01*
X17759077Y-111360267D02*
X17605129Y-111330943D01*
X16455963Y-17517574D02*
X16554935Y-17395081D01*
X23167628Y-38549130D02*
X23167628Y-51515832D01*
X260411153Y-95482839D02*
X260284803Y-95231735D01*
X51385294Y-32513457D02*
X51385294Y-19546755D01*
X151579913Y-19194970D02*
X151433613Y-19458576D01*
X256445093Y-38052375D02*
X256357313Y-38052375D01*
X189849333Y-19050000D02*
X189584663Y-19194970D01*
X60886548Y-70518340D02*
X60886548Y-57551505D01*
X298741753Y-111385927D02*
X18070656Y-111387760D01*
X151579913Y-32867237D02*
X151844583Y-33015931D01*
X204983403Y-93213859D02*
X205248073Y-93069022D01*
X79888790Y-57551505D02*
X79888790Y-57463326D01*
X237354273Y-38052375D02*
X237090933Y-38197345D01*
X41633069Y-47086134D02*
X42331319Y-46897540D01*
X136483482Y-38052375D02*
X136397697Y-38052375D01*
X284597203Y-76207282D02*
X284449573Y-76471287D01*
X94573187Y-76201829D02*
X94426355Y-76465834D01*
X265447863Y-76471287D02*
X265447863Y-76559200D01*
X184401653Y-76553747D02*
X184401653Y-76465834D01*
X16173713Y-110005840D02*
X16131559Y-109855550D01*
X265447863Y-76559200D02*
X265447863Y-89528030D01*
X284860543Y-109025285D02*
X284948323Y-109025285D01*
X199086183Y-70870258D02*
X199349523Y-71018686D01*
X300712813Y-18379015D02*
X300732763Y-18534758D01*
X298011583Y-19050000D02*
X284855223Y-19050000D01*
X123076816Y-57199720D02*
X122929851Y-57463326D01*
X23578173Y-52018306D02*
X23666139Y-52018306D01*
X16221365Y-70578855D02*
X16074742Y-70225075D01*
X56779242Y-109025285D02*
X56857978Y-109025285D01*
X250909633Y-57551505D02*
X250909633Y-57463326D01*
X75423980Y-89520715D02*
X75423980Y-89608761D01*
X43463947Y-91874017D02*
X43727952Y-92020716D01*
X98478732Y-38052375D02*
X98392947Y-38052375D01*
X164987643Y-33015931D02*
X165250983Y-32867237D01*
X294886083Y-73049463D02*
X294886083Y-73896141D01*
X256445093Y-71020548D02*
X269413923Y-71020548D01*
X211671973Y-108882336D02*
X211408633Y-109028955D01*
X18915565Y-33015931D02*
X31884435Y-33015931D01*
X276347213Y-42483802D02*
X275648963Y-42297070D01*
X132577937Y-89874495D02*
X132841676Y-90022923D01*
X41400186Y-42297070D02*
X41165707Y-42297070D01*
X217941593Y-51604011D02*
X218089223Y-51867750D01*
X51236866Y-76207282D02*
X50972994Y-76062578D01*
X37419363Y-95556122D02*
X37419363Y-108523103D01*
X298415903Y-108611083D02*
X298415903Y-108523103D01*
X174487833Y-57054750D02*
X174402713Y-57054750D01*
X107979986Y-90021061D02*
X108244124Y-89872633D01*
X136397697Y-38052375D02*
X123428601Y-38052375D01*
X98891165Y-57463326D02*
X98742870Y-57199720D01*
X160935133Y-95473662D02*
X161081433Y-95209790D01*
X123340422Y-71020548D02*
X123428601Y-71020548D01*
X32382919Y-108611083D02*
X32382919Y-108523103D01*
X300257953Y-110685803D02*
X300154213Y-110803101D01*
X265594163Y-76207282D02*
X265447863Y-76471287D01*
X65922726Y-57463326D02*
X65922726Y-57551505D01*
X126982361Y-76057125D02*
X126896443Y-76057125D01*
X269500373Y-71018686D02*
X269763713Y-70870258D01*
X265858833Y-109025285D02*
X265946613Y-109025285D01*
X145984736Y-33014069D02*
X146248874Y-32865375D01*
X37129822Y-57551505D02*
X37129822Y-57463326D01*
X75570812Y-19194970D02*
X75423980Y-19458576D01*
X234288623Y-96170183D02*
X234288623Y-95512099D01*
X279001893Y-76062578D02*
X278915443Y-76062578D01*
X151579913Y-89872633D02*
X151844583Y-90021061D01*
X60737987Y-51869612D02*
X60886548Y-51604011D01*
X108392419Y-32601636D02*
X108392419Y-32513457D01*
X18417055Y-32601636D02*
X18563674Y-32865375D01*
X113839301Y-76057125D02*
X113575562Y-76201829D01*
X66333297Y-71020548D02*
X66421476Y-71020548D01*
X250909633Y-38549130D02*
X250909633Y-38460951D01*
X32031001Y-95059500D02*
X31955856Y-95059500D01*
X75423980Y-32601636D02*
X75570812Y-32865375D01*
X17454839Y-111290622D02*
X17308207Y-111233806D01*
X56832309Y-33014069D02*
X56920355Y-33014069D01*
X165399943Y-76465834D02*
X165250983Y-76201829D01*
X127246499Y-19194970D02*
X126982361Y-19050000D01*
X105029248Y-93477731D02*
X105176080Y-93213859D01*
X241409443Y-32513457D02*
X241409443Y-19546755D01*
X208587703Y-89872633D02*
X208851043Y-90021061D01*
X84925101Y-57551505D02*
X84925101Y-70518340D01*
X105029248Y-93567506D02*
X105029248Y-93477731D01*
X60886548Y-57463326D02*
X60737987Y-57199720D01*
X227589413Y-76201829D02*
X227443113Y-76465834D01*
X246467433Y-102042372D02*
X246467433Y-105871043D01*
X60474115Y-52016444D02*
X60737987Y-51867750D01*
X218352563Y-38052375D02*
X218089223Y-38197345D01*
X227941863Y-33015931D02*
X240910693Y-33015931D01*
X111847094Y-93213859D02*
X111995788Y-93477731D01*
X127246499Y-76201829D02*
X126982361Y-76057125D01*
X183904233Y-33015931D02*
X183989353Y-33015931D01*
X135811167Y-108530445D02*
X135811167Y-108618411D01*
X32031001Y-109025285D02*
X32256436Y-108876843D01*
X65922726Y-70518340D02*
X65922726Y-70606386D01*
X279709453Y-70518340D02*
X279709453Y-70606386D01*
X23578173Y-38052375D02*
X23314248Y-38197345D01*
X132431105Y-32601636D02*
X132577937Y-32867237D01*
X220767843Y-95064953D02*
X220688043Y-95064953D01*
X174752503Y-70872120D02*
X174900133Y-70606386D01*
X240910693Y-33015931D02*
X240997143Y-33015931D01*
X161433883Y-38052375D02*
X161344773Y-38052375D01*
X151844583Y-90021061D02*
X151932363Y-90021061D01*
X265858833Y-76062578D02*
X265594163Y-76207282D01*
X260411153Y-32601636D02*
X260411153Y-32513457D01*
X293526823Y-70870258D02*
X293673123Y-70606386D01*
X279265233Y-95204204D02*
X279001893Y-95059500D01*
X260411153Y-89528030D02*
X260411153Y-76559200D01*
X269912673Y-51515832D02*
X269912673Y-38549130D01*
X50300280Y-90026514D02*
X50886810Y-90026514D01*
X265447863Y-95468209D02*
X265447863Y-95556122D01*
X79390572Y-52016444D02*
X79476357Y-52016444D01*
X85072066Y-51869612D02*
X85335672Y-52018306D01*
X297857303Y-71020548D02*
X296939603Y-71020548D01*
X145984736Y-90022923D02*
X146248874Y-89874495D01*
X37917980Y-19050000D02*
X37829934Y-19050000D01*
X51385294Y-76471287D02*
X51236866Y-76207282D01*
X184401653Y-32601636D02*
X184401653Y-32513457D01*
X161081433Y-70870258D02*
X161344773Y-71018686D01*
X170846293Y-76057125D02*
X170582953Y-76201829D01*
X56421738Y-108611083D02*
X56548221Y-108876843D01*
X75423980Y-32601636D02*
X75570812Y-32867237D01*
X41400186Y-42297070D02*
X41165707Y-42297070D01*
X37791497Y-95059500D02*
X37725529Y-95059500D01*
X231495623Y-57054750D02*
X231409173Y-57054750D01*
X300738083Y-109393681D02*
X300732763Y-109547629D01*
X259896443Y-109025285D02*
X259986883Y-109025285D01*
X17914873Y-111378596D02*
X17759077Y-111360267D01*
X300442823Y-110432874D02*
X300357703Y-110564834D01*
X256357313Y-52016444D02*
X256445093Y-52016444D01*
X277810213Y-44688543D02*
X277810213Y-44455926D01*
X105524141Y-109028955D02*
X105434100Y-109028955D01*
X212492583Y-52016444D02*
X212757253Y-51867750D01*
X284948323Y-109025285D02*
X297918483Y-109025285D01*
X227443113Y-19546755D02*
X227443113Y-32513457D01*
X32256436Y-108875008D02*
X32382919Y-108611083D01*
X187592323Y-93069022D02*
X187856993Y-93213859D01*
X269912673Y-51604011D02*
X269912673Y-51515832D01*
X259980233Y-95059500D02*
X259896443Y-95059500D01*
X250497333Y-52016444D02*
X250762003Y-51867750D01*
X47331188Y-52018306D02*
X47419101Y-52018306D01*
X222406403Y-89520715D02*
X222406403Y-76553747D01*
X104074441Y-38197345D02*
X103927476Y-38460951D01*
X193404423Y-38052375D02*
X180435593Y-38052375D01*
X117893540Y-70606386D02*
X117893540Y-70518340D01*
X227589413Y-19194970D02*
X227443113Y-19458576D01*
X123076816Y-57199720D02*
X122929851Y-57463326D01*
X221908983Y-33014069D02*
X221994103Y-33014069D01*
X146248874Y-19194970D02*
X145984736Y-19050000D01*
X43463947Y-91874017D02*
X43727952Y-92020716D01*
X170435323Y-89608761D02*
X170582953Y-89872633D01*
X237090933Y-57199720D02*
X236944633Y-57463326D01*
X265858833Y-109023463D02*
X265946613Y-109023463D01*
X212904883Y-57463326D02*
X212757253Y-57199720D01*
X183904233Y-76057125D02*
X170934073Y-76057125D01*
X88977611Y-33015931D02*
X89241749Y-32867237D01*
X117395322Y-52018306D02*
X117481107Y-52018306D01*
X16774870Y-110905737D02*
X16659401Y-110803101D01*
X32234491Y-32865375D02*
X32382919Y-32601636D01*
X184401653Y-76465834D02*
X184254023Y-76201829D01*
X181443733Y-109028955D02*
X181180393Y-108882336D01*
X123340422Y-57054750D02*
X123076816Y-57199720D01*
X189584663Y-32865375D02*
X189849333Y-33014069D01*
X96516184Y-108523103D02*
X96516184Y-95556122D01*
X265946613Y-95059500D02*
X265858833Y-95059500D01*
X104338047Y-57054750D02*
X104074441Y-57199720D01*
X41165707Y-47086134D02*
X41400186Y-47086134D01*
X260411153Y-76559200D02*
X260411153Y-76471287D01*
X199438633Y-38052375D02*
X199349523Y-38052375D01*
X136895915Y-70606386D02*
X136895915Y-70518340D01*
X47067183Y-38197345D02*
X46920617Y-38460951D01*
X161344773Y-38052375D02*
X161081433Y-38197345D01*
X279855753Y-57199720D02*
X279709453Y-57463326D01*
X234134343Y-108911663D02*
X234156953Y-108891500D01*
X105176080Y-93213859D02*
X105439686Y-93069022D01*
X151579913Y-19194970D02*
X151433613Y-19458576D01*
X123428601Y-57054750D02*
X123340422Y-57054750D01*
X222258773Y-32865375D02*
X222406403Y-32601636D01*
X300738083Y-76502409D02*
X300738083Y-76597770D01*
X46920617Y-70606386D02*
X47067183Y-70870258D01*
X174487833Y-109028955D02*
X174402713Y-109028955D01*
X94573187Y-89872633D02*
X94836926Y-90021061D01*
X203404693Y-76465834D02*
X203255733Y-76201829D01*
X16082073Y-18534758D02*
X16100402Y-18379015D01*
X300738083Y-19213191D02*
X300738083Y-20692151D01*
X104338047Y-52018306D02*
X104426226Y-52018306D01*
X113428730Y-32513457D02*
X113428730Y-32601636D01*
X16897668Y-111004705D02*
X16774870Y-110905737D01*
X284597203Y-108875008D02*
X284860543Y-109023463D01*
X37419363Y-32513457D02*
X37419363Y-32601636D01*
X98891165Y-51515832D02*
X98891165Y-38549130D01*
X43727952Y-92020716D02*
X43815865Y-92020716D01*
X300738083Y-79238751D02*
X300738083Y-83531193D01*
X98392947Y-71018686D02*
X98478732Y-71018686D01*
X82559031Y-95556122D02*
X82559031Y-108523103D01*
X269912673Y-38549130D02*
X269912673Y-38460951D01*
X132929855Y-19050000D02*
X132841676Y-19050000D01*
X284449573Y-32608685D02*
X284449573Y-32680505D01*
X259218143Y-109023463D02*
X259896443Y-109023463D01*
X223588773Y-109023463D02*
X227302133Y-109023463D01*
X299360203Y-16793522D02*
X299506503Y-16848983D01*
X47331188Y-57054750D02*
X47067183Y-57199720D01*
X234134343Y-95167496D02*
X233910903Y-95059500D01*
X203404693Y-19546755D02*
X203404693Y-19458576D01*
X155399673Y-71018686D02*
X155486123Y-71018686D01*
X193404423Y-57054750D02*
X180435593Y-57054750D01*
X300583803Y-17928145D02*
X300639663Y-18076839D01*
X198939883Y-57551505D02*
X198939883Y-70518340D01*
X255946343Y-70518340D02*
X255946343Y-70606386D01*
X293174373Y-71018686D02*
X293262153Y-71018686D01*
X294886083Y-72598593D02*
X294886083Y-72769099D01*
X299914813Y-111004705D02*
X299783143Y-111092678D01*
X279265233Y-76207282D02*
X279001893Y-76062578D01*
X260259533Y-108871337D02*
X260411153Y-108600084D01*
X193754213Y-57199720D02*
X193490873Y-57054750D01*
X298415903Y-71018686D02*
X297857303Y-71018686D01*
X164901193Y-33015931D02*
X164987643Y-33015931D01*
X85335672Y-38052375D02*
X85072066Y-38197345D01*
X96367357Y-95204204D02*
X96103751Y-95059500D01*
X299054303Y-16720372D02*
X299208583Y-16751893D01*
X70239374Y-19194970D02*
X69975236Y-19050000D01*
X47067183Y-57199720D02*
X46920617Y-57463326D01*
X132431105Y-19458576D02*
X132431105Y-19546755D01*
X145898818Y-33014069D02*
X145984736Y-33014069D01*
X16131559Y-18225134D02*
X16173713Y-18076839D01*
X208938823Y-19050000D02*
X208851043Y-19050000D01*
X253437963Y-95061229D02*
X249686033Y-95063091D01*
X37829934Y-33015931D02*
X37917980Y-33015931D01*
X284567943Y-32894901D02*
X284782073Y-33014069D01*
X293174373Y-38052375D02*
X280206873Y-38052375D01*
X246855793Y-33014069D02*
X246943573Y-33014069D01*
X212904883Y-38460951D02*
X212757253Y-38197345D01*
X217941593Y-70518340D02*
X217941593Y-70606386D01*
X43605060Y-45619942D02*
X43793920Y-44921825D01*
X231907923Y-51604011D02*
X231907923Y-51515832D01*
X21937817Y-72446441D02*
X21584090Y-71751782D01*
X39706697Y-42997182D02*
X39193583Y-43757676D01*
X70387669Y-89520715D02*
X70387669Y-76553747D01*
X203255733Y-89872633D02*
X203404693Y-89608761D01*
X265858833Y-95059500D02*
X265594163Y-95204204D01*
X155486123Y-71018686D02*
X155749463Y-70870258D01*
X179936843Y-70606386D02*
X180084473Y-70870258D01*
X135662473Y-108882336D02*
X135398734Y-109028955D01*
X51077399Y-95059500D02*
X51013293Y-95059500D01*
X60886548Y-70518340D02*
X60886548Y-57551505D01*
X189937113Y-33014069D02*
X202905943Y-33014069D01*
X265779033Y-33014069D02*
X265853513Y-33014069D01*
X56857978Y-95059500D02*
X56779242Y-95059500D01*
X170582953Y-19194970D02*
X170435323Y-19458576D01*
X84925101Y-51515832D02*
X84925101Y-51604011D01*
X300154213Y-17279637D02*
X300257953Y-17395081D01*
X79740495Y-38197345D02*
X79476357Y-38052375D01*
X170435323Y-19458576D02*
X170435323Y-19546755D01*
X98742870Y-51869612D02*
X98891165Y-51604011D01*
X222258773Y-19194970D02*
X221994103Y-19050000D01*
X96103751Y-95059500D02*
X96017434Y-95059500D01*
X66333297Y-57054750D02*
X66069691Y-57199720D01*
X199349523Y-57054750D02*
X199086183Y-57199720D01*
X113428730Y-76465834D02*
X113428730Y-76553747D01*
X299208583Y-111330943D02*
X299054303Y-111360267D01*
X132577937Y-76201829D02*
X132431105Y-76465834D01*
X300738083Y-60089943D02*
X300738083Y-63680145D01*
X180435593Y-38052375D02*
X180347813Y-38052375D01*
X37133546Y-51604011D02*
X37133546Y-51515832D01*
X145898818Y-19050000D02*
X132929855Y-19050000D01*
X298011583Y-33015931D02*
X298082073Y-33015931D01*
X237354273Y-71018686D02*
X237443383Y-71018686D01*
X160935133Y-51515832D02*
X160935133Y-51604011D01*
X37566062Y-19194970D02*
X37419363Y-19458576D01*
X189849333Y-33015931D02*
X189937113Y-33015931D01*
X246467433Y-95486430D02*
X246467433Y-95578067D01*
X260263523Y-19194970D02*
X259998853Y-19050000D01*
X280119093Y-71020548D02*
X280206873Y-71020548D01*
X117395322Y-57054750D02*
X104426226Y-57054750D01*
X85335672Y-38052375D02*
X85072066Y-38197345D01*
X23167628Y-51604011D02*
X23314248Y-51867750D01*
X241409443Y-89608761D02*
X241409443Y-89520715D01*
X104426226Y-57054750D02*
X104338047Y-57054750D01*
X269500373Y-52016444D02*
X269763713Y-51867750D01*
X170435323Y-76553747D02*
X170435323Y-89520715D01*
X17454839Y-111290622D02*
X17308207Y-111233806D01*
X151932363Y-33015931D02*
X164901193Y-33015931D01*
X273023543Y-44921825D02*
X273209743Y-45619942D01*
X237443383Y-52018306D02*
X250412213Y-52018306D01*
X155898423Y-95561575D02*
X155898423Y-108530445D01*
X259998853Y-90026514D02*
X260263523Y-89879948D01*
X220448643Y-108891500D02*
X220689373Y-109023463D01*
X246592453Y-89879948D02*
X246855793Y-90026514D01*
X269912673Y-57551505D02*
X269912673Y-57463326D01*
X132431105Y-32513457D02*
X132431105Y-32601636D01*
X180347813Y-52016444D02*
X180435593Y-52016444D01*
X142430976Y-71018686D02*
X155399673Y-71018686D01*
X37129822Y-57463326D02*
X36983256Y-57199720D01*
X273209743Y-43757676D02*
X273023543Y-44455926D01*
X88977611Y-76057125D02*
X88891693Y-76057125D01*
X273209743Y-45619942D02*
X273723123Y-46382431D01*
X259980233Y-95059500D02*
X259896443Y-95059500D01*
X222258773Y-89872633D02*
X222406403Y-89608761D01*
X256093973Y-51867750D02*
X256357313Y-52016444D01*
X233837753Y-109025285D02*
X233916223Y-109025285D01*
X136397697Y-52016444D02*
X136483482Y-52016444D01*
X279001893Y-109025285D02*
X279265233Y-108876843D01*
X37725529Y-95059500D02*
X37527492Y-95204204D01*
X135398734Y-93069022D02*
X135662473Y-93213859D01*
X231409173Y-57054750D02*
X218440343Y-57054750D01*
X246980813Y-95064953D02*
X246889043Y-95064953D01*
X275182133Y-47086134D02*
X275416213Y-47086134D01*
X51275303Y-108875008D02*
X51385294Y-108611083D01*
X249686033Y-95063091D02*
X247656453Y-95064953D01*
X250762003Y-70870258D02*
X250909633Y-70606386D01*
X237090933Y-70870258D02*
X237354273Y-71018686D01*
X98891165Y-38460951D02*
X98742870Y-38197345D01*
X56421738Y-108523103D02*
X56421738Y-108611083D01*
X296462133Y-71020548D02*
X295951413Y-71158070D01*
X299506503Y-16848983D02*
X299647483Y-16912823D01*
X203255733Y-89874495D02*
X203404693Y-89608761D01*
X231015493Y-95059500D02*
X227302133Y-95061229D01*
X50300280Y-91523961D02*
X50300280Y-90026514D01*
X94573187Y-76201829D02*
X94426355Y-76465834D01*
X174487833Y-109028955D02*
X174402713Y-109028955D01*
X299783143Y-16989697D02*
X299914813Y-17077876D01*
X50972994Y-76062578D02*
X50886810Y-76062578D01*
X165399943Y-89608761D02*
X165399943Y-89520715D01*
X236944633Y-57551505D02*
X236944633Y-70518340D01*
X70383945Y-108611083D02*
X70383945Y-108523103D01*
X170846293Y-90022923D02*
X170934073Y-90022923D01*
X17165259Y-111169657D02*
X17029628Y-111092678D01*
X60886548Y-38460951D02*
X60737987Y-38197345D01*
X203404693Y-76465834D02*
X203255733Y-76201829D01*
X155898423Y-38549130D02*
X155898423Y-38460951D01*
X141932226Y-38460951D02*
X141932226Y-38549130D01*
X236944633Y-51515832D02*
X236944633Y-51604011D01*
X161081433Y-108882336D02*
X160935133Y-108618411D01*
X189584663Y-76201829D02*
X189438363Y-76465834D01*
X36635062Y-38052375D02*
X23666139Y-38052375D01*
X16173713Y-110005840D02*
X16131559Y-109855550D01*
X75834551Y-33015931D02*
X75922730Y-33015931D01*
X208851043Y-19050000D02*
X208587703Y-19194970D01*
X127394794Y-89520715D02*
X127394794Y-76553747D01*
X128974568Y-93213859D02*
X129238706Y-93069022D01*
X155749463Y-95209790D02*
X155898423Y-95473662D01*
X211408633Y-109028955D02*
X211322183Y-109028955D01*
X22060656Y-73218107D02*
X21937817Y-72446441D01*
X103927476Y-51515832D02*
X103927476Y-51604011D01*
X155399673Y-57054750D02*
X142430976Y-57054750D01*
X279414193Y-32608685D02*
X279414193Y-19452990D01*
X259998853Y-19050000D02*
X259913733Y-19050000D01*
X189438363Y-19546755D02*
X189438363Y-32513457D01*
X280206873Y-71018686D02*
X293174373Y-71018686D01*
X21584090Y-71751782D02*
X21032460Y-71200098D01*
X146397169Y-32601636D02*
X146397169Y-32513457D01*
X103927476Y-70518340D02*
X103927476Y-70606386D01*
X298415903Y-32680505D02*
X298415903Y-32608685D01*
X164901193Y-76057125D02*
X151932363Y-76057125D01*
X231495623Y-71020548D02*
X231758963Y-70872120D01*
X89390044Y-19458576D02*
X89241749Y-19194970D01*
X284860543Y-109023463D02*
X284948323Y-109023463D01*
X231758963Y-38197345D02*
X231495623Y-38052375D01*
X151433613Y-89520715D02*
X151433613Y-89608761D01*
X46920617Y-57551505D02*
X46920617Y-70518340D01*
X256357313Y-71018686D02*
X256445093Y-71018686D01*
X299647483Y-16912823D02*
X299783143Y-16989697D01*
X300738083Y-37993722D02*
X300738083Y-42540593D01*
X141932226Y-51515832D02*
X141932226Y-51604011D01*
X32234491Y-19194970D02*
X31970619Y-19050000D01*
X98742870Y-70872120D02*
X98891165Y-70606386D01*
X246889043Y-95064953D02*
X246616393Y-95215243D01*
X231495623Y-38052375D02*
X231409173Y-38052375D01*
X218089223Y-57199720D02*
X217941593Y-57463326D01*
X66069691Y-57199720D02*
X65922726Y-57463326D01*
X94426355Y-76553747D02*
X94426355Y-89520715D01*
X300583803Y-110156130D02*
X300519963Y-110295408D01*
X218440343Y-52016444D02*
X231409173Y-52016444D01*
X259998853Y-19050000D02*
X259913733Y-19050000D01*
X260411153Y-19458576D02*
X260263523Y-19194970D01*
X47419101Y-38052375D02*
X47331188Y-38052375D01*
X127246499Y-32867237D02*
X127394794Y-32601636D01*
X174487833Y-71020548D02*
X174752503Y-70872120D01*
X260411153Y-95574476D02*
X260411153Y-95482839D01*
X294886083Y-73049463D02*
X294886083Y-73896141D01*
X132431105Y-89520715D02*
X132431105Y-89608761D01*
X203255733Y-76201829D02*
X202992393Y-76057125D01*
X284860543Y-76062578D02*
X284597203Y-76207282D01*
X19502069Y-90026514D02*
X19502069Y-91523961D01*
X184401653Y-19546755D02*
X184401653Y-19458576D01*
X98891165Y-70606386D02*
X98891165Y-70518340D01*
X279709453Y-57463326D02*
X279709453Y-57551505D01*
X75423980Y-89520715D02*
X75423980Y-89608761D01*
X18417055Y-32513457D02*
X18417055Y-32601636D01*
X18563674Y-32865375D02*
X18827599Y-33014069D01*
X300738083Y-37993722D02*
X300738083Y-42540593D01*
X145984736Y-33015931D02*
X146248874Y-32867237D01*
X259284643Y-95059500D02*
X257189893Y-95059500D01*
X227443113Y-32513457D02*
X227443113Y-32601636D01*
X279080363Y-19050000D02*
X279008543Y-19050000D01*
X199086183Y-70872120D02*
X199349523Y-71020548D01*
X259986883Y-109023463D02*
X260259533Y-108871337D01*
X17759077Y-111360267D02*
X17605129Y-111330943D01*
X205248073Y-93069022D02*
X205335853Y-93069022D01*
X240997143Y-19050000D02*
X240910693Y-19050000D01*
X199349523Y-52016444D02*
X199438633Y-52016444D01*
X79740495Y-70870258D02*
X79888790Y-70606386D01*
X241409443Y-32601636D02*
X241409443Y-32513457D01*
X250412213Y-52016444D02*
X250497333Y-52016444D01*
X275648963Y-47086134D02*
X276347213Y-46897540D01*
X198939883Y-38549130D02*
X198939883Y-51515832D01*
X284860543Y-90026514D02*
X284948323Y-90026514D01*
X16554935Y-17395081D02*
X16659401Y-17279637D01*
X96516184Y-95468209D02*
X96367357Y-95204204D01*
X227854083Y-76057125D02*
X227589413Y-76201829D01*
X146397169Y-89608761D02*
X146397169Y-89520715D01*
X18417055Y-76058854D02*
X18417055Y-89528030D01*
X70255733Y-108875008D02*
X70383945Y-108611083D01*
X300738083Y-47150506D02*
X300738083Y-51697377D01*
X36719384Y-71018686D02*
X36983256Y-70870258D01*
X155749463Y-108882336D02*
X155486123Y-109028955D01*
X170435323Y-32513457D02*
X170435323Y-32601636D01*
X39193583Y-43757676D02*
X39006585Y-44455926D01*
X85423851Y-38052375D02*
X85335672Y-38052375D01*
X146248874Y-19194970D02*
X145984736Y-19050000D01*
X220316973Y-108651408D02*
X220448643Y-108891500D01*
X284449573Y-108611083D02*
X284597203Y-108875008D01*
X79888790Y-70606386D02*
X79888790Y-70518340D01*
X161433883Y-71020548D02*
X174402713Y-71020548D01*
X246467433Y-96236151D02*
X246467433Y-98213595D01*
X280206873Y-52018306D02*
X293174373Y-52018306D01*
X259913733Y-90026514D02*
X259998853Y-90026514D01*
X255946343Y-57551505D02*
X255946343Y-70518340D01*
X88891693Y-76057125D02*
X75922730Y-76057125D01*
X151433613Y-19546755D02*
X151433613Y-32513457D01*
X51385294Y-95468209D02*
X51275303Y-95204204D01*
X65922726Y-38460951D02*
X65922726Y-38549130D01*
X151433613Y-19458576D02*
X151433613Y-19546755D01*
X250497333Y-38052375D02*
X250412213Y-38052375D01*
X60886548Y-51604011D02*
X60886548Y-51515832D01*
X60886548Y-38549130D02*
X60886548Y-38460951D01*
X218352563Y-52016444D02*
X218440343Y-52016444D01*
X274483883Y-42483802D02*
X273723123Y-42997182D01*
X56920355Y-33015931D02*
X69889318Y-33015931D01*
X161081433Y-38197345D02*
X160935133Y-38460951D01*
X279414193Y-89616076D02*
X279414193Y-89528030D01*
X155399673Y-38052375D02*
X142430976Y-38052375D01*
X108392419Y-76465834D02*
X108244124Y-76201829D01*
X279294493Y-19167173D02*
X279080363Y-19050000D01*
X126982361Y-19050000D02*
X126896443Y-19050000D01*
X18417055Y-95556122D02*
X18417055Y-108523103D01*
X18827599Y-90026514D02*
X18915565Y-90026514D01*
X250412213Y-38052375D02*
X237443383Y-38052375D01*
X160935133Y-70606386D02*
X161081433Y-70872120D01*
X237443383Y-71020548D02*
X250412213Y-71020548D01*
X160935133Y-38460951D02*
X160935133Y-38549130D01*
X180347813Y-38052375D02*
X180084473Y-38197345D01*
X56832309Y-19050000D02*
X56568437Y-19194970D01*
X155486123Y-38052375D02*
X155399673Y-38052375D01*
X85335672Y-52016444D02*
X85423851Y-52016444D01*
X193754213Y-57199720D02*
X193490873Y-57054750D01*
X94573187Y-32867237D02*
X94836926Y-33015931D01*
X275648963Y-47086134D02*
X276347213Y-46897540D01*
X56421738Y-95468209D02*
X56421738Y-95556122D01*
X43727952Y-92020716D02*
X43815865Y-92020716D01*
X223588773Y-95063091D02*
X221471413Y-95064953D01*
X212904883Y-38460951D02*
X212757253Y-38197345D01*
X66069691Y-70870258D02*
X66333297Y-71018686D01*
X180084473Y-51867750D02*
X180347813Y-52016444D01*
X277810213Y-44455926D02*
X277621353Y-43757676D01*
X56421738Y-95468209D02*
X56421738Y-95556122D01*
X220316973Y-96173774D02*
X220316973Y-98147627D01*
X260411153Y-108600084D02*
X260411153Y-108510282D01*
X56779242Y-109023463D02*
X56857978Y-109023463D01*
X37419363Y-32513457D02*
X37419363Y-32601636D01*
X36719384Y-71020548D02*
X36983256Y-70872120D01*
X246467433Y-107850469D02*
X246467433Y-108510282D01*
X298415903Y-19452990D02*
X298415903Y-19381702D01*
X279855753Y-70872120D02*
X280119093Y-71020548D01*
X151433613Y-32601636D02*
X151579913Y-32865375D01*
X104338047Y-38052375D02*
X104074441Y-38197345D01*
X298897363Y-111378596D02*
X298741753Y-111385927D01*
X259998853Y-33014069D02*
X260263523Y-32865375D01*
X269413923Y-52016444D02*
X269500373Y-52016444D01*
X155898423Y-38460951D02*
X155749463Y-38197345D01*
X161344773Y-95064953D02*
X161433883Y-95064953D01*
X21937817Y-72446441D02*
X21584090Y-71751782D01*
X161081433Y-57199720D02*
X160935133Y-57463326D01*
X165399943Y-19458576D02*
X165250983Y-19194970D01*
X269763713Y-51869612D02*
X269912673Y-51604011D01*
X284449573Y-95468209D02*
X284449573Y-95556122D01*
X246943573Y-90026514D02*
X259913733Y-90026514D01*
X43317381Y-90026514D02*
X43317381Y-91523961D01*
X145984736Y-90021061D02*
X146248874Y-89872633D01*
X246855793Y-19050000D02*
X246592453Y-19194970D01*
X132431105Y-76465834D02*
X132431105Y-76553747D01*
X204983403Y-93213859D02*
X205248073Y-93069022D01*
X136895915Y-38549130D02*
X136895915Y-38460951D01*
X122929851Y-70518340D02*
X122929851Y-70606386D01*
X111995788Y-93477731D02*
X111995788Y-93567506D01*
X181035423Y-108030086D02*
X181038083Y-93567506D01*
X223588773Y-95063091D02*
X221471413Y-95064953D01*
X23167628Y-38460951D02*
X23167628Y-38549130D01*
X142079191Y-51867750D02*
X142342797Y-52016444D01*
X241409443Y-19458576D02*
X241260483Y-19194970D01*
X183904233Y-19050000D02*
X170934073Y-19050000D01*
X246467433Y-95578067D02*
X246467433Y-96236151D01*
X284449573Y-76471287D02*
X284449573Y-76559200D01*
X284567943Y-32896763D02*
X284782073Y-33015931D01*
X136895915Y-51515832D02*
X136895915Y-38549130D01*
X32382919Y-108611083D02*
X32382919Y-108523103D01*
X141932226Y-95561575D02*
X141932226Y-95473662D01*
X300738083Y-76502409D02*
X300738083Y-76597770D01*
X300738083Y-42540593D02*
X300738083Y-47150506D01*
X246444823Y-19458576D02*
X246444823Y-19546755D01*
X180347813Y-57054750D02*
X180084473Y-57199720D01*
X233144823Y-95059500D02*
X231015493Y-95059500D01*
X69975236Y-33014069D02*
X70239374Y-32865375D01*
X231907923Y-57551505D02*
X231907923Y-57463326D01*
X104426226Y-52018306D02*
X117395322Y-52018306D01*
X75570812Y-76201829D02*
X75423980Y-76465834D01*
X293262153Y-38052375D02*
X293174373Y-38052375D01*
X237090933Y-38197345D02*
X236944633Y-38460951D01*
X170846293Y-90021061D02*
X170934073Y-90021061D01*
X218352563Y-38052375D02*
X218089223Y-38197345D01*
X203255733Y-76201829D02*
X202992393Y-76057125D01*
X84925101Y-57551505D02*
X84925101Y-70518340D01*
X193754213Y-38197345D02*
X193490873Y-38052375D01*
X85072066Y-70872120D02*
X85335672Y-71020548D01*
X193490873Y-57054750D02*
X193404423Y-57054750D01*
X180084473Y-70870258D02*
X180347813Y-71018686D01*
X104074441Y-51869612D02*
X104338047Y-52018306D01*
X146397169Y-19458576D02*
X146248874Y-19194970D01*
X16292845Y-110295408D02*
X16228696Y-110156130D01*
X142079191Y-38197345D02*
X141932226Y-38460951D01*
X155399673Y-52016444D02*
X155486123Y-52016444D01*
X17454839Y-16793522D02*
X17605129Y-16751893D01*
X69975236Y-19050000D02*
X69889318Y-19050000D01*
X146248874Y-76201829D02*
X145984736Y-76057125D01*
X250497333Y-71018686D02*
X250762003Y-70870258D01*
X246467433Y-108600084D02*
X246616393Y-108873173D01*
X237354273Y-38052375D02*
X237090933Y-38197345D01*
X16076575Y-18692363D02*
X16082073Y-18534758D01*
X161344773Y-52018306D02*
X161433883Y-52018306D01*
X19502069Y-91523961D02*
X19502069Y-91610145D01*
X60737987Y-38197345D02*
X60474115Y-38052375D01*
X187504543Y-93069022D02*
X187592323Y-93069022D01*
X127394794Y-19546755D02*
X127394794Y-19458576D01*
X265858833Y-90026514D02*
X265946613Y-90026514D01*
X51236866Y-89879948D02*
X51385294Y-89616076D01*
X279414193Y-19381702D02*
X279294493Y-19167173D01*
X170934073Y-33015931D02*
X183904233Y-33015931D01*
X220689373Y-109025285D02*
X220770503Y-109025285D01*
X103927476Y-70518340D02*
X103927476Y-70606386D01*
X293673123Y-51604011D02*
X293673123Y-51515832D01*
X208440073Y-19546755D02*
X208440073Y-32513457D01*
X234156953Y-108891500D02*
X234176903Y-108869502D01*
X298003603Y-95059500D02*
X297918483Y-95059500D01*
X250909633Y-70518340D02*
X250909633Y-57551505D01*
X79888790Y-51515832D02*
X79888790Y-38549130D01*
X21032460Y-71200098D02*
X20337814Y-70846451D01*
X60737987Y-51867750D02*
X60886548Y-51604011D01*
X189849333Y-33014069D02*
X189937113Y-33014069D01*
X82559031Y-95468209D02*
X82559031Y-95556122D01*
X105434100Y-109028955D02*
X105170361Y-108882336D01*
X180435593Y-52016444D02*
X193404423Y-52016444D01*
X135811167Y-93567506D02*
X135811167Y-108530445D01*
X202905943Y-76057125D02*
X189937113Y-76057125D01*
X98392947Y-57054750D02*
X85423851Y-57054750D01*
X75570812Y-89872633D02*
X75834551Y-90021061D01*
X113839301Y-90022923D02*
X113927480Y-90022923D01*
X37829934Y-19050000D02*
X37566062Y-19194970D01*
X300738083Y-88859040D02*
X300738083Y-94603044D01*
X23167628Y-70518340D02*
X23167628Y-70606386D01*
X256445093Y-57054750D02*
X256357313Y-57054750D01*
X269912673Y-70606386D02*
X269912673Y-70518340D01*
X193903173Y-57463326D02*
X193754213Y-57199720D01*
X279709453Y-51515832D02*
X279709453Y-51604011D01*
X155898423Y-95561575D02*
X155898423Y-108530445D01*
X259896443Y-95059500D02*
X259284643Y-95059500D01*
X128828135Y-93567506D02*
X128828135Y-93477731D01*
X94426355Y-89520715D02*
X94426355Y-89608761D01*
X164987643Y-90022923D02*
X165250983Y-89874495D01*
X208938823Y-90022923D02*
X221908983Y-90022923D01*
X259218143Y-109025285D02*
X259896443Y-109025285D01*
X155898423Y-70518340D02*
X155898423Y-57551505D01*
X250909633Y-70606386D02*
X250909633Y-70518340D01*
X70239374Y-76201829D02*
X69975236Y-76057125D01*
X193404423Y-38052375D02*
X180435593Y-38052375D01*
X17308207Y-111233806D02*
X17165259Y-111169657D01*
X41633069Y-42297070D02*
X41400186Y-42297070D01*
X217941593Y-38460951D02*
X217941593Y-38549130D01*
X298011583Y-33014069D02*
X298082073Y-33014069D01*
X184254023Y-76201829D02*
X183989353Y-76057125D01*
X70387669Y-19458576D02*
X70239374Y-19194970D01*
X46920617Y-57551505D02*
X46920617Y-70518340D01*
X60387931Y-57054750D02*
X47419101Y-57054750D01*
X104426226Y-57054750D02*
X104338047Y-57054750D01*
X89390044Y-89608761D02*
X89390044Y-89520715D01*
X227302133Y-95061229D02*
X223588773Y-95063091D01*
X174487833Y-95064953D02*
X174752503Y-95209790D01*
X160935133Y-51604011D02*
X161081433Y-51867750D01*
X300680893Y-18225134D02*
X300712813Y-18379015D01*
X142079191Y-95209790D02*
X142342797Y-95064953D01*
X16659401Y-110803101D02*
X16554935Y-110685803D01*
X117395322Y-52016444D02*
X117481107Y-52016444D01*
X56421738Y-76465834D02*
X56421738Y-76553747D01*
X237090933Y-51867750D02*
X237354273Y-52016444D01*
X208440073Y-32601636D02*
X208587703Y-32867237D01*
X23167628Y-57551505D02*
X23167628Y-70518340D01*
X295395473Y-71533662D02*
X295021743Y-72089070D01*
X220316973Y-98147627D02*
X220316973Y-102042372D01*
X37129822Y-70518340D02*
X37129822Y-57551505D01*
X151433613Y-76553747D02*
X151433613Y-89520715D01*
X199438633Y-38052375D02*
X199349523Y-38052375D01*
X284449573Y-76471287D02*
X284449573Y-76559200D01*
X293673123Y-38549130D02*
X293673123Y-38460951D01*
X300738083Y-19213191D02*
X300738083Y-20692151D01*
X204837103Y-93567506D02*
X204837103Y-93477731D01*
X39006585Y-44921825D02*
X39193583Y-45619942D01*
X218089223Y-51867750D02*
X218352563Y-52016444D01*
X256445093Y-71018686D02*
X269413923Y-71018686D01*
X300738083Y-104872173D02*
X300738083Y-108160213D01*
X18767111Y-95059500D02*
X18541676Y-95204204D01*
X265853513Y-19050000D02*
X265779033Y-19050000D01*
X79888790Y-57463326D02*
X79740495Y-57199720D01*
X265946613Y-95059500D02*
X265858833Y-95059500D01*
X85423851Y-52016444D02*
X98392947Y-52016444D01*
X231907923Y-70518340D02*
X231907923Y-57551505D01*
X300038503Y-17176961D02*
X300154213Y-17279637D01*
X297918483Y-95059500D02*
X284948323Y-95059500D01*
X202992393Y-19050000D02*
X202905943Y-19050000D01*
X208440073Y-19458576D02*
X208440073Y-19546755D01*
X212407463Y-71020548D02*
X212492583Y-71020548D01*
X179936843Y-57551505D02*
X179936843Y-70518340D01*
X98392947Y-57054750D02*
X85423851Y-57054750D01*
X220316973Y-108651408D02*
X220448643Y-108891500D01*
X265946613Y-109023463D02*
X278915443Y-109023463D01*
X164987643Y-90021061D02*
X165250983Y-89872633D01*
X279265233Y-89879948D02*
X279414193Y-89616076D01*
X212492583Y-38052375D02*
X212407463Y-38052375D01*
X300738083Y-70584308D02*
X300582473Y-70864805D01*
X298003603Y-90026514D02*
X298268273Y-89879948D01*
X113428730Y-19546755D02*
X113428730Y-32513457D01*
X260260863Y-95207928D02*
X260235593Y-95184121D01*
X284449573Y-95556122D02*
X284449573Y-108523103D01*
X218089223Y-70872120D02*
X218352563Y-71020548D01*
X237354273Y-57054750D02*
X237090933Y-57199720D01*
X269912673Y-38460951D02*
X269763713Y-38197345D01*
X275648963Y-42297070D02*
X275416213Y-42297070D01*
X37133546Y-38549130D02*
X37133546Y-38460951D01*
X198939883Y-70518340D02*
X198939883Y-70606386D01*
X113927480Y-90022923D02*
X126896443Y-90022923D01*
X231409173Y-71020548D02*
X231495623Y-71020548D01*
X56857978Y-109025285D02*
X69949434Y-109025285D01*
X60886548Y-57551505D02*
X60886548Y-57463326D01*
X132431105Y-32601636D02*
X132577937Y-32865375D01*
X174900133Y-70518340D02*
X174900133Y-57551505D01*
X123428601Y-71020548D02*
X136397697Y-71020548D01*
X174900133Y-51515832D02*
X174900133Y-38549130D01*
X51385294Y-76559200D02*
X51385294Y-76471287D01*
X170582953Y-89872633D02*
X170846293Y-90021061D01*
X299360203Y-111290622D02*
X299208583Y-111330943D01*
X89390044Y-32601636D02*
X89390044Y-32513457D01*
X170934073Y-90021061D02*
X183904233Y-90021061D01*
X250909633Y-51604011D02*
X250909633Y-51515832D01*
X234288623Y-108645902D02*
X234288623Y-108572593D01*
X123428601Y-52018306D02*
X136397697Y-52018306D01*
X174900133Y-95561575D02*
X174900133Y-108530445D01*
X273023543Y-44688543D02*
X273023543Y-44921825D01*
X246943573Y-76062578D02*
X246855793Y-76062578D01*
X269500373Y-57054750D02*
X269413923Y-57054750D01*
X222406403Y-89608761D02*
X222406403Y-89520715D01*
X126896443Y-76057125D02*
X113927480Y-76057125D01*
X193490873Y-57054750D02*
X193404423Y-57054750D01*
X246980813Y-109025285D02*
X247656453Y-109025285D01*
X32382919Y-32601636D02*
X32382919Y-32513457D01*
X259913733Y-19050000D02*
X246943573Y-19050000D01*
X241409443Y-19458576D02*
X241260483Y-19194970D01*
X189438363Y-19458576D02*
X189438363Y-19546755D01*
X82705863Y-108876843D02*
X82969602Y-109025285D01*
X231758963Y-70870258D02*
X231907923Y-70606386D01*
X113839301Y-90021061D02*
X113927480Y-90021061D01*
X246889043Y-109025285D02*
X246980813Y-109025285D01*
X198939883Y-38549130D02*
X198939883Y-51515832D01*
X293174373Y-57054750D02*
X280206873Y-57054750D01*
X231907923Y-70606386D02*
X231907923Y-70518340D01*
X298082073Y-33014069D02*
X298297533Y-32894901D01*
X135811167Y-108530445D02*
X135811167Y-108618411D01*
X300295193Y-76062578D02*
X300578483Y-76218321D01*
X142342797Y-52016444D02*
X142430976Y-52016444D01*
X50972994Y-76062578D02*
X50886810Y-76062578D01*
X279001893Y-90026514D02*
X279265233Y-89879948D01*
X299506503Y-16848983D02*
X299647483Y-16912823D01*
X56548221Y-95204204D02*
X56421738Y-95468209D01*
X174402713Y-109028955D02*
X161433883Y-109028955D01*
X155486123Y-52018306D02*
X155749463Y-51869612D01*
X70024978Y-95059500D02*
X69949434Y-95059500D01*
X104074441Y-51867750D02*
X104338047Y-52016444D01*
X294886083Y-72598593D02*
X294886083Y-72769099D01*
X298415903Y-95556122D02*
X298415903Y-95468209D01*
X298415903Y-76062578D02*
X298415903Y-76062578D01*
X294886083Y-76057125D02*
X294886083Y-76057125D01*
X269500373Y-38052375D02*
X269413923Y-38052375D01*
X56421738Y-32513457D02*
X56421738Y-32601636D01*
X193490873Y-71020548D02*
X193754213Y-70872120D01*
X275416213Y-47086134D02*
X275648963Y-47086134D01*
X298003603Y-90026514D02*
X298268273Y-89879948D01*
X103927476Y-38460951D02*
X103927476Y-38549130D01*
X199086183Y-51867750D02*
X199349523Y-52016444D01*
X256093973Y-57199720D02*
X255946343Y-57463326D01*
X234288623Y-95512099D02*
X234288623Y-95431501D01*
X184401653Y-89520715D02*
X184401653Y-76553747D01*
X170435323Y-89608761D02*
X170582953Y-89874495D01*
X260411153Y-108510282D02*
X260411153Y-95574476D01*
X246943573Y-90026514D02*
X259913733Y-90026514D01*
X56548221Y-108876843D02*
X56779242Y-109025285D01*
X123428601Y-52016444D02*
X136397697Y-52016444D01*
X79476357Y-57054750D02*
X79390572Y-57054750D01*
X269763713Y-57199720D02*
X269500373Y-57054750D01*
X277810213Y-44921825D02*
X277810213Y-44688543D01*
X279008543Y-33014069D02*
X279080363Y-33014069D01*
X69975236Y-90022923D02*
X70239374Y-89874495D01*
X65922726Y-38460951D02*
X65922726Y-38549130D01*
X300200763Y-76062578D02*
X300295193Y-76062578D01*
X117745378Y-70870258D02*
X117893540Y-70606386D01*
X108392419Y-89608761D02*
X108392419Y-89520715D01*
X208440073Y-89608761D02*
X208587703Y-89874495D01*
X47419101Y-52018306D02*
X60387931Y-52018306D01*
X208440073Y-89520715D02*
X208440073Y-89608761D01*
X279414193Y-89528030D02*
X279414193Y-76559200D01*
X212904883Y-38549130D02*
X212904883Y-38460951D01*
X297918483Y-109025285D02*
X298003603Y-109025285D01*
X160935133Y-70518340D02*
X160935133Y-70606386D01*
X199349523Y-57054750D02*
X199086183Y-57199720D01*
X300738083Y-33639036D02*
X300738083Y-37993722D01*
X273023543Y-44921825D02*
X273209743Y-45619942D01*
X284782073Y-33014069D02*
X284855223Y-33014069D01*
X279414193Y-89616076D02*
X279414193Y-89528030D01*
X16774870Y-17176961D02*
X16897668Y-17077876D01*
X160935133Y-70518340D02*
X160935133Y-70606386D01*
X56421738Y-19546755D02*
X56421738Y-32513457D01*
X88891693Y-33015931D02*
X88977611Y-33015931D01*
X16219533Y-76201829D02*
X16483453Y-76057125D01*
X193903173Y-38460951D02*
X193754213Y-38197345D01*
X174900133Y-57463326D02*
X174752503Y-57199720D01*
X88977611Y-19050000D02*
X88891693Y-19050000D01*
X108392419Y-19546755D02*
X108392419Y-19458576D01*
X284449573Y-76559200D02*
X284449573Y-89528030D01*
X260411153Y-108510282D02*
X260411153Y-95574476D01*
X181035423Y-108618411D02*
X181035423Y-108530445D01*
X98742870Y-51867750D02*
X98891165Y-51604011D01*
X198939883Y-51604011D02*
X199086183Y-51867750D01*
X300038503Y-17176961D02*
X300154213Y-17279637D01*
X155749463Y-70870258D02*
X155898423Y-70606386D01*
X234288623Y-108572593D02*
X234288623Y-107912793D01*
X181449053Y-93069022D02*
X181536833Y-93069022D01*
X98891165Y-51604011D02*
X98891165Y-51515832D01*
X189849333Y-90022923D02*
X189937113Y-90022923D01*
X218352563Y-52018306D02*
X218440343Y-52018306D01*
X179936843Y-38460951D02*
X179936843Y-38549130D01*
X16554935Y-110685803D02*
X16455963Y-110564834D01*
X60387931Y-52018306D02*
X60474115Y-52018306D01*
X135398734Y-109028955D02*
X135312417Y-109028955D01*
X82705863Y-108875008D02*
X82969602Y-109023463D01*
X165399943Y-32601636D02*
X165399943Y-32513457D01*
X94426355Y-19458576D02*
X94426355Y-19546755D01*
X161433883Y-52018306D02*
X174402713Y-52018306D01*
X32234491Y-19194970D02*
X31970619Y-19050000D01*
X184254023Y-19194970D02*
X183989353Y-19050000D01*
X107979986Y-76057125D02*
X107894068Y-76057125D01*
X56421738Y-108611083D02*
X56548221Y-108875008D01*
X36721113Y-38052375D02*
X36635062Y-38052375D01*
X234134343Y-95167496D02*
X233910903Y-95059500D01*
X300738083Y-109393681D02*
X300732763Y-109547629D01*
X193903173Y-51515832D02*
X193903173Y-38549130D01*
X174752503Y-51869612D02*
X174900133Y-51604011D01*
X300212733Y-71018686D02*
X299922793Y-71018686D01*
X126982361Y-33014069D02*
X127246499Y-32865375D01*
X300738083Y-83531193D02*
X300738083Y-88859040D01*
X75922730Y-19050000D02*
X75834551Y-19050000D01*
X39006585Y-44688543D02*
X39006585Y-44921825D01*
X66069691Y-38197345D02*
X65922726Y-38460951D01*
X151932363Y-19050000D02*
X151844583Y-19050000D01*
X70387669Y-76465834D02*
X70239374Y-76201829D01*
X42331319Y-42483802D02*
X41633069Y-42297070D01*
X298297533Y-19167173D02*
X298082073Y-19050000D01*
X203404693Y-89520715D02*
X203404693Y-76553747D01*
X43793920Y-44921825D02*
X43793920Y-44688543D01*
X203404693Y-19546755D02*
X203404693Y-19458576D01*
X203404693Y-89608761D02*
X203404693Y-89520715D01*
X132431105Y-32513457D02*
X132431105Y-32601636D01*
X18767111Y-109023463D02*
X18844091Y-109023463D01*
X222406403Y-32601636D02*
X222406403Y-32513457D01*
X132929855Y-90022923D02*
X145898818Y-90022923D01*
X298415903Y-108611083D02*
X298415903Y-108523103D01*
X127394794Y-19546755D02*
X127394794Y-19458576D01*
X218352563Y-71020548D02*
X218440343Y-71020548D01*
X294886083Y-74957348D02*
X294886083Y-75747368D01*
X273723123Y-42997182D02*
X273209743Y-43757676D01*
X32031001Y-109023463D02*
X32256436Y-108875008D01*
X164901193Y-19050000D02*
X151932363Y-19050000D01*
X32234491Y-32867237D02*
X32382919Y-32601636D01*
X117481107Y-71018686D02*
X117745378Y-70870258D01*
X231907923Y-51515832D02*
X231907923Y-38549130D01*
X70239374Y-19194970D02*
X69975236Y-19050000D01*
X84925101Y-70606386D02*
X85072066Y-70872120D01*
X218440343Y-57054750D02*
X218352563Y-57054750D01*
X274483883Y-46897540D02*
X275182133Y-47086134D01*
X249686033Y-109025285D02*
X253437963Y-109025285D01*
X256445093Y-52018306D02*
X269413923Y-52018306D01*
X104426226Y-38052375D02*
X104338047Y-38052375D01*
X231758963Y-57199720D02*
X231495623Y-57054750D01*
X16292845Y-110295408D02*
X16228696Y-110156130D01*
X26485021Y-91523961D02*
X26485021Y-90026514D01*
X75570812Y-19194970D02*
X75423980Y-19458576D01*
X70383945Y-95468209D02*
X70255733Y-95204204D01*
X183904233Y-33014069D02*
X183989353Y-33014069D01*
X279001893Y-90026514D02*
X279265233Y-89879948D01*
X297918483Y-90026514D02*
X298003603Y-90026514D01*
X293174373Y-57054750D02*
X280206873Y-57054750D01*
X40467324Y-46897540D02*
X41165707Y-47086134D01*
X211408633Y-93069022D02*
X211671973Y-93213859D01*
X231495623Y-52016444D02*
X231758963Y-51867750D01*
X94836926Y-19050000D02*
X94573187Y-19194970D01*
X50972994Y-19050000D02*
X50886810Y-19050000D01*
X37566062Y-19194970D02*
X37419363Y-19458576D01*
X141932226Y-57463326D02*
X141932226Y-57551505D01*
X250497333Y-57054750D02*
X250412213Y-57054750D01*
X284860543Y-90026514D02*
X284948323Y-90026514D01*
X259896443Y-109023463D02*
X259986883Y-109023463D01*
X189849333Y-76057125D02*
X189584663Y-76201829D01*
X104074441Y-57199720D02*
X103927476Y-57463326D01*
X279414193Y-76471287D02*
X279265233Y-76207282D01*
X246592453Y-32865375D02*
X246855793Y-33014069D01*
X136397697Y-71018686D02*
X136483482Y-71018686D01*
X98891165Y-51604011D02*
X98891165Y-51515832D01*
X259986883Y-109025285D02*
X260259533Y-108873173D01*
X142342797Y-71020548D02*
X142430976Y-71020548D01*
X132577937Y-76201829D02*
X132431105Y-76465834D01*
X23314248Y-70870258D02*
X23578173Y-71018686D01*
X113428730Y-89608761D02*
X113575562Y-89872633D01*
X75423980Y-76465834D02*
X75423980Y-76553747D01*
X220316973Y-108572593D02*
X220316973Y-108651408D01*
X135398734Y-109028955D02*
X135312417Y-109028955D01*
X113428730Y-89520715D02*
X113428730Y-89608761D01*
X240997143Y-19050000D02*
X240910693Y-19050000D01*
X174752503Y-95209790D02*
X174900133Y-95473662D01*
X217941593Y-70518340D02*
X217941593Y-70606386D01*
X279265233Y-108876843D02*
X279414193Y-108611083D01*
X255946343Y-57551505D02*
X255946343Y-70518340D01*
X231907923Y-57551505D02*
X231907923Y-57463326D01*
X37419363Y-108523103D02*
X37419363Y-108611083D01*
X127246499Y-89872633D02*
X127394794Y-89608761D01*
X117893540Y-57463326D02*
X117745378Y-57199720D01*
X60387931Y-52016444D02*
X60474115Y-52016444D01*
X237354273Y-52016444D02*
X237443383Y-52016444D01*
X88891693Y-19050000D02*
X75922730Y-19050000D01*
X19648688Y-91874017D02*
X19912613Y-92020716D01*
X227443113Y-19458576D02*
X227443113Y-19546755D01*
X221908983Y-76057125D02*
X208938823Y-76057125D01*
X183989353Y-33014069D02*
X184254023Y-32865375D01*
X199349523Y-71018686D02*
X199438633Y-71018686D01*
X89241749Y-19194970D02*
X88977611Y-19050000D01*
X108244124Y-19194970D02*
X107979986Y-19050000D01*
X145898818Y-90021061D02*
X145984736Y-90021061D01*
X82705863Y-95204204D02*
X82559031Y-95468209D01*
X231758963Y-51867750D02*
X231907923Y-51604011D01*
X198939883Y-57463326D02*
X198939883Y-57551505D01*
X51385294Y-19546755D02*
X51385294Y-19458576D01*
X227443113Y-19458576D02*
X227443113Y-19546755D01*
X31955856Y-95059500D02*
X18844091Y-95059500D01*
X298741753Y-16696432D02*
X298897363Y-16704013D01*
X220316973Y-95435092D02*
X220316973Y-95515823D01*
X23314248Y-51867750D02*
X23578173Y-52016444D01*
X79888790Y-57463326D02*
X79740495Y-57199720D01*
X256093973Y-38197345D02*
X255946343Y-38460951D01*
X104074441Y-70870258D02*
X104338047Y-71018686D01*
X193903173Y-70606386D02*
X193903173Y-70518340D01*
X155399673Y-95064953D02*
X155486123Y-95064953D01*
X265447863Y-19381702D02*
X265447863Y-19452990D01*
X98891165Y-38549130D02*
X98891165Y-38460951D01*
X293526823Y-38197345D02*
X293262153Y-38052375D01*
X299054303Y-16720372D02*
X299208583Y-16751893D01*
X146397169Y-32601636D02*
X146397169Y-32513457D01*
X300738083Y-69008125D02*
X300738083Y-70120670D01*
X181038083Y-93477731D02*
X181185713Y-93213859D01*
X208938823Y-33015931D02*
X221908983Y-33015931D01*
X241409443Y-19546755D02*
X241409443Y-19458576D01*
X122929851Y-38460951D02*
X122929851Y-38549130D01*
X113927480Y-76057125D02*
X113839301Y-76057125D01*
X79476357Y-52018306D02*
X79740495Y-51869612D01*
X47067183Y-57199720D02*
X46920617Y-57463326D01*
X193754213Y-51869612D02*
X193903173Y-51604011D01*
X32382919Y-32513457D02*
X32382919Y-19546755D01*
X259913733Y-76062578D02*
X246943573Y-76062578D01*
X174402713Y-95064953D02*
X174487833Y-95064953D01*
X60737987Y-57199720D02*
X60474115Y-57054750D01*
X132929855Y-33015931D02*
X145898818Y-33015931D01*
X256445093Y-52016444D02*
X269413923Y-52016444D01*
X265853513Y-33014069D02*
X279008543Y-33014069D01*
X174487833Y-95064953D02*
X174752503Y-95209790D01*
X198939883Y-57551505D02*
X198939883Y-70518340D01*
X142079191Y-38197345D02*
X141932226Y-38460951D01*
X56548221Y-108875008D02*
X56779242Y-109023463D01*
X123428601Y-38052375D02*
X123340422Y-38052375D01*
X246444823Y-89528030D02*
X246444823Y-89616076D01*
X160935133Y-108618411D02*
X160935133Y-108530445D01*
X300578483Y-76218321D02*
X300738083Y-76502409D01*
X98742870Y-57199720D02*
X98478732Y-57054750D01*
X222406403Y-19458576D02*
X222258773Y-19194970D01*
X277810213Y-44455926D02*
X277621353Y-43757676D01*
X94836926Y-90021061D02*
X94925105Y-90021061D01*
X189937113Y-76057125D02*
X189849333Y-76057125D01*
X250909633Y-57463326D02*
X250762003Y-57199720D01*
X94426355Y-76465834D02*
X94426355Y-76553747D01*
X298415903Y-95556122D02*
X298415903Y-95468209D01*
X19912613Y-92020716D02*
X20000579Y-92020716D01*
X233144823Y-95059500D02*
X231015493Y-95059500D01*
X142430976Y-109028955D02*
X142342797Y-109028955D01*
X60886548Y-57463326D02*
X60737987Y-57199720D01*
X37129822Y-57463326D02*
X36983256Y-57199720D01*
X161344773Y-109028955D02*
X161081433Y-108882336D01*
X79888790Y-38549130D02*
X79888790Y-38460951D01*
X146248874Y-89874495D02*
X146397169Y-89608761D01*
X189438363Y-76465834D02*
X189438363Y-76553747D01*
X165399943Y-76553747D02*
X165399943Y-76465834D01*
X142430976Y-109028955D02*
X142342797Y-109028955D01*
X136895915Y-51515832D02*
X136895915Y-38549130D01*
X23666139Y-57054750D02*
X23578173Y-57054750D01*
X146397169Y-89520715D02*
X146397169Y-76553747D01*
X265447863Y-32608685D02*
X265447863Y-32680505D01*
X145898818Y-33015931D02*
X145984736Y-33015931D01*
X66333297Y-52016444D02*
X66421476Y-52016444D01*
X227589413Y-76201829D02*
X227443113Y-76465834D01*
X51385294Y-108611083D02*
X51385294Y-108523103D01*
X256093973Y-57199720D02*
X255946343Y-57463326D01*
X279709453Y-51604011D02*
X279855753Y-51869612D01*
X123076816Y-38197345D02*
X122929851Y-38460951D01*
X198939883Y-38460951D02*
X198939883Y-38549130D01*
X300732763Y-109547629D02*
X300712813Y-109703425D01*
X113839301Y-19050000D02*
X113575562Y-19194970D01*
X265594163Y-95204204D02*
X265447863Y-95468209D01*
X208440073Y-76553747D02*
X208440073Y-89520715D01*
X47419101Y-38052375D02*
X47331188Y-38052375D01*
X18417055Y-108523103D02*
X18417055Y-108611083D01*
X155898423Y-57551505D02*
X155898423Y-57463326D01*
X246980813Y-109023463D02*
X247656453Y-109023463D01*
X69889318Y-33015931D02*
X69975236Y-33015931D01*
X46920617Y-38549130D02*
X46920617Y-51515832D01*
X300732763Y-109547629D02*
X300712813Y-109703425D01*
X111995788Y-93567506D02*
X111995788Y-95064953D01*
X75834551Y-76057125D02*
X75570812Y-76201829D01*
X227941863Y-90022923D02*
X240910693Y-90022923D01*
X279709453Y-57551505D02*
X279709453Y-70518340D01*
X145984736Y-76057125D02*
X145898818Y-76057125D01*
X41165707Y-42297070D02*
X40467324Y-42483802D01*
X279080363Y-19050000D02*
X279008543Y-19050000D01*
X103927476Y-38549130D02*
X103927476Y-51515832D01*
X231758963Y-51869612D02*
X231907923Y-51604011D01*
X241409443Y-19546755D02*
X241409443Y-19458576D01*
X23666139Y-52018306D02*
X36635062Y-52018306D01*
X47331188Y-38052375D02*
X47067183Y-38197345D01*
X155898423Y-51515832D02*
X155898423Y-38549130D01*
X220316973Y-95515823D02*
X220316973Y-96173774D01*
X161344773Y-109028955D02*
X161081433Y-108882336D01*
X300578483Y-76218321D02*
X300738083Y-76502409D01*
X60737987Y-57199720D02*
X60474115Y-57054750D01*
X113927480Y-33014069D02*
X126896443Y-33014069D01*
X56568437Y-32865375D02*
X56832309Y-33014069D01*
X208938823Y-76057125D02*
X208851043Y-76057125D01*
X94426355Y-89520715D02*
X94426355Y-89608761D01*
X279414193Y-108523103D02*
X279414193Y-95556122D01*
X37133546Y-38460951D02*
X36985118Y-38197345D01*
X181534173Y-109028955D02*
X181443733Y-109028955D01*
X222406403Y-32513457D02*
X222406403Y-19546755D01*
X193404423Y-52016444D02*
X193490873Y-52016444D01*
X212904883Y-51515832D02*
X212904883Y-38549130D01*
X246943573Y-76062578D02*
X246855793Y-76062578D01*
X123428601Y-71018686D02*
X136397697Y-71018686D01*
X108392419Y-76553747D02*
X108392419Y-76465834D01*
X19568037Y-70725421D02*
X16573262Y-70725421D01*
X161344773Y-95064953D02*
X161433883Y-95064953D01*
X31884435Y-19050000D02*
X18915565Y-19050000D01*
X136895915Y-38460951D02*
X136747620Y-38197345D01*
X227941863Y-19050000D02*
X227854083Y-19050000D01*
X227589413Y-32867237D02*
X227854083Y-33015931D01*
X187504543Y-93069022D02*
X187592323Y-93069022D01*
X96367357Y-95204204D02*
X96103751Y-95059500D01*
X203255733Y-32865375D02*
X203404693Y-32601636D01*
X259913733Y-76062578D02*
X246943573Y-76062578D01*
X284860543Y-95059500D02*
X284597203Y-95204204D01*
X269912673Y-38549130D02*
X269912673Y-38460951D01*
X296632373Y-71020548D02*
X296462133Y-71020548D01*
X17914873Y-16704013D02*
X18070656Y-16694570D01*
X220448643Y-108891500D02*
X220689373Y-109025285D01*
X246444823Y-76559200D02*
X246444823Y-89528030D01*
X279414193Y-108611083D02*
X279414193Y-108523103D01*
X75922730Y-90021061D02*
X88891693Y-90021061D01*
X88891693Y-90021061D02*
X88977611Y-90021061D01*
X18844091Y-109023463D02*
X31955856Y-109023463D01*
X136895915Y-38549130D02*
X136895915Y-38460951D01*
X246855793Y-76062578D02*
X246592453Y-76207282D01*
X132431105Y-19458576D02*
X132431105Y-19546755D01*
X174900133Y-38460951D02*
X174752503Y-38197345D01*
X16074742Y-109393681D02*
X16074742Y-76553747D01*
X94426355Y-32513457D02*
X94426355Y-32601636D01*
X123340422Y-71018686D02*
X123428601Y-71018686D01*
X284855223Y-19050000D02*
X284782073Y-19050000D01*
X141932226Y-95561575D02*
X141932226Y-95473662D01*
X51236866Y-89879948D02*
X51385294Y-89616076D01*
X84925101Y-51515832D02*
X84925101Y-51604011D01*
X208440073Y-76465834D02*
X208440073Y-76553747D01*
X284597203Y-89879948D02*
X284860543Y-90026514D01*
X212904883Y-51604011D02*
X212904883Y-51515832D01*
X160935133Y-51604011D02*
X161081433Y-51869612D01*
X16369824Y-17649909D02*
X16455963Y-17517574D01*
X51236866Y-76207282D02*
X50972994Y-76062578D01*
X260235593Y-95184121D02*
X259980233Y-95059500D01*
X132929855Y-76057125D02*
X132841676Y-76057125D01*
X231907923Y-38549130D02*
X231907923Y-38460951D01*
X123340422Y-57054750D02*
X123076816Y-57199720D01*
X96516184Y-95556122D02*
X96516184Y-95468209D01*
X188005953Y-93477731D02*
X188005953Y-93567506D01*
X107979986Y-19050000D02*
X107894068Y-19050000D01*
X51236866Y-32867237D02*
X51385294Y-32601636D01*
X208938823Y-76057125D02*
X208851043Y-76057125D01*
X46920617Y-51604011D02*
X47067183Y-51867750D01*
X128828135Y-95064953D02*
X128828135Y-93567506D01*
X60886548Y-70606386D02*
X60886548Y-70518340D01*
X240997143Y-33015931D02*
X241260483Y-32867237D01*
X69975236Y-19050000D02*
X69889318Y-19050000D01*
X189584663Y-19194970D02*
X189438363Y-19458576D01*
X220316973Y-96173774D02*
X220316973Y-98147627D01*
X293174373Y-52018306D02*
X293262153Y-52018306D01*
X284948323Y-95059500D02*
X284860543Y-95059500D01*
X165399943Y-32513457D02*
X165399943Y-19546755D01*
X136483482Y-57054750D02*
X136397697Y-57054750D01*
X269912673Y-57463326D02*
X269763713Y-57199720D01*
X46920617Y-70518340D02*
X46920617Y-70606386D01*
X233131523Y-109025285D02*
X233837753Y-109025285D01*
X60387931Y-38052375D02*
X47419101Y-38052375D01*
X69975236Y-76057125D02*
X69889318Y-76057125D01*
X141932226Y-108618411D02*
X141932226Y-108530445D01*
X170582953Y-32865375D02*
X170846293Y-33014069D01*
X284855223Y-33015931D02*
X298011583Y-33015931D01*
X142430976Y-95064953D02*
X155399673Y-95064953D01*
M02*
